<svg width="25" height="24" viewBox="0 0 25 24" fill="none" xmlns="http://www.w3.org/2000/svg">
<path d="M11.0999 12.7103C11.0061 12.6173 10.9317 12.5067 10.881 12.3849C10.8302 12.263 10.8041 12.1323 10.8041 12.0003C10.8041 11.8683 10.8302 11.7376 10.881 11.6157C10.9317 11.4939 11.0061 11.3833 11.0999 11.2903L15.6899 6.7103C15.7836 6.61734 15.858 6.50674 15.9088 6.38488C15.9595 6.26302 15.9857 6.13232 15.9857 6.0003C15.9857 5.86829 15.9595 5.73759 15.9088 5.61573C15.858 5.49387 15.7836 5.38327 15.6899 5.2903C15.5025 5.10405 15.249 4.99951 14.9849 4.99951C14.7207 4.99951 14.4672 5.10405 14.2799 5.2903L9.68986 9.8803C9.12806 10.4428 8.8125 11.2053 8.8125 12.0003C8.8125 12.7953 9.12806 13.5578 9.68986 14.1203L14.2799 18.7103C14.4661 18.895 14.7175 18.9992 14.9799 19.0003C15.1115 19.0011 15.2419 18.9758 15.3638 18.9261C15.4856 18.8763 15.5964 18.803 15.6899 18.7103C15.7836 18.6173 15.858 18.5067 15.9088 18.3849C15.9595 18.263 15.9857 18.1323 15.9857 18.0003C15.9857 17.8683 15.9595 17.7376 15.9088 17.6157C15.858 17.4939 15.7836 17.3833 15.6899 17.2903L11.0999 12.7103Z" fill="#A6CC00"/>
</svg>
