<svg width="26" height="26" viewBox="0 0 26 26" fill="none" xmlns="http://www.w3.org/2000/svg">
<circle cx="13" cy="13" r="12" fill="#E2FF66"/>
<path d="M25.0363 13.2438L25.3554 13.1963L25.0363 13.2438ZM25.0545 13.3657L24.7354 13.4133L25.0545 13.3657ZM25.0927 13.6114L24.7742 13.6629L25.0927 13.6114ZM25.1327 13.859L25.4511 13.8076L25.1327 13.859ZM25.0898 14.099L25.3736 14.2524L25.0898 14.099ZM25.027 14.2152L24.7433 14.0617L25.027 14.2152ZM24.9642 14.3313L25.248 14.4848L24.9642 14.3313ZM24.888 14.5677L25.2086 14.6033L24.888 14.5677ZM24.8613 14.808L24.5407 14.7723L24.8613 14.808ZM24.8564 15.0532L25.1782 15.0314L24.8564 15.0532ZM24.8734 15.3034L24.5515 15.3253L24.8734 15.3034ZM24.7855 15.5307L25.0202 15.752L24.7855 15.5307ZM24.5927 15.7352L24.358 15.5139L24.5927 15.7352ZM24.5464 15.9761L24.243 16.0858L24.5464 15.9761ZM24.6467 16.2536L24.3433 16.3632L24.6467 16.2536ZM24.63 16.4994L24.3563 16.3287L24.63 16.4994ZM24.4964 16.7136L24.7701 16.8843L24.4964 16.7136ZM24.4038 16.9407L24.0885 16.8728L24.4038 16.9407ZM24.3521 17.1808L24.6675 17.2487L24.3521 17.1808ZM24.2464 17.3995L24.497 17.6025L24.2464 17.3995ZM24.0866 17.5966L23.836 17.3936L24.0866 17.5966ZM24.0067 17.8287L24.3293 17.8288L24.0067 17.8287ZM24.0067 17.9623L23.6841 17.9622L24.0067 17.9623ZM23.9053 18.3148L24.1134 18.5613L23.9053 18.3148ZM23.804 18.4002L23.596 18.1537L23.804 18.4002ZM23.7028 18.4857L23.9108 18.7322L23.7028 18.4857ZM23.5157 18.661L23.2825 18.4381L23.5157 18.661ZM23.4299 18.7507L23.6631 18.9736L23.4299 18.7507ZM23.3441 18.8405L23.1109 18.6177L23.3441 18.8405ZM23.1911 19.029L22.9245 18.8474L23.1911 19.029ZM23.1239 19.1278L23.3905 19.3093L23.1239 19.1278ZM23.0566 19.2265L23.3232 19.4081L23.0566 19.2265ZM22.9619 19.4511L22.6467 19.3823L22.9619 19.4511ZM22.9069 19.7029L23.222 19.7717L22.9069 19.7029ZM22.8096 19.9277L23.0732 20.1136L22.8096 19.9277ZM22.6701 20.1256L22.4064 19.9397L22.6701 20.1256ZM22.5598 20.3479L22.8663 20.4485L22.5598 20.3479ZM22.4788 20.5946L22.7854 20.6952L22.4788 20.5946ZM22.3368 20.7921L22.1466 20.5316L22.3368 20.7921ZM22.2352 20.8663L22.4254 21.1268L22.2352 20.8663ZM22.1337 20.9404L22.3239 21.2009L22.1337 20.9404ZM21.9326 21.0877L22.1238 21.3476L21.9326 21.0877ZM21.7337 21.234L21.5426 20.9741L21.7337 21.234ZM21.5832 21.4284L21.2859 21.3034L21.5832 21.4284ZM21.5322 21.5497L21.8295 21.6748L21.5322 21.5497ZM21.4812 21.671L21.1838 21.5459L21.4812 21.671ZM21.339 21.8744L21.555 22.114L21.339 21.8744ZM21.2478 21.9566L21.4638 22.1962L21.2478 21.9566ZM21.1566 22.0388L20.9406 21.7993L21.1566 22.0388ZM20.9582 22.1836L20.7956 21.905L20.9582 22.1836ZM20.8509 22.2463L20.6883 21.9677L20.8509 22.2463ZM20.7436 22.3089L20.9062 22.5875L20.7436 22.3089ZM20.4991 22.3916L20.5458 22.7108L20.4991 22.3916ZM20.2245 22.4318L20.1778 22.1126L20.2245 22.4318ZM19.9591 22.6855L19.6763 22.5305L19.9591 22.6855ZM19.8951 22.8023L20.178 22.9574L19.8951 22.8023ZM19.7385 22.9998L19.5266 22.7566L19.7385 22.9998ZM19.6459 23.0805L19.8578 23.3237L19.6459 23.0805ZM19.5533 23.1612L19.3414 22.9179L19.5533 23.1612ZM19.3553 23.3032L19.5176 23.582L19.3553 23.3032ZM19.1444 23.4261L18.9821 23.1473L19.1444 23.4261ZM18.9059 23.4964L18.8844 23.1745L18.9059 23.4964ZM18.7729 23.5053L18.7513 23.1834L18.7729 23.5053ZM18.6399 23.5142L18.6615 23.8361L18.6399 23.5142ZM18.4284 23.6371L18.6941 23.82L18.4284 23.6371ZM18.3499 23.751L18.6156 23.934L18.3499 23.751ZM18.2715 23.865L18.0058 23.6821L18.2715 23.865ZM18.0552 23.9676L18.0286 24.289L18.0552 23.9676ZM17.7795 23.9448L17.806 23.6233L17.7795 23.9448ZM17.5444 24.0144L17.7509 24.2622L17.5444 24.0144ZM17.3499 24.1766L17.1433 23.9288L17.3499 24.1766ZM17.124 24.2551L17.1175 24.5776L17.124 24.2551ZM16.8668 24.2499L16.8733 23.9273L16.8668 24.2499ZM16.6331 24.3137L16.8054 24.5864L16.6331 24.3137ZM16.4228 24.4466L16.2505 24.1739L16.4228 24.4466ZM16.1949 24.5191L16.1789 24.1969L16.1949 24.5191ZM15.9493 24.5313L15.9653 24.8535L15.9493 24.5313ZM15.7087 24.559L15.6504 24.2418L15.7087 24.559ZM15.5909 24.5807L15.6492 24.898L15.5909 24.5807ZM15.2417 24.6699L15.1208 24.3708L15.2417 24.6699ZM15.0144 24.7617L15.1352 25.0608L15.0144 24.7617ZM14.7854 24.8579L14.6565 24.5622L14.7854 24.8579ZM14.5547 24.9584L14.6836 25.2542L14.5547 24.9584ZM14.3156 24.9881L14.2627 25.3063L14.3156 24.9881ZM14.0679 24.9469L14.015 25.2651L14.0679 24.9469ZM13.8239 24.9379L13.8548 25.259L13.8239 24.9379ZM13.5834 24.9611L13.6143 25.2822L13.5834 24.9611ZM13.3421 24.9826L13.3684 25.3041L13.3421 24.9826ZM13.2212 24.9925L13.2474 25.314L13.2212 24.9925ZM13.1002 25.0024L13.0739 24.6809L13.1002 25.0024ZM12.8587 24.9926L12.8069 25.311L12.8587 24.9926ZM12.6178 24.9534L12.6697 24.635L12.6178 24.9534ZM12.3789 24.9049L12.3026 25.2184L12.3789 24.9049ZM12.2604 24.8761L12.3367 24.5627L12.2604 24.8761ZM12.1419 24.8473L12.2182 24.5338L12.1419 24.8473ZM11.9027 24.821L11.9096 25.1435L11.9027 24.821ZM11.6613 24.8261L11.6544 24.5036L11.6613 24.8261ZM11.4187 24.8304L11.423 25.1529L11.4187 24.8304ZM11.2967 24.832L11.2924 24.5095L11.2967 24.832ZM11.1748 24.8337L11.1792 25.1562L11.1748 24.8337ZM10.942 24.775L10.788 25.0585L10.942 24.775ZM10.7201 24.6545L10.8742 24.371L10.7201 24.6545ZM10.4826 24.6091L10.5202 24.9294L10.4826 24.6091ZM10.3559 24.6239L10.3183 24.3036L10.3559 24.6239ZM10.2293 24.6388L10.1916 24.3185L10.2293 24.6388ZM9.9754 24.6577L9.98547 24.9801L9.9754 24.6577ZM9.84818 24.6617L9.8381 24.3392L9.84818 24.6617ZM9.72095 24.6656L9.73102 24.9881L9.72095 24.6656ZM9.5011 24.5607L9.74682 24.3517L9.5011 24.5607ZM9.40847 24.4518L9.16274 24.6608L9.40847 24.4518ZM9.31583 24.3429L9.07011 24.5519L9.31583 24.3429ZM9.08618 24.2581L9.03013 23.9405L9.08618 24.2581ZM8.81213 24.3065L8.86818 24.6242L8.81213 24.3065ZM8.58059 24.2411L8.80244 24.0069L8.58059 24.2411ZM8.39155 24.062L8.1697 24.2962L8.39155 24.062ZM8.19303 23.9112L8.35685 23.6333L8.19303 23.9112ZM8.08903 23.8499L7.9252 24.1278L8.08903 23.8499ZM7.98503 23.7886L7.8212 24.0664L7.98503 23.7886ZM7.74679 23.7248L7.74103 24.0474L7.74679 23.7248ZM7.47831 23.7201L7.48407 23.3975L7.47831 23.7201ZM7.24358 23.6475L7.42818 23.383L7.24358 23.6475ZM7.14309 23.5774L7.32769 23.3129L7.14309 23.5774ZM7.0426 23.5073L6.858 23.7718L7.0426 23.5073ZM6.83083 23.3855L6.96667 23.0929L6.83083 23.3855ZM6.60829 23.2822L6.47245 23.5748L6.60829 23.2822ZM6.39446 23.1641L6.21905 23.4348L6.39446 23.1641ZM6.18932 23.0312L6.36473 22.7604L6.18932 23.0312ZM6.0209 22.8492L5.74067 23.009L6.0209 22.8492ZM5.95504 22.7337L5.67481 22.8935L5.95504 22.7337ZM5.88918 22.6182L6.16941 22.4584L5.88918 22.6182ZM5.72066 22.4386L5.54984 22.7122L5.72066 22.4386ZM5.51532 22.3104L5.68614 22.0368L5.51532 22.3104ZM5.32706 22.1611L5.09955 22.3898L5.32706 22.1611ZM5.24146 22.076L5.46898 21.8473L5.24146 22.076ZM5.15587 21.9908L5.38338 21.7622L5.15587 21.9908ZM4.99985 21.8056L5.26366 21.62L4.99985 21.8056ZM4.92942 21.7055L5.19324 21.5199L4.92942 21.7055ZM4.859 21.6054L4.59519 21.7911L4.859 21.6054ZM4.69452 21.4304L4.89553 21.1781L4.69452 21.4304ZM4.60046 21.3555L4.39945 21.6078L4.60046 21.3555ZM4.5064 21.2805L4.30539 21.5328L4.5064 21.2805ZM4.3407 21.1092L4.59964 20.9168L4.3407 21.1092ZM4.03718 20.7382L3.81858 20.9754L4.03718 20.7382ZM3.86 20.575L3.64141 20.8122L3.86 20.575ZM3.67731 20.4141L3.46954 20.6609L3.67731 20.4141ZM3.5832 20.3349L3.37543 20.5816L3.5832 20.3349ZM3.48909 20.2556L3.69686 20.0089L3.48909 20.2556ZM3.34333 20.0653L3.63584 19.9293L3.34333 20.0653ZM3.29168 19.9542L2.99916 20.0902L3.29168 19.9542ZM3.24002 19.8431L3.53254 19.7071L3.24002 19.8431ZM3.10206 19.6446L3.33153 19.4179L3.10206 19.6446ZM3.01576 19.5573L3.24523 19.3305L3.01576 19.5573ZM2.92946 19.4699L3.15893 19.2432L2.92946 19.4699ZM2.74852 19.2975L2.53294 19.5375L2.74852 19.2975ZM2.65388 19.2125L2.86947 18.9725L2.65388 19.2125ZM2.55925 19.1275L2.77483 18.8875L2.55925 19.1275ZM2.4291 18.9229L2.11988 19.0148L2.4291 18.9229ZM2.3581 18.6839L2.66732 18.592L2.3581 18.6839ZM2.29034 18.4454L1.979 18.5298L2.29034 18.4454ZM2.25808 18.3264L1.94675 18.4109L2.25808 18.3264ZM2.22583 18.2075L2.53717 18.1231L2.22583 18.2075ZM2.12022 17.9888L1.86041 18.18L2.12022 17.9888ZM2.04686 17.8892L2.30667 17.698L2.04686 17.8892ZM1.83779 17.5836L2.11599 17.4203L1.83779 17.5836ZM1.71309 17.3711L1.43489 17.5344H1.43489L1.71309 17.3711ZM1.59468 17.1548L1.30722 17.3011L1.59468 17.1548ZM1.53861 17.0447L1.25115 17.191L1.53861 17.0447ZM1.48255 16.9346L1.77 16.7882L1.48255 16.9346ZM1.48648 16.4241L1.16746 16.3763L1.48648 16.4241ZM1.48492 16.1719L1.8023 16.1143L1.48492 16.1719ZM1.46335 16.0532L1.14596 16.1109L1.46335 16.0532ZM1.44179 15.9345L1.1244 15.9921L1.44179 15.9345ZM1.36591 15.7041L1.65599 15.563L1.36591 15.7041ZM1.25728 15.4808L0.967196 15.6219L1.25728 15.4808ZM1.03711 14.7802L1.34005 14.6694L1.03711 14.7802ZM0.951247 14.5455L0.648299 14.6563L0.951247 14.5455ZM0.941843 14.3025L0.63018 14.2193L0.941843 14.3025ZM1.00889 14.0514L1.32056 14.1346L1.00889 14.0514ZM1.03956 13.805L0.717072 13.8126L1.03956 13.805ZM0.984818 13.3212L1.28623 13.2063L0.984818 13.3212ZM0.892461 13.079L0.591048 13.194L0.892461 13.079ZM1.0301 12.3539L0.707667 12.3636L1.0301 12.3539ZM1.02644 12.2324L0.70401 12.2421L1.02644 12.2324ZM1.02538 11.8681L0.703231 11.8514L1.02538 11.8681ZM1.03789 11.6254L0.715741 11.6088L1.03789 11.6254ZM1.09265 11.3891L1.38988 11.5144L1.09265 11.3891ZM1.18965 11.1591L0.892424 11.0337L1.18965 11.1591ZM1.28011 10.9301L0.977395 10.8187L1.28011 10.9301ZM1.36401 10.7023L1.66672 10.8137L1.36401 10.7023ZM1.37839 10.4584L1.69394 10.3915L1.37839 10.4584ZM1.32326 10.1986L1.0077 10.2656L1.32326 10.1986ZM1.36521 9.96236L1.63522 10.1389L1.36521 9.96236ZM1.43473 9.85601L1.16472 9.67951L1.43473 9.85601ZM1.50425 9.74965L1.77426 9.92615L1.50425 9.74965ZM1.57941 9.51855L1.90166 9.53312L1.57941 9.51855ZM1.58505 9.3938L1.2628 9.37922L1.58505 9.3938ZM1.5907 9.26904L1.26844 9.25447L1.5907 9.26904ZM1.61596 9.02192L1.93447 9.07301L1.61596 9.02192ZM1.65522 8.77719L1.33671 8.7261L1.65522 8.77719ZM1.76554 8.56086L1.53345 8.33682L1.76554 8.56086ZM1.94694 8.37293L1.71485 8.1489L1.94694 8.37293ZM2.10143 8.17622L1.82736 8.00609L2.10143 8.17622ZM2.229 7.97072L1.95493 7.80058L2.229 7.97072ZM2.29289 7.73253L2.61547 7.73279L2.29289 7.73253ZM2.293 7.59709L1.97042 7.59683L2.293 7.59709ZM2.3947 7.24408L2.59766 7.49481L2.3947 7.24408ZM2.73632 6.8788L2.42844 6.78253L2.73632 6.8788ZM2.77348 6.75997L3.08136 6.85624L2.77348 6.75997ZM2.81064 6.64113L2.50276 6.54486L2.81064 6.64113ZM2.92922 6.43114L2.68864 6.21625L2.92922 6.43114ZM3.01065 6.33999L2.77007 6.12509L3.01065 6.33999ZM3.28463 5.78756L2.97567 5.6948L3.28463 5.78756ZM3.46257 5.62175L3.36955 5.31288L3.46257 5.62175ZM3.74439 5.53688L3.83742 5.84575L3.74439 5.53688ZM3.9456 5.3887L4.22581 5.54851L3.9456 5.3887ZM4.0662 5.17723L4.34641 5.33703L4.0662 5.17723ZM4.17989 4.95622L4.4726 5.09179L4.17989 4.95622ZM4.28667 4.72567L3.99396 4.5901L4.28667 4.72567ZM4.69603 4.45557L4.56737 4.15976L4.69603 4.45557ZM4.87319 4.2893L5.16054 4.43589L4.87319 4.2893ZM4.99019 4.05997L5.27754 4.20657L4.99019 4.05997ZM5.16071 3.89065L5.30217 4.18056L5.16071 3.89065ZM5.38475 3.78133L5.2433 3.49142L5.38475 3.78133ZM5.59963 3.66347L5.7685 3.93832L5.59963 3.66347ZM5.80535 3.53708L5.63649 3.26223L5.80535 3.53708ZM5.97123 3.35409L5.68574 3.20391L5.97123 3.35409ZM6.03424 3.2343L5.74875 3.08412L6.03424 3.2343ZM6.09726 3.1145L5.81177 2.96433L6.09726 3.1145ZM6.28415 2.96238L6.36563 3.2745L6.28415 2.96238ZM6.53191 2.89771L6.45044 2.58558L6.53191 2.89771ZM6.76384 2.81161L6.90753 3.10042L6.76384 2.81161ZM6.87188 2.75785L6.72819 2.46905L6.87188 2.75785ZM6.97993 2.7041L6.83624 2.41529L6.97993 2.7041ZM7.17123 2.5501L7.41938 2.7562L7.17123 2.5501ZM7.33772 2.34963L7.08956 2.14353L7.33772 2.34963ZM7.54662 2.2298L7.49694 1.91107L7.54662 2.2298ZM7.79793 2.19062L7.84762 2.50935L7.79793 2.19062ZM8.04696 2.15341L8.00135 1.83407L8.04696 2.15341ZM8.17033 2.13579L8.12472 1.81645L8.17033 2.13579ZM8.2937 2.11817L8.33932 2.43751L8.2937 2.11817ZM8.51324 2.01768L8.30265 1.77332L8.51324 2.01768ZM8.70556 1.85194L8.49498 1.60758L8.70556 1.85194ZM8.90789 1.70528L9.07403 1.98178L8.90789 1.70528ZM9.01406 1.64149L9.1802 1.91799L9.01406 1.64149ZM9.12022 1.57769L8.95408 1.30119L9.12022 1.57769ZM9.34259 1.47722L9.43969 1.78484L9.34259 1.47722ZM9.57499 1.40386L9.47789 1.09625L9.57499 1.40386ZM9.80353 1.3131L9.94347 1.60375L9.80353 1.3131ZM10.0282 1.20492L9.88828 0.914274L10.0282 1.20492ZM10.508 1.10863L10.4712 0.788159L10.508 1.10863ZM10.7494 1.06292L10.6664 0.751192L10.7494 1.06292ZM10.9872 0.999633L11.0702 1.31136L10.9872 0.999633ZM11.2274 0.949402L11.2763 1.26826L11.2274 0.949402ZM11.4701 0.912228L11.4212 0.593368L11.4701 0.912228ZM11.7204 0.972537L11.8887 0.697349L11.7204 0.972537ZM11.9784 1.13033L11.81 1.40552L11.9784 1.13033ZM12.2265 1.20509L12.2153 0.8827L12.2265 1.20509ZM12.4647 1.1968L12.4535 0.874418L12.4647 1.1968ZM13.1833 1.05759L13.1172 0.741866L13.1833 1.05759ZM13.4261 1.00672L13.4923 1.32244L13.4261 1.00672ZM13.7936 0.951248L13.7545 0.631044L13.7936 0.951248ZM13.9167 0.93623L13.9557 1.25643L13.9167 0.93623ZM14.6151 1.23438L14.5347 0.921967L14.6151 1.23438ZM15.1186 1.13161L15.1046 0.809336L15.1186 1.13161ZM15.3683 1.1208L15.3823 1.44308L15.3683 1.1208ZM15.5938 1.21722L15.3643 1.44391L15.5938 1.21722ZM15.795 1.42088L16.0245 1.19419L15.795 1.42088ZM16.2762 1.49739L16.2548 1.17552L16.2762 1.49739ZM16.5277 1.49832L16.5519 1.17665L16.5277 1.49832ZM16.7768 1.51708L16.7526 1.83875L16.7768 1.51708ZM17.0079 1.58966L17.1725 1.31226L17.0079 1.58966ZM17.2208 1.71606L17.0562 1.99346L17.2208 1.71606ZM17.4331 1.83983L17.2728 2.11977L17.4331 1.83983ZM17.6447 1.96097L17.4844 2.24091L17.6447 1.96097ZM17.8715 2.04799L17.8026 2.36313L17.8715 2.04799ZM18.1135 2.10089L18.1824 1.78575L18.1135 2.10089ZM18.3299 2.20693L18.1233 2.45463L18.3299 2.20693ZM18.4253 2.28651L18.632 2.0388L18.4253 2.28651ZM18.5207 2.36609L18.3141 2.6138L18.5207 2.36609ZM18.7187 2.5089L18.5495 2.78352L18.7187 2.5089ZM18.9239 2.63535L19.0931 2.36073L18.9239 2.63535ZM19.1439 2.73827L19.2472 2.43268L19.1439 2.73827ZM19.3788 2.81766L19.2755 3.12325L19.3788 2.81766ZM19.6162 2.89763L19.7188 2.59181L19.6162 2.89763ZM19.7362 2.9379L19.6335 3.24371L19.7362 2.9379ZM19.8561 2.97817L19.7535 3.28398L19.8561 2.97817ZM20.0647 3.10466L20.2897 2.87352L20.0647 3.10466ZM20.1532 3.19088L20.3783 2.95974L20.1532 3.19088ZM20.2418 3.27711L20.0168 3.50825L20.2418 3.27711ZM20.3967 3.47463L20.1195 3.63967L20.3967 3.47463ZM20.5292 3.69724L20.8064 3.5322L20.5292 3.69724ZM20.7226 3.84682L20.8156 3.53794L20.7226 3.84682ZM20.9768 3.92338L20.8838 4.23226L20.9768 3.92338ZM21.1874 4.05132L20.9513 4.27112L21.1874 4.05132ZM21.3543 4.23063L21.5904 4.01082L21.3543 4.23063ZM21.5031 4.42652L21.7779 4.25766L21.5031 4.42652ZM21.6336 4.63901L21.3588 4.80787L21.6336 4.63901ZM21.7631 4.84968L22.0379 4.6807L21.7631 4.84968ZM21.8915 5.05852L21.6168 5.22749L21.8915 5.05852ZM22.0238 5.26214L22.2898 5.07962L22.0238 5.26214ZM22.16 5.46054L21.894 5.64306L22.16 5.46054ZM22.3115 5.64662L22.0788 5.87003L22.3115 5.64662ZM22.4783 5.82037L22.711 5.59696L22.4783 5.82037ZM22.6803 5.97157L22.8341 5.688L22.6803 5.97157ZM22.7989 6.03589L22.6451 6.31946L22.7989 6.03589ZM22.9175 6.10021L23.0713 5.81665L22.9175 6.10021ZM23.0441 6.30379L23.3662 6.28523L23.0441 6.30379ZM23.0602 6.58232L22.7382 6.60089L23.0602 6.58232ZM23.1207 6.82931L22.8306 6.97047L23.1207 6.82931ZM23.1731 6.93705L23.4631 6.7959L23.1731 6.93705ZM23.2255 7.04478L23.5156 6.90363L23.2255 7.04478ZM23.4086 7.21903L23.5549 6.93155L23.4086 7.21903ZM23.6699 7.35206L23.5236 7.63953L23.6699 7.35206ZM23.8517 7.66518L23.5358 7.73063L23.8517 7.66518ZM23.8773 7.78848L24.1931 7.72302L23.8773 7.78848ZM23.9331 8.03058L24.2457 7.95091L23.9331 8.03058ZM23.9634 8.14937L24.276 8.0697L23.9634 8.14937ZM23.9937 8.26817L23.6811 8.34784L23.9937 8.26817ZM24.1078 8.48424L24.3521 8.27365L24.1078 8.48424ZM24.2754 8.67879L24.5198 8.46819L24.2754 8.67879ZM24.3487 8.90791L24.0272 8.88227L24.3487 8.90791ZM24.3382 9.03975L24.6598 9.06539L24.3382 9.03975ZM24.3277 9.1716L24.6493 9.19724L24.3277 9.1716ZM24.3752 9.4117L24.0908 9.56398L24.3752 9.4117ZM24.4911 9.6282L24.7755 9.47592L24.4911 9.6282ZM24.6037 9.84773L24.8933 9.70556L24.6037 9.84773ZM24.6584 9.95901L24.9479 9.81684L24.6584 9.95901ZM24.713 10.0703L24.4234 10.2125L24.713 10.0703ZM24.7255 10.3141L25.033 10.4118L24.7255 10.3141ZM24.6413 10.5793L24.3339 10.4816L24.6413 10.5793ZM24.6578 10.8234L24.3724 10.9735L24.6578 10.8234ZM24.7752 11.0465L25.0607 10.8963L24.7752 11.0465ZM24.8637 11.276L24.5509 11.355L24.8637 11.276ZM24.8935 11.394L25.2062 11.315L24.8935 11.394ZM24.9233 11.5119L24.6105 11.5909L24.9233 11.5119ZM24.9943 11.7484L25.299 11.6423L24.9943 11.7484ZM25.0769 11.9854L24.7723 12.0915L25.0769 11.9854ZM25.0391 12.229L24.7664 12.0567L25.0391 12.229ZM24.96 12.3541L25.2327 12.5265L24.96 12.3541ZM24.8809 12.4793L24.6082 12.3069L24.8809 12.4793ZM24.8514 12.7033L24.563 12.8477L24.8514 12.7033ZM24.9505 12.9011L25.2389 12.7566L24.9505 12.9011ZM25.0182 13.1219L25.3372 13.0744L25.0182 13.1219ZM25.0363 13.2438L24.7173 13.2914L24.7354 13.4133L25.0545 13.3657L25.3736 13.3182L25.3554 13.1963L25.0363 13.2438ZM25.0545 13.3657L24.7354 13.4133C24.7477 13.4959 24.7607 13.5791 24.7742 13.6629L25.0927 13.6114L25.4111 13.56C25.398 13.4787 25.3855 13.3981 25.3736 13.3182L25.0545 13.3657ZM25.0927 13.6114L24.7742 13.6629L24.7942 13.7867L25.1127 13.7352L25.4311 13.6838L25.4111 13.56L25.0927 13.6114ZM25.1127 13.7352L24.7942 13.7867L24.8142 13.9105L25.1327 13.859L25.4511 13.8076L25.4311 13.6838L25.1127 13.7352ZM25.1327 13.859L24.8142 13.9105C24.8156 13.9189 24.816 13.9271 24.8061 13.9456L25.0898 14.099L25.3736 14.2524C25.4474 14.1159 25.4764 13.9643 25.4511 13.8076L25.1327 13.859ZM25.0898 14.099L24.8061 13.9456L24.7433 14.0617L25.027 14.2152L25.3108 14.3686L25.3736 14.2524L25.0898 14.099ZM25.027 14.2152L24.7433 14.0617L24.6805 14.1779L24.9642 14.3313L25.248 14.4848L25.3108 14.3686L25.027 14.2152ZM24.9642 14.3313L24.6805 14.1779C24.6207 14.2885 24.5813 14.407 24.5674 14.532L24.888 14.5677L25.2086 14.6033C25.2125 14.5682 25.224 14.5291 25.248 14.4848L24.9642 14.3313ZM24.888 14.5677L24.5674 14.532L24.5541 14.6521L24.8747 14.6878L25.1953 14.7235L25.2086 14.6033L24.888 14.5677ZM24.8747 14.6878L24.5541 14.6521L24.5407 14.7723L24.8613 14.808L25.1819 14.8437L25.1953 14.7235L24.8747 14.6878ZM24.8613 14.808L24.5407 14.7723C24.5296 14.8722 24.5276 14.9732 24.5346 15.0751L24.8564 15.0532L25.1782 15.0314C25.1738 14.9665 25.1752 14.904 25.1819 14.8437L24.8613 14.808ZM24.8564 15.0532L24.5346 15.0751L24.543 15.2002L24.8649 15.1783L25.1867 15.1565L25.1782 15.0314L24.8564 15.0532ZM24.8649 15.1783L24.543 15.2002L24.5515 15.3253L24.8734 15.3034L25.1952 15.2816L25.1867 15.1565L24.8649 15.1783ZM24.8734 15.3034L24.5515 15.3253C24.5514 15.3239 24.5514 15.321 24.552 15.3171C24.5526 15.3132 24.5536 15.3095 24.5548 15.3064C24.5573 15.2999 24.5586 15.3011 24.5508 15.3094L24.7855 15.5307L25.0202 15.752C25.1378 15.6272 25.2077 15.4659 25.1952 15.2816L24.8734 15.3034ZM24.7855 15.5307L24.5508 15.3094L24.4544 15.4117L24.6891 15.633L24.9238 15.8543L25.0202 15.752L24.7855 15.5307ZM24.6891 15.633L24.4544 15.4117L24.358 15.5139L24.5927 15.7352L24.8274 15.9565L24.9238 15.8543L24.6891 15.633ZM24.5927 15.7352L24.358 15.5139C24.29 15.5859 24.237 15.677 24.2161 15.7857C24.1954 15.8934 24.2106 15.996 24.243 16.0858L24.5464 15.9761L24.8498 15.8665C24.8488 15.8638 24.855 15.88 24.8497 15.9074C24.8442 15.9358 24.831 15.9526 24.8274 15.9565L24.5927 15.7352ZM24.5464 15.9761L24.243 16.0858L24.2932 16.2245L24.5965 16.1149L24.8999 16.0053L24.8498 15.8665L24.5464 15.9761ZM24.5965 16.1149L24.2932 16.2245L24.3433 16.3632L24.6467 16.2536L24.9501 16.144L24.8999 16.0053L24.5965 16.1149ZM24.6467 16.2536L24.3433 16.3632C24.3477 16.3756 24.3449 16.3742 24.3457 16.3626C24.3461 16.357 24.3473 16.3505 24.3495 16.3438C24.3516 16.3371 24.3542 16.332 24.3563 16.3287L24.63 16.4994L24.9037 16.6702C25.0098 16.5001 25.0107 16.3119 24.9501 16.144L24.6467 16.2536ZM24.63 16.4994L24.3563 16.3287L24.2895 16.4358L24.5632 16.6065L24.8369 16.7772L24.9037 16.6702L24.63 16.4994ZM24.5632 16.6065L24.2895 16.4358L24.2227 16.5429L24.4964 16.7136L24.7701 16.8843L24.8369 16.7772L24.5632 16.6065ZM24.4964 16.7136L24.2227 16.5429C24.159 16.645 24.1137 16.7554 24.0885 16.8728L24.4038 16.9407L24.7192 17.0086C24.7283 16.966 24.7448 16.925 24.7701 16.8843L24.4964 16.7136ZM24.4038 16.9407L24.0885 16.8728L24.0626 16.9929L24.378 17.0608L24.6933 17.1287L24.7192 17.0086L24.4038 16.9407ZM24.378 17.0608L24.0626 16.9929L24.0368 17.1129L24.3521 17.1808L24.6675 17.2487L24.6933 17.1287L24.378 17.0608ZM24.3521 17.1808L24.0368 17.1129C24.0306 17.1418 24.0182 17.1687 23.9958 17.1964L24.2464 17.3995L24.497 17.6025C24.5811 17.4988 24.6392 17.3799 24.6675 17.2487L24.3521 17.1808ZM24.2464 17.3995L23.9958 17.1964L23.9159 17.295L24.1665 17.498L24.4171 17.7011L24.497 17.6025L24.2464 17.3995ZM24.1665 17.498L23.9159 17.295L23.836 17.3936L24.0866 17.5966L24.3373 17.7997L24.4171 17.7011L24.1665 17.498ZM24.0866 17.5966L23.836 17.3936C23.7337 17.5199 23.6842 17.6699 23.6841 17.8286L24.0067 17.8287L24.3293 17.8288C24.3293 17.8095 24.3331 17.8048 24.3373 17.7997L24.0866 17.5966ZM24.0067 17.8287L23.6841 17.8286L23.6841 17.9622L24.0067 17.9623L24.3293 17.9623L24.3293 17.8288L24.0067 17.8287ZM24.0067 17.9623L23.6841 17.9622L23.6841 18.0957L24.0066 18.0958L24.3292 18.0959L24.3293 17.9623L24.0067 17.9623ZM24.0066 18.0958L23.6841 18.0957C23.6841 18.0975 23.6839 18.0966 23.6845 18.0937C23.6851 18.0906 23.6864 18.0865 23.6885 18.0818C23.6907 18.0772 23.6931 18.0734 23.6952 18.0708C23.6972 18.0681 23.6983 18.0674 23.6973 18.0683L23.9053 18.3148L24.1134 18.5613C24.2541 18.4425 24.3292 18.2791 24.3292 18.0959L24.0066 18.0958ZM23.9053 18.3148L23.6973 18.0683L23.596 18.1537L23.804 18.4002L24.0121 18.6468L24.1134 18.5613L23.9053 18.3148ZM23.804 18.4002L23.596 18.1537L23.4947 18.2392L23.7028 18.4857L23.9108 18.7322L24.0121 18.6468L23.804 18.4002ZM23.7028 18.4857L23.4947 18.2392C23.419 18.3031 23.3481 18.3694 23.2825 18.4381L23.5157 18.661L23.7489 18.8838C23.7976 18.8328 23.8515 18.7823 23.9108 18.7322L23.7028 18.4857ZM23.5157 18.661L23.2825 18.4381L23.1967 18.5279L23.4299 18.7507L23.6631 18.9736L23.7489 18.8838L23.5157 18.661ZM23.4299 18.7507L23.1967 18.5279L23.1109 18.6177L23.3441 18.8405L23.5774 19.0634L23.6631 18.9736L23.4299 18.7507ZM23.3441 18.8405L23.1109 18.6177C23.042 18.6898 22.9797 18.7664 22.9245 18.8474L23.1911 19.029L23.4577 19.2106C23.4922 19.16 23.5319 19.1109 23.5774 19.0634L23.3441 18.8405ZM23.1911 19.029L22.9245 18.8474L22.8572 18.9462L23.1239 19.1278L23.3905 19.3093L23.4577 19.2106L23.1911 19.029ZM23.1239 19.1278L22.8572 18.9462L22.79 19.0449L23.0566 19.2265L23.3232 19.4081L23.3905 19.3093L23.1239 19.1278ZM23.0566 19.2265L22.79 19.0449C22.7201 19.1475 22.6732 19.2612 22.6467 19.3823L22.9619 19.4511L23.277 19.5199C23.2872 19.4732 23.3034 19.4372 23.3232 19.4081L23.0566 19.2265ZM22.9619 19.4511L22.6467 19.3823L22.6192 19.5082L22.9344 19.577L23.2495 19.6458L23.277 19.5199L22.9619 19.4511ZM22.9344 19.577L22.6192 19.5082L22.5917 19.6341L22.9069 19.7029L23.222 19.7717L23.2495 19.6458L22.9344 19.577ZM22.9069 19.7029L22.5917 19.6341C22.582 19.6786 22.5661 19.7133 22.546 19.7418L22.8096 19.9277L23.0732 20.1136C23.1462 20.0102 23.1951 19.895 23.222 19.7717L22.9069 19.7029ZM22.8096 19.9277L22.546 19.7418L22.4762 19.8407L22.7398 20.0267L23.0035 20.2126L23.0732 20.1136L22.8096 19.9277ZM22.7398 20.0267L22.4762 19.8407L22.4064 19.9397L22.6701 20.1256L22.9337 20.3115L23.0035 20.2126L22.7398 20.0267ZM22.6701 20.1256L22.4064 19.9397C22.3402 20.0336 22.2895 20.1369 22.2533 20.2473L22.5598 20.3479L22.8663 20.4485C22.884 20.3945 22.9069 20.3495 22.9337 20.3115L22.6701 20.1256ZM22.5598 20.3479L22.2533 20.2473L22.2128 20.3707L22.5193 20.4713L22.8258 20.5718L22.8663 20.4485L22.5598 20.3479ZM22.5193 20.4713L22.2128 20.3707L22.1723 20.4941L22.4788 20.5946L22.7854 20.6952L22.8258 20.5718L22.5193 20.4713ZM22.4788 20.5946L22.1723 20.4941C22.1657 20.5143 22.1579 20.5233 22.1466 20.5316L22.3368 20.7921L22.527 21.0527C22.6511 20.9621 22.738 20.8394 22.7854 20.6952L22.4788 20.5946ZM22.3368 20.7921L22.1466 20.5316L22.0451 20.6057L22.2352 20.8663L22.4254 21.1268L22.527 21.0527L22.3368 20.7921ZM22.2352 20.8663L22.0451 20.6057L21.9435 20.6798L22.1337 20.9404L22.3239 21.2009L22.4254 21.1268L22.2352 20.8663ZM22.1337 20.9404L21.9435 20.6798C21.8755 20.7295 21.8082 20.7788 21.7415 20.8278L21.9326 21.0877L22.1238 21.3476C22.1898 21.299 22.2565 21.2502 22.3239 21.2009L22.1337 20.9404ZM21.9326 21.0877L21.7415 20.8278L21.642 20.901L21.8332 21.1609L22.0243 21.4207L22.1238 21.3476L21.9326 21.0877ZM21.8332 21.1609L21.642 20.901L21.5426 20.9741L21.7337 21.234L21.9248 21.4939L22.0243 21.4207L21.8332 21.1609ZM21.7337 21.234L21.5426 20.9741C21.4262 21.0597 21.3409 21.1725 21.2859 21.3034L21.5832 21.4284L21.8805 21.5535C21.8935 21.5227 21.9085 21.5059 21.9248 21.4939L21.7337 21.234ZM21.5832 21.4284L21.2859 21.3034L21.2348 21.4246L21.5322 21.5497L21.8295 21.6748L21.8805 21.5535L21.5832 21.4284ZM21.5322 21.5497L21.2348 21.4246L21.1838 21.5459L21.4812 21.671L21.7785 21.7961L21.8295 21.6748L21.5322 21.5497ZM21.4812 21.671L21.1838 21.5459C21.1668 21.5862 21.1461 21.614 21.123 21.6349L21.339 21.8744L21.555 22.114C21.6534 22.0252 21.7275 21.9174 21.7785 21.7961L21.4812 21.671ZM21.339 21.8744L21.123 21.6349L21.0318 21.7171L21.2478 21.9566L21.4638 22.1962L21.555 22.114L21.339 21.8744ZM21.2478 21.9566L21.0318 21.7171L20.9406 21.7993L21.1566 22.0388L21.3726 22.2784L21.4638 22.1962L21.2478 21.9566ZM21.1566 22.0388L20.9406 21.7993C20.8965 21.8391 20.8482 21.8743 20.7956 21.905L20.9582 22.1836L21.1208 22.4623C21.2112 22.4095 21.2952 22.3482 21.3726 22.2784L21.1566 22.0388ZM20.9582 22.1836L20.7956 21.905L20.6883 21.9677L20.8509 22.2463L21.0135 22.5249L21.1208 22.4623L20.9582 22.1836ZM20.8509 22.2463L20.6883 21.9677L20.581 22.0303L20.7436 22.3089L20.9062 22.5875L21.0135 22.5249L20.8509 22.2463ZM20.7436 22.3089L20.581 22.0303C20.5491 22.0489 20.5077 22.0643 20.4523 22.0724L20.4991 22.3916L20.5458 22.7108C20.6734 22.6921 20.7951 22.6523 20.9062 22.5875L20.7436 22.3089ZM20.4991 22.3916L20.4523 22.0724L20.315 22.0925L20.3618 22.4117L20.4085 22.7309L20.5458 22.7108L20.4991 22.3916ZM20.3618 22.4117L20.315 22.0925L20.1778 22.1126L20.2245 22.4318L20.2712 22.751L20.4085 22.7309L20.3618 22.4117ZM20.2245 22.4318L20.1778 22.1126C19.991 22.14 19.8339 22.2428 19.7403 22.4136L20.0232 22.5687L20.3061 22.7238C20.3059 22.724 20.3044 22.7267 20.3009 22.7307C20.2973 22.7347 20.2926 22.739 20.287 22.7428C20.2749 22.751 20.267 22.7516 20.2712 22.751L20.2245 22.4318ZM20.0232 22.5687L19.7403 22.4136L19.6763 22.5305L19.9591 22.6855L20.242 22.8406L20.3061 22.7238L20.0232 22.5687ZM19.9591 22.6855L19.6763 22.5305L19.6122 22.6473L19.8951 22.8023L20.178 22.9574L20.242 22.8406L19.9591 22.6855ZM19.8951 22.8023L19.6122 22.6473C19.5863 22.6947 19.5573 22.7299 19.5266 22.7566L19.7385 22.9998L19.9504 23.243C20.0431 23.1623 20.1186 23.0658 20.178 22.9574L19.8951 22.8023ZM19.7385 22.9998L19.5266 22.7566L19.434 22.8373L19.6459 23.0805L19.8578 23.3237L19.9504 23.243L19.7385 22.9998ZM19.6459 23.0805L19.434 22.8373L19.3414 22.9179L19.5533 23.1612L19.7652 23.4044L19.8578 23.3237L19.6459 23.0805ZM19.5533 23.1612L19.3414 22.9179C19.295 22.9584 19.2455 22.9939 19.1929 23.0245L19.3553 23.3032L19.5176 23.582C19.6056 23.5307 19.6882 23.4715 19.7652 23.4044L19.5533 23.1612ZM19.3553 23.3032L19.1929 23.0245L19.0875 23.0859L19.2498 23.3646L19.4122 23.6434L19.5176 23.582L19.3553 23.3032ZM19.2498 23.3646L19.0875 23.0859L18.9821 23.1473L19.1444 23.4261L19.3067 23.7048L19.4122 23.6434L19.2498 23.3646ZM19.1444 23.4261L18.9821 23.1473C18.9586 23.161 18.9281 23.1716 18.8844 23.1745L18.9059 23.4964L18.9275 23.8182C19.0611 23.8093 19.1896 23.773 19.3067 23.7048L19.1444 23.4261ZM18.9059 23.4964L18.8844 23.1745L18.7513 23.1834L18.7729 23.5053L18.7945 23.8272L18.9275 23.8182L18.9059 23.4964ZM18.7729 23.5053L18.7513 23.1834L18.6183 23.1924L18.6399 23.5142L18.6615 23.8361L18.7945 23.8272L18.7729 23.5053ZM18.6399 23.5142L18.6183 23.1924C18.4271 23.2052 18.2684 23.3006 18.1627 23.4542L18.4284 23.6371L18.6941 23.82C18.6968 23.8161 18.6936 23.8219 18.6825 23.8283C18.6775 23.8313 18.6724 23.8334 18.6679 23.8347C18.6636 23.8359 18.6612 23.8361 18.6615 23.8361L18.6399 23.5142ZM18.4284 23.6371L18.1627 23.4542L18.0842 23.5681L18.3499 23.751L18.6156 23.934L18.6941 23.82L18.4284 23.6371ZM18.3499 23.751L18.0842 23.5681L18.0058 23.6821L18.2715 23.865L18.5372 24.0479L18.6156 23.934L18.3499 23.751ZM18.2715 23.865L18.0058 23.6821C18.0068 23.6807 18.0172 23.6669 18.04 23.6561C18.0628 23.6453 18.08 23.6459 18.0817 23.6461L18.0552 23.9676L18.0286 24.289C18.2357 24.3062 18.4193 24.2191 18.5372 24.0479L18.2715 23.865ZM18.0552 23.9676L18.0817 23.6461L17.9439 23.6347L17.9173 23.9562L17.8907 24.2776L18.0286 24.289L18.0552 23.9676ZM17.9173 23.9562L17.9439 23.6347L17.806 23.6233L17.7795 23.9448L17.7529 24.2663L17.8907 24.2776L17.9173 23.9562ZM17.7795 23.9448L17.806 23.6233C17.6383 23.6094 17.474 23.6531 17.3378 23.7667L17.5444 24.0144L17.7509 24.2622C17.7512 24.262 17.7504 24.2626 17.7487 24.2636C17.7469 24.2645 17.7451 24.2653 17.7434 24.2658C17.7397 24.2669 17.7417 24.2653 17.7529 24.2663L17.7795 23.9448ZM17.5444 24.0144L17.3378 23.7667L17.2406 23.8477L17.4471 24.0955L17.6537 24.3433L17.7509 24.2622L17.5444 24.0144ZM17.4471 24.0955L17.2406 23.8477L17.1433 23.9288L17.3499 24.1766L17.5564 24.4244L17.6537 24.3433L17.4471 24.0955ZM17.3499 24.1766L17.1433 23.9288C17.1409 23.9308 17.1395 23.9317 17.139 23.9319C17.1386 23.9322 17.1386 23.9321 17.1389 23.932C17.14 23.9316 17.1381 23.9327 17.1305 23.9325L17.124 24.2551L17.1175 24.5776C17.2796 24.5808 17.4308 24.529 17.5564 24.4244L17.3499 24.1766ZM17.124 24.2551L17.1305 23.9325L17.0019 23.9299L16.9954 24.2525L16.9889 24.575L17.1175 24.5776L17.124 24.2551ZM16.9954 24.2525L17.0019 23.9299L16.8733 23.9273L16.8668 24.2499L16.8603 24.5724L16.9889 24.575L16.9954 24.2525ZM16.8668 24.2499L16.8733 23.9273C16.7267 23.9244 16.5862 23.9617 16.4608 24.041L16.6331 24.3137L16.8054 24.5864C16.8202 24.5771 16.8355 24.5719 16.8603 24.5724L16.8668 24.2499ZM16.6331 24.3137L16.4608 24.041L16.3556 24.1075L16.528 24.3801L16.7003 24.6528L16.8054 24.5864L16.6331 24.3137ZM16.528 24.3801L16.3556 24.1075L16.2505 24.1739L16.4228 24.4466L16.5952 24.7193L16.7003 24.6528L16.528 24.3801ZM16.4228 24.4466L16.2505 24.1739C16.2268 24.1889 16.2046 24.1957 16.1789 24.1969L16.1949 24.5191L16.2109 24.8413C16.3489 24.8344 16.4787 24.7929 16.5952 24.7193L16.4228 24.4466ZM16.1949 24.5191L16.1789 24.1969L16.0561 24.203L16.0721 24.5252L16.0881 24.8474L16.2109 24.8413L16.1949 24.5191ZM16.0721 24.5252L16.0561 24.203L15.9333 24.2091L15.9493 24.5313L15.9653 24.8535L16.0881 24.8474L16.0721 24.5252ZM15.9493 24.5313L15.9333 24.2091C15.8376 24.2139 15.7433 24.2247 15.6504 24.2418L15.7087 24.559L15.767 24.8763C15.8312 24.8645 15.8973 24.8569 15.9653 24.8535L15.9493 24.5313ZM15.7087 24.559L15.6504 24.2418L15.5326 24.2634L15.5909 24.5807L15.6492 24.898L15.767 24.8763L15.7087 24.559ZM15.5909 24.5807L15.5326 24.2634L15.4148 24.2851L15.4731 24.6023L15.5314 24.9196L15.6492 24.898L15.5909 24.5807ZM15.4731 24.6023L15.4148 24.2851C15.3144 24.3035 15.2163 24.3322 15.1208 24.3708L15.2417 24.6699L15.3625 24.969C15.4186 24.9464 15.4748 24.93 15.5314 24.9196L15.4731 24.6023ZM15.2417 24.6699L15.1208 24.3708L15.0072 24.4167L15.128 24.7158L15.2489 25.0149L15.3625 24.969L15.2417 24.6699ZM15.128 24.7158L15.0072 24.4167L14.8935 24.4627L15.0144 24.7617L15.1352 25.0608L15.2489 25.0149L15.128 24.7158ZM15.0144 24.7617L14.8935 24.4627C14.815 24.4944 14.736 24.5276 14.6565 24.5622L14.7854 24.8579L14.9143 25.1536C14.9886 25.1213 15.0622 25.0903 15.1352 25.0608L15.0144 24.7617ZM14.7854 24.8579L14.6565 24.5622L14.5412 24.6125L14.6701 24.9082L14.7989 25.2039L14.9143 25.1536L14.7854 24.8579ZM14.6701 24.9082L14.5412 24.6125L14.4259 24.6627L14.5547 24.9584L14.6836 25.2542L14.7989 25.2039L14.6701 24.9082ZM14.5547 24.9584L14.4259 24.6627C14.406 24.6714 14.3894 24.6734 14.3685 24.6699L14.3156 24.9881L14.2627 25.3063C14.4069 25.3303 14.5497 25.3125 14.6836 25.2542L14.5547 24.9584ZM14.3156 24.9881L14.3685 24.6699L14.2447 24.6493L14.1918 24.9675L14.1389 25.2857L14.2627 25.3063L14.3156 24.9881ZM14.1918 24.9675L14.2447 24.6493L14.1209 24.6287L14.0679 24.9469L14.015 25.2651L14.1389 25.2857L14.1918 24.9675ZM14.0679 24.9469L14.1209 24.6287C14.0117 24.6106 13.9021 24.6063 13.7929 24.6168L13.8239 24.9379L13.8548 25.259C13.906 25.2541 13.9591 25.2558 14.015 25.2651L14.0679 24.9469ZM13.8239 24.9379L13.7929 24.6168L13.6727 24.6284L13.7036 24.9495L13.7346 25.2706L13.8548 25.259L13.8239 24.9379ZM13.7036 24.9495L13.6727 24.6284L13.5524 24.64L13.5834 24.9611L13.6143 25.2822L13.7346 25.2706L13.7036 24.9495ZM13.5834 24.9611L13.5524 24.64C13.4738 24.6476 13.3949 24.6546 13.3158 24.6611L13.3421 24.9826L13.3684 25.3041C13.4506 25.2974 13.5326 25.2901 13.6143 25.2822L13.5834 24.9611ZM13.3421 24.9826L13.3158 24.6611L13.1949 24.671L13.2212 24.9925L13.2474 25.314L13.3684 25.3041L13.3421 24.9826ZM13.2212 24.9925L13.1949 24.671L13.0739 24.6809L13.1002 25.0024L13.1265 25.3239L13.2474 25.314L13.2212 24.9925ZM13.1002 25.0024L13.0739 24.6809C13.0195 24.6853 12.9652 24.6832 12.9106 24.6743L12.8587 24.9926L12.8069 25.311C12.9129 25.3283 13.0196 25.3326 13.1265 25.3239L13.1002 25.0024ZM12.8587 24.9926L12.9106 24.6743L12.7901 24.6546L12.7383 24.973L12.6864 25.2914L12.8069 25.311L12.8587 24.9926ZM12.7383 24.973L12.7901 24.6546L12.6697 24.635L12.6178 24.9534L12.566 25.2718L12.6864 25.2914L12.7383 24.973ZM12.6178 24.9534L12.6697 24.635C12.5976 24.6233 12.5261 24.6088 12.4552 24.5915L12.3789 24.9049L12.3026 25.2184C12.3897 25.2396 12.4775 25.2574 12.566 25.2718L12.6178 24.9534ZM12.3789 24.9049L12.4552 24.5915L12.3367 24.5627L12.2604 24.8761L12.1841 25.1895L12.3026 25.2184L12.3789 24.9049ZM12.2604 24.8761L12.3367 24.5627L12.2182 24.5338L12.1419 24.8473L12.0656 25.1607L12.1841 25.1895L12.2604 24.8761ZM12.1419 24.8473L12.2182 24.5338C12.1122 24.508 12.0046 24.4962 11.8958 24.4985L11.9027 24.821L11.9096 25.1435C11.9617 25.1424 12.0135 25.148 12.0656 25.1607L12.1419 24.8473ZM11.9027 24.821L11.8958 24.4985L11.7751 24.5011L11.782 24.8236L11.7889 25.1461L11.9096 25.1435L11.9027 24.821ZM11.782 24.8236L11.7751 24.5011L11.6544 24.5036L11.6613 24.8261L11.6681 25.1486L11.7889 25.1461L11.782 24.8236ZM11.6613 24.8261L11.6544 24.5036C11.5748 24.5053 11.4947 24.5067 11.4143 24.5078L11.4187 24.8304L11.423 25.1529C11.5051 25.1518 11.5868 25.1504 11.6681 25.1486L11.6613 24.8261ZM11.4187 24.8304L11.4143 24.5078L11.2924 24.5095L11.2967 24.832L11.3011 25.1546L11.423 25.1529L11.4187 24.8304ZM11.2967 24.832L11.2924 24.5095L11.1705 24.5111L11.1748 24.8337L11.1792 25.1562L11.3011 25.1546L11.2967 24.832ZM11.1748 24.8337L11.1705 24.5111C11.1465 24.5114 11.1232 24.5064 11.096 24.4916L10.942 24.775L10.788 25.0585C10.9087 25.1241 11.0406 25.1581 11.1792 25.1562L11.1748 24.8337ZM10.942 24.775L11.096 24.4916L10.9851 24.4313L10.8311 24.7148L10.677 24.9982L10.788 25.0585L10.942 24.775ZM10.8311 24.7148L10.9851 24.4313L10.8742 24.371L10.7201 24.6545L10.5661 24.9379L10.677 24.9982L10.8311 24.7148ZM10.7201 24.6545L10.8742 24.371C10.7411 24.2987 10.5948 24.2711 10.4449 24.2887L10.4826 24.6091L10.5202 24.9294C10.5392 24.9272 10.5513 24.9299 10.5661 24.9379L10.7201 24.6545ZM10.4826 24.6091L10.4449 24.2887L10.3183 24.3036L10.3559 24.6239L10.3936 24.9443L10.5202 24.9294L10.4826 24.6091ZM10.3559 24.6239L10.3183 24.3036L10.1916 24.3185L10.2293 24.6388L10.2669 24.9592L10.3936 24.9443L10.3559 24.6239ZM10.2293 24.6388L10.1916 24.3185C10.1163 24.3273 10.0409 24.3329 9.96533 24.3353L9.9754 24.6577L9.98547 24.9801C10.0795 24.9772 10.1733 24.9702 10.2669 24.9592L10.2293 24.6388ZM9.9754 24.6577L9.96533 24.3353L9.8381 24.3392L9.84818 24.6617L9.85825 24.9841L9.98547 24.9801L9.9754 24.6577ZM9.84818 24.6617L9.8381 24.3392L9.71088 24.3432L9.72095 24.6656L9.73102 24.9881L9.85825 24.9841L9.84818 24.6617ZM9.72095 24.6656L9.71088 24.3432C9.71345 24.3431 9.71809 24.3433 9.72413 24.3445C9.73023 24.3458 9.73613 24.3478 9.74133 24.3503C9.75216 24.3554 9.75334 24.3594 9.74682 24.3517L9.5011 24.5607L9.25537 24.7697C9.37181 24.9066 9.53519 24.9942 9.73102 24.9881L9.72095 24.6656ZM9.5011 24.5607L9.74682 24.3517L9.65419 24.2428L9.40847 24.4518L9.16274 24.6608L9.25537 24.7697L9.5011 24.5607ZM9.40847 24.4518L9.65419 24.2428L9.56156 24.1339L9.31583 24.3429L9.07011 24.5519L9.16274 24.6608L9.40847 24.4518ZM9.31583 24.3429L9.56156 24.1339C9.42815 23.977 9.23801 23.9038 9.03013 23.9405L9.08618 24.2581L9.14223 24.5758C9.13949 24.5763 9.12276 24.5781 9.10044 24.5699C9.07858 24.5618 9.06905 24.5506 9.07011 24.5519L9.31583 24.3429ZM9.08618 24.2581L9.03013 23.9405L8.89311 23.9646L8.94916 24.2823L9.0052 24.6L9.14223 24.5758L9.08618 24.2581ZM8.94916 24.2823L8.89311 23.9646L8.75608 23.9888L8.81213 24.3065L8.86818 24.6242L9.0052 24.6L8.94916 24.2823ZM8.81213 24.3065L8.75608 23.9888C8.75076 23.9898 8.75843 23.9876 8.77337 23.9918C8.78041 23.9938 8.78699 23.9966 8.7926 23.9999C8.79812 24.0031 8.80134 24.0059 8.80244 24.0069L8.58059 24.2411L8.35874 24.4753C8.50168 24.6107 8.68426 24.6566 8.86818 24.6242L8.81213 24.3065ZM8.58059 24.2411L8.80244 24.0069L8.70792 23.9174L8.48607 24.1516L8.26422 24.3858L8.35874 24.4753L8.58059 24.2411ZM8.48607 24.1516L8.70792 23.9174L8.6134 23.8279L8.39155 24.062L8.1697 24.2962L8.26422 24.3858L8.48607 24.1516ZM8.39155 24.062L8.6134 23.8279C8.53412 23.7528 8.44868 23.6874 8.35685 23.6333L8.19303 23.9112L8.0292 24.1891C8.07605 24.2167 8.12295 24.2519 8.1697 24.2962L8.39155 24.062ZM8.19303 23.9112L8.35685 23.6333L8.25285 23.572L8.08903 23.8499L7.9252 24.1278L8.0292 24.1891L8.19303 23.9112ZM8.08903 23.8499L8.25285 23.572L8.14885 23.5107L7.98503 23.7886L7.8212 24.0664L7.9252 24.1278L8.08903 23.8499ZM7.98503 23.7886L8.14885 23.5107C8.02636 23.4385 7.89132 23.4048 7.75255 23.4023L7.74679 23.7248L7.74103 24.0474C7.78124 24.0481 7.80503 24.0569 7.8212 24.0664L7.98503 23.7886ZM7.74679 23.7248L7.75255 23.4023L7.61831 23.3999L7.61255 23.7225L7.60679 24.045L7.74103 24.0474L7.74679 23.7248ZM7.61255 23.7225L7.61831 23.3999L7.48407 23.3975L7.47831 23.7201L7.47255 24.0426L7.60679 24.045L7.61255 23.7225ZM7.47831 23.7201L7.48407 23.3975C7.45223 23.397 7.43763 23.3896 7.42818 23.383L7.24358 23.6475L7.05898 23.9121C7.18351 23.999 7.3254 24.04 7.47255 24.0426L7.47831 23.7201ZM7.24358 23.6475L7.42818 23.383L7.32769 23.3129L7.14309 23.5774L6.95849 23.8419L7.05898 23.9121L7.24358 23.6475ZM7.14309 23.5774L7.32769 23.3129L7.2272 23.2427L7.0426 23.5073L6.858 23.7718L6.95849 23.8419L7.14309 23.5774ZM7.0426 23.5073L7.2272 23.2427C7.14478 23.1852 7.05787 23.1353 6.96667 23.0929L6.83083 23.3855L6.695 23.6781C6.75216 23.7046 6.80643 23.7358 6.858 23.7718L7.0426 23.5073ZM6.83083 23.3855L6.96667 23.0929L6.8554 23.0413L6.71956 23.3338L6.58372 23.6264L6.695 23.6781L6.83083 23.3855ZM6.71956 23.3338L6.8554 23.0413L6.74413 22.9896L6.60829 23.2822L6.47245 23.5748L6.58372 23.6264L6.71956 23.3338ZM6.60829 23.2822L6.74413 22.9896C6.68359 22.9615 6.62553 22.9294 6.56986 22.8933L6.39446 23.1641L6.21905 23.4348C6.30014 23.4873 6.38464 23.534 6.47245 23.5748L6.60829 23.2822ZM6.39446 23.1641L6.56986 22.8933L6.4673 22.8269L6.29189 23.0976L6.11648 23.3683L6.21905 23.4348L6.39446 23.1641ZM6.29189 23.0976L6.4673 22.8269L6.36473 22.7604L6.18932 23.0312L6.01392 23.3019L6.11648 23.3683L6.29189 23.0976ZM6.18932 23.0312L6.36473 22.7604C6.3434 22.7466 6.32177 22.7256 6.30113 22.6894L6.0209 22.8492L5.74067 23.009C5.80784 23.1268 5.89849 23.2271 6.01392 23.3019L6.18932 23.0312ZM6.0209 22.8492L6.30113 22.6894L6.23527 22.5739L5.95504 22.7337L5.67481 22.8935L5.74067 23.009L6.0209 22.8492ZM5.95504 22.7337L6.23527 22.5739L6.16941 22.4584L5.88918 22.6182L5.60895 22.7779L5.67481 22.8935L5.95504 22.7337ZM5.88918 22.6182L6.16941 22.4584C6.1017 22.3396 6.00962 22.2387 5.89147 22.1649L5.72066 22.4386L5.54984 22.7122C5.56858 22.7239 5.58885 22.7427 5.60895 22.7779L5.88918 22.6182ZM5.72066 22.4386L5.89147 22.1649L5.78881 22.1008L5.61799 22.3745L5.44717 22.6481L5.54984 22.7122L5.72066 22.4386ZM5.61799 22.3745L5.78881 22.1008L5.68614 22.0368L5.51532 22.3104L5.3445 22.584L5.44717 22.6481L5.61799 22.3745ZM5.51532 22.3104L5.68614 22.0368C5.63817 22.0068 5.59444 21.9721 5.55457 21.9325L5.32706 22.1611L5.09955 22.3898C5.1738 22.4637 5.25558 22.5285 5.3445 22.584L5.51532 22.3104ZM5.32706 22.1611L5.55457 21.9325L5.46898 21.8473L5.24146 22.076L5.01395 22.3047L5.09955 22.3898L5.32706 22.1611ZM5.24146 22.076L5.46898 21.8473L5.38338 21.7622L5.15587 21.9908L4.92836 22.2195L5.01395 22.3047L5.24146 22.076ZM5.15587 21.9908L5.38338 21.7622C5.33983 21.7188 5.29994 21.6715 5.26366 21.62L4.99985 21.8056L4.73604 21.9912C4.79367 22.0731 4.85779 22.1493 4.92836 22.2195L5.15587 21.9908ZM4.99985 21.8056L5.26366 21.62L5.19324 21.5199L4.92942 21.7055L4.66561 21.8912L4.73604 21.9912L4.99985 21.8056ZM4.92942 21.7055L5.19324 21.5199L5.12281 21.4198L4.859 21.6054L4.59519 21.7911L4.66561 21.8912L4.92942 21.7055ZM4.859 21.6054L5.12281 21.4198C5.05852 21.3284 4.98265 21.2475 4.89553 21.1781L4.69452 21.4304L4.4935 21.6827C4.53178 21.7132 4.56558 21.749 4.59519 21.7911L4.859 21.6054ZM4.69452 21.4304L4.89553 21.1781L4.80147 21.1032L4.60046 21.3555L4.39945 21.6078L4.4935 21.6827L4.69452 21.4304ZM4.60046 21.3555L4.80147 21.1032L4.70742 21.0282L4.5064 21.2805L4.30539 21.5328L4.39945 21.6078L4.60046 21.3555ZM4.5064 21.2805L4.70742 21.0282C4.66651 20.9956 4.63075 20.9587 4.59964 20.9168L4.3407 21.1092L4.08176 21.3015C4.14618 21.3882 4.22089 21.4655 4.30539 21.5328L4.5064 21.2805ZM4.3407 21.1092L4.59964 20.9168L4.528 20.8203L4.26906 21.0127L4.01012 21.2051L4.08176 21.3015L4.3407 21.1092ZM4.26906 21.0127L4.528 20.8203L4.45635 20.7239L4.19741 20.9163L3.93847 21.1087L4.01012 21.2051L4.26906 21.0127ZM4.19741 20.9163L4.45635 20.7239C4.39653 20.6434 4.32961 20.569 4.25577 20.501L4.03718 20.7382L3.81858 20.9754C3.86286 21.0162 3.90276 21.0606 3.93847 21.1087L4.19741 20.9163ZM4.03718 20.7382L4.25577 20.501L4.16718 20.4194L3.94859 20.6566L3.73 20.8938L3.81858 20.9754L4.03718 20.7382ZM3.94859 20.6566L4.16718 20.4194L4.0786 20.3377L3.86 20.575L3.64141 20.8122L3.73 20.8938L3.94859 20.6566ZM3.86 20.575L4.0786 20.3377C4.01593 20.28 3.95142 20.2232 3.88508 20.1673L3.67731 20.4141L3.46954 20.6609C3.52868 20.7106 3.58596 20.7611 3.64141 20.8122L3.86 20.575ZM3.67731 20.4141L3.88508 20.1673L3.79097 20.0881L3.5832 20.3349L3.37543 20.5816L3.46954 20.6609L3.67731 20.4141ZM3.5832 20.3349L3.79097 20.0881L3.69686 20.0089L3.48909 20.2556L3.28132 20.5024L3.37543 20.5816L3.5832 20.3349ZM3.48909 20.2556L3.69686 20.0089C3.66996 19.9862 3.65036 19.9605 3.63584 19.9293L3.34333 20.0653L3.05082 20.2013C3.10517 20.3182 3.18275 20.4194 3.28132 20.5024L3.48909 20.2556ZM3.34333 20.0653L3.63584 19.9293L3.58419 19.8182L3.29168 19.9542L2.99916 20.0902L3.05082 20.2013L3.34333 20.0653ZM3.29168 19.9542L3.58419 19.8182L3.53254 19.7071L3.24002 19.8431L2.94751 19.9791L2.99916 20.0902L3.29168 19.9542ZM3.24002 19.8431L3.53254 19.7071C3.48242 19.5993 3.41509 19.5025 3.33153 19.4179L3.10206 19.6446L2.87259 19.8713C2.90411 19.9032 2.92875 19.9387 2.94751 19.9791L3.24002 19.8431ZM3.10206 19.6446L3.33153 19.4179L3.24523 19.3305L3.01576 19.5573L2.78629 19.784L2.87259 19.8713L3.10206 19.6446ZM3.01576 19.5573L3.24523 19.3305L3.15893 19.2432L2.92946 19.4699L2.69999 19.6966L2.78629 19.784L3.01576 19.5573ZM2.92946 19.4699L3.15893 19.2432C3.09674 19.1802 3.03179 19.1184 2.96411 19.0576L2.74852 19.2975L2.53294 19.5375C2.59144 19.5901 2.64711 19.6431 2.69999 19.6966L2.92946 19.4699ZM2.74852 19.2975L2.96411 19.0576L2.86947 18.9725L2.65388 19.2125L2.4383 19.4525L2.53294 19.5375L2.74852 19.2975ZM2.65388 19.2125L2.86947 18.9725L2.77483 18.8875L2.55925 19.1275L2.34366 19.3674L2.4383 19.4525L2.65388 19.2125ZM2.55925 19.1275L2.77483 18.8875C2.75508 18.8698 2.74469 18.8525 2.73833 18.8311L2.4291 18.9229L2.11988 19.0148C2.16086 19.1527 2.23723 19.2718 2.34366 19.3674L2.55925 19.1275ZM2.4291 18.9229L2.73833 18.8311L2.70283 18.7115L2.3936 18.8034L2.08437 18.8953L2.11988 19.0148L2.4291 18.9229ZM2.3936 18.8034L2.70283 18.7115L2.66732 18.592L2.3581 18.6839L2.04887 18.7757L2.08437 18.8953L2.3936 18.8034ZM2.3581 18.6839L2.66732 18.592C2.64438 18.5148 2.6225 18.4378 2.60168 18.361L2.29034 18.4454L1.979 18.5298C2.00118 18.6116 2.02447 18.6936 2.04887 18.7757L2.3581 18.6839ZM2.29034 18.4454L2.60168 18.361L2.56942 18.242L2.25808 18.3264L1.94675 18.4109L1.979 18.5298L2.29034 18.4454ZM2.25808 18.3264L2.56942 18.242L2.53717 18.1231L2.22583 18.2075L1.91449 18.2919L1.94675 18.4109L2.25808 18.3264ZM2.22583 18.2075L2.53717 18.1231C2.50519 18.0051 2.45246 17.8961 2.38003 17.7977L2.12022 17.9888L1.86041 18.18C1.88579 18.2145 1.90347 18.2512 1.91449 18.2919L2.22583 18.2075ZM2.12022 17.9888L2.38003 17.7977L2.30667 17.698L2.04686 17.8892L1.78704 18.0804L1.86041 18.18L2.12022 17.9888ZM2.04686 17.8892L2.30667 17.698L2.23331 17.5983L1.9735 17.7895L1.71368 17.9807L1.78704 18.0804L2.04686 17.8892ZM1.9735 17.7895L2.23331 17.5983C2.19098 17.5408 2.15188 17.4814 2.11599 17.4203L1.83779 17.5836L1.55959 17.7468C1.60682 17.8273 1.6582 17.9053 1.71368 17.9807L1.9735 17.7895ZM1.83779 17.5836L2.11599 17.4203L2.05364 17.314L1.77544 17.4773L1.49724 17.6406L1.55959 17.7468L1.83779 17.5836ZM1.77544 17.4773L2.05364 17.314L1.99129 17.2078L1.71309 17.3711L1.43489 17.5344L1.49724 17.6406L1.77544 17.4773ZM1.71309 17.3711L1.99129 17.2078C1.95299 17.1426 1.91661 17.0761 1.88214 17.0084L1.59468 17.1548L1.30722 17.3011C1.3475 17.3803 1.39006 17.458 1.43489 17.5344L1.71309 17.3711ZM1.59468 17.1548L1.88214 17.0084L1.82607 16.8983L1.53861 17.0447L1.25115 17.191L1.30722 17.3011L1.59468 17.1548ZM1.53861 17.0447L1.82607 16.8983L1.77 16.7882L1.48255 16.9346L1.19509 17.0809L1.25115 17.191L1.53861 17.0447ZM1.48255 16.9346L1.77 16.7882C1.76593 16.7802 1.76116 16.7678 1.7655 16.7388L1.44648 16.691L1.12746 16.6432C1.10514 16.7922 1.1244 16.9421 1.19509 17.0809L1.48255 16.9346ZM1.44648 16.691L1.7655 16.7388L1.7855 16.6054L1.46648 16.5576L1.14746 16.5097L1.12746 16.6432L1.44648 16.691ZM1.46648 16.5576L1.7855 16.6054L1.8055 16.4719L1.48648 16.4241L1.16746 16.3763L1.14746 16.5097L1.46648 16.5576ZM1.48648 16.4241L1.8055 16.4719C1.82346 16.3521 1.82371 16.2321 1.8023 16.1143L1.48492 16.1719L1.16753 16.2296C1.17488 16.2701 1.17616 16.3182 1.16746 16.3763L1.48648 16.4241ZM1.48492 16.1719L1.8023 16.1143L1.78074 15.9956L1.46335 16.0532L1.14596 16.1109L1.16753 16.2296L1.48492 16.1719ZM1.46335 16.0532L1.78074 15.9956L1.75918 15.8768L1.44179 15.9345L1.1244 15.9921L1.14596 16.1109L1.46335 16.0532ZM1.44179 15.9345L1.75918 15.8768C1.73939 15.7679 1.70469 15.6631 1.65599 15.563L1.36591 15.7041L1.07583 15.8452C1.09955 15.894 1.11543 15.9427 1.1244 15.9921L1.44179 15.9345ZM1.36591 15.7041L1.65599 15.563L1.60167 15.4513L1.31159 15.5924L1.02151 15.7335L1.07583 15.8452L1.36591 15.7041ZM1.31159 15.5924L1.60167 15.4513L1.54736 15.3397L1.25728 15.4808L0.967196 15.6219L1.02151 15.7335L1.31159 15.5924ZM1.25728 15.4808L1.54736 15.3397C1.52028 15.284 1.4994 15.2275 1.48438 15.1699L1.17223 15.2512L0.860079 15.3326C0.886037 15.4322 0.921855 15.5287 0.967196 15.6219L1.25728 15.4808ZM1.17223 15.2512L1.48438 15.1699L1.45365 15.052L1.1415 15.1333L0.829348 15.2147L0.860079 15.3326L1.17223 15.2512ZM1.1415 15.1333L1.45365 15.052L1.42292 14.9341L1.11077 15.0154L0.798616 15.0968L0.829348 15.2147L1.1415 15.1333ZM1.11077 15.0154L1.42292 14.9341C1.39977 14.8453 1.37212 14.757 1.34005 14.6694L1.03711 14.7802L0.734158 14.891C0.759332 14.9598 0.78079 15.0284 0.798616 15.0968L1.11077 15.0154ZM1.03711 14.7802L1.34005 14.6694L1.29712 14.552L0.994177 14.6628L0.691229 14.7736L0.734158 14.891L1.03711 14.7802ZM0.994177 14.6628L1.29712 14.552L1.2542 14.4346L0.951247 14.5455L0.648299 14.6563L0.691229 14.7736L0.994177 14.6628ZM0.951247 14.5455L1.2542 14.4346C1.2493 14.4212 1.24753 14.4081 1.25351 14.3857L0.941843 14.3025L0.63018 14.2193C0.591461 14.3643 0.59596 14.5132 0.648299 14.6563L0.951247 14.5455ZM0.941843 14.3025L1.25351 14.3857L1.28703 14.2602L0.975368 14.177L0.663705 14.0938L0.63018 14.2193L0.941843 14.3025ZM0.975368 14.177L1.28703 14.2602L1.32056 14.1346L1.00889 14.0514L0.69723 13.9682L0.663705 14.0938L0.975368 14.177ZM1.00889 14.0514L1.32056 14.1346C1.35022 14.0235 1.36473 13.9108 1.36205 13.7973L1.03956 13.805L0.717072 13.8126C0.7182 13.8603 0.712265 13.9119 0.69723 13.9682L1.00889 14.0514ZM1.03956 13.805L1.36205 13.7973L1.3592 13.6765L1.03671 13.6841L0.714217 13.6917L0.717072 13.8126L1.03956 13.805ZM1.03671 13.6841L1.3592 13.6765L1.35634 13.5556L1.03385 13.5632L0.711361 13.5708L0.714217 13.6917L1.03671 13.6841ZM1.03385 13.5632L1.35634 13.5556C1.35351 13.4358 1.32915 13.3189 1.28623 13.2063L0.984818 13.3212L0.683405 13.4362C0.702055 13.4851 0.710386 13.5295 0.711361 13.5708L1.03385 13.5632ZM0.984818 13.3212L1.28623 13.2063L1.24005 13.0852L0.93864 13.2001L0.637227 13.3151L0.683405 13.4362L0.984818 13.3212ZM0.93864 13.2001L1.24005 13.0852L1.19387 12.9641L0.892461 13.079L0.591048 13.194L0.637227 13.3151L0.93864 13.2001ZM0.892461 13.079L1.19387 12.9641C1.19261 12.9608 1.19223 12.959 1.19213 12.9585C1.19205 12.958 1.19213 12.9583 1.19212 12.959C1.19212 12.9597 1.19204 12.9599 1.19212 12.9595C1.1922 12.9591 1.19258 12.9573 1.19383 12.9541L0.893152 12.8373L0.592472 12.7205C0.532229 12.8755 0.531838 13.0387 0.591048 13.194L0.892461 13.079ZM0.893152 12.8373L1.19383 12.9541L1.2407 12.8335L0.940021 12.7167L0.639341 12.5998L0.592472 12.7205L0.893152 12.8373ZM0.940021 12.7167L1.2407 12.8335L1.28757 12.7129L0.98689 12.5961L0.68621 12.4792L0.639341 12.5998L0.940021 12.7167ZM0.98689 12.5961L1.28757 12.7129C1.33345 12.5948 1.35636 12.4712 1.35254 12.3442L1.0301 12.3539L0.707667 12.3636C0.708722 12.3987 0.702823 12.4365 0.68621 12.4792L0.98689 12.5961ZM1.0301 12.3539L1.35254 12.3442L1.34888 12.2227L1.02644 12.2324L0.70401 12.2421L0.707667 12.3636L1.0301 12.3539ZM1.02644 12.2324L1.34888 12.2227L1.34522 12.1012L1.02279 12.1109L0.700352 12.1206L0.70401 12.2421L1.02644 12.2324ZM1.02279 12.1109L1.34522 12.1012C1.34305 12.0289 1.34382 11.9568 1.34754 11.8847L1.02538 11.8681L0.703231 11.8514C0.69861 11.9411 0.69765 12.0308 0.700352 12.1206L1.02279 12.1109ZM1.02538 11.8681L1.34754 11.8847L1.35379 11.7633L1.03164 11.7467L0.709486 11.7301L0.703231 11.8514L1.02538 11.8681ZM1.03164 11.7467L1.35379 11.7633L1.36005 11.642L1.03789 11.6254L0.715741 11.6088L0.709486 11.7301L1.03164 11.7467ZM1.03789 11.6254L1.36005 11.642C1.36223 11.5996 1.3717 11.5576 1.38988 11.5144L1.09265 11.3891L0.79542 11.2637C0.748932 11.374 0.721892 11.4895 0.715741 11.6088L1.03789 11.6254ZM1.09265 11.3891L1.38988 11.5144L1.43838 11.3994L1.14115 11.2741L0.843922 11.1487L0.79542 11.2637L1.09265 11.3891ZM1.14115 11.2741L1.43838 11.3994L1.48688 11.2844L1.18965 11.1591L0.892424 11.0337L0.843922 11.1487L1.14115 11.2741ZM1.18965 11.1591L1.48688 11.2844C1.5211 11.2033 1.55308 11.1224 1.58282 11.0416L1.28011 10.9301L0.977395 10.8187C0.951195 10.8898 0.922879 10.9615 0.892424 11.0337L1.18965 11.1591ZM1.28011 10.9301L1.58282 11.0416L1.62477 10.9277L1.32206 10.8162L1.01934 10.7047L0.977395 10.8187L1.28011 10.9301ZM1.32206 10.8162L1.62477 10.9277L1.66672 10.8137L1.36401 10.7023L1.06129 10.5908L1.01934 10.7047L1.32206 10.8162ZM1.36401 10.7023L1.66672 10.8137C1.71766 10.6754 1.72372 10.5318 1.69394 10.3915L1.37839 10.4584L1.06284 10.5254C1.06982 10.5583 1.06629 10.5772 1.06129 10.5908L1.36401 10.7023ZM1.37839 10.4584L1.69394 10.3915L1.66638 10.2616L1.35082 10.3285L1.03527 10.3955L1.06284 10.5254L1.37839 10.4584ZM1.35082 10.3285L1.66638 10.2616L1.63881 10.1317L1.32326 10.1986L1.0077 10.2656L1.03527 10.3955L1.35082 10.3285ZM1.32326 10.1986L1.63881 10.1317C1.63801 10.1279 1.638 10.1263 1.63801 10.1266C1.63802 10.1269 1.63801 10.1285 1.63757 10.131C1.63713 10.1335 1.63644 10.1358 1.6357 10.1376C1.63499 10.1394 1.63459 10.1398 1.63522 10.1389L1.36521 9.96236L1.0952 9.78587C0.999563 9.93217 0.9724 10.0992 1.0077 10.2656L1.32326 10.1986ZM1.36521 9.96236L1.63522 10.1389L1.70474 10.0325L1.43473 9.85601L1.16472 9.67951L1.0952 9.78587L1.36521 9.96236ZM1.43473 9.85601L1.70474 10.0325L1.77426 9.92615L1.50425 9.74965L1.23424 9.57316L1.16472 9.67951L1.43473 9.85601ZM1.50425 9.74965L1.77426 9.92615C1.85162 9.80781 1.89525 9.67501 1.90166 9.53312L1.57941 9.51855L1.25716 9.50397C1.25606 9.52841 1.24958 9.54969 1.23424 9.57316L1.50425 9.74965ZM1.57941 9.51855L1.90166 9.53312L1.90731 9.40837L1.58505 9.3938L1.2628 9.37922L1.25716 9.50397L1.57941 9.51855ZM1.58505 9.3938L1.90731 9.40837L1.91295 9.28362L1.5907 9.26904L1.26844 9.25447L1.2628 9.37922L1.58505 9.3938ZM1.5907 9.26904L1.91295 9.28362C1.91616 9.21259 1.92334 9.14241 1.93447 9.07301L1.61596 9.02192L1.29745 8.97084C1.28242 9.0646 1.27275 9.15917 1.26844 9.25447L1.5907 9.26904ZM1.61596 9.02192L1.93447 9.07301L1.9541 8.95064L1.63559 8.89955L1.31708 8.84847L1.29745 8.97084L1.61596 9.02192ZM1.63559 8.89955L1.9541 8.95064L1.97373 8.82827L1.65522 8.77719L1.33671 8.7261L1.31708 8.84847L1.63559 8.89955ZM1.65522 8.77719L1.97373 8.82827C1.97578 8.81543 1.98037 8.80278 1.99763 8.78489L1.76554 8.56086L1.53345 8.33682C1.42978 8.44422 1.36082 8.57578 1.33671 8.7261L1.65522 8.77719ZM1.76554 8.56086L1.99763 8.78489L2.08833 8.69093L1.85624 8.4669L1.62415 8.24286L1.53345 8.33682L1.76554 8.56086ZM1.85624 8.4669L2.08833 8.69093L2.17903 8.59697L1.94694 8.37293L1.71485 8.1489L1.62415 8.24286L1.85624 8.4669ZM1.94694 8.37293L2.17903 8.59697C2.25411 8.51919 2.32001 8.43573 2.3755 8.34635L2.10143 8.17622L1.82736 8.00609C1.7978 8.05371 1.76071 8.10139 1.71485 8.1489L1.94694 8.37293ZM2.10143 8.17622L2.3755 8.34635L2.43928 8.2436L2.16521 8.07347L1.89115 7.90334L1.82736 8.00609L2.10143 8.17622ZM2.16521 8.07347L2.43928 8.2436L2.50307 8.14085L2.229 7.97072L1.95493 7.80058L1.89115 7.90334L2.16521 8.07347ZM2.229 7.97072L2.50307 8.14085C2.58094 8.0154 2.61536 7.87571 2.61547 7.73279L2.29289 7.73253L1.97031 7.73227C1.97028 7.76993 1.9621 7.78903 1.95493 7.80058L2.229 7.97072ZM2.29289 7.73253L2.61547 7.73279L2.61558 7.59735L2.293 7.59709L1.97042 7.59683L1.97031 7.73227L2.29289 7.73253ZM2.293 7.59709L2.61558 7.59735L2.61569 7.46192L2.29311 7.46166L1.97053 7.4614L1.97042 7.59683L2.293 7.59709ZM2.29311 7.46166L2.61569 7.46192C2.61569 7.4578 2.61624 7.46447 2.61085 7.47602C2.60837 7.48134 2.6054 7.48597 2.60249 7.48962C2.6011 7.49136 2.5999 7.49266 2.59901 7.49355C2.59812 7.49444 2.59763 7.49484 2.59766 7.49481L2.3947 7.24408L2.19175 6.99334C2.0453 7.11189 1.97068 7.27805 1.97053 7.4614L2.29311 7.46166ZM2.3947 7.24408L2.59766 7.49481L2.69914 7.41267L2.49619 7.16193L2.29324 6.91119L2.19175 6.99334L2.3947 7.24408ZM2.49619 7.16193L2.69914 7.41267L2.80063 7.33052L2.59768 7.07978L2.39472 6.82905L2.29324 6.91119L2.49619 7.16193ZM2.59768 7.07978L2.80063 7.33052C2.91519 7.23779 2.99949 7.11805 3.0442 6.97508L2.73632 6.8788L2.42844 6.78253C2.4236 6.79801 2.41548 6.81225 2.39472 6.82905L2.59768 7.07978ZM2.73632 6.8788L3.0442 6.97508L3.08136 6.85624L2.77348 6.75997L2.4656 6.6637L2.42844 6.78253L2.73632 6.8788ZM2.77348 6.75997L3.08136 6.85624L3.11852 6.73741L2.81064 6.64113L2.50276 6.54486L2.4656 6.6637L2.77348 6.75997ZM2.81064 6.64113L3.11852 6.73741C3.12983 6.70123 3.14673 6.67186 3.1698 6.64604L2.92922 6.43114L2.68864 6.21625C2.60315 6.31196 2.54099 6.4226 2.50276 6.54486L2.81064 6.64113ZM2.92922 6.43114L3.1698 6.64604L3.25123 6.55488L3.01065 6.33999L2.77007 6.12509L2.68864 6.21625L2.92922 6.43114ZM3.01065 6.33999L3.25123 6.55488L3.33265 6.46373L3.09207 6.24883L2.85149 6.03393L2.77007 6.12509L3.01065 6.33999ZM3.09207 6.24883L3.33265 6.46373C3.42008 6.36585 3.48197 6.25205 3.5195 6.12707L3.21054 6.0343L2.90159 5.94154C2.88972 5.98105 2.87263 6.01027 2.85149 6.03393L3.09207 6.24883ZM3.21054 6.0343L3.5195 6.12707L3.55654 6.0037L3.24758 5.91093L2.93863 5.81817L2.90159 5.94154L3.21054 6.0343ZM3.24758 5.91093L3.55654 6.0037L3.59358 5.88033L3.28463 5.78756L2.97567 5.6948L2.93863 5.81817L3.24758 5.91093ZM3.28463 5.78756L3.59358 5.88033C3.59233 5.88451 3.58974 5.89121 3.58491 5.89911C3.58003 5.9071 3.57403 5.91438 3.56754 5.92043C3.55424 5.93283 3.54615 5.93348 3.5556 5.93063L3.46257 5.62175L3.36955 5.31288C3.18918 5.3672 3.03635 5.49269 2.97567 5.6948L3.28463 5.78756ZM3.46257 5.62175L3.5556 5.93063L3.69651 5.88819L3.60348 5.57931L3.51045 5.27044L3.36955 5.31288L3.46257 5.62175ZM3.60348 5.57931L3.69651 5.88819L3.83742 5.84575L3.74439 5.53688L3.65136 5.228L3.51045 5.27044L3.60348 5.57931ZM3.74439 5.53688L3.83742 5.84575C3.99302 5.79889 4.13638 5.70532 4.22581 5.54851L3.9456 5.3887L3.66538 5.22889C3.66651 5.22691 3.6681 5.22465 3.67001 5.22251C3.67191 5.22039 3.6734 5.2192 3.67386 5.21887C3.67478 5.21819 3.66914 5.22264 3.65136 5.228L3.74439 5.53688ZM3.9456 5.3887L4.22581 5.54851L4.28611 5.44277L4.0059 5.28296L3.72568 5.12316L3.66538 5.22889L3.9456 5.3887ZM4.0059 5.28296L4.28611 5.44277L4.34641 5.33703L4.0662 5.17723L3.78598 5.01742L3.72568 5.12316L4.0059 5.28296ZM4.0662 5.17723L4.34641 5.33703C4.39131 5.25831 4.43335 5.17653 4.4726 5.09179L4.17989 4.95622L3.88718 4.82065C3.85524 4.8896 3.82149 4.95516 3.78598 5.01742L4.0662 5.17723ZM4.17989 4.95622L4.4726 5.09179L4.52599 4.97652L4.23328 4.84094L3.94057 4.70537L3.88718 4.82065L4.17989 4.95622ZM4.23328 4.84094L4.52599 4.97652L4.57938 4.86124L4.28667 4.72567L3.99396 4.5901L3.94057 4.70537L4.23328 4.84094ZM4.28667 4.72567L4.57938 4.86124C4.5806 4.85861 4.5814 4.85745 4.58151 4.85728C4.58161 4.85715 4.58141 4.85744 4.58097 4.85786C4.57965 4.85915 4.58056 4.85757 4.58738 4.8546L4.45872 4.55879L4.33006 4.26298C4.17997 4.32826 4.06344 4.44009 3.99396 4.5901L4.28667 4.72567ZM4.45872 4.55879L4.58738 4.8546L4.70604 4.80299L4.57738 4.50718L4.44872 4.21137L4.33006 4.26298L4.45872 4.55879ZM4.57738 4.50718L4.70604 4.80299L4.82469 4.75138L4.69603 4.45557L4.56737 4.15976L4.44872 4.21137L4.57738 4.50718ZM4.69603 4.45557L4.82469 4.75138C4.972 4.68731 5.08735 4.57935 5.16054 4.43589L4.87319 4.2893L4.58585 4.1427C4.58225 4.14976 4.57969 4.15224 4.57889 4.15299C4.57808 4.15376 4.5752 4.15636 4.56737 4.15976L4.69603 4.45557ZM4.87319 4.2893L5.16054 4.43589L5.21904 4.32123L4.93169 4.17463L4.64434 4.02804L4.58585 4.1427L4.87319 4.2893ZM4.93169 4.17463L5.21904 4.32123L5.27754 4.20657L4.99019 4.05997L4.70284 3.91337L4.64434 4.02804L4.93169 4.17463ZM4.99019 4.05997L5.27754 4.20657C5.28585 4.19026 5.29255 4.18525 5.30217 4.18056L5.16071 3.89065L5.01925 3.60073C4.87951 3.66892 4.77252 3.77679 4.70284 3.91337L4.99019 4.05997ZM5.16071 3.89065L5.30217 4.18056L5.41419 4.1259L5.27273 3.83599L5.13128 3.54608L5.01925 3.60073L5.16071 3.89065ZM5.27273 3.83599L5.41419 4.1259L5.52621 4.07124L5.38475 3.78133L5.2433 3.49142L5.13128 3.54608L5.27273 3.83599ZM5.38475 3.78133L5.52621 4.07124C5.60996 4.03037 5.69076 3.98609 5.7685 3.93832L5.59963 3.66347L5.43077 3.38862C5.37136 3.42512 5.30891 3.4594 5.2433 3.49142L5.38475 3.78133ZM5.59963 3.66347L5.7685 3.93832L5.87136 3.87513L5.70249 3.60028L5.53363 3.32543L5.43077 3.38862L5.59963 3.66347ZM5.70249 3.60028L5.87136 3.87513L5.97422 3.81193L5.80535 3.53708L5.63649 3.26223L5.53363 3.32543L5.70249 3.60028ZM5.80535 3.53708L5.97422 3.81193C6.09794 3.73592 6.19108 3.62904 6.25672 3.50427L5.97123 3.35409L5.68574 3.20391C5.66735 3.23887 5.6499 3.25399 5.63649 3.26223L5.80535 3.53708ZM5.97123 3.35409L6.25672 3.50427L6.31973 3.38448L6.03424 3.2343L5.74875 3.08412L5.68574 3.20391L5.97123 3.35409ZM6.03424 3.2343L6.31973 3.38448L6.38275 3.26468L6.09726 3.1145L5.81177 2.96433L5.74875 3.08412L6.03424 3.2343ZM6.09726 3.1145L6.38275 3.26468C6.38449 3.26137 6.38528 3.26057 6.3846 3.26141C6.38387 3.26233 6.38208 3.26435 6.37913 3.26675C6.37615 3.26918 6.37297 3.2712 6.37 3.27267C6.36709 3.27413 6.3654 3.27456 6.36563 3.2745L6.28415 2.96238L6.20268 2.65025C6.02684 2.69615 5.89328 2.80938 5.81177 2.96433L6.09726 3.1145ZM6.28415 2.96238L6.36563 3.2745L6.4895 3.24216L6.40803 2.93004L6.32656 2.61792L6.20268 2.65025L6.28415 2.96238ZM6.40803 2.93004L6.4895 3.24216L6.61338 3.20983L6.53191 2.89771L6.45044 2.58558L6.32656 2.61792L6.40803 2.93004ZM6.53191 2.89771L6.61338 3.20983C6.71616 3.183 6.81445 3.14673 6.90753 3.10042L6.76384 2.81161L6.62014 2.5228C6.56916 2.54817 6.51284 2.5693 6.45044 2.58558L6.53191 2.89771ZM6.76384 2.81161L6.90753 3.10042L7.01558 3.04666L6.87188 2.75785L6.72819 2.46905L6.62014 2.5228L6.76384 2.81161ZM6.87188 2.75785L7.01558 3.04666L7.12363 2.9929L6.97993 2.7041L6.83624 2.41529L6.72819 2.46905L6.87188 2.75785ZM6.97993 2.7041L7.12363 2.9929C7.23898 2.93551 7.33752 2.85477 7.41938 2.7562L7.17123 2.5501L6.92307 2.344C6.89394 2.37908 6.86495 2.401 6.83624 2.41529L6.97993 2.7041ZM7.17123 2.5501L7.41938 2.7562L7.50263 2.65596L7.25447 2.44986L7.00632 2.24377L6.92307 2.344L7.17123 2.5501ZM7.25447 2.44986L7.50263 2.65596L7.58588 2.55572L7.33772 2.34963L7.08956 2.14353L7.00632 2.24377L7.25447 2.44986ZM7.33772 2.34963L7.58588 2.55572C7.59107 2.54948 7.59328 2.54868 7.59207 2.54937C7.59173 2.54956 7.59154 2.54962 7.59179 2.54953C7.59207 2.54943 7.59345 2.54898 7.59631 2.54853L7.54662 2.2298L7.49694 1.91107C7.33342 1.93656 7.19393 2.01787 7.08956 2.14353L7.33772 2.34963ZM7.54662 2.2298L7.59631 2.54853L7.72197 2.52894L7.67228 2.21021L7.62259 1.89148L7.49694 1.91107L7.54662 2.2298ZM7.67228 2.21021L7.72197 2.52894L7.84762 2.50935L7.79793 2.19062L7.74825 1.87189L7.62259 1.89148L7.67228 2.21021ZM7.79793 2.19062L7.84762 2.50935C7.93006 2.4965 8.01171 2.4843 8.09257 2.47275L8.04696 2.15341L8.00135 1.83407C7.91771 1.84602 7.83334 1.85863 7.74825 1.87189L7.79793 2.19062ZM8.04696 2.15341L8.09257 2.47275L8.21595 2.45513L8.17033 2.13579L8.12472 1.81645L8.00135 1.83407L8.04696 2.15341ZM8.17033 2.13579L8.21595 2.45513L8.33932 2.43751L8.2937 2.11817L8.24809 1.79883L8.12472 1.81645L8.17033 2.13579ZM8.2937 2.11817L8.33932 2.43751C8.48378 2.41687 8.61394 2.35673 8.72382 2.26204L8.51324 2.01768L8.30265 1.77332C8.28432 1.78911 8.26812 1.79597 8.24809 1.79883L8.2937 2.11817ZM8.51324 2.01768L8.72382 2.26204L8.81998 2.17917L8.6094 1.93481L8.39882 1.69045L8.30265 1.77332L8.51324 2.01768ZM8.6094 1.93481L8.81998 2.17917L8.91614 2.0963L8.70556 1.85194L8.49498 1.60758L8.39882 1.69045L8.6094 1.93481ZM8.70556 1.85194L8.91614 2.0963C8.96672 2.05271 9.01934 2.01465 9.07403 1.98178L8.90789 1.70528L8.74175 1.42877C8.65488 1.48097 8.57262 1.54067 8.49498 1.60758L8.70556 1.85194ZM8.90789 1.70528L9.07403 1.98178L9.1802 1.91799L9.01406 1.64149L8.84791 1.36498L8.74175 1.42877L8.90789 1.70528ZM9.01406 1.64149L9.1802 1.91799L9.28636 1.8542L9.12022 1.57769L8.95408 1.30119L8.84791 1.36498L9.01406 1.64149ZM9.12022 1.57769L9.28636 1.8542C9.33579 1.8245 9.38677 1.80155 9.43969 1.78484L9.34259 1.47722L9.24549 1.1696C9.14347 1.20181 9.04621 1.24583 8.95408 1.30119L9.12022 1.57769ZM9.34259 1.47722L9.43969 1.78484L9.55589 1.74816L9.45879 1.44054L9.36169 1.13292L9.24549 1.1696L9.34259 1.47722ZM9.45879 1.44054L9.55589 1.74816L9.67209 1.71148L9.57499 1.40386L9.47789 1.09625L9.36169 1.13292L9.45879 1.44054ZM9.57499 1.40386L9.67209 1.71148C9.76456 1.6823 9.85504 1.64632 9.94347 1.60375L9.80353 1.3131L9.6636 1.02245C9.60224 1.05199 9.54036 1.07653 9.47789 1.09625L9.57499 1.40386ZM9.80353 1.3131L9.94347 1.60375L10.0558 1.54966L9.91587 1.25901L9.77594 0.968362L9.6636 1.02245L9.80353 1.3131ZM9.91587 1.25901L10.0558 1.54966L10.1681 1.49557L10.0282 1.20492L9.88828 0.914274L9.77594 0.968362L9.91587 1.25901ZM10.0282 1.20492L10.1681 1.49557C10.2109 1.47497 10.2544 1.46246 10.2998 1.45724L10.263 1.13677L10.2262 0.816295C10.1084 0.829832 9.99527 0.862764 9.88828 0.914274L10.0282 1.20492ZM10.263 1.13677L10.2998 1.45724L10.4223 1.44317L10.3855 1.1227L10.3487 0.802227L10.2262 0.816295L10.263 1.13677ZM10.3855 1.1227L10.4223 1.44317L10.5448 1.42911L10.508 1.10863L10.4712 0.788159L10.3487 0.802227L10.3855 1.1227ZM10.508 1.10863L10.5448 1.42911C10.642 1.41794 10.7379 1.39979 10.8324 1.37465L10.7494 1.06292L10.6664 0.751192C10.6024 0.768247 10.5373 0.780566 10.4712 0.788159L10.508 1.10863ZM10.7494 1.06292L10.8324 1.37465L10.9513 1.34301L10.8683 1.03128L10.7853 0.719548L10.6664 0.751192L10.7494 1.06292ZM10.8683 1.03128L10.9513 1.34301L11.0702 1.31136L10.9872 0.999633L10.9042 0.687903L10.7853 0.719548L10.8683 1.03128ZM10.9872 0.999633L11.0702 1.31136C11.1382 1.29325 11.2069 1.27889 11.2763 1.26826L11.2274 0.949402L11.1786 0.630541C11.0862 0.644698 10.9947 0.663825 10.9042 0.687903L10.9872 0.999633ZM11.2274 0.949402L11.2763 1.26826L11.3976 1.24967L11.3487 0.930815L11.2999 0.611955L11.1786 0.630541L11.2274 0.949402ZM11.3487 0.930815L11.3976 1.24967L11.5189 1.23109L11.4701 0.912228L11.4212 0.593368L11.2999 0.611955L11.3487 0.930815ZM11.4701 0.912228L11.5189 1.23109C11.5159 1.23155 11.5147 1.23089 11.5177 1.23162C11.5216 1.23255 11.5329 1.23601 11.5521 1.24773L11.7204 0.972537L11.8887 0.697349C11.7533 0.614561 11.5937 0.566947 11.4212 0.593368L11.4701 0.912228ZM11.7204 0.972537L11.5521 1.24773L11.681 1.32662L11.8494 1.05143L12.0177 0.776246L11.8887 0.697349L11.7204 0.972537ZM11.8494 1.05143L11.681 1.32662L11.81 1.40552L11.9784 1.13033L12.1467 0.855142L12.0177 0.776246L11.8494 1.05143ZM11.9784 1.13033L11.81 1.40552C11.9355 1.48228 12.0801 1.53295 12.2377 1.52747L12.2265 1.20509L12.2153 0.8827C12.214 0.882743 12.1932 0.883579 12.1467 0.855142L11.9784 1.13033ZM12.2265 1.20509L12.2377 1.52747L12.3568 1.52333L12.3456 1.20094L12.3344 0.878559L12.2153 0.8827L12.2265 1.20509ZM12.3456 1.20094L12.3568 1.52333L12.4759 1.51919L12.4647 1.1968L12.4535 0.874418L12.3344 0.878559L12.3456 1.20094ZM12.4647 1.1968L12.4759 1.51919C12.5764 1.5157 12.6764 1.5024 12.7755 1.47967L12.7034 1.16525L12.6313 0.850835C12.571 0.864652 12.5119 0.87239 12.4535 0.874418L12.4647 1.1968ZM12.7034 1.16525L12.7755 1.47967L12.895 1.45226L12.8229 1.13784L12.7508 0.823426L12.6313 0.850835L12.7034 1.16525ZM12.8229 1.13784L12.895 1.45226L13.0145 1.42485L12.9424 1.11044L12.8703 0.796017L12.7508 0.823426L12.8229 1.13784ZM12.9424 1.11044L13.0145 1.42485C13.0922 1.40704 13.1705 1.38986 13.2495 1.37332L13.1833 1.05759L13.1172 0.741866C13.0343 0.759235 12.952 0.777285 12.8703 0.796017L12.9424 1.11044ZM13.1833 1.05759L13.2495 1.37332L13.3709 1.34788L13.3047 1.03216L13.2386 0.716431L13.1172 0.741866L13.1833 1.05759ZM13.3047 1.03216L13.3709 1.34788L13.4923 1.32244L13.4261 1.00672L13.36 0.690995L13.2386 0.716431L13.3047 1.03216ZM13.4261 1.00672L13.4923 1.32244C13.5642 1.30736 13.6367 1.29537 13.7096 1.28647L13.6706 0.966266L13.6315 0.646062C13.5403 0.657183 13.4498 0.672163 13.36 0.690995L13.4261 1.00672ZM13.6706 0.966266L13.7096 1.28647L13.8327 1.27145L13.7936 0.951248L13.7545 0.631044L13.6315 0.646062L13.6706 0.966266ZM13.7936 0.951248L13.8327 1.27145L13.9557 1.25643L13.9167 0.93623L13.8776 0.616025L13.7545 0.631044L13.7936 0.951248ZM13.9167 0.93623L13.9557 1.25643C13.9547 1.25656 13.9526 1.25669 13.9499 1.25646C13.9472 1.25622 13.9449 1.25572 13.9434 1.25526C13.9401 1.25427 13.9441 1.25466 13.9553 1.26327L14.152 1.00762L14.3487 0.751965C14.2172 0.650737 14.0558 0.594272 13.8776 0.616025L13.9167 0.93623ZM14.152 1.00762L13.9553 1.26327L14.0676 1.34968L14.2643 1.09402L14.461 0.838371L14.3487 0.751965L14.152 1.00762ZM14.2643 1.09402L14.0676 1.34968L14.1799 1.43608L14.3766 1.18043L14.5733 0.924777L14.461 0.838371L14.2643 1.09402ZM14.3766 1.18043L14.1799 1.43608C14.3255 1.54817 14.5058 1.59554 14.6954 1.5468L14.6151 1.23438L14.5347 0.921967C14.5361 0.921602 14.5399 0.920808 14.5456 0.920681C14.5514 0.920552 14.5576 0.921149 14.5635 0.922492C14.5761 0.925338 14.5795 0.92956 14.5733 0.924777L14.3766 1.18043ZM14.6151 1.23438L14.6954 1.5468L14.8216 1.51435L14.7413 1.20193L14.6609 0.889514L14.5347 0.921967L14.6151 1.23438ZM14.7413 1.20193L14.8216 1.51435L14.9478 1.48189L14.8675 1.16948L14.7871 0.857061L14.6609 0.889514L14.7413 1.20193ZM14.8675 1.16948L14.9478 1.48189C15.0111 1.46561 15.0726 1.45649 15.1325 1.45389L15.1186 1.13161L15.1046 0.809336C14.998 0.813953 14.8921 0.830076 14.7871 0.857061L14.8675 1.16948ZM15.1186 1.13161L15.1325 1.45389L15.2574 1.44848L15.2434 1.12621L15.2295 0.803927L15.1046 0.809336L15.1186 1.13161ZM15.2434 1.12621L15.2574 1.44848L15.3823 1.44308L15.3683 1.1208L15.3544 0.798518L15.2295 0.803927L15.2434 1.12621ZM15.3683 1.1208L15.3823 1.44308C15.3801 1.44317 15.3765 1.44307 15.3721 1.44227C15.3676 1.44146 15.3635 1.44017 15.3603 1.4388C15.3536 1.43592 15.3553 1.4348 15.3643 1.44391L15.5938 1.21722L15.8233 0.990524C15.7025 0.868205 15.5422 0.790381 15.3544 0.798518L15.3683 1.1208ZM15.5938 1.21722L15.3643 1.44391L15.4649 1.54575L15.6944 1.31905L15.9239 1.09236L15.8233 0.990524L15.5938 1.21722ZM15.6944 1.31905L15.4649 1.54575L15.5655 1.64758L15.795 1.42088L16.0245 1.19419L15.9239 1.09236L15.6944 1.31905ZM15.795 1.42088L15.5655 1.64758C15.6891 1.77276 15.8534 1.84881 16.0439 1.83614L16.0225 1.51427L16.001 1.1924C16.0029 1.19228 16.0065 1.19226 16.0113 1.19302C16.0161 1.19379 16.0207 1.19512 16.0247 1.19673C16.0329 1.20012 16.0325 1.20229 16.0245 1.19419L15.795 1.42088ZM16.0225 1.51427L16.0439 1.83614L16.1708 1.8277L16.1493 1.50583L16.1279 1.18396L16.001 1.1924L16.0225 1.51427ZM16.1493 1.50583L16.1708 1.8277L16.2976 1.81926L16.2762 1.49739L16.2548 1.17552L16.1279 1.18396L16.1493 1.50583ZM16.2762 1.49739L16.2976 1.81926C16.3673 1.81462 16.4359 1.81491 16.5035 1.81999L16.5277 1.49832L16.5519 1.17665C16.4534 1.16924 16.3543 1.1689 16.2548 1.17552L16.2762 1.49739ZM16.5277 1.49832L16.5035 1.81999L16.628 1.82937L16.6522 1.5077L16.6765 1.18603L16.5519 1.17665L16.5277 1.49832ZM16.6522 1.5077L16.628 1.82937L16.7526 1.83875L16.7768 1.51708L16.801 1.19541L16.6765 1.18603L16.6522 1.5077ZM16.7768 1.51708L16.7526 1.83875C16.7865 1.8413 16.8154 1.85054 16.8432 1.86706L17.0079 1.58966L17.1725 1.31226C17.0583 1.24451 16.9332 1.20536 16.801 1.19541L16.7768 1.51708ZM17.0079 1.58966L16.8432 1.86706L16.9497 1.93026L17.1143 1.65286L17.279 1.37546L17.1725 1.31226L17.0079 1.58966ZM17.1143 1.65286L16.9497 1.93026L17.0562 1.99346L17.2208 1.71606L17.3855 1.43866L17.279 1.37546L17.1143 1.65286ZM17.2208 1.71606L17.0562 1.99346C17.1286 2.03644 17.2008 2.07854 17.2728 2.11977L17.4331 1.83983L17.5934 1.55989C17.5243 1.52036 17.455 1.47994 17.3855 1.43866L17.2208 1.71606ZM17.4331 1.83983L17.2728 2.11977L17.3786 2.18034L17.5389 1.9004L17.6992 1.62046L17.5934 1.55989L17.4331 1.83983ZM17.5389 1.9004L17.3786 2.18034L17.4844 2.24091L17.6447 1.96097L17.805 1.68103L17.6992 1.62046L17.5389 1.9004ZM17.6447 1.96097L17.4844 2.24091C17.5839 2.29787 17.6903 2.3386 17.8026 2.36313L17.8715 2.04799L17.9403 1.73285C17.8912 1.72211 17.8465 1.70482 17.805 1.68103L17.6447 1.96097ZM17.8715 2.04799L17.8026 2.36313L17.9236 2.38958L17.9925 2.07444L18.0614 1.7593L17.9403 1.73285L17.8715 2.04799ZM17.9925 2.07444L17.9236 2.38958L18.0446 2.41603L18.1135 2.10089L18.1824 1.78575L18.0614 1.7593L17.9925 2.07444ZM18.1135 2.10089L18.0446 2.41603C18.0745 2.42256 18.0994 2.4347 18.1233 2.45463L18.3299 2.20693L18.5366 1.95922C18.4333 1.87304 18.3139 1.81449 18.1824 1.78575L18.1135 2.10089ZM18.3299 2.20693L18.1233 2.45463L18.2187 2.53422L18.4253 2.28651L18.632 2.0388L18.5366 1.95922L18.3299 2.20693ZM18.4253 2.28651L18.2187 2.53422L18.3141 2.6138L18.5207 2.36609L18.7274 2.11838L18.632 2.0388L18.4253 2.28651ZM18.5207 2.36609L18.3141 2.6138C18.3891 2.6764 18.4676 2.73306 18.5495 2.78352L18.7187 2.5089L18.888 2.23428C18.833 2.20044 18.7795 2.16189 18.7274 2.11838L18.5207 2.36609ZM18.7187 2.5089L18.5495 2.78352L18.6521 2.84675L18.8213 2.57213L18.9906 2.29751L18.888 2.23428L18.7187 2.5089ZM18.8213 2.57213L18.6521 2.84675L18.7547 2.90997L18.9239 2.63535L19.0931 2.36073L18.9906 2.29751L18.8213 2.57213ZM18.9239 2.63535L18.7547 2.90997C18.8444 2.96527 18.9399 3.00983 19.0406 3.04387L19.1439 2.73827L19.2472 2.43268C19.1914 2.41379 19.1402 2.38974 19.0931 2.36073L18.9239 2.63535ZM19.1439 2.73827L19.0406 3.04387L19.1581 3.08356L19.2614 2.77797L19.3647 2.47237L19.2472 2.43268L19.1439 2.73827ZM19.2614 2.77797L19.1581 3.08356L19.2755 3.12325L19.3788 2.81766L19.4821 2.51207L19.3647 2.47237L19.2614 2.77797ZM19.3788 2.81766L19.2755 3.12325C19.354 3.14979 19.4333 3.17652 19.5135 3.20344L19.6162 2.89763L19.7188 2.59181C19.6391 2.56504 19.5602 2.53846 19.4821 2.51207L19.3788 2.81766ZM19.6162 2.89763L19.5135 3.20344L19.6335 3.24371L19.7362 2.9379L19.8388 2.63208L19.7188 2.59181L19.6162 2.89763ZM19.7362 2.9379L19.6335 3.24371L19.7535 3.28398L19.8561 2.97817L19.9588 2.67235L19.8388 2.63208L19.7362 2.9379ZM19.8561 2.97817L19.7535 3.28398C19.7887 3.2958 19.8161 3.31289 19.8397 3.3358L20.0647 3.10466L20.2897 2.87352C20.1951 2.78147 20.0835 2.71422 19.9588 2.67235L19.8561 2.97817ZM20.0647 3.10466L19.8397 3.3358L19.9282 3.42203L20.1532 3.19088L20.3783 2.95974L20.2897 2.87352L20.0647 3.10466ZM20.1532 3.19088L19.9282 3.42203L20.0168 3.50825L20.2418 3.27711L20.4668 3.04597L20.3783 2.95974L20.1532 3.19088ZM20.2418 3.27711L20.0168 3.50825C20.0547 3.54515 20.089 3.58853 20.1195 3.63967L20.3967 3.47463L20.6738 3.3096C20.6159 3.21234 20.547 3.12403 20.4668 3.04597L20.2418 3.27711ZM20.3967 3.47463L20.1195 3.63967L20.1858 3.75097L20.4629 3.58593L20.7401 3.4209L20.6738 3.3096L20.3967 3.47463ZM20.4629 3.58593L20.1858 3.75097L20.252 3.86227L20.5292 3.69724L20.8064 3.5322L20.7401 3.4209L20.4629 3.58593ZM20.5292 3.69724L20.252 3.86227C20.3386 4.00763 20.4697 4.10757 20.6296 4.1557L20.7226 3.84682L20.8156 3.53794C20.8078 3.53557 20.8065 3.53392 20.808 3.53512C20.8086 3.53553 20.8089 3.53585 20.8088 3.5358C20.8087 3.53572 20.8079 3.5347 20.8064 3.5322L20.5292 3.69724ZM20.7226 3.84682L20.6296 4.1557L20.7567 4.19398L20.8497 3.8851L20.9427 3.57622L20.8156 3.53794L20.7226 3.84682ZM20.8497 3.8851L20.7567 4.19398L20.8838 4.23226L20.9768 3.92338L21.0698 3.61451L20.9427 3.57622L20.8497 3.8851ZM20.9768 3.92338L20.8838 4.23226C20.9185 4.24272 20.9379 4.25668 20.9513 4.27112L21.1874 4.05132L21.4235 3.83151C21.3257 3.72642 21.2046 3.65509 21.0698 3.61451L20.9768 3.92338ZM21.1874 4.05132L20.9513 4.27112L21.0348 4.36078L21.2709 4.14097L21.507 3.92117L21.4235 3.83151L21.1874 4.05132ZM21.2709 4.14097L21.0348 4.36078L21.1182 4.45043L21.3543 4.23063L21.5904 4.01082L21.507 3.92117L21.2709 4.14097ZM21.3543 4.23063L21.1182 4.45043C21.159 4.49427 21.1957 4.54245 21.2282 4.59538L21.5031 4.42652L21.7779 4.25766C21.7234 4.16894 21.6609 4.08652 21.5904 4.01082L21.3543 4.23063ZM21.5031 4.42652L21.2282 4.59538L21.2935 4.70163L21.5684 4.53277L21.8432 4.3639L21.7779 4.25766L21.5031 4.42652ZM21.5684 4.53277L21.2935 4.70163L21.3588 4.80787L21.6336 4.63901L21.9085 4.47015L21.8432 4.3639L21.5684 4.53277ZM21.6336 4.63901L21.3588 4.80787C21.4023 4.87874 21.4455 4.949 21.4883 5.01865L21.7631 4.84968L22.0379 4.6807C21.9951 4.61113 21.952 4.54094 21.9085 4.47015L21.6336 4.63901ZM21.7631 4.84968L21.4883 5.01865L21.5525 5.12307L21.8273 4.9541L22.1021 4.78513L22.0379 4.6807L21.7631 4.84968ZM21.8273 4.9541L21.5525 5.12307L21.6168 5.22749L21.8915 5.05852L22.1663 4.88955L22.1021 4.78513L21.8273 4.9541ZM21.8915 5.05852L21.6168 5.22749C21.6623 5.30161 21.7094 5.37401 21.7578 5.44467L22.0238 5.26214L22.2898 5.07962C22.2475 5.01801 22.2064 4.95466 22.1663 4.88955L21.8915 5.05852ZM22.0238 5.26214L21.7578 5.44467L21.8259 5.54386L22.0919 5.36134L22.3579 5.17882L22.2898 5.07962L22.0238 5.26214ZM22.0919 5.36134L21.8259 5.54386L21.894 5.64306L22.16 5.46054L22.4259 5.27802L22.3579 5.17882L22.0919 5.36134ZM22.16 5.46054L21.894 5.64306C21.9494 5.72373 22.011 5.79943 22.0788 5.87003L22.3115 5.64662L22.5442 5.4232C22.5007 5.37797 22.4614 5.32962 22.4259 5.27802L22.16 5.46054ZM22.3115 5.64662L22.0788 5.87003L22.1622 5.95691L22.3949 5.73349L22.6276 5.51008L22.5442 5.4232L22.3115 5.64662ZM22.3949 5.73349L22.1622 5.95691L22.2456 6.04378L22.4783 5.82037L22.711 5.59696L22.6276 5.51008L22.3949 5.73349ZM22.4783 5.82037L22.2456 6.04378C22.3268 6.1284 22.4217 6.19828 22.5265 6.25514L22.6803 5.97157L22.8341 5.688C22.7808 5.6591 22.741 5.62818 22.711 5.59696L22.4783 5.82037ZM22.6803 5.97157L22.5265 6.25514L22.6451 6.31946L22.7989 6.03589L22.9527 5.75232L22.8341 5.688L22.6803 5.97157ZM22.7989 6.03589L22.6451 6.31946L22.7637 6.38378L22.9175 6.10021L23.0713 5.81665L22.9527 5.75232L22.7989 6.03589ZM22.9175 6.10021L22.7637 6.38378C22.7604 6.38196 22.7466 6.37296 22.7346 6.35365C22.7228 6.33481 22.722 6.32092 22.7221 6.32236L23.0441 6.30379L23.3662 6.28523C23.3547 6.08548 23.2525 5.91493 23.0713 5.81665L22.9175 6.10021ZM23.0441 6.30379L22.7221 6.32236L22.7301 6.46162L23.0522 6.44306L23.3742 6.42449L23.3662 6.28523L23.0441 6.30379ZM23.0522 6.44306L22.7301 6.46162L22.7382 6.60089L23.0602 6.58232L23.3823 6.56375L23.3742 6.42449L23.0522 6.44306ZM23.0602 6.58232L22.7382 6.60089C22.7456 6.72939 22.7742 6.85453 22.8306 6.97047L23.1207 6.82931L23.4107 6.68816C23.3972 6.66045 23.3855 6.62093 23.3823 6.56375L23.0602 6.58232ZM23.1207 6.82931L22.8306 6.97047L22.883 7.0782L23.1731 6.93705L23.4631 6.7959L23.4107 6.68816L23.1207 6.82931ZM23.1731 6.93705L22.883 7.0782L22.9355 7.18593L23.2255 7.04478L23.5156 6.90363L23.4631 6.7959L23.1731 6.93705ZM23.2255 7.04478L22.9355 7.18593C23.0075 7.33393 23.1269 7.43761 23.2623 7.50651L23.4086 7.21903L23.5549 6.93155C23.5349 6.92133 23.5245 6.91293 23.5199 6.90854C23.5176 6.90635 23.5165 6.90494 23.5161 6.90438C23.5157 6.90384 23.5156 6.90364 23.5156 6.90363L23.2255 7.04478ZM23.4086 7.21903L23.2623 7.50651L23.3929 7.57302L23.5393 7.28554L23.6856 6.99806L23.5549 6.93155L23.4086 7.21903ZM23.5393 7.28554L23.3929 7.57302L23.5236 7.63953L23.6699 7.35206L23.8163 7.06458L23.6856 6.99806L23.5393 7.28554ZM23.6699 7.35206L23.5236 7.63953C23.5351 7.64539 23.5323 7.64634 23.5253 7.63776C23.5218 7.63356 23.5183 7.62826 23.5154 7.62219C23.5126 7.61615 23.511 7.61092 23.5103 7.60733L23.8262 7.54187L24.142 7.47641C24.1017 7.28192 23.9746 7.14516 23.8163 7.06458L23.6699 7.35206ZM23.8262 7.54187L23.5103 7.60733L23.5358 7.73063L23.8517 7.66518L24.1676 7.59972L24.142 7.47641L23.8262 7.54187ZM23.8517 7.66518L23.5358 7.73063L23.5614 7.85394L23.8773 7.78848L24.1931 7.72302L24.1676 7.59972L23.8517 7.66518ZM23.8773 7.78848L23.5614 7.85394C23.5794 7.94077 23.5991 8.02621 23.6205 8.11025L23.9331 8.03058L24.2457 7.95091C24.2267 7.87655 24.2092 7.80059 24.1931 7.72302L23.8773 7.78848ZM23.9331 8.03058L23.6205 8.11025L23.6508 8.22904L23.9634 8.14937L24.276 8.0697L24.2457 7.95091L23.9331 8.03058ZM23.9634 8.14937L23.6508 8.22904L23.6811 8.34784L23.9937 8.26817L24.3062 8.1885L24.276 8.0697L23.9634 8.14937ZM23.9937 8.26817L23.6811 8.34784C23.7142 8.47767 23.7766 8.59405 23.8634 8.69483L24.1078 8.48424L24.3521 8.27365C24.3272 8.24473 24.3135 8.21706 24.3062 8.1885L23.9937 8.26817ZM24.1078 8.48424L23.8634 8.69483L23.9472 8.7921L24.1916 8.58151L24.436 8.37092L24.3521 8.27365L24.1078 8.48424ZM24.1916 8.58151L23.9472 8.7921L24.0311 8.88938L24.2754 8.67879L24.5198 8.46819L24.436 8.37092L24.1916 8.58151ZM24.2754 8.67879L24.0311 8.88938C24.0321 8.89061 24.0319 8.89053 24.0311 8.88907C24.0302 8.88757 24.0292 8.88547 24.0284 8.88302C24.0277 8.88059 24.0274 8.87882 24.0273 8.87818C24.0273 8.87761 24.0275 8.87884 24.0272 8.88227L24.3487 8.90791L24.6703 8.93354C24.6839 8.76264 24.6338 8.60047 24.5198 8.46819L24.2754 8.67879ZM24.3487 8.90791L24.0272 8.88227L24.0167 9.01411L24.3382 9.03975L24.6598 9.06539L24.6703 8.93354L24.3487 8.90791ZM24.3382 9.03975L24.0167 9.01411L24.0062 9.14596L24.3277 9.1716L24.6493 9.19724L24.6598 9.06539L24.3382 9.03975ZM24.3277 9.1716L24.0062 9.14596C23.9946 9.29054 24.0207 9.43307 24.0908 9.56398L24.3752 9.4117L24.6596 9.25941C24.6524 9.24599 24.6468 9.22845 24.6493 9.19724L24.3277 9.1716ZM24.3752 9.4117L24.0908 9.56398L24.1488 9.67223L24.4332 9.51995L24.7175 9.36766L24.6596 9.25941L24.3752 9.4117ZM24.4332 9.51995L24.1488 9.67223L24.2068 9.78049L24.4911 9.6282L24.7755 9.47592L24.7175 9.36766L24.4332 9.51995ZM24.4911 9.6282L24.2068 9.78049C24.2436 9.84928 24.2794 9.91909 24.3142 9.98991L24.6037 9.84773L24.8933 9.70556C24.8552 9.62801 24.8159 9.55146 24.7755 9.47592L24.4911 9.6282ZM24.6037 9.84773L24.3142 9.98991L24.3688 10.1012L24.6584 9.95901L24.9479 9.81684L24.8933 9.70556L24.6037 9.84773ZM24.6584 9.95901L24.3688 10.1012L24.4234 10.2125L24.713 10.0703L25.0026 9.92812L24.9479 9.81684L24.6584 9.95901ZM24.713 10.0703L24.4234 10.2125C24.4233 10.2122 24.4227 10.2109 24.4222 10.2088C24.4216 10.2067 24.4214 10.2048 24.4213 10.2034C24.4211 10.2004 24.422 10.2041 24.4181 10.2165L24.7255 10.3141L25.033 10.4118C25.0829 10.2547 25.0802 10.0863 25.0026 9.92812L24.713 10.0703ZM24.7255 10.3141L24.4181 10.2165L24.376 10.349L24.6834 10.4467L24.9908 10.5444L25.033 10.4118L24.7255 10.3141ZM24.6834 10.4467L24.376 10.349L24.3339 10.4816L24.6413 10.5793L24.9487 10.6769L24.9908 10.5444L24.6834 10.4467ZM24.6413 10.5793L24.3339 10.4816C24.2826 10.6428 24.2887 10.8145 24.3724 10.9735L24.6578 10.8234L24.9433 10.6732C24.9434 10.6734 24.9442 10.6749 24.9449 10.6774C24.9456 10.6799 24.9461 10.6825 24.9462 10.6847C24.9465 10.6896 24.9453 10.6878 24.9487 10.6769L24.6413 10.5793ZM24.6578 10.8234L24.3724 10.9735L24.431 11.0851L24.7165 10.9349L25.002 10.7847L24.9433 10.6732L24.6578 10.8234ZM24.7165 10.9349L24.431 11.0851L24.4897 11.1966L24.7752 11.0465L25.0607 10.8963L25.002 10.7847L24.7165 10.9349ZM24.7752 11.0465L24.4897 11.1966C24.5174 11.2492 24.5375 11.3019 24.5509 11.355L24.8637 11.276L25.1764 11.197C25.1501 11.0927 25.1113 10.9924 25.0607 10.8963L24.7752 11.0465ZM24.8637 11.276L24.5509 11.355L24.5807 11.473L24.8935 11.394L25.2062 11.315L25.1764 11.197L24.8637 11.276ZM24.8935 11.394L24.5807 11.473L24.6105 11.5909L24.9233 11.5119L25.236 11.433L25.2062 11.315L24.8935 11.394ZM24.9233 11.5119L24.6105 11.5909C24.6328 11.679 24.6592 11.7669 24.6897 11.8545L24.9943 11.7484L25.299 11.6423C25.2745 11.572 25.2535 11.5022 25.236 11.433L24.9233 11.5119ZM24.9943 11.7484L24.6897 11.8545L24.731 11.973L25.0356 11.8669L25.3402 11.7608L25.299 11.6423L24.9943 11.7484ZM25.0356 11.8669L24.731 11.973L24.7723 12.0915L25.0769 11.9854L25.3815 11.8793L25.3402 11.7608L25.0356 11.8669ZM25.0769 11.9854L24.7723 12.0915C24.7709 12.0876 24.7695 12.0819 24.7688 12.075C24.7682 12.068 24.7685 12.0615 24.7693 12.0561C24.771 12.0452 24.7738 12.045 24.7664 12.0567L25.0391 12.229L25.3118 12.4014C25.4065 12.2516 25.4473 12.0683 25.3815 11.8793L25.0769 11.9854ZM25.0391 12.229L24.7664 12.0567L24.6873 12.1818L24.96 12.3541L25.2327 12.5265L25.3118 12.4014L25.0391 12.229ZM24.96 12.3541L24.6873 12.1818L24.6082 12.3069L24.8809 12.4793L25.1536 12.6516L25.2327 12.5265L24.96 12.3541ZM24.8809 12.4793L24.6082 12.3069C24.5181 12.4494 24.4626 12.6474 24.563 12.8477L24.8514 12.7033L25.1398 12.5588C25.1456 12.5703 25.1504 12.5842 25.1529 12.5997C25.1555 12.6152 25.1553 12.629 25.1538 12.64C25.151 12.661 25.1448 12.6656 25.1536 12.6516L24.8809 12.4793ZM24.8514 12.7033L24.563 12.8477L24.6125 12.9467L24.9009 12.8022L25.1893 12.6577L25.1398 12.5588L24.8514 12.7033ZM24.9009 12.8022L24.6125 12.9467L24.662 13.0456L24.9505 12.9011L25.2389 12.7566L25.1893 12.6577L24.9009 12.8022ZM24.9505 12.9011L24.662 13.0456C24.6782 13.0777 24.6915 13.1181 24.6991 13.1694L25.0182 13.1219L25.3372 13.0744C25.3207 12.9632 25.2888 12.8563 25.2389 12.7566L24.9505 12.9011ZM25.0182 13.1219L24.6991 13.1694L24.7173 13.2914L25.0363 13.2438L25.3554 13.1963L25.3372 13.0744L25.0182 13.1219Z" fill="#E2FF66"/>
<circle cx="18.7404" cy="12.1622" r="2.12903" fill="#FFE866"/>
<circle cx="16.0314" cy="10.2267" r="2.12903" fill="white"/>
<circle cx="16.5482" cy="10.097" r="1.35484" fill="#404040"/>
<path d="M17.7837 10.5067L17.412 10.3985L17.7837 10.5067ZM17.6414 10.7336L17.8972 11.0241L17.6414 10.7336ZM17.5389 10.8238L17.7947 11.1144L17.5389 10.8238ZM17.4363 10.9141L17.1805 10.6236L17.4363 10.9141ZM17.2403 11.1287L16.931 10.896L17.2403 11.1287ZM17.0534 11.3773L16.744 11.1447L17.0534 11.3773ZM16.8129 11.4555L16.9288 11.0861L16.8129 11.4555ZM16.5188 11.3631L16.4029 11.7325L16.5188 11.3631ZM16.2412 11.2835L16.3373 10.9085L16.2412 11.2835ZM16.1105 11.25L16.0143 11.6249L16.1105 11.25ZM15.9799 11.2165L15.8837 11.5914L15.9799 11.2165ZM15.7254 11.103L15.9354 10.7778L15.7254 11.103ZM15.4778 10.943L15.2677 11.2682L15.4778 10.943ZM15.3301 10.5687L14.9443 10.6L15.3301 10.5687ZM15.2187 9.84076L14.8393 9.91738L15.2187 9.84076ZM15.7441 9.21641L15.4412 8.97533L15.7441 9.21641ZM15.8297 9.10884L16.1326 9.34991L15.8297 9.10884ZM15.9153 9.00127L15.6124 8.7602L15.9153 9.00127ZM16.1384 8.82879L15.9731 8.47876L16.1384 8.82879ZM16.4133 8.69895L16.5786 9.04898L16.4133 8.69895ZM17.0272 8.68922L16.9826 9.07374L17.0272 8.68922ZM17.5645 9.01015L17.3229 9.31253L17.5645 9.01015ZM17.7907 9.57176L17.4124 9.65385L17.7907 9.57176ZM17.8438 9.81827L17.4651 9.89876L17.8438 9.81827ZM17.8833 10.0041L18.2619 9.92362L17.8833 10.0041ZM17.8633 10.2336L18.2349 10.3419L17.8633 10.2336ZM17.8235 10.3702L17.4518 10.2619L17.412 10.3985L17.7837 10.5067L18.1553 10.615L18.1951 10.4784L17.8235 10.3702ZM17.7837 10.5067L17.412 10.3985C17.4052 10.4221 17.3965 10.4335 17.3856 10.443L17.6414 10.7336L17.8972 11.0241C18.023 10.9133 18.1092 10.7735 18.1553 10.615L17.7837 10.5067ZM17.6414 10.7336L17.3856 10.443L17.2831 10.5333L17.5389 10.8238L17.7947 11.1144L17.8972 11.0241L17.6414 10.7336ZM17.5389 10.8238L17.2831 10.5333L17.1805 10.6236L17.4363 10.9141L17.6921 11.2046L17.7947 11.1144L17.5389 10.8238ZM17.4363 10.9141L17.1805 10.6236C17.0899 10.7034 17.007 10.7949 16.931 10.896L17.2403 11.1287L17.5497 11.3613C17.5983 11.2967 17.6461 11.2452 17.6921 11.2046L17.4363 10.9141ZM17.2403 11.1287L16.931 10.896L16.8375 11.0204L17.1469 11.253L17.4563 11.4856L17.5497 11.3613L17.2403 11.1287ZM17.1469 11.253L16.8375 11.0204L16.744 11.1447L17.0534 11.3773L17.3628 11.6099L17.4563 11.4856L17.1469 11.253ZM17.0534 11.3773L16.744 11.1447C16.7495 11.1373 16.7754 11.1076 16.8269 11.0909C16.8787 11.074 16.9182 11.0828 16.9288 11.0861L16.8129 11.4555L16.6969 11.8248C16.8056 11.8589 16.9342 11.87 17.0662 11.8271C17.1978 11.7844 17.2949 11.7002 17.3628 11.6099L17.0534 11.3773ZM16.8129 11.4555L16.9288 11.0861L16.7818 11.04L16.6659 11.4093L16.5499 11.7786L16.6969 11.8248L16.8129 11.4555ZM16.6659 11.4093L16.7818 11.04L16.6348 10.9938L16.5188 11.3631L16.4029 11.7325L16.5499 11.7786L16.6659 11.4093ZM16.5188 11.3631L16.6348 10.9938C16.5311 10.9613 16.4319 10.9328 16.3373 10.9085L16.2412 11.2835L16.145 11.6584C16.2246 11.6789 16.3105 11.7035 16.4029 11.7325L16.5188 11.3631ZM16.2412 11.2835L16.3373 10.9085L16.2067 10.875L16.1105 11.25L16.0143 11.6249L16.145 11.6584L16.2412 11.2835ZM16.1105 11.25L16.2067 10.875L16.076 10.8415L15.9799 11.2165L15.8837 11.5914L16.0143 11.6249L16.1105 11.25ZM15.9799 11.2165L16.076 10.8415C16.0329 10.8304 15.9862 10.8106 15.9354 10.7778L15.7254 11.103L15.5153 11.4281C15.6297 11.502 15.7526 11.5578 15.8837 11.5914L15.9799 11.2165ZM15.7254 11.103L15.9354 10.7778L15.8116 10.6978L15.6016 11.023L15.3915 11.3481L15.5153 11.4281L15.7254 11.103ZM15.6016 11.023L15.8116 10.6978L15.6878 10.6179L15.4778 10.943L15.2677 11.2682L15.3915 11.3481L15.6016 11.023ZM15.4778 10.943L15.6878 10.6179C15.6907 10.6197 15.703 10.6289 15.7142 10.6477C15.7254 10.6664 15.7276 10.6814 15.7279 10.6846L15.342 10.7159L14.9562 10.7471C14.9738 10.965 15.0839 11.1494 15.2677 11.2682L15.4778 10.943ZM15.342 10.7159L15.7279 10.6846L15.7159 10.5375L15.3301 10.5687L14.9443 10.6L14.9562 10.7471L15.342 10.7159ZM15.3301 10.5687L15.7159 10.5375L15.704 10.3903L15.3182 10.4216L14.9323 10.4528L14.9443 10.6L15.3301 10.5687ZM15.3182 10.4216L15.704 10.3903C15.6948 10.277 15.679 10.1646 15.6565 10.0532L15.2771 10.1299L14.8976 10.2065C14.9141 10.2878 14.9256 10.3699 14.9323 10.4528L15.3182 10.4216ZM15.2771 10.1299L15.6565 10.0532L15.6273 9.90869L15.2479 9.98531L14.8684 10.0619L14.8976 10.2065L15.2771 10.1299ZM15.2479 9.98531L15.6273 9.90869L15.5981 9.76415L15.2187 9.84076L14.8393 9.91738L14.8684 10.0619L15.2479 9.98531ZM15.2187 9.84076L15.5981 9.76415C15.6003 9.77474 15.6033 9.80529 15.5891 9.84359C15.575 9.88153 15.5536 9.90143 15.5474 9.90634L15.3067 9.60316L15.0661 9.29997C14.9817 9.36692 14.9065 9.45745 14.8631 9.57458C14.8196 9.69209 14.8177 9.81042 14.8393 9.91738L15.2187 9.84076ZM15.3067 9.60316L15.5474 9.90634L15.6646 9.81328L15.424 9.51009L15.1833 9.20691L15.0661 9.29997L15.3067 9.60316ZM15.424 9.51009L15.6646 9.81328L15.7819 9.72022L15.5412 9.41703L15.3005 9.11385L15.1833 9.20691L15.424 9.51009ZM15.5412 9.41703L15.7819 9.72022C15.881 9.6415 15.97 9.55412 16.0469 9.45748L15.7441 9.21641L15.4412 8.97533C15.404 9.02212 15.3577 9.06848 15.3005 9.11385L15.5412 9.41703ZM15.7441 9.21641L16.0469 9.45748L16.1326 9.34991L15.8297 9.10884L15.5268 8.86777L15.4412 8.97533L15.7441 9.21641ZM15.8297 9.10884L16.1326 9.34991L16.2182 9.24234L15.9153 9.00127L15.6124 8.7602L15.5268 8.86777L15.8297 9.10884ZM15.9153 9.00127L16.2182 9.24234C16.2346 9.22171 16.2599 9.19948 16.3037 9.17881L16.1384 8.82879L15.9731 8.47876C15.8336 8.54464 15.7102 8.6374 15.6124 8.7602L15.9153 9.00127ZM16.1384 8.82879L16.3037 9.17881L16.4411 9.11389L16.2758 8.76387L16.1105 8.41385L15.9731 8.47876L16.1384 8.82879ZM16.2758 8.76387L16.4411 9.11389L16.5786 9.04898L16.4133 8.69895L16.2479 8.34893L16.1105 8.41385L16.2758 8.76387ZM16.4133 8.69895L16.5786 9.04898C16.6014 9.0382 16.627 9.03256 16.665 9.03696L16.7095 8.65243L16.7541 8.2679C16.5803 8.24778 16.4084 8.27316 16.2479 8.34893L16.4133 8.69895ZM16.7095 8.65243L16.665 9.03696L16.8238 9.05535L16.8684 8.67082L16.9129 8.2863L16.7541 8.2679L16.7095 8.65243ZM16.8684 8.67082L16.8238 9.05535L16.9826 9.07374L17.0272 8.68922L17.0717 8.30469L16.9129 8.2863L16.8684 8.67082ZM17.0272 8.68922L16.9826 9.07374C17.0156 9.07756 17.0425 9.08844 17.0705 9.11084L17.3122 8.80845L17.5538 8.50607C17.4136 8.39401 17.2505 8.32539 17.0717 8.30469L17.0272 8.68922ZM17.3122 8.80845L17.0705 9.11084L17.1967 9.21169L17.4383 8.9093L17.68 8.60691L17.5538 8.50607L17.3122 8.80845ZM17.4383 8.9093L17.1967 9.21169L17.3229 9.31253L17.5645 9.01015L17.8062 8.70776L17.68 8.60691L17.4383 8.9093ZM17.5645 9.01015L17.3229 9.31253C17.3396 9.32589 17.343 9.33381 17.3457 9.34667L17.724 9.26458L18.1023 9.18249C18.0607 8.99056 17.9577 8.82886 17.8062 8.70776L17.5645 9.01015ZM17.724 9.26458L17.3457 9.34667L17.3791 9.50026L17.7574 9.41817L18.1357 9.33608L18.1023 9.18249L17.724 9.26458ZM17.7574 9.41817L17.3791 9.50026L17.4124 9.65385L17.7907 9.57176L18.169 9.48967L18.1357 9.33608L17.7574 9.41817ZM17.7907 9.57176L17.4124 9.65385C17.4346 9.75601 17.4521 9.83758 17.4651 9.89876L17.8438 9.81827L18.2224 9.73778C18.2091 9.67507 18.1913 9.59231 18.169 9.48967L17.7907 9.57176ZM17.8438 9.81827L17.4651 9.89876L17.4849 9.99168L17.8635 9.91119L18.2422 9.8307L18.2224 9.73778L17.8438 9.81827ZM17.8635 9.91119L17.4849 9.99168L17.5046 10.0846L17.8833 10.0041L18.2619 9.92362L18.2422 9.8307L17.8635 9.91119ZM17.8833 10.0041L17.5046 10.0846C17.5018 10.0711 17.5032 10.0664 17.5025 10.0743C17.5018 10.0822 17.4994 10.0987 17.4916 10.1253L17.8633 10.2336L18.2349 10.3419C18.2711 10.2175 18.2934 10.0715 18.2619 9.92362L17.8833 10.0041ZM17.8633 10.2336L17.4916 10.1253L17.4518 10.2619L17.8235 10.3702L18.1951 10.4784L18.2349 10.3419L17.8633 10.2336Z" fill="#404040"/>
<circle cx="7.64466" cy="12.1622" r="2.12903" fill="#FFE866"/>
<circle cx="10.3536" cy="10.2267" r="2.12903" fill="white"/>
<circle cx="10.7416" cy="10.097" r="1.35484" fill="#404040"/>
<path d="M11.9771 10.5067L11.6054 10.3985L11.9771 10.5067ZM11.8348 10.7336L12.0905 11.0241L11.8348 10.7336ZM11.7322 10.8238L11.988 11.1144L11.7322 10.8238ZM11.6297 10.9141L11.3739 10.6236L11.6297 10.9141ZM11.4337 11.1287L11.1243 10.896L11.4337 11.1287ZM11.2468 11.3773L10.9374 11.1447L11.2468 11.3773ZM11.0063 11.4555L11.1222 11.0861L11.0063 11.4555ZM10.7122 11.3631L10.5962 11.7325L10.7122 11.3631ZM10.4345 11.2835L10.5307 10.9085L10.4345 11.2835ZM10.3039 11.25L10.2077 11.6249L10.3039 11.25ZM10.1732 11.2165L10.0771 11.5914L10.1732 11.2165ZM9.91874 11.103L10.1288 10.7778L9.91874 11.103ZM9.67111 10.943L9.46106 11.2682L9.67111 10.943ZM9.52346 10.5687L9.13762 10.6L9.52346 10.5687ZM9.41205 9.84076L9.03261 9.91738L9.41205 9.84076ZM9.93742 9.21641L9.63456 8.97533L9.93742 9.21641ZM10.023 9.10884L10.3259 9.34991L10.023 9.10884ZM10.1087 9.00127L9.8058 8.7602L10.1087 9.00127ZM10.3317 8.82879L10.1664 8.47876L10.3317 8.82879ZM10.6066 8.69895L10.7719 9.04898L10.6066 8.69895ZM11.2205 8.68922L11.176 9.07374L11.2205 8.68922ZM11.7579 9.01015L11.5162 9.31253L11.7579 9.01015ZM11.9841 9.57176L11.6058 9.65385L11.9841 9.57176ZM12.0371 9.81827L11.6585 9.89876L12.0371 9.81827ZM12.0766 10.0041L12.4553 9.92362L12.0766 10.0041ZM12.0566 10.2336L12.4283 10.3419L12.0566 10.2336ZM12.0168 10.3702L11.6452 10.2619L11.6054 10.3985L11.9771 10.5067L12.3487 10.615L12.3885 10.4784L12.0168 10.3702ZM11.9771 10.5067L11.6054 10.3985C11.5985 10.4221 11.5898 10.4335 11.579 10.443L11.8348 10.7336L12.0905 11.0241C12.2164 10.9133 12.3025 10.7735 12.3487 10.615L11.9771 10.5067ZM11.8348 10.7336L11.579 10.443L11.4764 10.5333L11.7322 10.8238L11.988 11.1144L12.0905 11.0241L11.8348 10.7336ZM11.7322 10.8238L11.4764 10.5333L11.3739 10.6236L11.6297 10.9141L11.8855 11.2046L11.988 11.1144L11.7322 10.8238ZM11.6297 10.9141L11.3739 10.6236C11.2833 10.7034 11.2003 10.7949 11.1243 10.896L11.4337 11.1287L11.7431 11.3613C11.7917 11.2967 11.8394 11.2452 11.8855 11.2046L11.6297 10.9141ZM11.4337 11.1287L11.1243 10.896L11.0308 11.0204L11.3402 11.253L11.6496 11.4856L11.7431 11.3613L11.4337 11.1287ZM11.3402 11.253L11.0308 11.0204L10.9374 11.1447L11.2468 11.3773L11.5561 11.6099L11.6496 11.4856L11.3402 11.253ZM11.2468 11.3773L10.9374 11.1447C10.9429 11.1373 10.9688 11.1076 11.0203 11.0909C11.0721 11.074 11.1115 11.0828 11.1222 11.0861L11.0063 11.4555L10.8903 11.8248C10.999 11.8589 11.1275 11.87 11.2595 11.8271C11.3912 11.7844 11.4883 11.7002 11.5561 11.6099L11.2468 11.3773ZM11.0063 11.4555L11.1222 11.0861L10.9752 11.04L10.8592 11.4093L10.7433 11.7786L10.8903 11.8248L11.0063 11.4555ZM10.8592 11.4093L10.9752 11.04L10.8281 10.9938L10.7122 11.3631L10.5962 11.7325L10.7433 11.7786L10.8592 11.4093ZM10.7122 11.3631L10.8281 10.9938C10.7245 10.9613 10.6253 10.9328 10.5307 10.9085L10.4345 11.2835L10.3384 11.6584C10.418 11.6789 10.5039 11.7035 10.5962 11.7325L10.7122 11.3631ZM10.4345 11.2835L10.5307 10.9085L10.4 10.875L10.3039 11.25L10.2077 11.6249L10.3384 11.6584L10.4345 11.2835ZM10.3039 11.25L10.4 10.875L10.2694 10.8415L10.1732 11.2165L10.0771 11.5914L10.2077 11.6249L10.3039 11.25ZM10.1732 11.2165L10.2694 10.8415C10.2262 10.8304 10.1795 10.8106 10.1288 10.7778L9.91874 11.103L9.70869 11.4281C9.82303 11.502 9.94598 11.5578 10.0771 11.5914L10.1732 11.2165ZM9.91874 11.103L10.1288 10.7778L10.005 10.6978L9.79493 11.023L9.58488 11.3481L9.70869 11.4281L9.91874 11.103ZM9.79493 11.023L10.005 10.6978L9.88116 10.6179L9.67111 10.943L9.46106 11.2682L9.58488 11.3481L9.79493 11.023ZM9.67111 10.943L9.88116 10.6179C9.88405 10.6197 9.89636 10.6289 9.90756 10.6477C9.91874 10.6664 9.92095 10.6814 9.92121 10.6846L9.53538 10.7159L9.14954 10.7471C9.16719 10.965 9.27724 11.1494 9.46106 11.2682L9.67111 10.943ZM9.53538 10.7159L9.92121 10.6846L9.90929 10.5375L9.52346 10.5687L9.13762 10.6L9.14954 10.7471L9.53538 10.7159ZM9.52346 10.5687L9.90929 10.5375L9.89737 10.3903L9.51154 10.4216L9.1257 10.4528L9.13762 10.6L9.52346 10.5687ZM9.51154 10.4216L9.89737 10.3903C9.88819 10.277 9.87235 10.1646 9.84987 10.0532L9.47043 10.1299L9.09099 10.2065C9.10742 10.2878 9.11899 10.3699 9.1257 10.4528L9.51154 10.4216ZM9.47043 10.1299L9.84987 10.0532L9.82068 9.90869L9.44124 9.98531L9.0618 10.0619L9.09099 10.2065L9.47043 10.1299ZM9.44124 9.98531L9.82068 9.90869L9.79149 9.76415L9.41205 9.84076L9.03261 9.91738L9.0618 10.0619L9.44124 9.98531ZM9.41205 9.84076L9.79149 9.76415C9.79363 9.77474 9.79664 9.80529 9.78245 9.84359C9.76839 9.88153 9.74696 9.90143 9.74077 9.90634L9.5001 9.60316L9.25943 9.29997C9.17509 9.36692 9.0999 9.45745 9.05649 9.57458C9.01295 9.69209 9.01102 9.81042 9.03261 9.91738L9.41205 9.84076ZM9.5001 9.60316L9.74077 9.90634L9.858 9.81328L9.61733 9.51009L9.37666 9.20691L9.25943 9.29997L9.5001 9.60316ZM9.61733 9.51009L9.858 9.81328L9.97524 9.72022L9.73457 9.41703L9.4939 9.11385L9.37666 9.20691L9.61733 9.51009ZM9.73457 9.41703L9.97524 9.72022C10.0744 9.6415 10.1634 9.55412 10.2403 9.45748L9.93742 9.21641L9.63456 8.97533C9.59732 9.02212 9.55105 9.06848 9.4939 9.11385L9.73457 9.41703ZM9.93742 9.21641L10.2403 9.45748L10.3259 9.34991L10.023 9.10884L9.72018 8.86777L9.63456 8.97533L9.93742 9.21641ZM10.023 9.10884L10.3259 9.34991L10.4115 9.24234L10.1087 9.00127L9.8058 8.7602L9.72018 8.86777L10.023 9.10884ZM10.1087 9.00127L10.4115 9.24234C10.4279 9.22171 10.4533 9.19948 10.497 9.17881L10.3317 8.82879L10.1664 8.47876C10.0269 8.54464 9.90354 8.6374 9.8058 8.7602L10.1087 9.00127ZM10.3317 8.82879L10.497 9.17881L10.6345 9.11389L10.4692 8.76387L10.3039 8.41385L10.1664 8.47876L10.3317 8.82879ZM10.4692 8.76387L10.6345 9.11389L10.7719 9.04898L10.6066 8.69895L10.4413 8.34893L10.3039 8.41385L10.4692 8.76387ZM10.6066 8.69895L10.7719 9.04898C10.7948 9.0382 10.8204 9.03256 10.8584 9.03696L10.9029 8.65243L10.9474 8.2679C10.7736 8.24778 10.6018 8.27316 10.4413 8.34893L10.6066 8.69895ZM10.9029 8.65243L10.8584 9.03696L11.0172 9.05535L11.0617 8.67082L11.1062 8.2863L10.9474 8.2679L10.9029 8.65243ZM11.0617 8.67082L11.0172 9.05535L11.176 9.07374L11.2205 8.68922L11.2651 8.30469L11.1062 8.2863L11.0617 8.67082ZM11.2205 8.68922L11.176 9.07374C11.209 9.07756 11.2358 9.08844 11.2639 9.11084L11.5055 8.80845L11.7472 8.50607C11.607 8.39401 11.4438 8.32539 11.2651 8.30469L11.2205 8.68922ZM11.5055 8.80845L11.2639 9.11084L11.39 9.21169L11.6317 8.9093L11.8734 8.60691L11.7472 8.50607L11.5055 8.80845ZM11.6317 8.9093L11.39 9.21169L11.5162 9.31253L11.7579 9.01015L11.9996 8.70776L11.8734 8.60691L11.6317 8.9093ZM11.7579 9.01015L11.5162 9.31253C11.5329 9.32589 11.5363 9.33381 11.5391 9.34667L11.9174 9.26458L12.2957 9.18249C12.254 8.99056 12.1511 8.82886 11.9996 8.70776L11.7579 9.01015ZM11.9174 9.26458L11.5391 9.34667L11.5724 9.50026L11.9507 9.41817L12.329 9.33608L12.2957 9.18249L11.9174 9.26458ZM11.9507 9.41817L11.5724 9.50026L11.6058 9.65385L11.9841 9.57176L12.3623 9.48967L12.329 9.33608L11.9507 9.41817ZM11.9841 9.57176L11.6058 9.65385C11.6279 9.75601 11.6455 9.83758 11.6585 9.89876L12.0371 9.81827L12.4158 9.73778C12.4024 9.67507 12.3846 9.59231 12.3623 9.48967L11.9841 9.57176ZM12.0371 9.81827L11.6585 9.89876L11.6783 9.99168L12.0569 9.91119L12.4355 9.8307L12.4158 9.73778L12.0371 9.81827ZM12.0569 9.91119L11.6783 9.99168L11.698 10.0846L12.0766 10.0041L12.4553 9.92362L12.4355 9.8307L12.0569 9.91119ZM12.0766 10.0041L11.698 10.0846C11.6951 10.0711 11.6966 10.0664 11.6959 10.0743C11.6952 10.0822 11.6927 10.0987 11.685 10.1253L12.0566 10.2336L12.4283 10.3419C12.4645 10.2175 12.4867 10.0715 12.4553 9.92362L12.0766 10.0041ZM12.0566 10.2336L11.685 10.1253L11.6452 10.2619L12.0168 10.3702L12.3885 10.4784L12.4283 10.3419L12.0566 10.2336Z" fill="#404040"/>
</svg>
