<svg width="194" height="64" viewBox="0 0 194 64" fill="none" xmlns="http://www.w3.org/2000/svg">
<path d="M17.7617 56.3106C17.7617 55.1817 17.9499 54.1907 18.3262 53.3377C18.7025 52.4596 19.2294 51.7321 19.9067 51.155C20.6092 50.5529 21.4246 50.1013 22.3528 49.8003C23.3062 49.4992 24.3473 49.3487 25.4763 49.3487H45.4212C46.5502 49.3487 47.5788 49.4992 48.5071 49.8003C49.4604 50.1013 50.2758 50.5529 50.9531 51.155C51.6556 51.7321 52.195 52.4596 52.5713 53.3377C52.9476 54.1907 53.1358 55.1817 53.1358 56.3106C53.1358 57.4396 52.9476 58.4305 52.5713 59.2835C52.195 60.1616 51.6556 60.8892 50.9531 61.4662C50.2758 62.0683 49.4604 62.5199 48.5071 62.8209C47.5788 63.122 46.5502 63.2725 45.4212 63.2725H25.4763C24.3473 63.2725 23.3062 63.122 22.3528 62.8209C21.4246 62.5199 20.6092 62.0683 19.9067 61.4662C19.2294 60.8892 18.7025 60.1616 18.3262 59.2835C17.9499 58.4305 17.7617 57.4396 17.7617 56.3106ZM45.2331 47.8434V41.9352H43.6902V47.8434H36.1638V28.9521H43.6902V34.7851H45.2331V28.9521H52.7595V47.8434H45.2331ZM18.138 42.1986H20.8475C22.403 42.1986 23.6198 42.0606 24.4978 41.7847C25.401 41.5087 26.0408 41.1198 26.4171 40.6181H18.138V36.1022H26.8687V34.5969H18.138V28.9521H34.7714V38.0591C34.7714 39.6647 34.508 41.0822 33.9811 42.3115C33.4543 43.5157 32.6013 44.5318 31.4221 45.3597C30.2681 46.1876 28.7503 46.8148 26.8687 47.2413C25.0122 47.6427 22.7542 47.8434 20.0949 47.8434H18.138V42.1986ZM26.4547 56.3106C26.4547 56.9378 26.8185 57.2514 27.546 57.2514H43.3515C44.079 57.2514 44.4428 56.9378 44.4428 56.3106C44.4428 55.6834 44.079 55.3698 43.3515 55.3698H27.546C26.8185 55.3698 26.4547 55.6834 26.4547 56.3106Z" fill="#C5F509"/>
<path d="M57.6531 54.9935C59.3842 54.843 61.0651 54.4917 62.6958 53.9398C64.3265 53.3628 65.7816 52.6101 67.0611 51.6819C68.3406 50.7536 69.3567 49.6497 70.1093 48.3703C70.887 47.0657 71.2759 45.598 71.2759 43.9673V36.4785H58.0294V28.9521H79.9313V41.4083H83.2429V28.9521H91.8982V63.2725H83.2429V48.9347H79.1786C78.5514 50.9669 77.5479 52.8108 76.1681 54.4666C74.8133 56.1225 73.1826 57.565 71.2759 58.7943C69.3943 60.0236 67.2869 61.0146 64.9537 61.7673C62.6456 62.545 60.2121 63.0467 57.6531 63.2725V54.9935Z" fill="#C5F509"/>
<path d="M103.377 49.0853C102.399 49.0853 101.483 48.9473 100.63 48.6713C99.8024 48.3703 99.0749 47.9438 98.4477 47.3918C97.8205 46.8399 97.3187 46.1751 96.9424 45.3973C96.5912 44.5945 96.4155 43.7039 96.4155 42.7255C96.4155 41.747 96.5912 40.8689 96.9424 40.0912C97.3187 39.2884 97.8205 38.611 98.4477 38.0591C99.0749 37.5072 99.8024 37.0932 100.63 36.8172C101.483 36.5162 102.399 36.3657 103.377 36.3657H122.758C122.984 36.3657 123.159 36.3029 123.285 36.1775C123.435 36.0521 123.511 35.889 123.511 35.6883C123.511 35.2116 123.26 34.9733 122.758 34.9733H96.7919V28.9521H125.543C127.7 28.9521 129.406 29.5292 130.661 30.6832C131.915 31.8373 132.542 33.3676 132.542 35.2743C132.542 37.181 131.915 38.7239 130.661 39.9031C129.406 41.0571 127.7 41.6341 125.543 41.6341H106.576C106.074 41.6341 105.824 41.8725 105.824 42.3491C105.824 42.8258 106.074 43.0641 106.576 43.0641H132.166V49.0853H103.377ZM96.7919 50.4777H132.166V56.8751H118.807V63.2725H110.151V56.8751H96.7919V50.4777Z" fill="#C5F509"/>
<path d="M162.273 49.725H142.704C138.941 49.725 137.06 47.8434 137.06 44.0802V28.9521H158.961V34.5969H145.715V36.6667H158.961V41.9352H145.715V43.3276C145.715 43.8293 145.966 44.0802 146.468 44.0802H162.273V28.9521H170.928V52.3593H162.273V49.725ZM145.715 51.6066V53.8645C145.715 54.5419 145.916 55.0938 146.317 55.5203C146.744 55.9217 147.295 56.1225 147.973 56.1225H171.305V63.2725H145.339C144.084 63.2725 142.943 63.0718 141.914 62.6704C140.911 62.269 140.045 61.7045 139.318 60.977C138.615 60.2745 138.063 59.409 137.662 58.3804C137.26 57.3769 137.06 56.2479 137.06 54.9935V51.6066H145.715Z" fill="#C5F509"/>
<path d="M170.977 63.2903V56.1324H182.418V18.0734H13.0742V8.7998H193.254V63.2903H170.977Z" fill="#C5F509"/>
<path d="M14.1523 24.9897V0.868138C14.1523 0.545974 13.7638 0.383564 13.5345 0.609894L0.284625 13.6899C0.132105 13.8405 0.142606 14.0897 0.307249 14.2269L13.5571 25.2685C13.7935 25.4655 14.1523 25.2974 14.1523 24.9897Z" fill="#C5F509"/>
</svg>
