<svg width="16" height="16" viewBox="0 0 16 16" fill="none" xmlns="http://www.w3.org/2000/svg">
<g clip-path="url(#clip0_910_26571)">
<path d="M8.00065 12.6667C9.2379 12.6653 10.4241 12.1731 11.2989 11.2983C12.1738 10.4234 12.6659 9.23724 12.6673 8V4.66667C12.6673 3.42899 12.1757 2.242 11.3005 1.36684C10.4253 0.491665 9.23833 0 8.00065 0C6.76297 0 5.57599 0.491665 4.70082 1.36684C3.82565 2.242 3.33398 3.42899 3.33398 4.66667V8C3.3354 9.23724 3.82751 10.4234 4.70238 11.2983C5.57724 12.1731 6.76341 12.6653 8.00065 12.6667ZM8.00065 2C8.7079 2 9.38617 2.28095 9.88627 2.78105C10.3864 3.28115 10.6673 3.95942 10.6673 4.66667V5.33333H9.66732C9.4021 5.33333 9.14775 5.43869 8.96021 5.62623C8.77267 5.81376 8.66732 6.06812 8.66732 6.33333C8.66732 6.59855 8.77267 6.8529 8.96021 7.04044C9.14775 7.22798 9.4021 7.33333 9.66732 7.33333H10.6673V8C10.6673 8.70724 10.3864 9.38552 9.88627 9.88562C9.38617 10.3857 8.7079 10.6667 8.00065 10.6667C7.29341 10.6667 6.61513 10.3857 6.11503 9.88562C5.61494 9.38552 5.33398 8.70724 5.33398 8V7.33333H6.33398C6.5992 7.33333 6.85355 7.22798 7.04109 7.04044C7.22863 6.8529 7.33398 6.59855 7.33398 6.33333C7.33398 6.06812 7.22863 5.81376 7.04109 5.62623C6.85355 5.43869 6.5992 5.33333 6.33398 5.33333H5.33398V4.66667C5.33398 3.95942 5.61494 3.28115 6.11503 2.78105C6.61513 2.28095 7.29341 2 8.00065 2Z" fill="#A6CC00"/>
<path d="M15 7.66699C14.7348 7.66699 14.4804 7.77235 14.2929 7.95989C14.1054 8.14742 14 8.40178 14 8.66699V8.92633C13.9984 10.2715 13.4633 11.5612 12.5121 12.5124C11.5609 13.4636 10.2712 13.9987 8.926 14.0003H7.074C5.72883 13.9986 4.43927 13.4634 3.48809 12.5122C2.53691 11.5611 2.00176 10.2715 2 8.92633V8.66699C2 8.40178 1.89464 8.14742 1.70711 7.95989C1.51957 7.77235 1.26522 7.66699 1 7.66699C0.734784 7.66699 0.48043 7.77235 0.292893 7.95989C0.105357 8.14742 0 8.40178 0 8.66699L0 8.92633C0.00211741 10.8018 0.748092 12.5999 2.07427 13.9261C3.40044 15.2522 5.19851 15.9982 7.074 16.0003H8.926C10.8015 15.9982 12.5996 15.2522 13.9257 13.9261C15.2519 12.5999 15.9979 10.8018 16 8.92633V8.66699C16 8.40178 15.8946 8.14742 15.7071 7.95989C15.5196 7.77235 15.2652 7.66699 15 7.66699Z" fill="#A6CC00"/>
</g>
<defs>
<clipPath id="clip0_910_26571">
<rect width="16" height="16" fill="white"/>
</clipPath>
</defs>
</svg>
