<svg width="16" height="16" viewBox="0 0 16 16" fill="none" xmlns="http://www.w3.org/2000/svg">
<path d="M15.333 0.668411C14.7817 0.109429 13.9778 -0.119757 13.2147 0.0644978L3.02414 2.20619C1.08891 2.49255 -0.247736 4.29351 0.0386292 6.2287C0.149957 6.98106 0.5005 7.67762 1.03839 8.21532L2.13089 9.30851C2.18204 9.35897 2.21063 9.42796 2.21022 9.49982V11.5155C2.21169 12.7695 3.22789 13.7857 4.48189 13.7872H6.4976C6.56956 13.7872 6.63861 13.8157 6.68957 13.8665L7.78207 14.959C8.44266 15.624 9.34107 15.9982 10.2784 15.9989C10.6653 15.9986 11.0496 15.9353 11.4162 15.8116C12.6814 15.3914 13.6007 14.2927 13.7912 12.9733L15.9329 2.81479C16.1253 2.04359 15.8974 1.22808 15.333 0.668411ZM2.08093 5.21841C2.26209 4.65871 2.75096 4.25455 3.33475 4.1819C3.35831 4.17878 3.38161 4.17478 3.40474 4.1699L12.2848 2.30352L4.20996 10.3737V9.49979C4.21143 8.89694 3.97134 8.31862 3.5434 7.89402L2.45222 6.80152C2.03193 6.39046 1.88721 5.77349 2.08093 5.21841ZM11.8275 12.596C11.8222 12.6194 11.8189 12.6427 11.8155 12.666C11.6998 13.5104 10.9215 14.101 10.0771 13.9852C9.74354 13.9395 9.43405 13.7859 9.1959 13.5479L8.10406 12.4561C7.67924 12.028 7.1007 11.7879 6.49763 11.7895H5.62376L13.6966 3.71466L11.8275 12.596Z" fill="#A6CC00"/>
</svg>
