<svg width="336" height="98" viewBox="0 0 336 98" fill="none" xmlns="http://www.w3.org/2000/svg">
<rect x="0.5" y="0.5" width="335" height="97" rx="11.5" fill="#FEFEFE"/>
<rect x="0.5" y="0.5" width="335" height="97" rx="11.5" stroke="#F8F8F8"/>
<path d="M77.4482 30.1065C77.7029 29.9896 77.9793 29.9512 78.2597 30.0059L78.4863 30.0508L78.7129 30.0947L79.1445 30.1709L79.3691 30.207L79.5947 30.2432L79.7461 30.2578C79.7963 30.2596 79.8466 30.2585 79.8965 30.2539L80.1211 30.2334L80.3467 30.2129L80.4922 30.2031C80.6373 30.198 80.7824 30.2056 80.9267 30.2246L81.372 30.2832L81.5439 30.2979C81.6013 30.3004 81.6589 30.3003 81.7168 30.2979L81.9424 30.2891L82.167 30.2793C82.3022 30.2736 82.4389 30.2621 82.5761 30.2461L83.0312 30.1934C83.1662 30.1776 83.3031 30.1565 83.4414 30.1289L83.6728 30.082L83.9033 30.0361L84.0302 30.0186C84.323 29.9936 84.5947 30.0857 84.8213 30.2559L85.0302 30.4131L85.2051 30.5459L85.3877 30.4902L85.624 30.419L85.7334 30.3906C85.9905 30.3364 86.2533 30.3632 86.5009 30.4795L86.9267 30.6787L87.0244 30.7139C87.0565 30.7214 87.089 30.7252 87.1211 30.7256L87.3486 30.7285L87.5771 30.7315L87.7383 30.7402C87.8984 30.7553 88.056 30.7894 88.209 30.8428L88.4228 30.918L88.6367 30.9922L88.8799 31.084C88.96 31.1168 89.0394 31.1523 89.1181 31.1895L89.3261 31.2881L89.5351 31.3867L89.6211 31.416C89.6501 31.4223 89.6802 31.4251 89.7119 31.4248L89.9433 31.4219L90.1738 31.4199C90.3045 31.4185 90.4401 31.4097 90.5801 31.3926L90.8213 31.3633L91.0625 31.333L91.1718 31.3242C91.4244 31.3138 91.67 31.3752 91.8916 31.5117L92.0918 31.6348L92.292 31.7588L92.3593 31.79C92.3825 31.7971 92.4068 31.8008 92.4326 31.8018L92.666 31.8096L92.8994 31.8184C93.226 31.8304 93.5059 31.9724 93.7207 32.1963L93.8974 32.3799L94.0752 32.5645L94.1767 32.6543C94.2086 32.6772 94.2387 32.6938 94.2666 32.7061L94.6767 32.8877L94.7304 32.9024C94.7536 32.9054 94.7829 32.9058 94.8203 32.9014L95.3242 32.8408L95.5302 32.8301C95.7354 32.8339 95.9384 32.8825 96.1289 32.9834L96.3291 33.0899L96.5302 33.1963L96.7588 33.3262C96.8334 33.3715 96.9072 33.419 96.9795 33.4688L97.1689 33.5996L97.3584 33.7295L97.7334 33.9863L97.9218 34.1152L98.1113 34.2432L98.2715 34.3457C98.3254 34.3778 98.3805 34.4082 98.4355 34.4365L98.6338 34.5381L98.833 34.6406L98.9394 34.6826C98.9778 34.694 99.0197 34.7027 99.0654 34.708L99.3017 34.7363L99.539 34.7637L99.6416 34.7803C99.8783 34.8258 100.095 34.9304 100.279 35.0947L100.452 35.25L100.625 35.4043C100.657 35.4324 100.691 35.4498 100.74 35.459L100.973 35.5029L101.206 35.5459L101.31 35.5693C101.549 35.6334 101.76 35.7604 101.931 35.9453L102.09 36.1192L102.25 36.293L102.281 36.3184C102.292 36.3247 102.305 36.3296 102.322 36.333L102.557 36.3799L102.79 36.4277L102.956 36.4688C103.118 36.517 103.273 36.587 103.417 36.6787L103.607 36.7998L103.799 36.9209L104.2 37.1924L104.384 37.3242L104.567 37.4551L104.712 37.5498C104.762 37.5792 104.814 37.6065 104.867 37.6318L105.073 37.7305L105.28 37.8291L105.447 37.9219C105.606 38.0249 105.743 38.1568 105.854 38.3125L105.993 38.5068L106.132 38.7002L106.149 38.7188C106.156 38.7233 106.165 38.7269 106.178 38.7305L106.411 38.7949L106.644 38.8604L106.829 38.9248C107.009 39.0006 107.171 39.1103 107.31 39.2559L107.624 39.5879L107.806 39.794C107.864 39.865 107.919 39.939 107.972 40.0147L108.241 40.3975L108.33 40.5068C108.361 40.5397 108.394 40.5692 108.429 40.5957L108.607 40.7334L108.785 40.8701L108.91 40.9541C108.954 40.9799 109.002 41.0036 109.053 41.0254L109.488 41.2129L109.633 41.2813C109.774 41.3544 109.907 41.4422 110.029 41.5449L110.202 41.6914L110.376 41.8369L110.462 41.917C110.65 42.1101 110.756 42.351 110.804 42.6006L110.855 42.8721L110.908 43.1436L110.931 43.2178C110.932 43.221 110.935 43.2246 110.935 43.2246L111.271 43.5195L111.395 43.6162C111.438 43.6465 111.485 43.6752 111.535 43.7022L111.742 43.8145L111.949 43.9258L112.114 44.0293C112.271 44.1425 112.402 44.2853 112.504 44.4551L112.622 44.6524L112.739 44.8496L112.816 44.959C112.844 44.9927 112.875 45.0241 112.907 45.0527L113.077 45.2012L113.247 45.3506L113.371 45.4707C113.489 45.597 113.586 45.7397 113.662 45.8965L113.764 46.1055L113.864 46.3135L113.908 46.3828C113.925 46.403 113.944 46.421 113.967 46.4375L114.153 46.5742L114.339 46.7109L114.478 46.8242C114.608 46.9437 114.718 47.083 114.805 47.2402L114.915 47.4395L115.024 47.6387L115.062 47.6895C115.078 47.7061 115.099 47.7221 115.126 47.7383L115.54 47.9883L115.775 48.1426C115.852 48.1963 115.926 48.2518 115.998 48.3106L116.359 48.6074L116.455 48.6953C116.663 48.9102 116.759 49.1843 116.769 49.4668L116.778 49.7354L116.785 49.9649L116.935 50.0654L117.136 50.2012L117.281 50.3096C117.42 50.4247 117.539 50.561 117.634 50.7178L117.75 50.9102L117.867 51.1035L117.948 51.2549C118.022 51.4089 118.073 51.5722 118.103 51.7422L118.145 51.9805L118.186 52.2178L118.211 52.3037C118.221 52.3273 118.233 52.347 118.247 52.3643L118.388 52.542L118.527 52.7197L118.629 52.8623C118.722 53.01 118.791 53.1708 118.836 53.3418L118.895 53.5654L118.952 53.7852C118.955 53.7882 118.961 53.7944 118.973 53.8018L119.402 54.0811L119.509 54.1582C119.709 54.3225 119.843 54.5445 119.888 54.8057L119.902 54.9395L119.914 55.1846L119.927 55.4307L119.937 55.4834C119.941 55.4963 119.947 55.5052 119.953 55.5127L120.096 55.6924L120.239 55.8721L120.349 56.0283C120.447 56.1901 120.512 56.3681 120.543 56.5576L120.58 56.7871L120.618 57.0156L120.648 57.1367C120.662 57.1743 120.678 57.2095 120.697 57.2432L120.808 57.4395L120.919 57.6358L121.036 57.8535C121.074 57.927 121.11 58.0013 121.146 58.0762L121.335 58.4824C121.386 58.5923 121.447 58.7005 121.516 58.8067L121.64 58.999L121.765 59.1924L121.853 59.3428C121.932 59.4967 121.987 59.6615 122.017 59.834L122.095 60.2832C122.105 60.3408 122.127 60.3958 122.167 60.4522L122.305 60.6426L122.441 60.834L122.544 60.999C122.635 61.1685 122.692 61.353 122.71 61.5488L122.731 61.7783L122.753 62.0088L122.769 62.0742C122.777 62.0959 122.788 62.1184 122.805 62.1416L123.08 62.5303L123.138 62.6182C123.246 62.7981 123.309 62.9967 123.323 63.207L123.326 63.3135L123.323 63.5479L123.321 63.7832C123.32 63.859 123.334 63.9246 123.36 63.9854L123.45 64.1943L123.54 64.4043L123.579 64.5088C123.648 64.7186 123.656 64.9343 123.616 65.1445L123.593 65.249L123.528 65.4942L123.463 65.7393C123.44 65.8248 123.442 65.8849 123.451 65.9277L123.543 66.3652L123.635 66.8018L123.681 67.0195L123.727 67.2383C123.754 67.3661 123.786 67.4939 123.825 67.6211L123.892 67.8379L123.958 68.0537L124.016 68.21C124.038 68.2623 124.064 68.315 124.093 68.3682L124.208 68.5791L124.323 68.7891L124.377 68.9004C124.471 69.1256 124.489 69.3647 124.435 69.5986L124.401 69.7149L124.243 70.1875C124.227 70.2366 124.231 70.259 124.235 70.2734L124.304 70.4922L124.371 70.7109L124.509 71.1367L124.582 71.3555L124.655 71.5752L124.705 71.7676C124.729 71.8962 124.735 72.0263 124.723 72.1563L124.69 72.3516L124.637 72.5811L124.584 72.8057C124.585 72.8088 124.588 72.8144 124.592 72.8213L124.72 73.04L124.848 73.2598L124.912 73.3897C124.968 73.5248 124.995 73.6758 124.981 73.8359C124.968 73.9923 124.917 74.1313 124.849 74.251L124.775 74.3643L124.609 74.5928L124.506 74.7344L124.567 74.8399L124.639 74.9785C124.701 75.1205 124.74 75.2714 124.764 75.4219L124.836 75.875L124.913 76.3086L125.001 76.7637L125.018 76.8701C125.041 77.0831 125.01 77.2918 124.934 77.4883L124.892 77.5859L124.785 77.8067L124.68 78.0274C124.66 78.0674 124.647 78.1046 124.638 78.1397L124.623 78.2383L124.614 78.4629L124.604 78.6885C124.6 78.7971 124.607 78.9083 124.625 79.0225L124.699 79.4815L124.713 79.6055C124.728 79.8922 124.632 80.1558 124.467 80.376L124.31 80.585L124.221 80.7022L124.3 80.8535L124.427 81.0967L124.479 81.209C124.571 81.4363 124.599 81.6887 124.524 81.9424L124.479 82.0693L124.387 82.2832L124.294 82.4981C124.277 82.5364 124.265 82.5745 124.257 82.6123L124.241 82.7266L124.224 83.1817C124.216 83.3655 124.177 83.5429 124.11 83.7109L124.034 83.876L123.924 84.084L123.813 84.291C123.811 84.2954 123.81 84.2998 123.81 84.2998L123.809 84.3027C123.808 84.3047 123.808 84.3136 123.812 84.332L123.864 84.5752L123.917 84.8174L123.938 84.9404C123.965 85.1855 123.914 85.4246 123.788 85.6377L123.719 85.7412L123.572 85.9395L123.426 86.1367C123.384 86.1925 123.346 86.2482 123.31 86.3037L123.209 86.4707L123.097 86.6729L122.983 86.876C122.954 86.9279 122.928 86.98 122.905 87.0322L122.845 87.1895L122.773 87.4014L122.702 87.6143C122.682 87.6739 122.672 87.7432 122.679 87.8281L122.716 88.3067L122.722 88.4785C122.72 88.5932 122.709 88.7071 122.686 88.8193L122.643 88.9854L122.576 89.2012L122.509 89.416C122.484 89.4946 122.472 89.583 122.474 89.6836L122.478 89.9238L122.482 90.1641L122.48 90.2686C122.469 90.4745 122.413 90.6723 122.312 90.8535L122.257 90.9424L122.127 91.1358L121.998 91.3291L121.755 91.7051L121.632 91.8984L121.509 92.0928C121.491 92.1207 121.479 92.155 121.479 92.2119L121.477 92.7002C121.476 92.8806 121.449 93.0575 121.394 93.2275L121.329 93.3955L121.235 93.6016L121.142 93.8086C121.103 93.8947 121.059 93.9786 121.013 94.0606L120.861 94.3008L120.729 94.4893L120.598 94.6768C120.497 94.8205 120.376 94.9474 120.24 95.0576L120.099 95.1621L119.885 95.3076L119.71 95.4268L119.704 95.6182L119.697 95.8662C119.692 96.0358 119.667 96.2024 119.622 96.3633L119.57 96.5215L119.489 96.7344L119.409 96.9483C119.376 97.035 119.34 97.1199 119.3 97.2031L119.17 97.4473L119.056 97.6426L118.941 97.8369C118.939 97.8412 118.936 97.8454 118.934 97.8496H40.4062C40.3943 97.8307 40.3841 97.8105 40.3711 97.792L40.2744 97.6709L39.9638 97.3291L39.6582 96.9981L39.4961 96.8281L39.3349 96.6582C39.211 96.5276 39.1097 96.381 39.0342 96.2197L38.9668 96.0537L38.8935 95.8369L38.8193 95.6201C38.7701 95.4759 38.7342 95.3276 38.7119 95.1758L38.6943 95.0225L38.6728 94.7832L38.6513 94.543L38.6474 94.5381L38.4619 94.376L38.2763 94.2129C38.1312 94.0854 38.0108 93.9358 37.9228 93.7647L37.8457 93.5859L37.7705 93.3721L37.6943 93.1582C37.6316 92.9811 37.585 92.7983 37.5547 92.6113L37.5175 92.3828L37.4814 92.1553L37.4043 91.7149L37.3633 91.4893L37.3222 91.2647L37.2334 90.8633L37.1767 90.6455L37.1211 90.4277C37.1069 90.3729 37.0903 90.3188 37.0713 90.2656L37.0068 90.1084L36.8174 89.7002C36.8012 89.6655 36.7806 89.6297 36.7549 89.5928L36.6601 89.4775L36.4863 89.2959L36.3125 89.1152C36.0505 88.8417 35.9637 88.4863 36.0488 88.1279L36.1084 87.876L36.1689 87.6231L36.1875 87.4932C36.1889 87.4563 36.1865 87.4249 36.1816 87.3984L36.0996 86.957C36.0996 86.957 36.0997 86.9568 36.0957 86.9502L36.0478 86.8975L35.8427 86.7178L35.6377 86.5371C35.3925 86.3216 35.2256 86.0216 35.2353 85.6572L35.2412 85.4238L35.248 85.1914L35.2451 84.7695L35.2363 84.541L35.2265 84.3135C35.2255 84.2882 35.2225 84.2624 35.2148 84.2363L35.1787 84.1543L35.0595 83.9483L34.9404 83.7412C34.7804 83.4635 34.7432 83.1542 34.8203 82.8496L34.8808 82.6104L34.9414 82.3721L34.9492 82.3076L34.9414 82.2666L34.8642 82.0508L34.7881 81.8359L34.6338 81.3945L34.4853 80.959C34.3811 80.6533 34.4123 80.3454 34.5342 80.0684L34.7431 79.5938L34.7441 79.5928L34.6611 79.3965L34.5703 79.1807C34.5128 79.0434 34.4669 78.9027 34.4326 78.7598L34.4023 78.6162L34.3613 78.3926L34.3213 78.1699C34.3097 78.1067 34.2965 78.043 34.2812 77.9795L34.2295 77.7871L34.0967 77.3418C33.9919 76.9899 34.0787 76.6562 34.2597 76.3858L34.4131 76.1563L34.5664 75.9277L34.6084 75.8467C34.6139 75.8297 34.6133 75.8203 34.6133 75.8203L34.6093 75.5967L34.6045 75.3721C34.6045 75.3721 34.6045 75.3632 34.5986 75.3477L34.5488 75.2627L34.3818 75.0352L34.2148 74.8067C34.1132 74.6678 34.0306 74.4967 34.0068 74.2969C33.9825 74.0919 34.0249 73.8983 34.1113 73.7295L34.2256 73.5078L34.3388 73.2861C34.3923 73.1816 34.4263 73.084 34.4453 72.9932L34.4912 72.7715L34.5381 72.5488L34.6133 72.1358L34.6816 71.6924L34.7324 71.2842L34.7529 71.0615L34.7734 70.8399L34.7822 70.669L34.7754 70.4932L34.7578 70.2647L34.7392 70.0371C34.7232 69.8339 34.7335 69.6313 34.7705 69.4317L34.8115 69.2119L34.8525 68.9912L34.875 68.8252C34.8799 68.7693 34.8821 68.7126 34.8818 68.6553L34.8799 68.2002C34.879 68.0339 34.884 67.8676 34.8955 67.7022L34.9111 67.4766L34.9277 67.251C34.9408 67.0632 34.9708 66.878 35.0185 66.6963L35.0752 66.4785L35.1328 66.2608L35.1543 66.1377L35.1552 66.0029L35.1377 65.7676L35.1211 65.5322C35.1018 65.2622 35.1582 65.0012 35.2881 64.7627L35.3994 64.5576L35.5107 64.3516L35.6445 64.1221C35.691 64.0464 35.7393 63.9713 35.79 63.8975L35.9258 63.7002L36.0605 63.5039L36.0664 63.4932L36.0674 63.4912C36.0674 63.4912 36.0682 63.4898 36.0683 63.4873C36.0685 63.4847 36.0682 63.4795 36.0674 63.4717L36.041 63.2315L36.0136 62.9902C35.9763 62.6526 36.0839 62.3406 36.3095 62.0947L36.4775 61.9111L36.6455 61.7285L36.7041 61.6494C36.7175 61.6254 36.7254 61.6036 36.7304 61.584L36.7871 61.3672L36.8428 61.1504L36.914 60.9043C36.9399 60.8229 36.9677 60.742 36.998 60.6621L37.1562 60.2442L37.1572 60.2412C37.1576 60.239 37.1581 60.2345 37.1582 60.2275L37.1435 60.1406L37.0693 59.8731L36.9951 59.6045C36.917 59.3226 36.9133 59.0161 37.0449 58.7236L37.1386 58.5166L37.2314 58.3096L37.2783 58.2158C37.3946 58.0038 37.5627 57.8343 37.7578 57.7022L37.9795 57.5518L38.2021 57.4004L38.2461 57.3633C38.2477 57.3612 38.2469 57.3626 38.2461 57.3652L38.3076 57.1484L38.3691 56.9307L38.4072 56.7656C38.4174 56.7086 38.4255 56.6494 38.4306 56.5879L38.4502 56.3486L38.4707 56.1104L38.4882 55.9561C38.5105 55.8032 38.5469 55.6539 38.5976 55.5088L38.6728 55.294L38.748 55.0781L38.8047 54.9326C38.8664 54.7896 38.9429 54.6539 39.0342 54.5264L39.1679 54.3408L39.3007 54.1543L39.3711 54.0391C39.3915 53.9988 39.4083 53.9562 39.4228 53.9121L39.4951 53.6943L39.5674 53.4756L39.6386 53.2979C39.7207 53.1266 39.8345 52.9743 39.9756 52.8438L40.1494 52.6836L40.3232 52.5225L40.3613 52.4756C40.371 52.4594 40.3785 52.4418 40.3838 52.4219L40.4433 52.1953L40.5029 51.9678L40.5527 51.8076C40.6087 51.6506 40.6842 51.5021 40.7803 51.3643L40.9101 51.1777L41.04 50.9922L41.164 50.8389C41.2968 50.6956 41.4553 50.5824 41.6299 50.4961L41.8642 50.3809L42.0976 50.2647L42.1767 50.2149C42.1938 50.2001 42.2034 50.1876 42.209 50.1787L42.4472 49.7998L42.4726 49.7402C42.4808 49.7127 42.4875 49.6765 42.4902 49.6289L42.5058 49.3633L42.5205 49.0977C42.5394 48.7716 42.6757 48.4628 42.959 48.2471L43.1455 48.1045L43.333 47.9629L43.4355 47.8711C43.4659 47.8394 43.4928 47.8061 43.5166 47.7715L43.6445 47.585L43.7724 47.3994L43.8759 47.2637C43.9853 47.1335 44.1125 47.0198 44.2549 46.9238L44.4492 46.793L44.6445 46.6611L44.7314 46.5908C44.7564 46.5657 44.7775 46.5389 44.7959 46.5108L44.9199 46.3213L45.0429 46.1318L45.2031 45.9072C45.2595 45.835 45.3194 45.7656 45.3818 45.6983L45.5342 45.5332L45.6875 45.3682C45.8262 45.2185 45.984 45.0888 46.1582 44.9795L46.3545 44.8565L46.54 44.7383C46.5413 44.7347 46.5443 44.7301 46.5459 44.7236L46.6074 44.4727L46.6679 44.2207L46.7099 44.085C46.8257 43.7808 47.0654 43.5592 47.3906 43.4639L47.8828 43.3193L47.9599 43.2871C47.9773 43.2765 47.9877 43.2661 47.9941 43.2588L48.289 42.9209L48.3261 42.8623C48.3395 42.8344 48.3527 42.797 48.3642 42.7471L48.4258 42.4824L48.4863 42.2178L48.5488 42.0127C48.6258 41.8118 48.748 41.6274 48.9267 41.4805L49.1025 41.3359L49.2773 41.1924L49.4101 41.0928C49.5469 40.9991 49.6951 40.9232 49.8525 40.8652L50.0791 40.7822L50.3047 40.6992L50.414 40.6475C50.4456 40.6284 50.4728 40.6073 50.497 40.585L50.6631 40.4326L50.8291 40.2793L51.1845 39.9649L51.3564 39.8193L51.5283 39.6729L51.6543 39.5557C51.695 39.5142 51.7342 39.4701 51.7724 39.4238L51.9199 39.2451L52.0683 39.0654L52.1865 38.9356C52.3109 38.8126 52.4534 38.7101 52.6113 38.6299L52.8144 38.5264L53.0185 38.4229L53.1543 38.3438C53.1973 38.3151 53.239 38.2836 53.2783 38.25L53.4502 38.1035L53.623 37.9561L53.7119 37.8867C53.9226 37.7376 54.1652 37.6658 54.414 37.6524L54.6748 37.6377L54.9355 37.624C55.0246 37.6192 55.0722 37.5981 55.0976 37.582L55.4746 37.3438L55.6328 37.2373C55.6844 37.2005 55.7352 37.162 55.7851 37.1221L55.9619 36.9815L56.1377 36.8408L56.2119 36.7666C56.2377 36.7352 56.2636 36.6961 56.29 36.6484L56.5439 36.1914L56.6064 36.0899C56.7611 35.8613 56.9847 35.6872 57.2744 35.6133L57.7275 35.4981L57.9892 35.4385C58.077 35.4212 58.1656 35.4062 58.2549 35.3936L58.7275 35.3272C58.7644 35.3219 58.7847 35.3108 58.8056 35.291L58.9765 35.1299L59.1465 34.9697L59.2558 34.8711C59.3679 34.7756 59.4869 34.69 59.6123 34.6143L59.8056 34.4971L60 34.3799C60.1726 34.2757 60.3563 34.1944 60.5498 34.1367L60.7676 34.0723L60.9853 34.0068L61.1054 33.9609C61.1443 33.9421 61.1819 33.9194 61.2187 33.8936L61.5957 33.6299L61.7275 33.544C61.8617 33.4634 62.0034 33.3975 62.1523 33.3477L62.3662 33.2764L62.581 33.2041C62.7888 33.1346 63.0049 33.1018 63.2256 33.1016L63.4658 33.1006H63.707C63.7702 33.1005 63.8135 33.0869 63.8496 33.0664L64.0468 32.9541L64.2451 32.8418C64.3329 32.7919 64.4223 32.7267 64.5117 32.6436L64.6924 32.4756L64.873 32.3067L64.9765 32.2217C65.1884 32.0663 65.4368 31.9991 65.6943 32.0186L65.8242 32.0352L66.0761 32.082L66.3271 32.1289H66.332L66.5156 32.0029L66.7099 31.8682L66.8759 31.7676C67.0476 31.6788 67.2343 31.6257 67.4316 31.6113L67.8906 31.5781C67.9643 31.5727 68.0327 31.554 68.0996 31.5205L68.5117 31.3135L68.6718 31.2432C68.8348 31.1811 69.0055 31.1446 69.1816 31.1348L69.6386 31.1094C69.734 31.1041 69.8253 31.0861 69.914 31.0547L70.1289 30.9785L70.3427 30.9024L70.7978 30.752L71.0146 30.6846L71.2314 30.6182L71.3916 30.5762C71.5528 30.5414 71.7174 30.5275 71.8838 30.5352L72.1142 30.5459L72.3457 30.5567C72.5424 30.5657 72.7383 30.5957 72.9326 30.6455L73.1679 30.7051L73.3301 30.7461L73.5 30.5977L73.7041 30.418L73.875 30.2871C74.0545 30.1688 74.2612 30.0893 74.4922 30.0742L74.7177 30.0596L74.9443 30.0449H75.1347C75.3235 30.0568 75.5066 30.1037 75.6806 30.1787L75.914 30.2793L76.1484 30.3799L76.247 30.4111C76.2747 30.4161 76.2976 30.4167 76.3164 30.415L76.7636 30.376L76.8808 30.3555C76.9216 30.3444 76.9643 30.329 77.0088 30.3086L77.2285 30.207L77.4482 30.1065Z" fill="#F8F8F8"/>
<path d="M100.856 80.089C105.23 80.089 108.776 76.5431 108.776 72.169C108.776 67.7949 105.23 64.249 100.856 64.249C96.4815 64.249 92.9355 67.7949 92.9355 72.169C92.9355 76.5431 96.4815 80.089 100.856 80.089Z" fill="#EBEBEB"/>
<path d="M90.7755 72.8888C95.1496 72.8888 98.6955 69.3429 98.6955 64.9688C98.6955 60.5947 95.1496 57.0488 90.7755 57.0488C86.4014 57.0488 82.8555 60.5947 82.8555 64.9688C82.8555 69.3429 86.4014 72.8888 90.7755 72.8888Z" fill="white"/>
<path d="M88.6162 70.7294C91.3997 70.7294 93.6562 68.4729 93.6562 65.6894C93.6562 62.9059 91.3997 60.6494 88.6162 60.6494C85.8327 60.6494 83.5762 62.9059 83.5762 65.6894C83.5762 68.4729 85.8327 70.7294 88.6162 70.7294Z" fill="#EBEBEB"/>
<path d="M90.1116 59.9796L90.3985 60.1371L90.8597 60.4746L91.1466 60.6265L91.6753 60.7953L92.3335 61.0934L92.8285 61.3859L93.0928 61.594C93.244 61.7497 93.3436 61.9366 93.3966 62.1396L93.4416 62.449L93.4528 62.7753L93.4641 63.0959L93.5147 63.3546L93.6216 63.5796L93.7341 63.8103L93.9478 64.1084L94.1672 64.3503L94.3866 64.5865L94.5385 64.7778C94.5901 64.8543 94.6397 64.9433 94.6735 65.0421C94.7098 65.1486 94.7382 65.3009 94.7072 65.4753C94.6904 65.5694 94.6558 65.6561 94.6116 65.734L94.4485 65.9365L94.3472 66.0321L94.3191 66.049V66.0771L94.2685 66.3415L94.2235 66.6059C94.2005 66.7346 94.1663 66.8613 94.1222 66.9828L93.9591 67.3315L93.8297 67.5621L93.6947 67.7928L93.6216 68.0346L93.5935 68.3271L93.5597 68.6196C93.5234 68.9483 93.375 69.2335 93.1322 69.4353L92.8566 69.604L92.5978 69.7278L92.3335 69.8515L92.0353 70.0428L91.8385 70.2115L91.6416 70.3859L91.1578 70.7571L90.9328 70.9146L90.7022 71.0721C90.483 71.2244 90.2397 71.3116 89.9822 71.3309H89.7178L89.1666 71.2746L88.8572 71.2971L88.5872 71.359L88.3172 71.4265C88.0208 71.4979 87.729 71.4684 87.4678 71.3478L87.2147 71.1959L86.9897 71.0215L86.7591 70.8528C86.6844 70.7967 86.6168 70.7661 86.551 70.7515L86.2866 70.6953L86.0278 70.6334L85.3585 70.4028L85.1053 70.2846L84.8522 70.1609C84.7301 70.1027 84.6126 70.0358 84.5035 69.9584L84.1941 69.6996L83.9916 69.4971L83.7947 69.2946C83.6972 69.1969 83.6082 69.0916 83.5303 68.9796L83.3278 68.6253L83.2097 68.3665L83.086 68.1078C82.9574 67.8292 82.9032 67.5307 82.9172 67.2246L82.9397 66.6509L82.9228 66.229L82.8441 65.689C82.8093 65.4482 82.8047 65.2058 82.8328 64.9634L82.9003 64.4121C82.9289 64.1689 82.9855 63.9319 83.0747 63.7034L83.2772 63.1859C83.3773 62.9299 83.5237 62.6958 83.7103 62.494L83.896 62.2915L84.0872 62.089L84.4978 61.6671L84.6947 61.4815L84.886 61.2959L85.2572 61.0203C85.3919 60.9478 85.5378 60.8976 85.6903 60.8628L85.9603 60.8009L86.2247 60.739L86.4722 60.6321L86.6916 60.4803L86.9166 60.3228L87.1641 60.1878C87.3341 60.1156 87.5142 60.0831 87.6985 60.0865L87.9741 60.1203L88.2441 60.1765L88.5141 60.2384C88.5372 60.2431 88.5748 60.2412 88.6378 60.2159L88.9135 60.1034L89.1947 59.9909L89.4985 59.9121C89.7052 59.8814 89.9134 59.902 90.1116 59.9796ZM89.4535 61.4421L89.1722 61.5546C88.8649 61.6779 88.5332 61.7187 88.1991 61.6446L87.9291 61.5828L87.7041 61.5265L87.5128 61.6615L87.2878 61.819C87.1754 61.8965 87.0568 61.9618 86.9335 62.0159L86.5453 62.1453L86.281 62.2015L86.011 62.2634L85.8872 62.3309L85.6903 62.5165L85.4991 62.7078L85.1447 63.0678L84.9535 63.2703L84.7678 63.4728C84.704 63.5418 84.6563 63.6204 84.6216 63.709L84.4191 64.2265L84.3291 64.5809L84.2953 64.8565L84.2672 65.1265C84.253 65.2477 84.2503 65.37 84.2672 65.4865L84.3066 65.7509L84.346 66.0209L84.3797 66.7128L84.3685 67.0053L84.3516 67.2921C84.3482 67.3693 84.3656 67.4387 84.3966 67.5059L84.6328 68.0234L84.8128 68.2765L85.0153 68.479L85.2122 68.6815L85.471 68.8615L85.7241 68.9853L85.9772 69.1034L86.3372 69.2271L86.596 69.289L86.8603 69.3453C87.1408 69.4071 87.3972 69.5283 87.6253 69.6996L87.856 69.874L88.036 70.009L88.2497 69.9584L88.5197 69.8965L88.9135 69.8346C89.0441 69.8258 89.1755 69.8272 89.3072 69.8403L89.5828 69.8684L89.8641 69.8965H89.8753L89.881 69.8909L90.106 69.7334L90.3366 69.5759L90.7022 69.2946L90.8991 69.1259L91.096 68.9515L91.3941 68.7321C91.4975 68.6659 91.6075 68.6056 91.7203 68.5521L91.9791 68.4284L92.1366 68.3496L92.1591 68.1696L92.1928 67.8771L92.2772 67.4665C92.3192 67.3323 92.3749 67.2025 92.446 67.0784L92.581 66.8478L92.7103 66.6171L92.806 66.3528L92.851 66.0884L92.9016 65.8296L93.0085 65.4528C93.0307 65.4002 93.056 65.3471 93.0872 65.2953L92.8847 65.0759C92.7957 64.9779 92.7114 64.8776 92.6372 64.7721L92.4403 64.4403L92.3278 64.2153L92.221 63.9846C92.1567 63.8528 92.106 63.715 92.0747 63.574L92.0241 63.1409L92.0128 62.8203L92.0016 62.5671L91.8497 62.4771L91.5966 62.3309L91.231 62.1621L90.9666 62.0778L90.7078 61.9934C90.5821 61.9526 90.4588 61.9016 90.3422 61.8415L90.0103 61.639L89.7797 61.4703L89.6335 61.3634L89.4535 61.4421Z" fill="#EBEBEB"/>
<path d="M59.5763 80.089C63.9503 80.089 67.4963 76.5431 67.4963 72.169C67.4963 67.7949 63.9503 64.249 59.5763 64.249C55.2022 64.249 51.6562 67.7949 51.6562 72.169C51.6562 76.5431 55.2022 80.089 59.5763 80.089Z" fill="#EBEBEB"/>
<path d="M69.6544 72.8888C74.0285 72.8888 77.5744 69.3429 77.5744 64.9688C77.5744 60.5947 74.0285 57.0488 69.6544 57.0488C65.2803 57.0488 61.7344 60.5947 61.7344 64.9688C61.7344 69.3429 65.2803 72.8888 69.6544 72.8888Z" fill="white"/>
<path d="M67.4951 70.7294C70.2786 70.7294 72.5351 68.4729 72.5351 65.6894C72.5351 62.9059 70.2786 60.6494 67.4951 60.6494C64.7116 60.6494 62.4551 62.9059 62.4551 65.6894C62.4551 68.4729 64.7116 70.7294 67.4951 70.7294Z" fill="#EBEBEB"/>
<path d="M68.9924 59.9796L69.2792 60.1371L69.7405 60.4746L70.0274 60.6265L70.5561 60.7953L71.2142 61.0934L71.7092 61.3859L71.9736 61.594C72.1247 61.7497 72.2244 61.9366 72.2774 62.1396L72.3224 62.449L72.3336 62.7753L72.3449 63.0959L72.3955 63.3546L72.5024 63.5796L72.6149 63.8103L72.8286 64.1084L73.048 64.3503L73.2674 64.5865L73.4192 64.7778C73.4709 64.8543 73.5205 64.9433 73.5542 65.0421C73.5905 65.1486 73.619 65.3009 73.588 65.4753C73.5712 65.5694 73.5366 65.6561 73.4924 65.734L73.3292 65.9365L73.228 66.0321L73.1999 66.049V66.0771L73.1492 66.3415L73.1042 66.6059C73.0813 66.7346 73.0471 66.8613 73.003 66.9828L72.8399 67.3315L72.7105 67.5621L72.5755 67.7928L72.5024 68.0346L72.4742 68.3271L72.4405 68.6196C72.4041 68.9483 72.2558 69.2335 72.013 69.4353L71.7374 69.604L71.4786 69.7278L71.2142 69.8515L70.9161 70.0428L70.7192 70.2115L70.5224 70.3859L70.0386 70.7571L69.8136 70.9146L69.583 71.0721C69.3638 71.2244 69.1204 71.3116 68.863 71.3309H68.5986L68.0474 71.2746L67.738 71.2971L67.468 71.359L67.198 71.4265C66.9016 71.4979 66.6097 71.4684 66.3486 71.3478L66.0955 71.1959L65.8705 71.0215L65.6399 70.8528C65.5652 70.7967 65.4975 70.7661 65.4317 70.7515L65.1674 70.6953L64.9086 70.6334L64.2392 70.4028L63.9861 70.2846L63.733 70.1609C63.6109 70.1027 63.4934 70.0358 63.3842 69.9584L63.0749 69.6996L62.8724 69.4971L62.6755 69.2946C62.578 69.1969 62.489 69.0916 62.4111 68.9796L62.2086 68.6253L62.0905 68.3665L61.9667 68.1078C61.8382 67.8292 61.784 67.5307 61.798 67.2246L61.8205 66.6509L61.8036 66.229L61.7249 65.689C61.6901 65.4482 61.6855 65.2058 61.7136 64.9634L61.7811 64.4121C61.8097 64.1689 61.8663 63.9319 61.9555 63.7034L62.158 63.1859C62.2581 62.9299 62.4045 62.6958 62.5911 62.494L62.7767 62.2915L62.968 62.089L63.3786 61.6671L63.5755 61.4815L63.7667 61.2959L64.138 61.0203C64.2726 60.9478 64.4186 60.8976 64.5711 60.8628L64.8411 60.8009L65.1055 60.739L65.353 60.6321L65.5724 60.4803L65.7974 60.3228L66.0449 60.1878C66.2149 60.1156 66.395 60.0831 66.5792 60.0865L66.8549 60.1203L67.1249 60.1765L67.3949 60.2384C67.418 60.2431 67.4556 60.2412 67.5186 60.2159L67.7942 60.1034L68.0755 59.9909L68.3792 59.9121C68.586 59.8814 68.7942 59.902 68.9924 59.9796ZM68.3342 61.4421L68.053 61.5546C67.7457 61.6779 67.414 61.7187 67.0799 61.6446L66.8099 61.5828L66.5849 61.5265L66.3936 61.6615L66.1686 61.819C66.0562 61.8965 65.9376 61.9618 65.8142 62.0159L65.4261 62.1453L65.1617 62.2015L64.8917 62.2634L64.768 62.3309L64.5711 62.5165L64.3799 62.7078L64.0255 63.0678L63.8342 63.2703L63.6486 63.4728C63.5848 63.5418 63.5371 63.6204 63.5024 63.709L63.2999 64.2265L63.2099 64.5809L63.1761 64.8565L63.148 65.1265C63.1338 65.2477 63.1311 65.37 63.148 65.4865L63.1874 65.7509L63.2267 66.0209L63.2605 66.7128L63.2492 67.0053L63.2324 67.2921C63.229 67.3693 63.2463 67.4387 63.2774 67.5059L63.5136 68.0234L63.6936 68.2765L63.8961 68.479L64.093 68.6815L64.3517 68.8615L64.6049 68.9853L64.858 69.1034L65.218 69.2271L65.4767 69.289L65.7411 69.3453C66.0216 69.4071 66.2779 69.5283 66.5061 69.6996L66.7367 69.874L66.9167 70.009L67.1305 69.9584L67.4005 69.8965L67.7942 69.8346C67.9248 69.8258 68.0563 69.8272 68.188 69.8403L68.4636 69.8684L68.7449 69.8965H68.7561L68.7617 69.8909L68.9867 69.7334L69.2174 69.5759L69.583 69.2946L69.7799 69.1259L69.9767 68.9515L70.2749 68.7321C70.3783 68.6659 70.4883 68.6056 70.6011 68.5521L70.8599 68.4284L71.0174 68.3496L71.0399 68.1696L71.0736 67.8771L71.158 67.4665C71.2 67.3323 71.2556 67.2025 71.3267 67.0784L71.4617 66.8478L71.5911 66.6171L71.6867 66.3528L71.7317 66.0884L71.7824 65.8296L71.8892 65.4528C71.9114 65.4002 71.9368 65.3471 71.968 65.2953L71.7655 65.0759C71.6765 64.9779 71.5922 64.8776 71.518 64.7721L71.3211 64.4403L71.2086 64.2153L71.1017 63.9846C71.0375 63.8528 70.9868 63.715 70.9555 63.574L70.9049 63.1409L70.8936 62.8203L70.8824 62.5671L70.7305 62.4771L70.4774 62.3309L70.1117 62.1621L69.8474 62.0778L69.5886 61.9934C69.4628 61.9526 69.3396 61.9016 69.223 61.8415L68.8911 61.639L68.6605 61.4703L68.5142 61.3634L68.3342 61.4421Z" fill="#EBEBEB"/>
<path d="M87.9951 78.7982C88.243 78.6551 88.5618 78.7416 88.706 78.9892C88.7431 79.0534 88.7593 79.123 88.7669 79.1923L88.7751 79.1964L88.7791 79.3873V79.4645L88.7629 79.627C88.7238 79.7767 88.6314 79.8789 88.576 79.9317L88.3241 80.1064L88.1454 80.1957L87.9707 80.2851L87.4994 80.472L87.3004 80.5248L87.1054 80.5817C87.0985 80.5836 87.0932 80.5857 87.0932 80.5857L87.0769 80.6061L86.8332 80.9636C86.6661 81.2082 86.4139 81.3594 86.1141 81.3861L85.9029 81.4064L85.6916 81.4226L85.2976 81.4673L84.8994 81.5161L84.8547 81.5404L84.7085 81.6948L84.5622 81.8451C84.4941 81.915 84.4205 81.979 84.3429 82.0361L84.091 82.1864L83.9163 82.2757L83.7376 82.3611C83.6448 82.4066 83.5477 82.4422 83.4491 82.4667L83.1444 82.5073L82.9454 82.5154L82.7422 82.5236L82.6407 82.5601L82.466 82.6779L82.2913 82.7998C82.0933 82.935 81.8658 83.0071 81.621 83.007H81.2188C81.0685 83.0069 80.917 83.0013 80.7679 82.9867L80.5729 82.9664L80.3738 82.9461L79.8701 82.8445L79.6751 82.7795L79.4801 82.7186H79.411L79.216 82.7836L79.021 82.8445C78.8701 82.8941 78.7176 82.9368 78.5619 82.9664L78.3588 83.0029L78.1597 83.0436C78.0371 83.0668 77.9134 83.068 77.7941 83.0517L77.4447 82.9461L77.2619 82.8526L77.0751 82.7632L76.8151 82.6698L76.6241 82.6251L76.4372 82.5804L75.9782 82.4342L75.7954 82.357L75.6166 82.2798L75.4947 82.2676L75.0641 82.3245C74.9464 82.3403 74.8268 82.3416 74.7107 82.3245L74.3694 82.2189L74.1907 82.1336L74.0119 82.0442L73.5813 81.7679L73.2644 81.5161L72.9597 81.2723L72.8054 81.1545L72.651 81.0326L72.5129 80.9757L72.3057 80.9351L72.0985 80.8986C71.9146 80.8638 71.7468 80.7867 71.6029 80.6711L71.4688 80.5411L71.2007 80.2404C71.1339 80.1652 71.0235 80.0568 70.8594 79.9154L70.6279 79.7164L70.5832 79.692L70.4329 79.5498C70.3156 79.3848 70.2999 79.1602 70.4126 78.977C70.526 78.7933 70.736 78.7017 70.9366 78.7332L71.1276 78.8064L71.2129 78.8592L71.2494 78.8795L71.2779 78.9079L71.5379 79.1314L71.9766 79.5498L72.2447 79.8504L72.2935 79.8748L72.4966 79.9154L72.7038 79.952L73.0085 80.0454C73.1068 80.0884 73.2017 80.1447 73.2888 80.212L73.4432 80.3298L73.5976 80.4517L73.9185 80.7036L74.0769 80.8336L74.2313 80.9595L74.471 81.1098L74.6497 81.1992L74.8285 81.2845L74.926 81.2967L75.3566 81.2398L75.6938 81.2357C75.8064 81.2493 75.9187 81.2788 76.0269 81.3251L76.2057 81.3982L76.3844 81.4754L76.6647 81.5689L76.8557 81.6095L77.0466 81.6542L77.5341 81.8289L77.721 81.9182L77.9038 82.0117L77.9647 82.0198L78.1638 81.9832L78.3669 81.9426C78.4782 81.9215 78.5877 81.8929 78.696 81.8573L78.891 81.7923L79.086 81.7314L79.4435 81.6704C79.5619 81.67 79.6803 81.69 79.7969 81.7273L79.9919 81.7882L80.1869 81.8532L80.4754 81.9142L80.6744 81.9304L80.8694 81.9507C80.9846 81.9621 81.1023 81.9669 81.2188 81.967H81.621C81.6434 81.967 81.6666 81.9627 81.7022 81.9386L81.881 81.8207L82.0557 81.6989L82.3644 81.5445C82.4737 81.5077 82.5904 81.4876 82.7097 81.4836L82.9088 81.4754L83.1119 81.4673L83.2785 81.4267L83.4572 81.3414L83.636 81.252L83.8147 81.1179L83.9651 80.9676L84.1113 80.8173L84.4079 80.5939C84.5175 80.5381 84.6375 80.5005 84.7654 80.4842L84.9644 80.4598L85.1676 80.4354L85.5982 80.3867L85.8094 80.3704L85.9882 80.3501L86.0938 80.1998L86.2157 80.0211L86.3376 79.8707C86.4694 79.7328 86.6357 79.6318 86.8291 79.5782L87.0241 79.5214L87.2191 79.4686L87.4954 79.3629L87.5157 79.3507L87.3572 79.172L87.9057 78.8511L87.9951 78.7982Z" fill="#EBEBEB"/>
<path d="M72.9524 13.4225L73.0499 13.4875L73.0621 13.4997L73.3302 13.7109L73.6755 13.9506L74.033 14.1212L74.3418 14.2472L74.7237 14.3772L74.9349 14.4787C75.1219 14.5999 75.2477 14.7811 75.3209 14.9825L75.4834 15.4294L75.4915 15.4456L75.654 15.5269L75.8327 15.6081L76.2512 15.8437L76.4137 15.9534L76.5721 16.0631L76.8646 16.2419L77.0352 16.3353L77.2059 16.4328C77.331 16.5017 77.456 16.575 77.5755 16.6522L77.9005 16.8634L78.1687 17.0016L78.5343 17.1559L78.7943 17.2941C78.8335 17.323 78.8805 17.3613 78.9243 17.4119L79.038 17.6028L79.0705 17.6881L79.1234 17.8141L79.1193 17.8344C79.1943 17.9966 79.1922 18.1891 79.0827 18.3462C78.9591 18.5229 78.7449 18.6002 78.5465 18.5575L78.3596 18.4762L78.2743 18.4194L78.0184 18.2366L78.0387 18.07L77.9534 18.0375L77.7705 17.9603L77.3359 17.7369L77.0109 17.5256C76.912 17.4618 76.8099 17.3999 76.7062 17.3428L76.5355 17.2494L76.3609 17.1519L75.9871 16.9244L75.8246 16.8147L75.6621 16.7009L75.398 16.5547L75.2193 16.4694L75.0405 16.3881C74.8378 16.2947 74.6887 16.1445 74.5896 15.9697L74.5084 15.7869L74.4271 15.5594L74.3499 15.3481L74.1996 15.2994L74.0087 15.2344L73.578 15.0556L73.5334 15.0353L73.5577 15.2059L73.5821 15.4009L73.6349 15.5431L73.7487 15.7097L73.8624 15.8803L73.964 16.0631C74.0156 16.1897 74.039 16.3231 74.0371 16.4572L74.0127 16.6562L73.9721 16.8756L73.9396 17.0219L74.0615 17.1316L74.224 17.2859L74.3662 17.4444C74.4484 17.5575 74.5057 17.6858 74.5327 17.8262L74.549 18.0456L74.5327 18.46C74.5299 18.5373 74.5412 18.6039 74.5612 18.6631L74.6262 18.85L74.6871 19.0328C74.7073 19.0924 74.7402 19.1555 74.7927 19.2197L75.0609 19.5447C75.2054 19.7213 75.2996 19.9282 75.333 20.1581L75.3899 20.5481L75.4427 20.9584L75.463 21.1575L75.4874 21.3566L75.5199 21.7872L75.528 21.9903L75.5362 22.1894V22.1934L75.5402 22.1975C75.5424 22.2007 75.546 22.2069 75.5524 22.2137L75.853 22.5306L76.0602 22.8394C76.1124 22.9533 76.1445 23.0768 76.1537 23.2091L76.1699 23.4122L76.1821 23.6112L76.2309 23.9037L76.2796 24.0906L76.3284 24.2816C76.3639 24.4171 76.3946 24.5539 76.4218 24.6919L76.4624 24.8869L76.499 25.0778C76.5082 25.1241 76.5295 25.173 76.568 25.2241L76.6899 25.3866L76.8159 25.5531C76.9421 25.7203 77.0117 25.9105 77.023 26.1097L77.0149 26.3128L76.958 26.7353C76.9493 26.8028 76.957 26.8525 76.9702 26.8897L77.0393 27.0725L77.2343 27.6331L77.3643 27.9987C77.3767 28.0345 77.4014 28.0823 77.4577 28.1369L77.6162 28.2912L77.7787 28.4456L77.9087 28.5959C77.9852 28.7015 78.0431 28.82 78.0752 28.9494L78.1037 29.1525L78.1199 29.5587L78.1484 29.9041L78.1768 30.0991L78.2052 30.2981C78.2208 30.411 78.2399 30.5222 78.2662 30.6312L78.3109 30.8222L78.3596 31.0131L78.4287 31.135L78.5709 31.2934L78.7171 31.4559L78.9121 31.7444C78.9632 31.85 79.0007 31.9643 79.0177 32.0856L79.0421 32.2806L79.0705 32.4756L79.1071 32.9347L79.1152 33.3409C79.1158 33.3646 79.1204 33.3845 79.1396 33.41L79.2655 33.5725L79.3915 33.7391L79.5459 33.9828C79.5897 34.0672 79.6267 34.1554 79.6555 34.2469L79.7693 34.6206L79.8302 34.9172V35.2178L79.814 35.4291L79.7937 35.6281L79.9277 35.7784L80.0699 35.9409L80.204 36.1359C80.311 36.3441 80.3403 36.5801 80.3421 36.7941V37.0662L80.3543 37.0947C80.4387 37.3691 80.2833 37.6601 80.009 37.7447C79.7349 37.829 79.4439 37.6771 79.359 37.4034L79.3305 37.3059L79.3062 37.2328V37.1597L79.3021 36.8022C79.3014 36.7163 79.2942 36.6615 79.2859 36.6316C79.2834 36.6228 79.2789 36.6182 79.2777 36.6153L79.1477 36.465L79.0055 36.3066C78.8184 36.0939 78.7314 35.8275 78.7577 35.5428L78.778 35.3356L78.7984 35.1244L78.778 34.9334L78.7212 34.7466L78.6602 34.5597L78.5587 34.3647L78.4327 34.1981L78.3109 34.0316C78.1643 33.8363 78.0806 33.6076 78.0752 33.3612L78.0712 33.1622L78.0671 32.9591L78.0427 32.6219L78.0143 32.4269L77.9859 32.2278L77.9452 32.1506L77.799 31.9922L77.6568 31.8297C77.5825 31.7472 77.5181 31.6581 77.4659 31.5616L77.348 31.2528L77.2993 31.0659L77.2546 30.875C77.2201 30.7314 77.1937 30.5836 77.1734 30.4362L77.1449 30.2412L77.1205 30.0462L77.0799 29.5994L77.0718 29.3962L77.0637 29.2012L77.0515 29.1931L76.7346 28.8844C76.5778 28.7325 76.4539 28.5501 76.3812 28.34L76.3162 28.1572L76.2512 27.9703L76.1252 27.6087L76.0602 27.4259L75.9912 27.2431C75.9165 27.0355 75.8982 26.8167 75.9262 26.6012L75.983 26.1787L75.9871 26.1828V26.1787L75.983 26.1706L75.8612 26.0162L75.7352 25.8497C75.6073 25.6802 75.5206 25.4868 75.4793 25.2769L75.4387 25.0859L75.4021 24.895C75.379 24.7778 75.351 24.6605 75.3209 24.5456L75.2721 24.3547L75.2234 24.1678L75.1462 23.6803L75.1299 23.4812L75.1177 23.2822C75.1174 23.2767 75.1137 23.27 75.1137 23.27L75.0934 23.2456L74.9471 23.0872L74.7968 22.9287C74.663 22.7871 74.5687 22.6184 74.5246 22.4291L74.4962 22.2341L74.488 22.035L74.4799 21.8319L74.4515 21.4662L74.4312 21.2672L74.4109 21.0722L74.3621 20.6984L74.3052 20.3084C74.3008 20.278 74.2898 20.2435 74.2565 20.2028L73.9884 19.8778C73.8637 19.7255 73.7674 19.5557 73.704 19.37L73.639 19.1831L73.578 19.0003C73.5146 18.8137 73.4894 18.6166 73.4968 18.4194L73.5049 18.2162V18.0375L73.3546 17.8953L73.188 17.745C72.9482 17.5234 72.8438 17.2176 72.9077 16.8919L72.9524 16.6725L72.993 16.4572V16.4491L72.8874 16.2906L72.7737 16.1241C72.7533 16.0939 72.7427 16.0579 72.7249 16.0266C72.7323 16.1676 72.7111 16.3078 72.6559 16.4409L72.5462 16.6359L72.4284 16.8025L72.3065 16.9731L72.1805 17.2006L72.1155 17.3875L72.0465 17.5703C72.0172 17.6501 71.9979 17.7351 71.9896 17.8222L71.9734 18.0172L71.953 18.2122C71.9383 18.3669 71.9118 18.5212 71.8759 18.6712L71.7865 19.0531C71.7639 19.1474 71.7471 19.2445 71.7418 19.3456L71.7337 19.5447L71.7215 19.7437C71.7163 19.8434 71.7009 19.9457 71.6727 20.0444L71.5468 20.3287L71.4655 20.4628L71.4452 20.4912L71.4209 20.5197L71.3396 20.6131C71.2521 20.8717 70.9849 21.0231 70.718 20.9503C70.4418 20.8742 70.281 20.5891 70.3565 20.3125L70.3809 20.215L70.4093 20.1053L70.4824 20.02L70.6084 19.8697L70.6693 19.7722L70.6855 19.6909L70.6937 19.4919L70.7059 19.2928C70.7144 19.129 70.737 18.9674 70.7749 18.8094L70.8196 18.6184L70.8643 18.4316C70.8889 18.3291 70.9069 18.2221 70.9171 18.1147L70.9374 17.9197L70.9537 17.7206C70.9704 17.5456 71.0109 17.3734 71.0715 17.2087L71.1405 17.0259L71.2055 16.8431L71.3152 16.5994C71.3579 16.5194 71.408 16.4425 71.4615 16.3678L71.5793 16.1972L71.6768 16.055L71.628 15.8559L71.5752 15.6406C71.5091 15.3848 71.5258 15.1159 71.6605 14.8687L71.758 14.69L71.8515 14.5153L72.0262 14.0969L72.1318 13.8003L72.1562 13.7109L72.3471 13L72.9524 13.4225Z" fill="#EBEBEB"/>
<path d="M84.9589 20.6227L84.9101 20.6593L84.6298 20.8014L84.3089 20.9883C84.2096 21.057 84.1203 21.1332 84.0448 21.2158L83.9067 21.3661L83.7726 21.5124L83.5004 21.813L83.3704 21.9633L83.2364 22.1136L83.0739 22.2436L82.8992 22.333L82.7286 22.4264L82.4645 22.528L82.2614 22.5808L82.0623 22.6336L81.8632 22.7068C81.678 22.7996 81.5332 22.948 81.4326 23.1333L81.2214 23.5152L81.1117 23.6492L80.9532 23.767L80.7948 23.8808C80.7525 23.9114 80.6997 23.9376 80.6282 23.9539L80.4211 23.9986L80.2139 24.0474L79.7223 24.218L79.3648 24.3886L79.1332 24.5227C79.0997 24.5478 79.0594 24.5815 79.0195 24.6242L78.9098 24.7827L78.8692 24.8599L78.8082 24.9817L78.8123 24.9899C78.7131 25.1595 78.7089 25.3747 78.8286 25.5464C78.9522 25.7231 79.1664 25.8004 79.3648 25.7577L79.5517 25.6764L79.637 25.6195L79.8686 25.453L79.8645 25.3027L79.9904 25.2417L80.1692 25.1564L80.4454 25.063L80.6486 25.0142L80.8557 24.9695C80.9557 24.947 81.0517 24.9131 81.1442 24.872L81.4123 24.7177L81.5667 24.6039L81.7251 24.4902C81.8122 24.4265 81.8882 24.3511 81.9567 24.2708L82.1354 24.0108L82.3467 23.6289L82.5254 23.5842L82.7286 23.5314C82.8981 23.4867 83.0597 23.425 83.212 23.3445L83.3867 23.2511L83.5614 23.1617C83.6468 23.1165 83.726 23.0623 83.8011 23.0033L84.0123 22.8043L84.1464 22.6539L84.2804 22.5077C84.318 22.4655 84.3564 22.4238 84.3942 22.3818C84.3929 22.4021 84.3872 22.4223 84.3861 22.4427L84.3739 22.6458L84.3617 22.8449V22.8489L84.3576 22.853C84.3553 22.8563 84.3522 22.8622 84.3454 22.8692L84.1951 23.0277L84.0448 23.182L83.8295 23.4908C83.7767 23.6032 83.7428 23.7254 83.732 23.8564L83.7157 24.0595L83.6995 24.2586L83.6467 24.547L83.5979 24.738L83.5451 24.9249L83.4436 25.3352L83.4029 25.5302L83.3664 25.7211L83.2932 25.8633L83.1673 26.0299L83.0414 26.1924C82.9134 26.3575 82.8442 26.5464 82.8301 26.7449L82.8342 26.948L82.8586 27.1592L82.8829 27.3745C82.8908 27.4423 82.8846 27.4918 82.8707 27.5289L82.7326 27.8945C82.6866 28.0178 82.6391 28.1405 82.5945 28.2642L82.5295 28.447L82.4645 28.6339L82.367 28.768L82.2045 28.9183L82.0461 29.0727C81.901 29.2097 81.7923 29.3782 81.7414 29.5724L81.7089 29.7755L81.7007 29.9786L81.6886 30.1817L81.652 30.527L81.5951 30.917L81.5261 31.2502L81.4773 31.4411L81.4326 31.632L81.3595 31.7539L81.067 32.0708L80.8679 32.3552C80.8152 32.4605 80.7769 32.5748 80.7582 32.6964L80.7014 33.0864C80.6782 33.2373 80.662 33.3905 80.6567 33.5455L80.6486 33.7486L80.6445 33.9517C80.6436 33.9749 80.6353 33.9918 80.6161 34.0167L80.4901 34.1833L80.3642 34.3458L80.2098 34.5855C80.1644 34.6698 80.1263 34.7578 80.0961 34.8495L80.0351 35.0364L79.9742 35.2192C79.9424 35.316 79.9204 35.4161 79.9092 35.5158L79.9051 35.8205L79.9214 36.0317L79.9376 36.2267L79.7995 36.377L79.6573 36.5355L79.5232 36.7345C79.4141 36.9411 79.3773 37.1751 79.3729 37.3886L79.3689 37.6689L79.3607 37.6892C79.2729 37.9626 79.4245 38.2554 79.6979 38.3433C79.9706 38.43 80.2638 38.2824 80.352 38.0102L80.3804 37.9127L80.4048 37.8395V37.7664L80.4129 37.4089C80.4148 37.3232 80.4245 37.268 80.4332 37.2383C80.4359 37.2293 80.4402 37.2247 80.4414 37.222L80.5714 37.0758L80.7176 36.9174C80.9073 36.707 80.9963 36.4426 80.9736 36.1577L80.9573 35.9464L80.9411 35.7392L80.9614 35.5442L81.0223 35.3614L81.0832 35.1745L81.1889 34.9795L81.3148 34.817L81.4407 34.6505C81.5895 34.4572 81.6761 34.2302 81.6845 33.9842L81.6886 33.7852L81.6967 33.582L81.7292 33.2449L81.7861 32.8549L81.8307 32.7736L82.1232 32.4567C82.2724 32.2949 82.3847 32.1054 82.4401 31.888L82.4889 31.697L82.5336 31.5061L82.6229 31.0714L82.6798 30.6814L82.7286 30.2345L82.7367 30.0355L82.7489 29.8364L82.757 29.8283L82.9195 29.6739L83.082 29.5236C83.2407 29.3737 83.3682 29.1925 83.4436 28.9833L83.5736 28.6177C83.617 28.4972 83.6628 28.3761 83.7076 28.2561L83.7767 28.0733L83.8417 27.8905C83.9189 27.6839 83.9401 27.4684 83.9148 27.2527L83.8904 27.0414L83.8661 26.8261L83.9879 26.6636L84.1179 26.5011C84.1827 26.4175 84.236 26.3273 84.2804 26.233L84.382 25.9324L84.4632 25.5505C84.4879 25.4331 84.5169 25.3161 84.5486 25.2011L84.5973 25.0142L84.6501 24.8233L84.7354 24.3399L84.7679 23.9417C84.7683 23.9366 84.772 23.9336 84.772 23.9336L84.7923 23.9052L84.9426 23.7508L85.0929 23.5924C85.1138 23.5708 85.1308 23.5461 85.1498 23.5233C85.1742 23.6142 85.2036 23.7059 85.2473 23.7914L85.3367 23.9661L85.4261 24.1449L85.5601 24.4455L85.6251 24.6324L85.6942 24.8152C85.7239 24.8968 85.7562 24.9774 85.7957 25.0549L85.9298 25.2783L86.0436 25.453L86.1573 25.6236L86.2751 25.8592L86.3361 26.042L86.4011 26.2289C86.4256 26.3014 86.4389 26.3781 86.4417 26.4605L86.4498 26.6636L86.4539 26.8627L86.4823 27.2608L86.5026 27.4111L86.5107 27.5777V27.6345L86.527 27.6914L86.5554 27.7849L86.6448 27.9717C86.7701 28.131 86.9855 28.2071 87.1932 28.1505C87.4695 28.0744 87.6303 27.7893 87.5548 27.5127L87.5426 27.468L87.5386 27.3217V27.3014L87.5345 27.2852L87.5142 27.1349L87.4939 26.8302L87.4898 26.627L87.4817 26.428C87.4757 26.2446 87.4431 26.0648 87.3842 25.8917L87.3232 25.7089L87.2582 25.522L87.1567 25.2783C87.1172 25.1988 87.0724 25.1216 87.0226 25.0467L86.7951 24.7055L86.6692 24.4577L86.6042 24.2749L86.5351 24.092L86.3523 23.6695L86.2629 23.4949L86.1695 23.3161L86.137 23.1739V22.7677C86.1364 22.5449 86.0799 22.3323 85.9704 22.138L85.8729 21.9633L85.7714 21.7886L85.7673 21.7561L85.7714 21.5489L85.7998 21.1874L85.8079 21.098L85.7836 21.0086L85.7551 20.9111L85.5642 20.2002L84.9589 20.6227Z" fill="#EBEBEB"/>
<path d="M180.781 23.082V40.7383H178.711V31.7344H176.719V39.8398H174.727V23.4141H176.719V29.9961H178.711V23.082H180.781ZM172.734 25.1719V26.9297H168.32V34.7812C170.244 34.7617 171.826 34.6641 173.613 34.332L173.77 36.1094C171.641 36.5391 169.785 36.5977 167.324 36.6172H166.133V25.1719H172.734ZM188.521 25.8945C188.521 28.1211 189.966 30.2109 192.681 31.0703L191.509 32.7695C189.605 32.125 188.238 30.8359 187.486 29.1953C186.705 31.0703 185.279 32.5449 183.248 33.2578L182.076 31.5586C184.927 30.5625 186.334 28.2188 186.353 25.6992V24.0195H188.521V25.8945ZM196.197 23.082V27.3789H198.658V29.1758H196.197V33.6484H194.029V23.082H196.197ZM190.455 34.0391C194.107 34.0195 196.353 35.2695 196.373 37.3594C196.353 39.4883 194.107 40.7188 190.455 40.7188C186.763 40.7188 184.478 39.4883 184.478 37.3594C184.478 35.2695 186.763 34.0195 190.455 34.0391ZM190.455 35.7383C188.033 35.7383 186.646 36.3242 186.646 37.3594C186.646 38.4531 188.033 39 190.455 39C192.877 39 194.224 38.4531 194.224 37.3594C194.224 36.3242 192.877 35.7383 190.455 35.7383ZM205.284 28.1016C205.284 30.8359 206.905 33.9414 209.698 35.2305L208.487 36.9492C206.495 36.0117 205.021 34.1172 204.23 31.9102C203.429 34.332 201.886 36.4023 199.855 37.3789L198.585 35.6797C201.398 34.3516 203.097 31.0312 203.116 28.1016V26.6172H199.269V24.8203H208.976V26.6172H205.284V28.1016ZM212.784 23.082V29.957H215.499V31.7734H212.784V40.7383H210.616V23.082H212.784Z" fill="#151515"/>
<path d="M175.965 49.9121V62.1621H174.721V55.832H173.135V61.5332H171.945V50.1582H173.135V54.7656H174.721V49.9121H175.965ZM170.455 51.3887V52.4414H167.16V58.1152C168.664 58.1016 169.799 58.0332 171.111 57.7871L171.207 58.8535C169.73 59.1543 168.473 59.209 166.682 59.2227H165.861V51.3887H170.455ZM181.495 51.8672C181.495 53.4805 182.616 54.9707 184.449 55.5723L183.751 56.5977C182.411 56.126 181.407 55.1689 180.88 53.959C180.34 55.333 179.301 56.4062 177.872 56.9395L177.175 55.9004C179.089 55.2168 180.197 53.5898 180.21 51.7578V50.5547H181.495V51.8672ZM186.896 49.9121V52.9883H188.673V54.082H186.896V57.3086H185.597V49.9121H186.896ZM182.945 57.5957C185.46 57.5957 187.005 58.4297 187.005 59.8652C187.005 61.3145 185.46 62.1484 182.945 62.1348C180.402 62.1484 178.829 61.3145 178.829 59.8652C178.829 58.4297 180.402 57.5957 182.945 57.5957ZM182.945 58.6211C181.167 58.6211 180.115 59.0859 180.128 59.8652C180.115 60.6719 181.167 61.1094 182.945 61.123C184.708 61.1094 185.734 60.6719 185.734 59.8652C185.734 59.0859 184.708 58.6211 182.945 58.6211ZM193.356 53.5215C193.356 55.4629 194.628 57.623 196.487 58.498L195.749 59.5098C194.375 58.8467 193.288 57.4658 192.741 55.8594C192.173 57.6162 191.025 59.127 189.624 59.8242L188.858 58.7988C190.717 57.9102 192.071 55.5996 192.071 53.5215V52.2227H189.309V51.1426H196.022V52.2227H193.356V53.5215ZM198.633 49.9121V54.7656H200.602V55.8594H198.633V62.1621H197.335V49.9121H198.633ZM210.822 53.4941V54.5332H202.387V50.3496H203.672V53.4941H210.822ZM212.107 56.0781V57.1172H200.896V56.0781H212.107ZM210.904 60.8086V61.875H202.291V58.2793H203.59V60.8086H210.904ZM225.739 50.3633V53.6992H218.52V55.1074H225.998V56.1602H217.221V52.7012H224.412V51.416H217.18V50.3633H225.739ZM227.065 57.3223V58.3613H222.088V62.1895H220.789V58.3613H215.854V57.3223H227.065ZM237.845 49.9258V59.0039H236.547V49.9258H237.845ZM238.215 60.8496V61.9023H229.834V58.1973H231.146V60.8496H238.215ZM234.277 50.8691V51.9082H229.697V53.4395H233.935V54.4512H229.697V56.0234C232.151 56.0234 233.58 55.9824 235.234 55.6953L235.371 56.7207C233.593 57.0352 232.076 57.0762 229.396 57.0898H228.384V50.8691H234.277ZM245.085 50.1172C247.847 50.1172 249.46 50.8555 249.46 52.2227C249.46 53.5898 247.847 54.3418 245.085 54.3418C242.323 54.3418 240.71 53.5898 240.71 52.2227C240.71 50.8555 242.323 50.1172 245.085 50.1172ZM245.085 51.0742C243.13 51.0742 242.05 51.498 242.063 52.2227C242.05 52.9746 243.13 53.3711 245.085 53.3711C247.04 53.3711 248.12 52.9746 248.12 52.2227C248.12 51.498 247.04 51.0742 245.085 51.0742ZM250.677 55.0938V56.1328H239.507V55.0938H250.677ZM249.269 57.0762V59.9473H242.132V61.041H249.61V62.0391H240.86V59.0039H247.983V58.0469H240.847V57.0762H249.269ZM176.662 76.5645V77.6445H165.451V76.5645H170.387V74.0488H166.736V67.7461H168.035V69.8516H174.051V67.7461H175.336V74.0488H171.672V76.5645H176.662ZM168.035 72.9961H174.051V70.9043H168.035V72.9961ZM187.183 68.0879V69.291C187.183 70.8086 187.183 72.5039 186.718 75.0059L185.406 74.8691C185.884 72.5039 185.884 70.7676 185.884 69.291V69.1406H178.447V68.0879H187.183ZM188.441 76.4277V77.5078H177.271V76.4277H181.523V72.1074H182.808V76.4277H188.441ZM198.504 67.9922C198.49 69.6191 200.486 71.1504 202.892 71.4648L202.387 72.5312C200.384 72.21 198.62 71.1709 197.834 69.7285C197.027 71.1777 195.27 72.21 193.281 72.5312L192.762 71.4648C195.168 71.1504 197.137 69.6328 197.15 67.9922V67.3223H198.504V67.9922ZM203.398 73.7344V74.8008H198.422V79.1621H197.15V74.8008H192.228V73.7344H203.398ZM214.493 66.9121V74.6367H213.263V71.2188H211.841V74.2129H210.624V67.1445H211.841V70.1523H213.263V66.9121H214.493ZM210.173 68.3066V69.332H203.98V68.3066H206.454V67.0078H207.739V68.3066H210.173ZM207.083 69.9062C208.642 69.9062 209.735 70.7402 209.735 72.0117C209.735 73.2832 208.642 74.1172 207.083 74.1172C205.552 74.1172 204.458 73.2832 204.458 72.0117C204.458 70.7402 205.552 69.9062 207.083 69.9062ZM207.083 70.8633C206.222 70.8633 205.62 71.3145 205.62 72.0117C205.62 72.709 206.222 73.1738 207.083 73.1738C207.972 73.1738 208.56 72.709 208.56 72.0117C208.56 71.3145 207.972 70.8633 207.083 70.8633ZM210.392 74.8145C212.989 74.8145 214.548 75.5938 214.562 76.9883C214.548 78.3555 212.989 79.1484 210.392 79.1348C207.794 79.1484 206.235 78.3555 206.249 76.9883C206.235 75.5938 207.794 74.8145 210.392 74.8145ZM210.392 75.8125C208.573 75.8125 207.521 76.2227 207.534 76.9883C207.521 77.7266 208.573 78.1504 210.392 78.1367C212.224 78.1504 213.249 77.7266 213.263 76.9883C213.249 76.2227 212.224 75.8125 210.392 75.8125ZM222.328 67.8281C223.442 67.8281 224.365 68.4707 224.912 69.5781H227.933V66.9121H229.218V79.1895H227.933V74.4863H224.994C224.467 75.7168 223.504 76.4277 222.328 76.4277C220.496 76.4277 219.211 74.7598 219.224 72.1211C219.211 69.4961 220.496 67.8281 222.328 67.8281ZM222.328 68.9902C221.22 68.9902 220.455 70.1934 220.455 72.1211C220.455 74.0625 221.22 75.2656 222.328 75.2656C223.435 75.2656 224.201 74.0625 224.201 72.1211C224.201 70.1934 223.435 68.9902 222.328 68.9902ZM225.281 70.6445C225.37 71.0957 225.431 71.5879 225.431 72.1211C225.431 72.5859 225.39 73.0166 225.308 73.4199H227.933V70.6445H225.281ZM242.022 74.1172V75.1426H237.019V79.1621H235.747V75.1426H230.811V74.1172H242.022ZM233.491 67.4043V69.0039H239.315V67.4043H240.614V72.7227H232.206V67.4043H233.491ZM233.491 71.6836H239.315V70.043H233.491V71.6836ZM253.842 72.5312V73.5293H242.631V72.5312H253.842ZM252.461 74.3906V77.084H245.27V78.0957H252.844V79.0117H243.971V76.2227H251.176V75.3203H243.957V74.3906H252.461ZM252.434 67.2266V69.8789H245.352V70.8086H252.639V71.7246H244.067V69.0176H251.135V68.1426H244.039V67.2266H252.434ZM261.266 70.6719C261.266 72.5996 262.155 74.5684 263.85 75.4707L263.126 76.4277C261.943 75.7988 261.116 74.623 260.679 73.2285C260.234 74.7256 259.414 76.0107 258.231 76.7148L257.466 75.7305C259.161 74.7461 260.036 72.6543 260.05 70.6719V70.1797H257.835V69.1133H260.05V67.3496H261.266V69.1133H263.44V70.1797H261.266V70.6719ZM268.116 66.9121V79.1621H266.872V66.9121H268.116ZM265.628 67.1719V78.5469H264.397V72.7637H262.634V71.6836H264.397V67.1719H265.628ZM279.361 73.4336V74.4727H270.83V67.9238H279.238V68.9766H272.143V70.6309H278.979V71.6562H272.143V73.4336H279.361ZM280.633 76.5508V77.6172H269.422V76.5508H280.633ZM287.298 68.9355V69.9883H281.214V68.9355H283.62V67.2676H284.906V68.9355H287.298ZM284.263 70.7266C285.822 70.7266 286.915 71.8887 286.929 73.543C286.915 75.2109 285.822 76.3867 284.263 76.3867C282.732 76.3867 281.597 75.2109 281.611 73.543C281.597 71.8887 282.732 70.7266 284.263 70.7266ZM284.263 71.8066C283.374 71.8066 282.759 72.5312 282.759 73.543C282.759 74.582 283.374 75.2793 284.263 75.2793C285.138 75.2793 285.781 74.582 285.781 73.543C285.781 72.5312 285.138 71.8066 284.263 71.8066ZM291.728 66.9121V79.1621H290.497V73.0781H289.089V78.5879H287.859V67.1855H289.089V72.0117H290.497V66.9121H291.728ZM304.272 76.5508V77.6309H293.061V76.5508H295.741V73.3516C294.736 72.7979 294.128 71.916 294.128 70.8223C294.128 68.8945 296.014 67.623 298.639 67.623C301.278 67.623 303.165 68.8945 303.165 70.8223C303.165 71.9023 302.577 72.7705 301.592 73.3242V76.5508H304.272ZM298.639 68.6621C296.712 68.6621 295.385 69.4961 295.385 70.8223C295.385 72.1348 296.712 72.9961 298.639 72.9961C300.553 72.9961 301.907 72.1348 301.907 70.8223C301.907 69.4961 300.553 68.6621 298.639 68.6621ZM297.026 76.5508H300.28V73.8164C299.781 73.9463 299.227 74.0078 298.639 74.0078C298.065 74.0078 297.518 73.9463 297.026 73.8301V76.5508Z" fill="#151515"/>
</svg>
