<svg width="335" height="51" viewBox="0 0 335 51" fill="none" xmlns="http://www.w3.org/2000/svg">
<rect y="0.647949" width="335" height="50" rx="10" fill="#FAE100"/>
<rect x="117" y="17.1479" width="17" height="17" rx="8.5" fill="#FAE100"/>
<path d="M125.5 20.3979C128.883 20.3979 131.625 22.5353 131.625 25.1725C131.625 27.8092 128.883 29.9465 125.5 29.9465C125.164 29.9459 124.827 29.9245 124.493 29.8824L121.922 31.5641C121.629 31.7187 121.526 31.7018 121.646 31.3232L122.167 29.1777C120.487 28.326 119.375 26.8502 119.375 25.1725C119.375 22.5359 122.117 20.3979 125.5 20.3979M128.947 25.0996L129.804 24.2689C129.854 24.2176 129.881 24.149 129.881 24.0776C129.881 24.0063 129.853 23.9378 129.804 23.8865C129.754 23.8353 129.687 23.8052 129.615 23.8028C129.544 23.8004 129.475 23.8257 129.422 23.8734L128.297 24.9619V24.0624C128.297 23.9894 128.268 23.9194 128.216 23.8678C128.165 23.8161 128.095 23.7871 128.022 23.7871C127.949 23.7871 127.879 23.8161 127.827 23.8678C127.775 23.9194 127.746 23.9894 127.746 24.0624V25.554C127.737 25.5967 127.737 25.6409 127.746 25.6835V26.5229C127.746 26.596 127.775 26.666 127.827 26.7176C127.879 26.7693 127.949 26.7983 128.022 26.7983C128.095 26.7983 128.165 26.7693 128.216 26.7176C128.268 26.666 128.297 26.596 128.297 26.5229V25.7279L128.546 25.4869L129.379 26.6729C129.4 26.7025 129.426 26.7277 129.457 26.7471C129.487 26.7665 129.521 26.7797 129.557 26.7859C129.593 26.7921 129.629 26.7913 129.665 26.7834C129.7 26.7755 129.733 26.7607 129.763 26.7399C129.793 26.7192 129.818 26.6927 129.837 26.6622C129.857 26.6316 129.87 26.5976 129.876 26.5619C129.882 26.5263 129.881 26.4898 129.873 26.4545C129.866 26.4191 129.851 26.3857 129.83 26.3561L128.947 25.0996ZM127.221 26.2219H126.37V24.0712C126.366 24.0004 126.336 23.9337 126.285 23.8848C126.234 23.8358 126.165 23.8085 126.095 23.8085C126.024 23.8085 125.956 23.8358 125.904 23.8848C125.853 23.9337 125.823 24.0004 125.82 24.0712V26.4973C125.82 26.6489 125.942 26.7726 126.094 26.7726H127.221C127.294 26.7726 127.364 26.7436 127.416 26.692C127.468 26.6403 127.497 26.5703 127.497 26.4973C127.497 26.4243 127.468 26.3542 127.416 26.3026C127.364 26.251 127.294 26.2219 127.221 26.2219ZM123.805 25.5855L124.211 24.5892L124.583 25.5849L123.805 25.5855ZM125.276 25.8696L125.278 25.8603C125.277 25.7909 125.251 25.7242 125.204 25.6736L124.593 24.0403C124.568 23.9624 124.519 23.8943 124.454 23.8449C124.388 23.7955 124.31 23.7672 124.228 23.7638C124.145 23.7637 124.065 23.7886 123.997 23.8352C123.929 23.8817 123.877 23.9477 123.847 24.0245L122.877 26.4016C122.85 26.4692 122.85 26.545 122.878 26.6124C122.907 26.6797 122.96 26.733 123.028 26.7607C123.096 26.7883 123.171 26.7879 123.239 26.7596C123.306 26.7313 123.359 26.6775 123.387 26.6099L123.581 26.1356H124.788L124.962 26.6023C124.974 26.6372 124.993 26.6693 125.017 26.6968C125.042 26.7243 125.071 26.7466 125.105 26.7624C125.138 26.7782 125.174 26.7872 125.211 26.7887C125.248 26.7903 125.285 26.7845 125.319 26.7716C125.354 26.7587 125.385 26.739 125.412 26.7137C125.439 26.6884 125.46 26.658 125.475 26.6243C125.49 26.5905 125.498 26.5541 125.498 26.5173C125.499 26.4805 125.492 26.4439 125.478 26.4098L125.276 25.8696ZM123.338 24.0741C123.338 24.038 123.331 24.0021 123.317 23.9687C123.304 23.9353 123.284 23.9049 123.258 23.8793C123.232 23.8537 123.202 23.8334 123.169 23.8196C123.135 23.8058 123.099 23.7987 123.063 23.7988H121.17C121.097 23.7988 121.027 23.8278 120.976 23.8794C120.924 23.9311 120.895 24.0011 120.895 24.0741C120.895 24.1471 120.924 24.2172 120.976 24.2688C121.027 24.3204 121.097 24.3494 121.17 24.3494H121.847V26.5288C121.847 26.6018 121.876 26.6718 121.928 26.7235C121.979 26.7751 122.049 26.8041 122.122 26.8041C122.195 26.8041 122.265 26.7751 122.317 26.7235C122.369 26.6718 122.398 26.6018 122.398 26.5288V24.3494H123.063C123.099 24.3496 123.135 24.3426 123.168 24.3288C123.202 24.315 123.232 24.2947 123.258 24.2692C123.283 24.2436 123.304 24.2131 123.317 24.1797C123.331 24.1462 123.338 24.1103 123.338 24.0741Z" fill="#3C1D1E"/>
<path d="M150.836 20.7222C150.836 22.0802 150.679 23.3039 150.364 24.3931C150.05 25.4777 149.482 26.4894 148.662 27.4282C147.846 28.367 146.712 29.1987 145.258 29.9233L144.424 28.7749C145.472 28.2554 146.329 27.688 146.994 27.0728C147.664 26.453 148.184 25.7694 148.553 25.022L144.711 25.3843L144.52 24.0718L149.011 23.7915C149.166 23.2401 149.268 22.6271 149.318 21.9526H145.162V20.7222H150.836ZM154.09 24.3452H155.922V25.5894H154.09V31.8374H152.572V19.5054H154.09V24.3452ZM162.586 20.7222C162.586 22.0802 162.428 23.3039 162.114 24.3931C161.799 25.4777 161.232 26.4894 160.412 27.4282C159.596 28.367 158.461 29.1987 157.007 29.9233L156.173 28.7749C157.222 28.2554 158.078 27.688 158.744 27.0728C159.414 26.453 159.933 25.7694 160.302 25.022L156.461 25.3843L156.269 24.0718L160.76 23.7915C160.915 23.2401 161.018 22.6271 161.068 21.9526H156.912V20.7222H162.586ZM165.839 24.3452H167.671V25.5894H165.839V31.8374H164.322V19.5054H165.839V24.3452ZM173.529 20.2026C174.408 20.2026 175.196 20.3416 175.894 20.6196C176.596 20.8976 177.145 21.2896 177.541 21.7954C177.938 22.3013 178.136 22.8823 178.136 23.5386C178.136 24.1447 177.972 24.6847 177.644 25.1587C177.32 25.6326 176.867 26.0155 176.283 26.3071C175.705 26.5942 175.037 26.7765 174.28 26.854V29.1167H179.202V30.3608H167.909V29.1167H172.777V26.854C172.025 26.7765 171.359 26.5942 170.78 26.3071C170.202 26.0155 169.751 25.6326 169.427 25.1587C169.103 24.6847 168.944 24.1447 168.948 23.5386C168.944 22.8823 169.138 22.3013 169.529 21.7954C169.926 21.2896 170.473 20.8976 171.17 20.6196C171.867 20.3416 172.654 20.2026 173.529 20.2026ZM173.529 21.4331C172.927 21.4285 172.391 21.5129 171.922 21.686C171.453 21.8547 171.086 22.1007 170.821 22.4243C170.562 22.7433 170.434 23.1147 170.439 23.5386C170.434 23.9761 170.562 24.3566 170.821 24.6802C171.086 24.9992 171.453 25.2453 171.922 25.4185C172.391 25.5871 172.927 25.6714 173.529 25.6714C174.139 25.6714 174.679 25.5871 175.149 25.4185C175.623 25.2453 175.989 24.9992 176.249 24.6802C176.514 24.3566 176.646 23.9761 176.646 23.5386C176.646 23.1102 176.514 22.7365 176.249 22.4175C175.985 22.0985 175.616 21.8547 175.142 21.686C174.672 21.5129 174.135 21.4285 173.529 21.4331ZM193.924 30.4292H182.631V29.1714H187.498V27.1616H183.971V23.1147H191.08V21.5835H183.944V20.353H192.584V24.3179H185.489V25.9175H192.871V27.1616H189.002V29.1714H193.924V30.4292ZM204.211 22.103C204.211 22.8413 204.202 23.4771 204.184 24.0103C204.17 24.5389 204.131 25.145 204.067 25.8286C204.004 26.5122 203.901 27.2573 203.76 28.064L202.215 27.9272C202.365 27.1753 202.475 26.4644 202.543 25.7944C202.611 25.12 202.652 24.5184 202.666 23.9897C202.684 23.4565 202.693 22.8276 202.693 22.103V21.939H195.57V20.7085H204.211V22.103ZM205.646 30.1694H194.381V28.9253H205.646V30.1694ZM216.425 28.4468H214.894V19.519H216.425V28.4468ZM216.767 31.6187H208.25V27.5444H209.781V30.3882H216.767V31.6187ZM209.685 20.3257C210.305 20.3257 210.868 20.4601 211.374 20.729C211.879 20.9933 212.278 21.3602 212.57 21.8296C212.862 22.299 213.007 22.8276 213.007 23.4155C213.007 24.0125 212.862 24.548 212.57 25.022C212.278 25.4914 211.879 25.8582 211.374 26.1226C210.868 26.3869 210.305 26.519 209.685 26.519C209.061 26.519 208.493 26.3869 207.983 26.1226C207.477 25.8582 207.078 25.4914 206.787 25.022C206.495 24.548 206.349 24.0125 206.349 23.4155C206.349 22.8276 206.495 22.299 206.787 21.8296C207.078 21.3602 207.477 20.9933 207.983 20.729C208.493 20.4601 209.061 20.3257 209.685 20.3257ZM209.685 21.6519C209.334 21.6519 209.018 21.7248 208.735 21.8706C208.452 22.0164 208.231 22.2238 208.072 22.4927C207.912 22.7616 207.835 23.0692 207.839 23.4155C207.835 23.771 207.912 24.0832 208.072 24.3521C208.231 24.6209 208.452 24.8283 208.735 24.9741C209.018 25.12 209.334 25.1929 209.685 25.1929C210.027 25.1929 210.337 25.12 210.615 24.9741C210.893 24.8283 211.112 24.6209 211.271 24.3521C211.435 24.0832 211.517 23.771 211.517 23.4155C211.517 23.0692 211.435 22.7616 211.271 22.4927C211.112 22.2238 210.893 22.0164 210.615 21.8706C210.337 21.7248 210.027 21.6519 209.685 21.6519Z" fill="#333333"/>
</svg>
