<svg width="100" height="100" viewBox="0 0 100 100" fill="none" xmlns="http://www.w3.org/2000/svg">
<g clip-path="url(#clip0_782_32122)">
<g filter="url(#filter0_d_782_32122)">
<circle cx="49.5256" cy="54.4748" r="39.7395" stroke="#FF9797" stroke-width="3.57209"/>
<circle cx="49.7486" cy="54.6978" r="36.8372" stroke="#FF9797" stroke-width="0.893023"/>
<path d="M76.7237 52.0207C77.1576 50.6851 79.0472 50.6851 79.4812 52.0207V52.0207C79.6752 52.618 80.2319 53.0224 80.8599 53.0224V53.0224C82.2643 53.0224 82.8482 54.8195 81.712 55.6449V55.6449C81.2039 56.0141 80.9913 56.6684 81.1854 57.2657V57.2657C81.6193 58.6013 80.0907 59.712 78.9545 58.8865V58.8865C78.4464 58.5174 77.7584 58.5174 77.2503 58.8865V58.8865C76.1142 59.712 74.5855 58.6013 75.0195 57.2657V57.2657C75.2135 56.6684 75.0009 56.0141 74.4928 55.6449V55.6449C73.3567 54.8195 73.9406 53.0224 75.3449 53.0224V53.0224C75.973 53.0224 76.5296 52.618 76.7237 52.0207V52.0207Z" fill="#FFCBCB"/>
<path d="M74.7994 41.8889C74.6949 40.9114 75.9023 40.3713 76.5614 41.1007V41.1007C76.8561 41.4269 77.3274 41.5262 77.7287 41.3467V41.3467C78.6261 40.9452 79.5128 41.9266 79.0228 42.7788V42.7788C78.8037 43.16 78.8549 43.6388 79.1496 43.965V43.965C79.8087 44.6944 79.1494 45.8411 78.1874 45.6384V45.6384C77.7572 45.5477 77.3176 45.7444 77.0985 46.1255V46.1255C76.6084 46.9777 75.3142 46.705 75.2097 45.7275V45.7275C75.163 45.2904 74.8401 44.933 74.4099 44.8424V44.8424C73.448 44.6397 73.3074 43.3245 74.2048 42.9231V42.9231C74.6061 42.7435 74.8461 42.326 74.7994 41.8889V41.8889Z" fill="#FF7575"/>
<path d="M76.8525 64.3921C77.5311 63.6809 78.7234 64.2535 78.5924 65.2278V65.2278C78.5339 65.6635 78.7625 66.0874 79.1588 66.2777V66.2777C80.045 66.7033 79.8688 68.0142 78.9017 68.1908V68.1908C78.4693 68.2697 78.1368 68.6182 78.0782 69.0539V69.0539C77.9473 70.0282 76.6461 70.2657 76.1794 69.4005V69.4005C75.9706 69.0136 75.5365 68.8051 75.104 68.8841V68.8841C74.137 69.0606 73.509 67.8965 74.1876 67.1853V67.1853C74.4911 66.8672 74.5552 66.3899 74.3465 66.0029V66.0029C73.8797 65.1378 74.7928 64.1808 75.6789 64.6064V64.6064C76.0752 64.7967 76.549 64.7102 76.8525 64.3921V64.3921Z" fill="#FF7575"/>
<path d="M21.4326 52.0207C20.9986 50.6851 19.1091 50.6851 18.6751 52.0207V52.0207C18.481 52.618 17.9244 53.0224 17.2964 53.0224V53.0224C15.892 53.0224 15.3081 54.8195 16.4442 55.6449V55.6449C16.9523 56.0141 17.165 56.6684 16.9709 57.2657V57.2657C16.5369 58.6013 18.0656 59.712 19.2017 58.8865V58.8865C19.7098 58.5174 20.3978 58.5174 20.9059 58.8865V58.8865C22.0421 59.712 23.5708 58.6013 23.1368 57.2657V57.2657C22.9427 56.6684 23.1553 56.0141 23.6634 55.6449V55.6449C24.7996 54.8195 24.2157 53.0224 22.8113 53.0224V53.0224C22.1833 53.0224 21.6267 52.618 21.4326 52.0207V52.0207Z" fill="#FFCBCB"/>
<path d="M23.3568 41.8889C23.4613 40.9114 22.2539 40.3713 21.5949 41.1007V41.1007C21.3001 41.4269 20.8288 41.5262 20.4275 41.3467V41.3467C19.5302 40.9452 18.6434 41.9266 19.1334 42.7788V42.7788C19.3526 43.16 19.3014 43.6388 19.0066 43.965V43.965C18.3476 44.6944 19.0069 45.8411 19.9688 45.6384V45.6384C20.399 45.5477 20.8386 45.7444 21.0578 46.1255V46.1255C21.5478 46.9777 22.8421 46.705 22.9465 45.7275V45.7275C22.9933 45.2904 23.3162 44.933 23.7463 44.8424V44.8424C24.7083 44.6397 24.8488 43.3245 23.9515 42.9231V42.9231C23.5502 42.7435 23.3101 42.326 23.3568 41.8889V41.8889Z" fill="#FF7575"/>
<path d="M21.3038 64.3921C20.6252 63.6809 19.4329 64.2535 19.5638 65.2278V65.2278C19.6224 65.6635 19.3937 66.0874 18.9974 66.2777V66.2777C18.1113 66.7033 18.2874 68.0142 19.2545 68.1908V68.1908C19.687 68.2697 20.0195 68.6182 20.078 69.0539V69.0539C20.209 70.0282 21.5101 70.2657 21.9769 69.4005V69.4005C22.1856 69.0136 22.6197 68.8051 23.0522 68.8841V68.8841C24.0193 69.0606 24.6473 67.8965 23.9687 67.1853V67.1853C23.6652 66.8672 23.601 66.3899 23.8098 66.0029V66.0029C24.2765 65.1378 23.3635 64.1808 22.4773 64.6064V64.6064C22.081 64.7967 21.6072 64.7102 21.3038 64.3921V64.3921Z" fill="#FF7575"/>
<path d="M67.7488 4.26328C56.9291 18.3341 58.2504 35.6624 60.7331 44.1727C60.9982 45.0813 61.7366 45.7554 62.6501 46.0029L68.9124 47.6998C70.0945 48.0202 71.3608 47.5589 71.9868 46.5063C80.7101 31.8379 76.4526 14.3592 72.0155 4.74222C71.2094 2.99505 68.9217 2.73792 67.7488 4.26328Z" fill="#FFC8C8"/>
<path d="M68.5554 2.97913L68.432 3.08281L68.3239 3.1939L68.213 3.30599C68.1228 3.39818 68.0425 3.49764 67.9749 3.60283L67.8181 3.84899C67.7985 3.87933 67.7718 3.90628 67.7344 3.92925L67.6049 4.00632L67.4792 4.08525C67.3897 4.1402 67.3002 4.19901 67.2109 4.25859L67.0805 4.34235L66.9511 4.42895C66.7987 4.53093 66.7068 4.67504 66.6678 4.83412L66.6481 4.99739L66.6357 5.34642C66.6352 5.35958 66.6334 5.36811 66.6323 5.37316L66.5356 5.48028L66.435 5.58556C66.3341 5.69273 66.2563 5.81675 66.2027 5.95381L66.1493 6.0937L66.095 6.23075C66.081 6.26672 66.0603 6.29709 66.0314 6.32313L65.813 6.52057C65.6953 6.6268 65.6051 6.75573 65.5475 6.90357L65.4932 7.04061L65.4398 7.18051C65.438 7.18486 65.432 7.19315 65.4078 7.20764L65.1279 7.37542C64.9919 7.45683 64.887 7.57305 64.8257 7.71698L64.7801 7.87011L64.7498 8.02113L64.7223 8.17116C64.7143 8.2133 64.6995 8.24395 64.6798 8.26896L64.498 8.49831C64.4344 8.57844 64.3716 8.65987 64.3116 8.74202L64.2256 8.86139L64.1385 8.97791C64.0469 9.10336 63.9867 9.24715 63.9565 9.39885L63.8995 9.69321C63.8957 9.71221 63.888 9.72561 63.8716 9.74126L63.7587 9.84765L63.6486 9.95306C63.5651 10.0319 63.4852 10.1128 63.4117 10.1984L63.2166 10.426C63.0786 10.5871 63.0277 10.7841 63.0402 10.9822L63.06 11.3137C63.0627 11.3553 63.053 11.3682 63.0513 11.371L62.8945 11.6172C62.8157 11.7401 62.7623 11.8746 62.7341 12.0178L62.7056 12.165L62.6762 12.3093C62.6693 12.3437 62.6565 12.3742 62.6327 12.4043L62.5389 12.5199L62.4462 12.6384C62.3894 12.7096 62.3274 12.7793 62.2641 12.8487L62.1609 12.9645L62.0566 13.0775C61.9595 13.1842 61.8827 13.3049 61.828 13.438L61.7173 13.7064C61.6745 13.8109 61.6386 13.9187 61.6092 14.0282L61.5702 14.1727L61.5331 14.3133C61.4989 14.4415 61.4822 14.5733 61.4822 14.7076L61.4815 14.8611L61.4817 15.0174C61.4815 15.049 61.4738 15.0692 61.4617 15.0882L61.3843 15.2142L61.3031 15.3382C61.2233 15.464 61.1694 15.6044 61.1438 15.7512L61.1201 15.8936L61.0934 16.0369C61.0831 16.0963 61.0643 16.153 61.0376 16.2064L60.9746 16.3369L60.9087 16.4684C60.8428 16.6004 60.8049 16.7414 60.7934 16.8884L60.7688 17.1842C60.7663 17.2162 60.7565 17.2456 60.7367 17.2752L60.5686 17.5254C60.4517 17.7006 60.4203 17.902 60.4592 18.0997L60.4918 18.2575L60.5227 18.4191C60.5317 18.4662 60.5275 18.4956 60.5211 18.5154L60.4734 18.6533L60.4286 18.7903C60.4233 18.8062 60.4087 18.8358 60.3631 18.8769L60.2312 18.9931L60.1032 19.1112C59.9675 19.2328 59.8612 19.388 59.8227 19.5792L59.7961 19.7225L59.7666 19.8669C59.735 20.0253 59.7445 20.1849 59.7845 20.3394L59.8238 20.4981L59.856 20.6177L59.7725 20.717L59.6665 20.8434C59.5345 21.0003 59.4672 21.1952 59.4903 21.4091L59.5048 21.5605L59.5221 21.7108C59.5233 21.7221 59.522 21.7306 59.5121 21.7462L59.43 21.877L59.345 22.0087C59.2015 22.2342 59.2232 22.4823 59.3295 22.6876L59.4118 22.8504L59.497 23.0123L59.5177 23.0625L59.4901 23.203L59.4634 23.3463C59.4608 23.3591 59.45 23.3877 59.4103 23.4319L59.2957 23.5612L59.1774 23.6886C59.0473 23.8334 58.9629 24.0179 58.9675 24.231L58.9714 24.3797L58.9744 24.5254C58.9777 24.6713 59.0075 24.8142 59.0593 24.9523L59.1157 25.105L59.1492 25.1827L59.0628 25.2734L58.9397 25.4057C58.8631 25.4869 58.7947 25.5912 58.7648 25.7188C58.7344 25.8493 58.7493 25.9785 58.7928 26.0921L58.8511 26.241L58.9103 26.3927C58.9294 26.4425 58.931 26.4795 58.9281 26.5078L58.912 26.6538L58.8977 26.796C58.8885 26.8816 58.8755 26.9675 58.8593 27.052L58.8327 27.1954L58.805 27.3358C58.786 27.4353 58.7694 27.5372 58.7539 27.6378L58.7301 27.7801L58.7073 27.9253C58.6915 28.0277 58.6778 28.1302 58.6677 28.2328L58.6411 28.5229C58.6342 28.592 58.6182 28.6617 58.5963 28.7332L58.5545 28.8787L58.5088 29.0223C58.4388 29.2524 58.498 29.4711 58.6174 29.6451L58.7195 29.7915L58.7963 29.9019L58.7555 29.9864L58.6879 30.1312C58.6088 30.295 58.5785 30.4744 58.6132 30.6584L58.6409 30.802L58.6696 30.9484C58.6778 30.9921 58.674 31.0344 58.6637 31.0781L58.6314 31.2234L58.5981 31.3659C58.5543 31.5515 58.5782 31.7364 58.655 31.9046L58.7208 32.0476L58.7828 32.1888L58.7294 32.3287L58.6742 32.4724C58.629 32.5896 58.5958 32.7091 58.5724 32.8303L58.5154 33.1247C58.4765 33.3262 58.5198 33.5179 58.6212 33.6847L58.7051 33.8246L58.79 33.9674C58.8128 34.0051 58.816 34.0273 58.8158 34.0414L58.812 34.1863L58.8093 34.3341C58.8066 34.4534 58.8158 34.5718 58.8342 34.6893L58.8552 34.832L58.8791 34.9737C58.8929 35.0622 58.9029 35.1533 58.9123 35.243L58.9276 35.3876L58.942 35.5295C58.9527 35.6322 58.9664 35.7363 58.9824 35.8377L59.0063 35.9794L59.0273 36.1221C59.0338 36.1644 59.0323 36.211 59.0197 36.2652L58.9513 36.5635C58.9228 36.6866 58.9059 36.8113 58.9021 36.935L58.8946 37.2249C58.8903 37.3626 58.9055 37.4997 58.944 37.6322L58.987 37.7736L59.027 37.916C59.0507 37.9969 59.0713 38.0774 59.0856 38.1573L59.1105 38.3019L59.1372 38.4426C59.1595 38.5673 59.1969 38.6884 59.248 38.8061L59.3061 38.9455L59.3671 39.0838C59.3856 39.1266 59.3915 39.1663 59.3907 39.2064L59.3908 39.3532L59.3871 39.4981C59.3847 39.6231 59.396 39.7471 59.4207 39.8694L59.4484 40.013L59.479 40.1555C59.4967 40.2428 59.5099 40.3305 59.5226 40.418L59.5647 40.7034C59.5732 40.7628 59.5739 40.8288 59.5654 40.8978L59.5474 41.0477L59.5305 41.2005C59.5059 41.401 59.5562 41.5902 59.6715 41.7514L59.7637 41.8788L59.8542 42.0101C59.8876 42.0569 59.9054 42.0971 59.9131 42.1332L59.9722 42.4126C59.9858 42.4768 59.9938 42.5458 59.9931 42.6192L59.9896 42.9204C59.9885 43.0314 59.9918 43.1428 59.9999 43.252L60.0095 43.3986L60.022 43.5443C60.0339 43.7052 60.0843 43.8574 60.1692 43.9941L60.2491 44.1226L60.3252 44.2493C60.357 44.3005 60.4005 44.3636 60.4533 44.4153C60.4566 44.4186 60.4619 44.4202 60.4658 44.4237C60.4646 44.6344 60.5832 44.7897 60.6817 44.8783L60.7927 44.9769L60.9008 45.0764C60.9334 45.1057 60.96 45.1391 60.9785 45.1802L61.0985 45.4512C61.1702 45.611 61.2854 45.7427 61.4364 45.8345L61.5613 45.9091L61.6834 45.9846C61.7864 46.0472 61.8945 46.1012 62.0068 46.1432L62.1419 46.1918L62.2779 46.2433C62.3319 46.2637 62.3874 46.2943 62.4441 46.3354L62.5683 46.4262L62.6953 46.516C62.847 46.6256 63.0246 46.6812 63.2132 46.6738L63.3637 46.666L63.5152 46.6611C63.5324 46.6604 63.5444 46.6624 63.5611 46.6738L63.8132 46.8476C64.0066 46.9797 64.228 46.9978 64.434 46.9345L64.7624 46.8327C64.8236 46.8138 64.8643 46.8123 64.8908 46.8167L65.0332 46.8405L65.1794 46.8661C65.2448 46.8772 65.309 46.8947 65.3708 46.9207L65.505 46.976L65.6402 47.0342C65.6822 47.0521 65.7289 47.0826 65.7787 47.1296L66.0163 47.3532C66.1485 47.4779 66.3134 47.5637 66.5027 47.5858L66.6459 47.6029L66.792 47.619C66.8849 47.6298 66.9777 47.6427 67.0699 47.6562L67.2141 47.6761L67.3593 47.6989C67.4478 47.7118 67.5369 47.7259 67.6239 47.7439L67.9069 47.8048C67.9925 47.8226 68.0773 47.8428 68.1613 47.8662L68.3019 47.9033L68.4407 47.9443C68.5369 47.9711 68.6349 47.9944 68.7315 48.0185L69.0107 48.0871C69.1264 48.116 69.2434 48.136 69.3623 48.1433L69.5053 48.1509L69.6494 48.1613C69.796 48.1703 69.9398 48.1494 70.0785 48.1011L70.3488 48.0069C70.4304 47.9785 70.5125 47.9532 70.5937 47.9311L70.7315 47.8958L70.8682 47.8577C70.9624 47.8321 71.0605 47.8023 71.1606 47.7718L71.4492 47.6839C71.603 47.637 71.7408 47.5564 71.8577 47.4458L71.9688 47.3432L72.0788 47.2378C72.2181 47.1058 72.3029 46.9389 72.3315 46.7539L72.3805 46.4368C72.3897 46.3777 72.4062 46.3348 72.4263 46.3027L72.5047 46.1796L72.5803 46.0576C72.6521 45.9438 72.7066 45.8211 72.743 45.6912L72.823 45.408C72.8334 45.3709 72.851 45.3391 72.8779 45.309L73.075 45.0871C73.1339 45.0216 73.1987 44.9562 73.2659 44.8929L73.376 44.7875L73.4899 44.684C73.625 44.5567 73.7126 44.3946 73.7426 44.2096L73.7673 44.0606L73.7891 43.9126C73.7995 43.8485 73.8178 43.79 73.8429 43.7374L73.969 43.4764C74.0152 43.3799 74.0573 43.2798 74.0955 43.1801L74.148 43.0469L74.1996 42.9109C74.2299 42.8317 74.2632 42.7539 74.3003 42.6779L74.4263 42.4169C74.4852 42.296 74.527 42.169 74.5488 42.0358L74.5716 41.8906L74.5963 41.7416C74.6052 41.6881 74.6229 41.64 74.6477 41.596L74.7891 41.3424C74.8407 41.2506 74.8887 41.1571 74.9339 41.0621L75.06 40.8011C75.126 40.6624 75.1582 40.5133 75.1617 40.3603L75.1663 40.2087L75.1715 40.1047L75.3066 40.0161L75.4597 39.9149C75.6238 39.8067 75.7612 39.6479 75.8076 39.4297L75.8399 39.2844L75.9923 38.577C76.0101 38.4967 76.0329 38.4175 76.0596 38.3397L76.1549 38.0638C76.1939 37.9502 76.2227 37.8337 76.2407 37.7148L76.2635 37.5696L76.2835 37.4254C76.2961 37.3415 76.3139 37.2589 76.3344 37.1778L76.3716 37.0372L76.4059 36.8975C76.4261 36.8176 76.4495 36.737 76.4788 36.6582L76.5304 36.5222L76.5809 36.3833C76.6467 36.2064 76.6482 36.0242 76.5993 35.8502L76.5543 35.6935L76.518 35.553L76.5938 35.4499L76.6855 35.319C76.7933 35.169 76.8537 34.9934 76.8471 34.8031L76.8403 34.6554L76.8364 34.5068C76.8346 34.4527 76.8402 34.4017 76.8562 34.353L76.9039 34.2151L76.9477 34.0754C76.9808 33.975 77.0132 33.8741 77.0398 33.7719L77.077 33.6313L77.1132 33.4878C77.1485 33.3516 77.1579 33.2113 77.1465 33.0708L77.1369 32.9242L77.1234 32.7757C77.1186 32.7152 77.124 32.6577 77.1363 32.602L77.1696 32.4595L77.2001 32.318C77.2353 32.1606 77.2311 32.0002 77.1917 31.8454L77.1133 31.5472C77.1124 31.5436 77.1142 31.5407 77.1142 31.5405L77.116 31.5366L77.1894 31.3993L77.2647 31.2582C77.3623 31.0749 77.3824 30.872 77.3196 30.6741L77.2221 30.3761L77.2946 30.2359L77.3642 30.0968C77.4346 29.9576 77.4775 29.8072 77.4829 29.65L77.4904 29.3601C77.4955 29.2058 77.4676 29.0551 77.4109 28.9123L77.3536 28.7663L77.3042 28.643L77.4579 28.3788C77.547 28.2239 77.5921 28.0484 77.5747 27.8625L77.5498 27.5712C77.5377 27.4434 77.5083 27.318 77.4665 27.1948L77.4187 27.0487L77.3681 26.9036C77.3642 26.8919 77.3643 26.8858 77.3696 26.8711L77.421 26.7255L77.4752 26.579C77.5463 26.3825 77.5347 26.1779 77.4462 25.9922L77.3089 25.7081L77.3079 25.7053L77.3554 25.5578L77.404 25.4132C77.4664 25.2233 77.4537 25.0276 77.3724 24.8465L77.3094 24.7025L77.2446 24.5623C77.233 24.5366 77.2341 24.5201 77.2371 24.5043L77.2627 24.3581L77.2922 24.2138C77.3202 24.0683 77.321 23.9188 77.2919 23.7734L77.2614 23.6308L77.2337 23.4873C77.2159 23.3984 77.1987 23.3091 77.1852 23.2201L77.1432 22.9347C77.1337 22.8727 77.1337 22.8092 77.1406 22.7441L77.1528 22.5962L77.169 22.4501C77.1801 22.3455 77.1881 22.2402 77.1932 22.1353L77.2027 21.9883L77.2092 21.8424C77.2164 21.6971 77.1957 21.5544 77.15 21.4162L77.0585 21.1353C77.0219 21.0247 76.9778 20.9149 76.9253 20.8083L76.8558 20.6729L76.7891 20.5366C76.776 20.5099 76.774 20.4875 76.7767 20.4643L76.7928 20.3183L76.8108 20.1684C76.8195 20.0929 76.835 20.0139 76.859 19.9313L76.9501 19.625C77.0154 19.4004 76.9664 19.1784 76.8272 18.9976L76.7272 18.8665L76.6544 18.7674L76.6909 18.6525L76.7422 18.4974C76.8095 18.2973 76.7974 18.0855 76.6882 17.8938L76.5377 17.6271C76.513 17.5837 76.502 17.5439 76.4989 17.5066L76.4864 17.3609L76.4749 17.2181C76.4644 17.0933 76.439 16.9707 76.4013 16.8512L76.3555 16.7107L76.3136 16.5721C76.2997 16.5283 76.2941 16.4803 76.2982 16.4275L76.3208 16.1259C76.3331 15.965 76.3085 15.8068 76.2439 15.658L76.1239 15.3871C76.1045 15.3426 76.0958 15.2965 76.0943 15.2473L76.0904 15.0987L76.0836 14.951C76.0774 14.7303 75.9764 14.5469 75.8284 14.4112L75.7009 14.2929L75.6045 14.2084L75.6298 14.107L75.661 13.9493C75.6987 13.7698 75.6839 13.5843 75.6012 13.4116L75.4775 13.1483C75.4345 13.0586 75.3894 12.9681 75.3451 12.8784L75.2804 12.7478L75.2147 12.6143C75.1805 12.5451 75.1528 12.4741 75.1318 12.4038L75.0908 12.2681L75.0489 12.1295C75.0447 12.1149 75.0401 12.0858 75.0533 12.0322L75.1365 11.7032C75.1799 11.5282 75.1772 11.3424 75.1053 11.165L75.0491 11.0314L74.9958 10.8968C74.9395 10.758 74.8575 10.6335 74.7543 10.5245L74.6431 10.4069L74.5329 10.2921L74.528 10.2874L74.5315 9.98618C74.533 9.82234 74.4944 9.66428 74.4165 9.51878L74.3451 9.38727L74.2776 9.25761C74.2447 9.19638 74.2202 9.13395 74.2025 9.0699L74.1244 8.79074C74.1055 8.72189 74.0929 8.64873 74.0861 8.57107L74.0716 8.41972L74.06 8.26737C74.0437 8.08167 73.9684 7.91464 73.8446 7.77752L73.6375 7.54968C73.5798 7.48579 73.5281 7.41879 73.4822 7.35164L73.3976 7.22793L73.314 7.10706C73.2911 7.07352 73.279 7.0383 73.2735 6.99991L73.2514 6.85437L73.2313 6.705C73.2165 6.60144 73.1978 6.49825 73.1775 6.395L73.1201 6.1022C73.0961 5.97995 73.0599 5.86079 73.0123 5.74719L72.9561 5.61356L72.901 5.48277C72.8311 5.31625 72.7147 5.18238 72.5733 5.0831L72.4348 4.98778L72.298 4.88861C72.2519 4.85617 72.2358 4.83479 72.2314 4.82566L72.1174 4.57176C72.0823 4.49409 72.0474 4.41477 72.015 4.33296L71.9627 4.20119L71.9132 4.06842L71.8456 3.93876C71.7697 3.82018 71.6614 3.72908 71.5283 3.66953L71.3988 3.60935L71.2703 3.55201C71.2259 3.53218 71.1855 3.50525 71.1491 3.46979L71.0467 3.36825L70.9424 3.27054C70.8486 3.17914 70.7434 3.10061 70.6275 3.0356L70.3586 2.88677C70.1887 2.79174 69.9997 2.75997 69.8084 2.80089L69.5118 2.86595C69.4481 2.87954 69.3799 2.88323 69.309 2.87921L69.1535 2.87276L68.9971 2.86347C68.8356 2.85437 68.6843 2.8936 68.5554 2.97913ZM69.1088 3.64164L69.2652 3.65094C69.4023 3.65869 69.5396 3.64898 69.6728 3.62058L69.9693 3.55552L69.9827 3.55724L70.1143 3.63265L70.2487 3.70706C70.3098 3.74123 70.3611 3.78071 70.4038 3.82218L70.509 3.92273L70.6105 4.02143C70.711 4.11929 70.826 4.1987 70.954 4.25598L71.0835 4.31616L71.2023 4.3641L71.2468 4.48264L71.2992 4.61442C71.3362 4.7077 71.374 4.80074 71.4145 4.89022L71.4715 5.01716L71.5275 5.14126C71.5996 5.30076 71.7188 5.42629 71.8549 5.52187L71.9906 5.61819L72.1302 5.71636C72.1717 5.74556 72.1852 5.7671 72.1901 5.77845L72.3024 6.04572C72.3293 6.10967 72.3501 6.17812 72.3643 6.25076L72.4217 6.54355C72.4395 6.63392 72.4554 6.72421 72.4683 6.81457L72.4875 6.9611L72.5105 7.10948C72.5329 7.26508 72.5882 7.41015 72.6765 7.53996L72.8458 7.78737C72.9117 7.88396 72.9842 7.97705 73.064 8.06558L73.1676 8.17949L73.2721 8.29626C73.2854 8.31112 73.2904 8.31996 73.2917 8.33412L73.3033 8.48647L73.3168 8.63498C73.3274 8.7576 73.3498 8.87894 73.3818 8.99535L73.4209 9.13493L73.4561 9.27266C73.4894 9.39374 73.5375 9.51112 73.5972 9.62246L73.6676 9.75113L73.7361 9.88363C73.7505 9.91059 73.7595 9.93951 73.7593 9.97768L73.7578 10.2846C73.7562 10.492 73.8329 10.6774 73.9711 10.8231L74.0813 10.9379L74.1925 11.0555C74.237 11.1024 74.2638 11.1476 74.2801 11.1878L74.3363 11.3214L74.3896 11.456C74.3909 11.4591 74.3989 11.4753 74.3885 11.517L74.3054 11.8461C74.2646 12.0105 74.259 12.1833 74.3094 12.3522L74.3504 12.4879L74.3923 12.6265C74.4261 12.7395 74.4706 12.8503 74.5236 12.9574L74.5883 13.088L74.654 13.2215C74.6967 13.3079 74.7382 13.3946 74.7795 13.481L74.8414 13.6126L74.9071 13.7461C74.909 13.7501 74.9131 13.7605 74.9067 13.7909L74.8727 13.9496L74.8415 14.1073C74.7889 14.3571 74.8745 14.5837 75.0513 14.7459L75.1788 14.8643L75.3052 14.9798L75.3129 14.9835L75.3186 15.1188L75.3225 15.2674C75.3266 15.4152 75.358 15.5586 75.417 15.6941L75.477 15.8296L75.5342 15.9661C75.5476 15.9969 75.5538 16.0299 75.5508 16.0688L75.5395 16.2196L75.5273 16.3675C75.5158 16.515 75.5326 16.6621 75.5771 16.8033L75.62 16.9448L75.6648 17.0824C75.6854 17.1478 75.6999 17.2144 75.7056 17.282L75.7181 17.4277L75.7296 17.5705C75.7426 17.7257 75.7896 17.8734 75.8662 18.008L75.9424 18.1442L76.0097 18.2548L75.9603 18.4061L75.9062 18.5622C75.83 18.7883 75.8709 19.0184 76.016 19.207L76.116 19.3381L76.1975 19.4438L76.1619 19.5615L76.1202 19.7165C76.0849 19.8379 76.0573 19.9601 76.0432 20.0816L76.0271 20.2277L76.0092 20.3776C75.9893 20.5514 76.0204 20.7211 76.097 20.8768L76.1637 21.0132L76.2332 21.1485C76.2706 21.2245 76.3009 21.3021 76.326 21.3779L76.4175 21.6588C76.4333 21.7069 76.4419 21.7545 76.4395 21.8043L76.4301 21.9513L76.4235 22.0972C76.4191 22.1876 76.413 22.2789 76.4034 22.3691L76.3712 22.6612C76.3573 22.7911 76.3598 22.9223 76.3794 23.051L76.4004 23.1937L76.4242 23.3354C76.4396 23.4365 76.4559 23.5388 76.4761 23.6397L76.5066 23.7822L76.5343 23.9258C76.5433 23.9707 76.5446 24.0167 76.5353 24.0659L76.4783 24.3602C76.4442 24.5389 76.4674 24.7148 76.5407 24.8779L76.6065 25.021L76.6685 25.1621L76.6705 25.1678L76.6686 25.1717L76.6211 25.3191L76.5725 25.4637C76.5086 25.6585 76.5271 25.858 76.6138 26.0398L76.6796 26.1828L76.7473 26.322L76.6967 26.4609L76.6453 26.6065C76.5806 26.7846 76.5765 26.9715 76.6376 27.1519L76.6882 27.297L76.7359 27.4431C76.7593 27.5121 76.7745 27.5792 76.7806 27.6446L76.7931 27.7903L76.8084 27.9349C76.8091 27.9426 76.8072 27.9589 76.7873 27.9934L76.6253 28.2796C76.5145 28.472 76.4935 28.6907 76.5776 28.9027L76.6359 29.0516L76.6932 29.1976C76.7144 29.2509 76.723 29.2959 76.7218 29.3344L76.7152 29.4804L76.7114 29.6253C76.7101 29.6611 76.6989 29.7025 76.675 29.7497L76.6054 29.8889L76.533 30.029C76.4406 30.2123 76.4241 30.4142 76.4866 30.6102L76.5354 30.7592L76.583 30.8958L76.4361 31.1704C76.3421 31.3461 76.3162 31.543 76.3657 31.7375L76.4442 32.0358C76.4556 32.0806 76.4528 32.1183 76.4457 32.1501L76.3848 32.4331C76.355 32.5662 76.346 32.7022 76.357 32.8386L76.3666 32.9852L76.3801 33.1338C76.3846 33.19 76.3796 33.2433 76.3661 33.295L76.2918 33.5763C76.2693 33.6626 76.2442 33.7507 76.2162 33.8356L76.1714 33.9726L76.1247 34.1133C76.0799 34.2495 76.0588 34.3902 76.0637 34.5335L76.0705 34.6812L76.0745 34.8298C76.0747 34.8373 76.0754 34.8483 76.0598 34.8701L75.8745 35.1262C75.7751 35.2643 75.7304 35.4219 75.7397 35.5817L75.7676 35.7443L75.8127 35.901L75.8549 36.0586C75.865 36.0945 75.8608 36.1086 75.8585 36.1148L75.807 36.2509L75.7565 36.3898C75.7176 36.4942 75.6841 36.6014 75.6569 36.7086L75.6226 36.8482L75.5855 36.9888C75.5588 37.0943 75.5386 37.2026 75.5222 37.3109L75.4984 37.4533L75.4785 37.5975C75.4673 37.671 75.45 37.744 75.4261 37.8136L75.3308 38.0894C75.2949 38.194 75.2648 38.3002 75.2408 38.4081L75.2084 38.5534L75.178 38.6949C75.1568 38.7901 75.1355 38.8856 75.1152 38.9817L75.0857 39.126L75.0588 39.2503C75.0559 39.2533 75.049 39.2619 75.0343 39.2716L74.7282 39.4741C74.5461 39.5943 74.4045 39.7844 74.3986 40.0391L74.394 40.1907L74.3922 40.3413C74.3911 40.3905 74.3806 40.4334 74.3635 40.4694L74.2374 40.7304C74.1998 40.8093 74.1605 40.8874 74.1176 40.9637L74.0469 41.0905L73.9734 41.2182C73.9035 41.3426 73.858 41.4768 73.8349 41.6176L73.8121 41.7628L73.7875 41.9118C73.7774 41.9728 73.7596 42.0288 73.7345 42.0803L73.6714 42.2108L73.6074 42.3385C73.5603 42.4352 73.5166 42.5352 73.478 42.6357L73.4265 42.7718L73.374 42.905C73.3433 42.9852 73.3087 43.064 73.2715 43.1418L73.2123 43.2742L73.1492 43.4047C73.091 43.5264 73.0495 43.6545 73.0277 43.7886L73.0031 43.9376L72.9813 44.0857C72.9791 44.0988 72.9754 44.1081 72.9617 44.1212L72.8488 44.2276L72.7349 44.3311C72.6527 44.4085 72.5763 44.4897 72.5027 44.5717L72.4042 44.6826L72.3028 44.7946C72.1981 44.9115 72.1221 45.0467 72.0795 45.198L72.0395 45.3396L72.0005 45.4841C71.9839 45.543 71.9603 45.597 71.9293 45.6461L71.8509 45.7692L71.7744 45.8884C71.6919 46.019 71.6409 46.1649 71.6173 46.3167L71.5938 46.4781L71.5692 46.6366C71.5651 46.6628 71.5564 46.6717 71.5488 46.6789L71.4378 46.7814L71.3277 46.8868C71.2983 46.9145 71.2667 46.9351 71.2275 46.9473L71.0804 46.9922L70.9361 47.0361C70.8424 47.0647 70.749 47.0888 70.6626 47.1123L70.5287 47.1494L70.392 47.1875C70.293 47.2144 70.1931 47.2441 70.0949 47.2783L69.8245 47.3725C69.7827 47.387 69.7414 47.3942 69.697 47.3914L69.553 47.381L69.4099 47.3734C69.3378 47.369 69.2671 47.3567 69.1968 47.3392L68.9176 47.2706C68.8278 47.2482 68.7364 47.2239 68.6468 47.199L68.5091 47.1608L68.3684 47.1237C68.2678 47.0957 68.1667 47.069 68.0643 47.0478L67.92 47.0183L67.7785 46.9878C67.6766 46.9668 67.5733 46.9509 67.4699 46.9358L67.3247 46.913L67.1805 46.8931C67.0815 46.8786 66.9822 46.8649 66.8825 46.8533L66.5904 46.8211C66.5857 46.8205 66.5717 46.8171 66.5452 46.7921L66.3077 46.5685C66.1987 46.4658 66.0754 46.3816 65.9383 46.3238L65.8031 46.2656L65.6689 46.2103C65.552 46.1611 65.4311 46.1247 65.3062 46.1037L65.161 46.0809L65.0186 46.0571C64.854 46.0296 64.6904 46.0469 64.534 46.0952L64.3698 46.1461L64.2227 46.191L64.1226 46.1237L63.9966 46.0368C63.8448 45.9332 63.6698 45.8823 63.4855 45.8894L63.335 45.8972L63.1807 45.9031C63.1685 45.9035 63.1613 45.8995 63.1472 45.8893L63.023 45.7985L62.8959 45.7087C62.7871 45.6299 62.6703 45.5673 62.5464 45.521L62.4132 45.4685L62.2781 45.4198C62.2117 45.395 62.1473 45.362 62.0852 45.3243L61.9603 45.2497L61.8382 45.1742C61.8239 45.1655 61.8117 45.1563 61.8024 45.1356L61.6824 44.8646C61.62 44.7256 61.5316 44.6021 61.4181 44.5003L61.3082 44.4046L61.2464 44.3463L61.255 44.2795C61.2607 44.2443 61.2768 44.1451 61.245 44.0404C61.2262 43.9788 61.1764 43.872 61.054 43.8037C61.0136 43.7812 60.9732 43.7727 60.9353 43.7653L60.9022 43.7162L60.8223 43.5877C60.8027 43.5559 60.7942 43.5243 60.7914 43.4899L60.7808 43.3404L60.7683 43.1948C60.7618 43.1076 60.7609 43.0186 60.7618 42.9289L60.7653 42.6277C60.7666 42.501 60.7535 42.3764 60.7278 42.2545L60.6972 42.112L60.6677 41.9722C60.6358 41.8223 60.5714 41.6851 60.4829 41.5611L60.3896 41.4308L60.3001 41.3024L60.2943 41.2949L60.3141 41.1411L60.3321 40.9912C60.3485 40.8582 60.3466 40.7249 60.3276 40.5938L60.3066 40.4511L60.2884 40.3075C60.2736 40.2054 60.2533 40.1029 60.2328 40.0013L60.206 39.8606L60.1755 39.718C60.1619 39.651 60.1571 39.5824 60.1584 39.5133L60.1611 39.3655L60.1649 39.2206C60.1677 39.0665 60.1351 38.9176 60.074 38.7767L60.0158 38.6374L59.9548 38.4991C59.9265 38.4336 59.9053 38.3696 59.8941 38.3064L59.8463 38.023C59.827 37.9147 59.7999 37.8063 59.7685 37.699L59.7284 37.5566L59.6865 37.418C59.6702 37.3622 59.6643 37.3055 59.6661 37.2496L59.6736 36.9597C59.6757 36.8895 59.6844 36.8151 59.702 36.7391L59.739 36.589L59.7732 36.4398C59.8068 36.2951 59.8123 36.1471 59.7891 36.0002L59.7681 35.8575L59.7442 35.7158C59.7304 35.628 59.7185 35.5395 59.7091 35.4503L59.6785 35.161C59.6677 35.0587 59.6549 34.9568 59.639 34.8555L59.597 34.5702C59.5858 34.4984 59.58 34.4259 59.5816 34.3521L59.5844 34.2043L59.5881 34.0594C59.5922 33.8798 59.5407 33.7127 59.4508 33.5647L59.364 33.4257L59.2791 33.283C59.2751 33.2762 59.2722 33.2721 59.2713 33.2697L59.3283 32.9754C59.3427 32.9014 59.3648 32.8269 59.3939 32.7514L59.4509 32.6038L59.5062 32.4601C59.5815 32.2648 59.5723 32.0614 59.4867 31.8732L59.4199 31.7273L59.3569 31.5833C59.3461 31.5597 59.3482 31.551 59.3497 31.5443L59.382 31.399L59.4154 31.2565C59.4504 31.108 59.4555 30.9554 59.4273 30.8055L59.3986 30.6591L59.3709 30.5156C59.3691 30.5059 59.3698 30.4933 59.3826 30.4668L59.4512 30.3248L59.5188 30.1799C59.6339 29.9415 59.5915 29.6966 59.4581 29.5021L59.356 29.3557L59.2577 29.2112L59.2906 29.104L59.3363 28.9604C59.3727 28.8414 59.3954 28.7195 59.4076 28.5972L59.4218 28.455L59.4379 28.309C59.4467 28.2203 59.4559 28.1314 59.4695 28.0426L59.4923 27.8974L59.5161 27.755C59.5302 27.6636 59.5437 27.5712 59.561 27.4809L59.5886 27.3404L59.6153 27.197C59.6353 27.0919 59.6528 26.9863 59.6643 26.8799L59.6814 26.7367L59.6947 26.5916C59.7124 26.4279 59.6889 26.2671 59.631 26.1159L59.5421 25.8884L59.6238 25.8024L59.7479 25.673C59.8247 25.5917 59.8926 25.487 59.9228 25.3598C59.9534 25.2294 59.9375 25.1003 59.8948 24.9866L59.7819 24.6812C59.7574 24.6158 59.7456 24.5588 59.7443 24.5092L59.7404 24.3605L59.7376 24.2243C59.7395 24.221 59.745 24.2154 59.7535 24.206L59.868 24.0767L59.9854 23.9464C60.0992 23.8194 60.1853 23.6665 60.2194 23.4914L60.2746 23.2104C60.3134 23.0103 60.2652 22.8198 60.1803 22.656L60.098 22.4931L60.0343 22.3653L60.0791 22.2923L60.164 22.1605C60.2657 22.0009 60.3089 21.8191 60.2883 21.6288L60.2738 21.4775L60.2576 21.3395L60.3636 21.2132L60.4677 21.0907C60.618 20.9124 60.6704 20.6869 60.6116 20.4596L60.5732 20.3038L60.531 20.1462C60.5167 20.0909 60.5181 20.0494 60.5245 20.0176L60.5511 19.8743L60.5816 19.7328C60.5819 19.7313 60.5813 19.7274 60.5843 19.7222C60.5884 19.7155 60.6 19.7017 60.6191 19.6846L60.8771 19.4542C61.0028 19.3417 61.1034 19.2025 61.1593 19.0367L61.2069 18.8987L61.2518 18.7618C61.3061 18.5999 61.3132 18.4327 61.2812 18.2696L61.2476 18.109L61.2178 17.9502L61.2168 17.9473L61.2962 17.8271L61.3802 17.702C61.4717 17.5646 61.5241 17.4104 61.537 17.2452L61.5615 16.9494C61.5655 16.8992 61.5788 16.8533 61.5997 16.8116L61.6627 16.6811L61.7296 16.5525C61.7899 16.4318 61.8318 16.3034 61.8549 16.1704L61.8816 16.0271L61.9044 15.8819C61.9123 15.8364 61.9288 15.7939 61.955 15.7525L62.0353 15.6256L62.1136 15.5025C62.2073 15.3549 62.2537 15.1892 62.2538 15.0164L62.2535 14.8601L62.2543 14.7066C62.2543 14.6364 62.2635 14.5724 62.2793 14.5128L62.3155 14.3693L62.3526 14.2287C62.3736 14.1502 62.402 14.0739 62.4324 13.9998L62.4849 13.8666L62.5403 13.7323C62.5589 13.687 62.5869 13.6409 62.6271 13.5968L62.8356 13.3709C62.91 13.2893 62.9809 13.2058 63.0485 13.1211L63.1413 13.0026L63.235 12.8869C63.3354 12.7611 63.402 12.6154 63.4331 12.4572L63.4626 12.3128L63.4911 12.1656C63.5009 12.1165 63.518 12.0723 63.5436 12.0324L63.623 11.9122L63.7013 11.7891C63.8045 11.6283 63.84 11.4467 63.8286 11.266L63.8187 11.1003L63.8078 10.9317C63.8075 10.9271 63.8104 10.9236 63.8105 10.9212L63.9015 10.816L63.9963 10.7032C64.052 10.6383 64.1138 10.5731 64.1786 10.512L64.2896 10.4094L64.3997 10.304C64.5311 10.1799 64.619 10.0231 64.6546 9.84492L64.6859 9.69675L64.7134 9.54672C64.7226 9.50097 64.7406 9.46476 64.7634 9.43356L64.8476 9.31803L64.9336 9.19866C64.9878 9.12447 65.0446 9.04963 65.1022 8.97712L65.2839 8.74777C65.3852 8.62002 65.4511 8.47393 65.4811 8.31519L65.5086 8.16516L65.5353 8.03135L65.6648 7.95428L65.8048 7.87039C65.9631 7.77566 66.0895 7.63889 66.1595 7.45948L66.2128 7.31958L66.2672 7.18253C66.2809 7.14785 66.3004 7.11974 66.3289 7.09399L66.4381 6.99527L66.5502 6.89556C66.668 6.78918 66.757 6.65765 66.8146 6.50972L66.8662 6.37366L66.9205 6.23661C66.9387 6.19004 66.9638 6.14877 66.9961 6.11452L67.0966 6.00925L67.1962 5.90113C67.3387 5.74944 67.4009 5.56148 67.4072 5.37113L67.4134 5.19661L67.4208 5.044L67.5087 4.98466L67.6381 4.89805C67.7191 4.844 67.8003 4.79268 67.8809 4.74317L68.0094 4.66325L68.139 4.58618C68.2719 4.50451 68.3825 4.39623 68.4672 4.26427L68.5456 4.14119L68.625 4.02096C68.6619 3.96341 68.7089 3.90542 68.7656 3.84746L68.8727 3.73352L68.9714 3.63209L69.1088 3.64164ZM60.8308 44.2071L60.8598 44.3087L60.8159 44.3017L60.7868 44.2001L60.8308 44.2071ZM60.8159 44.3017L60.8598 44.3087L60.8308 44.2071L60.7868 44.2001L60.8159 44.3017ZM76.0204 18.2766L76.0166 18.2748L76.0156 18.2719L76.0165 18.2652L76.0204 18.2766Z" fill="#FF9797"/>
<path d="M70.7554 10.9783L70.7231 11.018L70.7068 11.0651L70.6157 11.2987C70.5914 11.3612 70.5703 11.4074 70.5513 11.4386C70.5421 11.454 70.5331 11.4643 70.5275 11.4714C70.5222 11.4779 70.5194 11.4813 70.5194 11.4813L70.4111 11.5773L70.2998 11.6736C70.2308 11.7349 70.1586 11.7966 70.0854 11.8563L69.8562 12.0436C69.7541 12.1269 69.6625 12.223 69.5857 12.329L69.4161 12.5646C69.3224 12.694 69.2611 12.84 69.2332 12.9956L69.2067 13.1498L69.1805 13.307L69.1757 13.3196L69.1704 13.3262L69.0501 13.4235L68.9325 13.5174C68.8253 13.6047 68.7339 13.7071 68.6578 13.8214L68.4948 14.0625C68.4352 14.1522 68.3811 14.2453 68.3295 14.3401L68.2579 14.4686L68.1894 14.5969C68.1547 14.6606 68.1128 14.7214 68.0658 14.7793L67.9746 14.8948L67.8802 15.0075C67.7801 15.1308 67.7131 15.2738 67.6782 15.4283L67.6113 15.72C67.5948 15.7928 67.5729 15.8606 67.5444 15.9238L67.4854 16.0572L67.4262 16.1875C67.3789 16.2922 67.3372 16.4012 67.3051 16.5121L67.225 16.793C67.208 16.8515 67.1834 16.9071 67.1511 16.9582L66.9947 17.2046C66.9544 17.2681 66.9052 17.3308 66.8504 17.3922L66.75 17.5055L66.6469 17.6222C66.5452 17.7362 66.4675 17.8663 66.4205 18.0122L66.3774 18.153L66.331 18.2911C66.3019 18.3815 66.2712 18.4712 66.2407 18.5609L66.148 18.8371C66.1132 18.9394 66.0819 19.0445 66.0559 19.1496L66.0219 19.2895L65.9881 19.4323C65.9693 19.5085 65.9434 19.5823 65.9141 19.6551L65.8585 19.7911L65.8058 19.9268C65.7364 20.0988 65.7299 20.2785 65.769 20.4518L65.8037 20.6118L65.8417 20.7745L65.8445 20.8015L65.7079 21.064C65.6709 21.1355 65.6264 21.208 65.5757 21.2807L65.4861 21.4111L65.3962 21.5385C65.2733 21.7147 65.2338 21.9212 65.2814 22.1291L65.3184 22.2828L65.3525 22.4369C65.3595 22.4676 65.3579 22.4848 65.3527 22.4975L65.294 22.6338L65.2387 22.7728C65.1787 22.9185 65.1536 23.0716 65.1645 23.2289L65.1828 23.5239L65.1843 23.5389L65.1816 23.5422L65.0294 23.77C65.0025 23.8097 64.9461 23.8937 64.9254 23.9959C64.9148 24.0483 64.8981 24.1768 64.9815 24.3052C65.0736 24.4466 65.215 24.482 65.2913 24.4884L65.3462 24.4918L65.4869 24.5046L65.6054 24.4196L65.7266 24.3314L65.585 24.1339L65.6804 24.1483C65.6724 24.188 65.6601 24.2136 65.6599 24.214C65.6607 24.2127 65.6635 24.2073 65.6677 24.2011L65.702 24.1521L65.8626 24.181L65.8796 24.0823L66.0408 23.1476L65.9364 23.222L65.9318 23.1771C65.9291 23.1389 65.9355 23.1028 65.9506 23.066L66.0093 22.9297L66.0646 22.7907C66.1349 22.6202 66.1446 22.4408 66.1044 22.2654L66.0704 22.1114L66.0376 21.9693L66.1194 21.8518L66.2089 21.7214C66.2774 21.6231 66.3398 21.5234 66.3931 21.4206L66.5296 21.1581C66.6215 20.9806 66.6354 20.788 66.5936 20.6031L66.5559 20.4434L66.5212 20.2833C66.5124 20.2443 66.5171 20.2254 66.5204 20.2167L66.5761 20.0807L66.6288 19.945C66.6719 19.838 66.7096 19.7277 66.7372 19.6157L66.7713 19.4758L66.8051 19.333C66.8257 19.2492 66.8519 19.1673 66.8796 19.0859L66.9723 18.8097C67.0041 18.7161 67.0341 18.6218 67.0644 18.5275L67.1108 18.3894L67.1538 18.2487C67.1662 18.2106 67.1875 18.1734 67.221 18.1357L67.3244 18.022L67.4275 17.9053C67.5086 17.8144 67.5827 17.7197 67.6465 17.6192L67.8029 17.3728C67.8746 17.2597 67.9279 17.1363 67.9652 17.0076L68.0453 16.7266C68.0674 16.6505 68.0965 16.577 68.1286 16.506L68.1879 16.3756L68.2469 16.2423C68.2976 16.1299 68.3376 16.0126 68.3651 15.8907L68.3986 15.7449L68.4317 15.596C68.441 15.5562 68.4554 15.5231 68.4788 15.4942L68.5732 15.3815L68.6673 15.2657C68.7438 15.1715 68.8088 15.0694 68.8665 14.9634L68.9383 14.8378L69.0069 14.7096C69.0477 14.6345 69.0916 14.561 69.1388 14.4899L69.2203 14.3694L69.2988 14.2492C69.3299 14.2025 69.3716 14.1592 69.4217 14.1184L69.6562 13.9246C69.809 13.8002 69.9056 13.6342 69.94 13.4438L69.9662 13.2866L69.9927 13.1324C70.0018 13.0818 70.0191 13.0458 70.0385 13.0186L70.1263 12.9005L70.2112 12.7826C70.2477 12.7323 70.2901 12.6843 70.3421 12.6419L70.4597 12.548L70.5742 12.4543C70.6554 12.3881 70.7337 12.3195 70.8108 12.2512L70.9221 12.1549L71.0304 12.0589C71.1711 11.9342 71.2665 11.7564 71.3354 11.579L71.4068 11.3899L71.4364 11.3535L70.8136 10.8965L70.7554 10.9783Z" fill="#FF9797"/>
<path d="M24.2711 8.74162C37.7337 20.3095 39.975 37.5429 39.2806 46.3807C39.2064 47.3243 38.621 48.1348 37.7772 48.5635L31.9928 51.5022C30.9008 52.0569 29.5671 51.8637 28.7395 50.9609C17.2075 38.3804 17.8099 20.4008 20.1919 10.0809C20.6247 8.20597 22.8117 7.4876 24.2711 8.74162Z" fill="#FFC8C8"/>
<path d="M23.2195 7.64901L23.3615 7.72533L23.49 7.81204L23.6215 7.89914C23.7286 7.97099 23.8275 8.05197 23.9151 8.14118L24.1188 8.35018C24.1442 8.37587 24.1758 8.39682 24.2171 8.41167L24.3596 8.4607L24.4988 8.51233C24.5976 8.54787 24.6972 8.58719 24.7968 8.62729L24.9416 8.68268L25.0859 8.74107C25.2559 8.80983 25.3752 8.93216 25.4459 9.07993L25.4985 9.23575L25.5818 9.57492C25.5849 9.5877 25.5885 9.59569 25.5906 9.60039L25.7071 9.68554L25.8271 9.76808C25.9477 9.85241 26.0492 9.95795 26.1296 10.0812L26.2104 10.2073L26.2916 10.3303C26.3126 10.3627 26.3391 10.3882 26.3726 10.4078L26.6267 10.5565C26.7636 10.6365 26.8782 10.7444 26.9648 10.8773L27.0459 11.0004L27.1267 11.1265C27.1293 11.1304 27.1369 11.1373 27.1636 11.1465L27.4718 11.2537C27.6216 11.3056 27.748 11.398 27.8374 11.5264L27.9132 11.667L27.9737 11.8087L28.0312 11.9499C28.0476 11.9896 28.0683 12.0166 28.0928 12.037L28.3176 12.2244C28.3962 12.2899 28.4742 12.3568 28.5497 12.425L28.6583 12.5243L28.7673 12.6206C28.8826 12.7248 28.9709 12.8532 29.0313 12.9956L29.1472 13.2721C29.1547 13.29 29.1651 13.3015 29.1843 13.3135L29.3166 13.3946L29.4458 13.4753C29.5436 13.5355 29.6384 13.5984 29.7278 13.6672L29.9652 13.8502C30.1332 13.9798 30.2232 14.1622 30.2513 14.3588L30.2996 14.6873C30.3055 14.7285 30.3176 14.7393 30.3198 14.7416L30.5235 14.9506C30.6257 15.0549 30.7054 15.1756 30.7622 15.3101L30.8202 15.4484L30.8785 15.5837C30.8922 15.616 30.9109 15.6432 30.9404 15.6677L31.0558 15.7619L31.1707 15.859C31.2409 15.917 31.3158 15.9726 31.3919 16.0277L31.5166 16.12L31.6417 16.2093C31.7586 16.2939 31.8583 16.3965 31.939 16.5156L32.1022 16.7558C32.1654 16.8493 32.2225 16.9475 32.2736 17.0488L32.3413 17.1822L32.4063 17.3123C32.4659 17.4309 32.5092 17.5565 32.5365 17.688L32.5686 17.8381L32.6002 17.9912C32.6069 18.0221 32.6186 18.0403 32.6343 18.0564L32.7357 18.1639L32.8406 18.2688C32.9444 18.3757 33.0257 18.5021 33.0807 18.6406L33.133 18.7752L33.1883 18.91C33.2106 18.9661 33.2406 19.0178 33.2776 19.0646L33.3659 19.1795L33.4572 19.2948C33.5486 19.4106 33.6145 19.5408 33.6558 19.6824L33.7401 19.967C33.7491 19.9978 33.7647 20.0246 33.7901 20.0495L34.0058 20.2601C34.1559 20.4078 34.2277 20.5986 34.23 20.8001L34.2302 20.9612L34.2331 21.1257C34.2338 21.1737 34.2439 21.2016 34.2542 21.2197L34.329 21.345L34.4008 21.4699C34.4093 21.4843 34.4296 21.5104 34.4827 21.5413L34.6355 21.6282L34.7849 21.7176C34.9425 21.809 35.0783 21.9393 35.1549 22.1186L35.2103 22.2535L35.2686 22.3888C35.3318 22.5374 35.355 22.6956 35.3474 22.855L35.3413 23.0184L35.3342 23.1421L35.4362 23.2223L35.5657 23.3243C35.7269 23.451 35.8326 23.6281 35.8536 23.8422L35.8704 23.9933L35.8841 24.1441C35.8852 24.1554 35.8882 24.1634 35.9011 24.1767L36.0081 24.288L36.1182 24.3996C36.3047 24.591 36.334 24.8384 36.2718 25.0611L36.2245 25.2372L36.1741 25.413L36.1641 25.4664L36.2198 25.5984L36.2751 25.7332C36.2803 25.7452 36.2967 25.771 36.3446 25.8062L36.4831 25.9094L36.625 26.01C36.7818 26.1252 36.9021 26.2885 36.9411 26.4981L36.9676 26.6445L36.9944 26.7878C37.0209 26.9312 37.0209 27.0773 36.9983 27.223L36.9742 27.384L36.9573 27.4669L37.0605 27.5381L37.2079 27.6425C37.2995 27.7063 37.3877 27.7945 37.443 27.9134C37.4994 28.0349 37.5112 28.1644 37.4918 28.2845L37.4651 28.4421L37.438 28.6027C37.4295 28.6554 37.4355 28.692 37.4441 28.719L37.4897 28.8587L37.5326 28.995C37.5592 29.0769 37.5894 29.1583 37.6225 29.2378L37.6778 29.3727L37.7335 29.5046C37.7724 29.598 37.8095 29.6944 37.8452 29.7897L37.8975 29.9242L37.9494 30.0617C37.9858 30.1587 38.0201 30.2563 38.051 30.3546L38.1361 30.6332C38.157 30.6995 38.1869 30.7645 38.2229 30.83L38.2935 30.9638L38.3675 31.0951C38.483 31.3061 38.4696 31.5323 38.3883 31.727L38.3182 31.8911L38.2655 32.0149L38.3227 32.0893L38.4184 32.2173C38.5293 32.3615 38.5956 32.5309 38.5991 32.7181L38.6013 32.8643L38.6031 33.0135C38.6039 33.0579 38.6162 33.0986 38.6352 33.1393L38.6965 33.2749L38.7582 33.4076C38.8389 33.5804 38.8532 33.7663 38.8124 33.9466L38.7771 34.1001L38.7452 34.2509L38.826 34.377L38.9094 34.5065C38.9776 34.6119 39.0345 34.7222 39.0821 34.836L39.198 35.1126C39.2771 35.3019 39.2738 35.4984 39.2086 35.6824L39.155 35.8365L39.101 35.9936C39.0864 36.0352 39.0878 36.0576 39.0909 36.0713L39.1241 36.2124L39.1569 36.3565C39.1839 36.4727 39.199 36.5905 39.205 36.7093L39.2135 36.8533L39.2191 36.9969C39.2236 37.0864 39.2324 37.1776 39.2415 37.2673L39.256 37.412L39.2709 37.5538C39.2813 37.6566 39.2892 37.7613 39.2942 37.8639L39.2997 38.0074L39.3083 38.1514C39.3105 38.1942 39.3215 38.2395 39.3449 38.2899L39.4727 38.5681C39.5257 38.6827 39.5676 38.8013 39.5966 38.9217L39.6631 39.2039C39.6954 39.3379 39.7085 39.4752 39.6978 39.6127L39.6846 39.7599L39.6744 39.9075C39.6678 39.9916 39.664 40.0746 39.6663 40.1557L39.6715 40.3023L39.674 40.4455C39.6777 40.5721 39.6657 40.6983 39.6397 40.824L39.6112 40.9723L39.5798 41.1201C39.5703 41.1658 39.5727 41.2059 39.5817 41.245L39.6115 41.3887L39.6447 41.5298C39.6726 41.6517 39.6867 41.7754 39.6875 41.9002L39.6897 42.0464L39.6888 42.1922C39.6894 42.2812 39.6942 42.3698 39.6997 42.458L39.7167 42.746C39.7205 42.8059 39.7333 42.8706 39.7557 42.9365L39.8038 43.0796L39.8516 43.2256C39.9166 43.4169 39.9059 43.6124 39.826 43.7937L39.7616 43.9373L39.6998 44.0842C39.6767 44.1369 39.6674 44.1799 39.6673 44.2168L39.6665 44.5024C39.6662 44.568 39.6725 44.6372 39.6881 44.7089L39.753 45.0031C39.7767 45.1115 39.7962 45.2212 39.8106 45.3298L39.8311 45.4753L39.8486 45.6204C39.8697 45.7804 39.8514 45.9396 39.7962 46.0908L39.7442 46.233L39.6955 46.3725C39.6749 46.429 39.6452 46.4998 39.604 46.5611C39.6014 46.565 39.5965 46.5676 39.5935 46.5719C39.6376 46.7779 39.5531 46.9541 39.4748 47.061L39.3863 47.1801L39.3007 47.2996C39.2748 47.3349 39.2556 47.3731 39.2459 47.4171L39.1837 47.7068C39.1461 47.8779 39.0602 48.0304 38.9311 48.151L38.824 48.2495L38.7199 48.3483C38.6318 48.4306 38.537 48.5055 38.4356 48.5695L38.3133 48.6447L38.1906 48.7229C38.1419 48.7538 38.0939 48.7951 38.0467 48.847L37.9437 48.9612L37.8376 49.075C37.7115 49.2133 37.549 49.3039 37.3629 49.3351L37.2139 49.3582L37.0646 49.3843C37.0476 49.3871 37.0362 49.3916 37.0223 49.4061L36.8109 49.6277C36.6485 49.7964 36.4355 49.8593 36.2209 49.8393L35.8787 49.8067C35.8148 49.8007 35.7747 49.8076 35.7496 49.8172L35.6151 49.8695L35.4772 49.9245C35.4154 49.9486 35.3562 49.9789 35.301 50.0169L35.1805 50.1015L35.0604 50.1831C35.0229 50.2091 34.9835 50.2485 34.9442 50.3046L34.7573 50.572C34.6532 50.7211 34.5093 50.8388 34.3285 50.8989L34.1918 50.9449L34.0521 50.9905C33.9633 51.02 33.8752 51.0516 33.7877 51.0836L33.6506 51.1325L33.5131 51.1844C33.429 51.2151 33.3447 51.2471 33.2632 51.2825L32.9986 51.3999C32.9184 51.4347 32.8395 51.4718 32.762 51.5118L32.632 51.5769L32.5045 51.6453C32.4157 51.6912 32.3245 51.734 32.2349 51.7772L31.9755 51.9014C31.8682 51.9532 31.7577 51.9967 31.6428 52.0281L31.5043 52.0647L31.3654 52.1043C31.2237 52.143 31.0787 52.1519 30.9331 52.1329L30.6492 52.0958C30.5635 52.0846 30.478 52.0766 30.394 52.0715L30.2519 52.0651L30.1103 52.0557C30.0129 52.0498 29.9107 52.0406 29.8065 52.0312L29.5061 52.0041C29.3459 51.9896 29.1945 51.9387 29.0576 51.8543L28.9279 51.7765L28.7987 51.6958C28.6354 51.595 28.5184 51.4489 28.4526 51.2736L28.3399 50.9732C28.3189 50.9171 28.294 50.8785 28.2677 50.8513L28.1659 50.7468L28.067 50.6427C27.9735 50.546 27.8952 50.437 27.833 50.3172L27.6969 50.0563C27.6791 50.0221 27.6555 49.9945 27.623 49.9706L27.3847 49.7935C27.3138 49.7414 27.2369 49.6906 27.1583 49.6424L27.029 49.5616L26.8963 49.4835C26.7382 49.3865 26.6192 49.2456 26.5521 49.0707L26.4976 48.9298L26.446 48.7893C26.4228 48.7288 26.3929 48.6752 26.3576 48.6288L26.181 48.3991C26.116 48.314 26.0544 48.2246 25.9966 48.1348L25.9181 48.0151L25.8399 47.8924C25.794 47.8212 25.7456 47.7518 25.6938 47.6849L25.5171 47.4551C25.4348 47.3488 25.368 47.233 25.3194 47.1071L25.2675 46.9696L25.213 46.8287C25.1934 46.7781 25.1662 46.7347 25.133 46.6966L24.9428 46.4773C24.8736 46.3979 24.8075 46.3162 24.7438 46.2324L24.5672 46.0026C24.4742 45.8803 24.4123 45.7409 24.3777 45.5918L24.3423 45.4443L24.3159 45.3436L24.1656 45.2844L23.9951 45.2165C23.8124 45.1441 23.6454 45.0167 23.5555 44.8126L23.4942 44.6769L23.2008 44.0154C23.1669 43.9404 23.1284 43.8675 23.0865 43.7968L22.9369 43.5462C22.8755 43.443 22.8236 43.3348 22.7817 43.222L22.7297 43.0845L22.6808 42.9474C22.6513 42.8679 22.6171 42.7906 22.5804 42.7154L22.5154 42.5853L22.4533 42.4556C22.4172 42.3815 22.3778 42.3074 22.333 42.2362L22.2548 42.1136L22.177 41.9879C22.0766 41.8282 22.0379 41.6501 22.0502 41.4698L22.0624 41.3072L22.0692 41.1622L21.974 41.0768L21.8576 40.9674C21.7213 40.8425 21.6264 40.6829 21.5941 40.4952L21.5706 40.3493L21.5441 40.203C21.5349 40.1496 21.519 40.1009 21.4934 40.0565L21.4185 39.9312L21.3471 39.8033C21.2943 39.7118 21.2419 39.6197 21.195 39.5251L21.13 39.395L21.0653 39.2619C21.003 39.1357 20.9651 39.0003 20.9476 38.8605L20.9271 38.715L20.91 38.5668C20.9024 38.5066 20.8854 38.4515 20.8619 38.3994L20.8003 38.2668L20.7416 38.1345C20.675 37.9875 20.6464 37.8296 20.6533 37.67L20.6693 37.3621C20.6695 37.3584 20.6671 37.3559 20.6671 37.3557L20.6645 37.3523L20.5646 37.2329L20.4621 37.11C20.3292 36.9506 20.2681 36.756 20.2892 36.5494L20.3239 36.2378L20.2244 36.1154L20.1278 35.9934C20.0305 35.8714 19.9578 35.733 19.9205 35.5802L19.854 35.298C19.8175 35.1479 19.8141 34.9947 19.8405 34.8433L19.8668 34.6887L19.89 34.558L19.6856 34.3306C19.5668 34.1972 19.4868 34.0345 19.4659 33.849L19.4309 33.5587C19.4166 33.4312 19.4199 33.3024 19.4357 33.1733L19.4526 33.0205L19.4726 32.8681C19.474 32.8559 19.4727 32.8499 19.4645 32.8367L19.3845 32.7046L19.3015 32.5722C19.1918 32.3943 19.1615 32.1916 19.2102 31.9918L19.2867 31.6857L19.2871 31.6827L19.2105 31.5481L19.1335 31.4164C19.0336 31.2433 19.0061 31.049 19.0488 30.8552L19.0811 30.7013L19.1159 30.5509C19.122 30.5234 19.1176 30.5074 19.1114 30.4925L19.0565 30.3547L18.9982 30.2194C18.9411 30.0827 18.9098 29.9364 18.9086 29.7882L18.9095 29.6424L18.9073 29.4962C18.9066 29.4055 18.9051 29.3146 18.9002 29.2248L18.8832 28.9368C18.8797 28.8742 18.8669 28.812 18.8468 28.7497L18.8046 28.6074L18.7591 28.4677C18.7268 28.3675 18.6975 28.2661 18.6711 28.1644L18.6319 28.0225L18.5957 27.881C18.5591 27.7401 18.5502 27.5962 18.5667 27.4516L18.599 27.158C18.6122 27.0422 18.633 26.9257 18.6626 26.8107L18.7031 26.664L18.7406 26.5169C18.748 26.4881 18.7453 26.4657 18.738 26.4436L18.6924 26.3039L18.6443 26.1608C18.6203 26.0887 18.589 26.0145 18.5487 25.9386L18.397 25.6574C18.2873 25.4508 18.29 25.2234 18.3894 25.0181L18.4605 24.8693L18.5116 24.7574L18.4524 24.6524L18.3706 24.511C18.2639 24.3289 18.2325 24.1191 18.3003 23.9091L18.3932 23.6173C18.4086 23.5697 18.4111 23.5285 18.4066 23.4914L18.3891 23.3462L18.3712 23.2041C18.356 23.0798 18.3559 22.9546 18.3685 22.8298L18.3846 22.683L18.3974 22.5388C18.402 22.4931 18.3977 22.4449 18.3829 22.394L18.2993 22.1035C18.2544 21.9484 18.2462 21.7885 18.2792 21.6297L18.3414 21.3399C18.3513 21.2925 18.3504 21.2456 18.3418 21.1971L18.3153 21.0508L18.2919 20.9049C18.2528 20.6875 18.3143 20.4873 18.4316 20.3243L18.5322 20.1825L18.6094 20.0801L18.564 19.986L18.5013 19.838C18.4276 19.67 18.4044 19.4853 18.4501 19.2994L18.5175 19.0164C18.5412 18.9198 18.5669 18.822 18.592 18.7252L18.6287 18.5841L18.6658 18.44C18.6852 18.3653 18.6978 18.2902 18.7041 18.217L18.7164 18.0758L18.7292 17.9316C18.7304 17.9165 18.7289 17.887 18.7051 17.8372L18.5565 17.5321C18.4783 17.3697 18.443 17.1873 18.4773 16.9989L18.505 16.8566L18.5297 16.714C18.5565 16.5667 18.6114 16.428 18.6902 16.3003L18.7751 16.1624L18.8596 16.0276L18.8634 16.022L18.7985 15.7278C18.7636 15.5677 18.7692 15.4051 18.8158 15.2468L18.8588 15.1035L18.8985 14.9627C18.9181 14.8961 18.9294 14.83 18.9336 14.7637L18.9532 14.4744C18.9577 14.4032 18.955 14.329 18.9459 14.2516L18.9292 14.1005L18.9095 13.9489C18.8876 13.7638 18.9272 13.585 19.0205 13.4254L19.1767 13.1602C19.2202 13.0858 19.2571 13.0097 19.2883 12.9346L19.3459 12.7962L19.4031 12.6609C19.4187 12.6234 19.4233 12.5864 19.4209 12.5477L19.4128 12.4007L19.4021 12.2504C19.3954 12.146 19.3927 12.0411 19.3915 11.9359L19.3879 11.6376C19.3865 11.513 19.3976 11.389 19.4211 11.268L19.4488 11.1258L19.4761 10.9865C19.5105 10.8092 19.5972 10.6544 19.7153 10.5284L19.8315 10.4068L19.9451 10.2818C19.9837 10.2406 19.9951 10.2164 19.9975 10.2066L20.0574 9.93477C20.0759 9.85157 20.0938 9.7668 20.1089 9.6801L20.1333 9.54042L20.1546 9.40035L20.1943 9.25964C20.2444 9.12807 20.3319 9.01678 20.45 8.93135L20.5645 8.84602L20.6786 8.76367C20.718 8.73519 20.7521 8.70059 20.7805 8.65845L20.8601 8.53814L20.9422 8.42122C21.0154 8.3126 21.1024 8.21426 21.2026 8.12698L21.4355 7.92643C21.5824 7.79873 21.761 7.72908 21.9566 7.73011L22.2601 7.73332C22.3253 7.73361 22.3928 7.72332 22.4614 7.70492L22.6123 7.66689L22.7636 7.62588C22.9198 7.58402 23.0759 7.59158 23.2195 7.64901ZM22.813 8.41047L22.6617 8.45149C22.5291 8.48705 22.3927 8.50553 22.2565 8.50491L21.953 8.5017L21.9403 8.50611L21.8268 8.60678L21.7103 8.70706C21.6575 8.75296 21.6154 8.80208 21.582 8.85139L21.4995 8.9713L21.4203 9.08861C21.3419 9.20491 21.2455 9.30611 21.1319 9.3883L21.0174 9.47364L20.9108 9.54481L20.8914 9.66994L20.8671 9.80962C20.8499 9.90849 20.8318 10.0073 20.8105 10.1031L20.7805 10.239L20.751 10.372C20.7129 10.5428 20.6219 10.69 20.5081 10.8114L20.3949 10.9333L20.2783 11.0579C20.2436 11.095 20.2348 11.1188 20.2323 11.1309L20.1769 11.4155C20.1637 11.4836 20.1573 11.5548 20.1581 11.6288L20.1617 11.9272C20.1627 12.0193 20.1655 12.1109 20.1713 12.202L20.1824 12.3494L20.1902 12.4993C20.2 12.6562 20.1755 12.8095 20.1155 12.9546L20.0003 13.2313C19.9554 13.3394 19.9035 13.4453 19.8433 13.5482L19.7652 13.6809L19.6867 13.8165C19.6767 13.8338 19.6736 13.8434 19.6752 13.8576L19.6949 14.0091L19.712 14.1572C19.7266 14.2794 19.7295 14.4028 19.7219 14.5233L19.7121 14.6679L19.7057 14.8099C19.6979 14.9352 19.6747 15.06 19.639 15.1811L19.5963 15.3215L19.5562 15.4652C19.5477 15.4945 19.5448 15.5246 19.5527 15.562L19.6168 15.8621C19.6607 16.0648 19.6234 16.2619 19.5179 16.4328L19.4334 16.5677L19.3485 16.7055C19.3145 16.7605 19.2975 16.8102 19.2897 16.8528L19.262 16.9951L19.2373 17.1378C19.2366 17.1411 19.2321 17.1585 19.2508 17.1973L19.3993 17.5025C19.4728 17.6551 19.5135 17.8231 19.4986 17.9987L19.4862 18.14L19.4734 18.2842C19.4634 18.4017 19.4424 18.5193 19.4124 18.6349L19.3757 18.776L19.3386 18.9201C19.3144 19.0134 19.2915 19.1067 19.2686 19.1997L19.2349 19.3412L19.1978 19.4853C19.1968 19.4896 19.1948 19.5006 19.2073 19.5291L19.273 19.6775L19.3357 19.8255C19.4381 20.0593 19.4006 20.2986 19.2606 20.4935L19.1599 20.6354L19.0597 20.7743L19.053 20.7795L19.075 20.913L19.1015 21.0594C19.1276 21.2048 19.1262 21.3517 19.096 21.4964L19.0649 21.6412L19.0368 21.7865C19.0299 21.8194 19.0305 21.853 19.0415 21.8904L19.0833 22.0357L19.1254 22.178C19.1668 22.3202 19.1803 22.4675 19.1656 22.6149L19.1524 22.7621L19.1367 22.906C19.1298 22.9742 19.1292 23.0424 19.1374 23.1097L19.1549 23.2549L19.1728 23.397C19.1917 23.5517 19.1758 23.7059 19.1283 23.8532L19.0815 24.0021L19.0382 24.1241L19.1174 24.2621L19.2022 24.4039C19.3228 24.6097 19.3298 24.8433 19.2262 25.0575L19.1551 25.2063L19.0968 25.3264L19.1557 25.4344L19.2281 25.5776C19.2874 25.6892 19.3394 25.8032 19.378 25.9194L19.4235 26.0591L19.4717 26.2021C19.5266 26.3682 19.5308 26.5407 19.4875 26.7088L19.4501 26.8559L19.4096 27.0026C19.3885 27.0845 19.3747 27.1667 19.3656 27.2461L19.3333 27.5397C19.3277 27.59 19.3289 27.6384 19.3414 27.6867L19.3806 27.8286L19.4169 27.9701C19.4396 28.0577 19.4642 28.1458 19.492 28.2322L19.5832 28.5116C19.6232 28.636 19.6475 28.7649 19.6546 28.8948L19.6632 29.0388L19.6687 29.1824C19.6743 29.2845 19.6792 29.388 19.6801 29.4909L19.6792 29.6367L19.6814 29.7828C19.6818 29.8286 19.6899 29.874 19.709 29.9202L19.8249 30.1968C19.8947 30.3646 19.9079 30.5416 19.8694 30.7163L19.8341 30.8697L19.8023 31.0206L19.8015 31.0265L19.8041 31.0299L19.8807 31.1646L19.9577 31.2962C20.0601 31.4739 20.0826 31.673 20.0349 31.8686L19.9996 32.0221L19.9618 32.1722L20.0395 32.2978L20.1196 32.4299C20.2193 32.591 20.2614 32.7732 20.2384 32.9621L20.2185 33.1146L20.2016 33.2674C20.1927 33.3397 20.1915 33.4084 20.1989 33.4737L20.2164 33.6189L20.2309 33.7636C20.2318 33.7713 20.237 33.7868 20.2635 33.8165L20.4804 34.0637C20.6282 34.2295 20.6933 34.4392 20.6542 34.664L20.6276 34.8216L20.6013 34.9762C20.5914 35.0327 20.5921 35.0785 20.6012 35.116L20.6374 35.2575L20.6707 35.3987C20.6793 35.4334 20.6987 35.4716 20.7317 35.513L20.8282 35.6351L20.9277 35.7575C21.0556 35.918 21.1129 36.1124 21.0917 36.3169L21.0743 36.4727L21.0556 36.6162L21.2553 36.8551C21.3833 37.0079 21.4487 37.1954 21.44 37.396L21.424 37.7039C21.422 37.7502 21.4324 37.7865 21.4458 37.8162L21.5632 38.0808C21.6195 38.205 21.6561 38.3363 21.6731 38.4721L21.6936 38.6176L21.7107 38.7657C21.7178 38.8217 21.7336 38.8729 21.7573 38.9208L21.8875 39.1809C21.9271 39.2609 21.9696 39.342 22.0143 39.4194L22.0862 39.5443L22.1606 39.6726C22.2322 39.7968 22.2816 39.9302 22.306 40.0716L22.3295 40.2175L22.3559 40.3638C22.3572 40.3711 22.3588 40.3821 22.3785 40.4002L22.6121 40.6131C22.7376 40.728 22.8135 40.8733 22.837 41.0316L22.8428 41.1965L22.8307 41.359L22.8216 41.522C22.819 41.5591 22.8259 41.5721 22.8295 41.5777L22.9077 41.7004L22.9855 41.8261C23.0448 41.9204 23.0995 42.0185 23.1479 42.1179L23.21 42.2476L23.2751 42.3776C23.3227 42.4755 23.3646 42.5774 23.4027 42.6801L23.455 42.8146L23.504 42.9517C23.5299 43.0213 23.5617 43.0893 23.5993 43.1526L23.7489 43.4031C23.8053 43.4982 23.8565 43.596 23.902 43.6967L23.9633 43.8324L24.022 43.9647C24.0622 44.0536 24.1025 44.1428 24.142 44.2327L24.2003 44.368L24.252 44.4841C24.2554 44.4865 24.264 44.4935 24.2803 44.5L24.6212 44.6358C24.8241 44.7163 25.0014 44.8735 25.0592 45.1216L25.0947 45.2691L25.1271 45.4162C25.1382 45.4641 25.1573 45.504 25.1814 45.5358L25.358 45.7656C25.4109 45.8352 25.4653 45.9035 25.5229 45.9695L25.618 46.0792L25.716 46.1893C25.8097 46.2967 25.8817 46.4189 25.9331 46.552L25.985 46.6895L26.0395 46.8304C26.0618 46.888 26.0906 46.9392 26.1258 46.9845L26.2141 47.0994L26.3028 47.2113C26.3687 47.2963 26.4319 47.3854 26.4901 47.4759L26.5683 47.5986L26.6469 47.7183C26.6933 47.7906 26.7432 47.8606 26.7956 47.9292L26.8805 48.0467L26.9689 48.1616C27.0507 48.2689 27.1175 48.3859 27.1661 48.5127L27.2207 48.6535L27.2722 48.794C27.277 48.8064 27.2825 48.8148 27.2986 48.8248L27.4308 48.9059L27.5635 48.9841C27.6597 49.0431 27.751 49.107 27.8398 49.1722L27.9589 49.2607L28.0811 49.3496C28.2073 49.4427 28.3094 49.5596 28.3819 49.699L28.4499 49.8295L28.5176 49.9629C28.5459 50.0173 28.58 50.0654 28.6203 50.1071L28.7222 50.2116L28.8214 50.3127C28.9288 50.4237 29.0085 50.5561 29.0626 50.6999L29.1186 50.8531L29.1749 51.0033C29.1843 51.0281 29.1947 51.035 29.2035 51.0405L29.3332 51.1182L29.4624 51.199C29.4969 51.2201 29.5319 51.2338 29.5729 51.2377L29.7261 51.2517L29.8763 51.2652C29.9738 51.2741 30.0701 51.2786 30.1595 51.284L30.2982 51.293L30.4398 51.3024C30.5421 51.3086 30.646 51.3173 30.7492 51.3307L31.0331 51.3678C31.0769 51.3735 31.1188 51.372 31.1617 51.3603L31.3007 51.3207L31.4392 51.2841C31.5088 51.2651 31.5755 51.2386 31.6407 51.2071L31.9001 51.083C31.9834 51.0428 32.068 51.0004 32.1506 50.9577L32.2777 50.8922L32.4078 50.8272C32.5006 50.7792 32.5941 50.7325 32.69 50.6908L32.8253 50.6325L32.9576 50.5738C33.0531 50.5324 33.151 50.4958 33.2491 50.4599L33.3866 50.408L33.5237 50.3591C33.6177 50.3248 33.712 50.2911 33.8073 50.2593L34.0867 50.1682C34.0911 50.1667 34.1042 50.1605 34.125 50.1307L34.3119 49.8633C34.3977 49.7405 34.5012 49.6329 34.6236 49.5484L34.7441 49.4639L34.8642 49.3823C34.9686 49.3103 35.0795 49.25 35.1976 49.204L35.3351 49.1521L35.4696 49.0997C35.6251 49.0392 35.7888 49.0227 35.9518 49.0382L36.1229 49.0544L36.2761 49.0684L36.3603 48.9821L36.466 48.8713C36.5934 48.739 36.7543 48.6535 36.9362 48.6228L37.0851 48.5997L37.2374 48.574C37.2494 48.5719 37.2557 48.5666 37.2675 48.5536L37.3705 48.4394L37.4766 48.3256C37.5671 48.2263 37.6686 48.1411 37.7805 48.0705L37.9002 47.9919L38.0225 47.9167C38.0825 47.8789 38.1387 47.8335 38.1918 47.7839L38.2989 47.6854L38.403 47.5865C38.4153 47.5751 38.4253 47.5636 38.4302 47.5415L38.4924 47.2517C38.5252 47.1029 38.5864 46.964 38.6768 46.8411L38.7649 46.725L38.8135 46.6554L38.7915 46.5917C38.7787 46.5584 38.7427 46.4646 38.7524 46.3556C38.7582 46.2914 38.7853 46.1768 38.8911 46.085C38.9261 46.0546 38.964 46.0381 38.9995 46.0231L39.0219 45.9683L39.0739 45.8262C39.0866 45.791 39.0885 45.7584 39.0842 45.7242L39.0641 45.5756L39.0466 45.4305C39.0352 45.3439 39.0179 45.2565 38.9987 45.1689L38.9339 44.8747C38.9068 44.751 38.8942 44.6263 38.8945 44.5018L38.8953 44.356L38.8957 44.2132C38.8964 44.0599 38.9314 43.9124 38.9928 43.773L39.0576 43.6264L39.1189 43.4824L39.1231 43.4739L39.0723 43.3274L39.0242 43.1843C38.981 43.0574 38.9557 42.9265 38.9475 42.7944L38.9389 42.6504L38.9274 42.506C38.9211 42.403 38.92 42.2986 38.9195 42.1949L38.9169 42.0517L38.9177 41.9059C38.9173 41.8375 38.9081 41.7694 38.8927 41.7021L38.8599 41.5579L38.8267 41.4168C38.7924 41.2666 38.794 41.1142 38.8251 40.9637L38.8536 40.8155L38.8851 40.6676C38.8995 40.5977 38.9072 40.5307 38.9053 40.4666L38.8942 40.1794C38.891 40.0694 38.8955 39.9578 38.9043 39.8464L38.9145 39.6988L38.9273 39.5545C38.9318 39.4966 38.926 39.4399 38.9129 39.3855L38.8464 39.1032C38.83 39.0349 38.8064 38.9639 38.7736 38.8931L38.7067 38.7536L38.6428 38.6146C38.5804 38.4798 38.5449 38.336 38.5376 38.1874L38.5291 38.0435L38.5235 37.8999C38.5192 37.8111 38.5127 37.7221 38.5037 37.6328L38.4747 37.3433C38.4643 37.241 38.4561 37.1386 38.451 37.0363L38.4339 36.7483C38.4303 36.6758 38.4212 36.6036 38.4045 36.5317L38.3717 36.3876L38.3384 36.2465C38.2978 36.0715 38.3141 35.8974 38.372 35.7341L38.4286 35.5804L38.4825 35.4233C38.4851 35.4159 38.4871 35.4113 38.4875 35.4088L38.3717 35.1322C38.3425 35.0628 38.3057 34.9943 38.2618 34.9264L38.1758 34.7935L38.0924 34.6641C37.9788 34.4882 37.9463 34.2873 37.9918 34.0856L38.0274 33.9291L38.0597 33.7753C38.0654 33.75 38.0617 33.7418 38.0588 33.7357L37.9975 33.6L37.9358 33.4673C37.8713 33.3291 37.835 33.1807 37.8321 33.0282L37.8303 32.879L37.8282 32.7328C37.828 32.723 37.8247 32.7109 37.8068 32.6875L37.7106 32.5625L37.6149 32.4344C37.4536 32.2245 37.4451 31.9761 37.5361 31.7585L37.6062 31.5944L37.6729 31.4329L37.6189 31.3346L37.5448 31.2034C37.4849 31.0942 37.4378 30.9796 37.401 30.8623L37.358 30.726L37.3124 30.5863C37.2857 30.5014 37.2586 30.4161 37.2271 30.332L37.1752 30.1945L37.1229 30.06C37.0904 29.9733 37.0584 29.8857 37.023 29.8007L36.9673 29.6688L36.912 29.5339C36.8709 29.4351 36.8323 29.3353 36.7993 29.2335L36.7534 29.0968L36.7108 28.9575C36.66 28.8008 36.6502 28.6386 36.6761 28.4788L36.7167 28.2379L36.6191 28.1704L36.4713 28.069C36.3795 28.0051 36.2917 27.9164 36.2362 27.7981C36.1796 27.6766 36.1688 27.547 36.1874 27.427L36.2356 27.105C36.2463 27.036 36.2462 26.9777 36.2374 26.929L36.2109 26.7826L36.1858 26.6487C36.1833 26.6459 36.1768 26.6415 36.1665 26.634L36.028 26.5307L35.8865 26.4271C35.7492 26.3261 35.6337 26.1939 35.5647 26.0294L35.4532 25.7656C35.3745 25.5777 35.3828 25.3814 35.4325 25.2036L35.4798 25.0274L35.5161 24.8893L35.4574 24.8269L35.3474 24.7153C35.2153 24.5798 35.1359 24.4106 35.1173 24.2201L35.1006 24.069L35.0883 23.9306L34.9587 23.8286L34.8318 23.7299C34.6483 23.5861 34.551 23.3759 34.5622 23.1415L34.568 22.9811L34.5772 22.8182C34.5799 22.7611 34.57 22.7208 34.5573 22.691L34.502 22.5561L34.4433 22.4238C34.4427 22.4224 34.4425 22.4185 34.4385 22.414C34.4331 22.4083 34.4189 22.3971 34.3968 22.3842L34.0972 22.2113C33.9512 22.1269 33.8244 22.0111 33.7358 21.8601L33.661 21.7348L33.5892 21.6099C33.503 21.4625 33.4619 21.3003 33.4599 21.1341L33.4601 20.97L33.4569 20.8084L33.4573 20.8054L33.355 20.7039L33.2472 20.5986C33.1297 20.4828 33.0469 20.3425 33.0006 20.1834L32.9162 19.8988C32.9021 19.8504 32.8797 19.8083 32.8508 19.7717L32.7624 19.6568L32.6707 19.5445C32.5871 19.4387 32.5199 19.3215 32.4701 19.1961L32.4148 19.0612L32.3628 18.9237C32.3458 18.8808 32.321 18.8425 32.2868 18.8074L32.182 18.7025L32.0806 18.595C31.9587 18.4696 31.8795 18.3168 31.8442 18.1477L31.8125 17.9946L31.7805 17.8445C31.7662 17.7758 31.7441 17.7149 31.7165 17.6598L31.6518 17.5268L31.5868 17.3967C31.5502 17.3241 31.5069 17.2553 31.4619 17.1889L31.3834 17.0692L31.3018 16.9491C31.2744 16.9085 31.2375 16.8691 31.1892 16.834L30.939 16.6554C30.8495 16.5907 30.763 16.5235 30.6795 16.4543L30.5646 16.3572L30.4492 16.2631C30.3253 16.1605 30.2303 16.0314 30.1676 15.8828L30.1093 15.7475L30.0514 15.6093C30.0318 15.5632 30.006 15.5234 29.9728 15.4896L29.8706 15.3881L29.7687 15.2836C29.635 15.1472 29.5631 14.9766 29.5375 14.7974L29.5133 14.6331L29.4896 14.4659C29.4889 14.4613 29.4854 14.4585 29.4848 14.4561L29.3742 14.3718L29.2585 14.2806C29.1907 14.2285 29.1169 14.1773 29.041 14.1306L28.9114 14.0529L28.7821 13.9722C28.6281 13.8775 28.5101 13.7418 28.4389 13.5747L28.378 13.436L28.3205 13.2948C28.3022 13.2519 28.2772 13.2201 28.2485 13.1942L28.1425 13.0982L28.0339 12.9989C27.9658 12.9374 27.8949 12.8757 27.8237 12.8164L27.599 12.629C27.4738 12.5246 27.3795 12.395 27.3178 12.2457L27.2603 12.1045L27.2068 11.9789L27.0642 11.9299L26.9101 11.8763C26.7359 11.8159 26.5842 11.7078 26.4791 11.5464L26.3983 11.4203L26.3171 11.2972C26.2966 11.2661 26.2718 11.2426 26.2387 11.2232L26.1116 11.1488L25.9816 11.074C25.8445 10.9939 25.7306 10.8833 25.6439 10.7503L25.5658 10.6276L25.4846 10.5045C25.4573 10.4626 25.4243 10.4273 25.3857 10.4004L25.2658 10.3178L25.1463 10.2323C24.9758 10.1129 24.8766 9.94154 24.8316 9.75648L24.7899 9.5869L24.7515 9.43901L24.6534 9.39883L24.5091 9.34045C24.4187 9.30407 24.3287 9.27039 24.2397 9.23836L24.0976 9.18634L23.9551 9.13731C23.8083 9.08448 23.6779 9.00104 23.568 8.88914L23.4662 8.78464L23.364 8.68312C23.3161 8.63432 23.2582 8.58713 23.1909 8.54196L23.0628 8.45226L22.9455 8.37309L22.813 8.41047ZM39.192 46.4343L39.1843 46.5397L39.2259 46.5239L39.2336 46.4185L39.192 46.4343ZM39.2259 46.5239L39.1843 46.5397L39.192 46.4343L39.2336 46.4185L39.2259 46.5239ZM19.0321 24.1476L19.0355 24.145L19.0358 24.1421L19.0336 24.1357L19.0321 24.1476Z" fill="#FF9797"/>
<path d="M22.3247 15.9484L22.3644 15.9807L22.393 16.0232L22.5411 16.226C22.5807 16.2802 22.6149 16.3178 22.6411 16.343C22.6667 16.3676 22.6801 16.3749 22.6808 16.3753L22.9427 16.5058C23.0248 16.5469 23.1086 16.5868 23.1943 16.6253L23.4676 16.7487C23.5877 16.8027 23.6992 16.8712 23.8008 16.9537L23.9133 17.0451L24.026 17.1395C24.1497 17.2399 24.2452 17.3641 24.3124 17.5069L24.3788 17.6516L24.4479 17.7929C24.4498 17.7969 24.4507 17.7999 24.4518 17.8016L24.4551 17.8043L24.4554 17.8073L24.4617 17.8097L24.741 17.9324C24.8671 17.9889 24.9821 18.064 25.0851 18.1545L25.1948 18.2492L25.3016 18.3442C25.3826 18.4154 25.4625 18.4905 25.5368 18.5684L25.6358 18.6764L25.7375 18.7811C25.7872 18.8331 25.8432 18.8808 25.9038 18.9245L26.0219 19.0123L26.1427 19.0968C26.2715 19.1898 26.3747 19.31 26.4488 19.4501L26.517 19.5824L26.5881 19.7145C26.6233 19.781 26.6627 19.8424 26.7069 19.8961L26.8002 20.0077L26.8905 20.1196C26.9633 20.2082 27.0321 20.3002 27.092 20.3988L27.1655 20.5245L27.2421 20.65C27.2737 20.7021 27.3118 20.7487 27.3565 20.7897L27.5706 20.9857C27.626 21.0365 27.6892 21.085 27.7582 21.13L27.888 21.2136L28.0148 21.2975C28.1433 21.3813 28.2521 21.4896 28.3358 21.6189L28.4943 21.8631C28.546 21.943 28.5992 22.0225 28.6521 22.1014L28.7341 22.2202L28.8133 22.3423C28.8735 22.432 28.9319 22.5239 28.9842 22.6186L29.0551 22.7476L29.1226 22.874C29.1607 22.9429 29.2049 23.0098 29.2522 23.0727L29.3401 23.1909L29.4278 23.3061C29.5392 23.4541 29.5931 23.6261 29.6002 23.8034L29.6052 23.9695L29.6129 24.1324C29.6136 24.1498 29.6155 24.161 29.616 24.1624L29.619 24.162L29.7183 24.273L29.8173 24.381C29.8714 24.4403 29.9315 24.4991 29.999 24.5562L30.1217 24.6586L30.241 24.7585C30.405 24.8972 30.4958 25.088 30.503 25.3011L30.5071 25.4582L30.5115 25.6183C30.5126 25.6493 30.5211 25.6632 30.5293 25.6741L30.6203 25.792L30.7082 25.9101C30.8038 26.0363 30.8682 26.1803 30.8975 26.336L30.9518 26.6274C30.9548 26.6431 30.9631 26.6613 30.9883 26.6872L31.1002 26.803L31.2118 26.9157C31.2825 26.9883 31.3586 27.0959 31.3813 27.2376C31.4053 27.3895 31.359 27.5262 31.2883 27.6289L31.2116 27.7368L31.25 27.7571L31.1871 27.8817L31.1144 28.0286L30.9586 28.075L30.9089 28.0922C30.8851 28.0997 30.8416 28.1103 30.7866 28.1109C30.7311 28.1113 30.6275 28.1021 30.5323 28.025C30.4307 27.9422 30.3972 27.8323 30.3896 27.7579C30.3828 27.6902 30.3942 27.6353 30.4015 27.6082C30.4255 27.5194 30.4782 27.4407 30.4992 27.4103L30.5467 27.3418L30.4348 27.226C30.3123 27.1001 30.2271 26.9464 30.1938 26.7691L30.1395 26.4778C30.1324 26.4408 30.1165 26.4079 30.0927 26.3766L30.0048 26.2584L29.9138 26.1405C29.8026 25.9937 29.7474 25.8228 29.7414 25.6432L29.7373 25.486L29.7282 25.3385L29.6217 25.2465L29.5024 25.1467C29.4105 25.069 29.3249 24.9863 29.2467 24.9003L29.1477 24.7924L29.0484 24.6814C28.9139 24.5337 28.8509 24.3525 28.8435 24.1632L28.8358 24.0004L28.8278 23.8346C28.8261 23.7933 28.8173 23.7765 28.812 23.7695L28.6367 23.5391C28.5676 23.4473 28.505 23.35 28.4493 23.2494L28.3076 22.9913C28.2661 22.9163 28.2205 22.8429 28.1729 22.7719L28.0909 22.6531L28.0117 22.531C27.9564 22.4487 27.9006 22.3648 27.8466 22.2814L27.6881 22.0371C27.666 22.0032 27.6364 21.9718 27.5936 21.9439L27.4638 21.8603L27.337 21.7764C27.2346 21.7096 27.1385 21.635 27.0505 21.5544L26.8364 21.3584C26.7379 21.2681 26.6529 21.1653 26.5835 21.0511L26.4304 20.8003C26.3894 20.7328 26.3449 20.6682 26.2955 20.6082L26.2022 20.4966L26.1119 20.3847C26.0336 20.2894 25.9657 20.186 25.9073 20.0755L25.7649 19.8114C25.7453 19.7744 25.7228 19.7442 25.6921 19.722L25.5713 19.6375L25.4501 19.55C25.3518 19.4789 25.2602 19.3987 25.1771 19.3115L25.0784 19.2065L24.9767 19.1019C24.9182 19.0405 24.8585 18.9797 24.7947 18.9237L24.5752 18.7342C24.5333 18.6974 24.4849 18.664 24.4259 18.6375L24.2862 18.5762L24.1463 18.5118C23.9664 18.4312 23.8308 18.2953 23.7483 18.1195L23.6161 17.8362C23.5946 17.7904 23.5687 17.7594 23.5423 17.7378L23.4269 17.6467L23.3141 17.5523C23.2656 17.513 23.2101 17.4813 23.1495 17.4541L23.0158 17.3921L22.8792 17.3305C22.7836 17.2875 22.6878 17.2422 22.5957 17.1961L22.3338 17.0655C22.1662 16.9812 22.0302 16.8343 21.9184 16.6811L21.8016 16.5174L21.7622 16.4881L22.2456 15.8869L22.3247 15.9484ZM31.1332 27.5934L31.02 27.6414L31.1539 27.7064C31.1537 27.698 31.1581 27.6879 31.1571 27.6788C31.1545 27.6536 31.1444 27.625 31.1332 27.5934Z" fill="#FF9797"/>
<path d="M49.3621 24.2276C59.1191 23.2218 68.0212 28.9314 71.4709 37.6191C72.2436 39.5652 73.1376 41.4766 74.0722 43.3503C75.0395 45.2894 75.68 47.4326 75.9153 49.7154C76.9638 59.8885 69.5671 68.9855 59.394 70.0341L46.347 71.379C36.1739 72.4277 27.076 65.0309 26.0273 54.8579C25.792 52.5758 25.9823 50.3477 26.5333 48.2526C27.0659 46.2279 27.5508 44.1749 27.91 42.1123C29.514 32.9023 37.0649 25.4952 46.8228 24.4893L49.3621 24.2276Z" fill="#FFC8C8"/>
<circle cx="63.4588" cy="49.6098" r="5.09238" transform="rotate(-5.88527 63.4588 49.6098)" fill="#FFDDDD"/>
<circle cx="56.5369" cy="45.6684" r="5.09238" transform="rotate(-5.88527 56.5369 45.6684)" fill="white"/>
<circle cx="37.0564" cy="52.3324" r="5.09238" transform="rotate(-5.88527 37.0564 52.3324)" fill="#FFDDDD"/>
<circle cx="43.0291" cy="47.0629" r="5.09238" transform="rotate(-5.88527 43.0291 47.0629)" fill="white"/>
<circle cx="43.2296" cy="47.5084" r="3.2406" transform="rotate(-5.88527 43.2296 47.5084)" fill="#FF9797"/>
<path d="M43.4136 43.7554C43.6086 43.7055 43.814 43.7289 44.0041 43.84L44.3213 44.0254C44.3854 44.0628 44.4493 44.0895 44.5148 44.1036L44.8641 44.1767C45.0146 44.2089 45.1627 44.2586 45.3047 44.324L45.6406 44.4784C45.9147 44.6046 46.0653 44.846 46.1028 45.118L46.1315 45.3259L46.1599 45.5302C46.172 45.6188 46.1942 45.6681 46.2093 45.6924L46.2925 45.8292L46.3797 45.9693C46.4085 46.0157 46.4574 46.0754 46.536 46.1459L46.6923 46.2862L46.8482 46.4228C46.9142 46.4819 47.0057 46.5737 47.0617 46.6953C47.0919 46.761 47.1201 46.8565 47.1118 46.9701C47.1028 47.092 47.0506 47.1995 46.9767 47.2822L46.9183 47.35L46.9014 47.3626C46.9008 47.3678 46.9038 47.374 46.9033 47.3806L46.8883 47.5531L46.877 47.7251C46.8647 47.892 46.8237 48.0538 46.7557 48.2066L46.6882 48.3627L46.617 48.5191C46.5995 48.5585 46.5867 48.6097 46.5862 48.6786L46.5875 48.8675L46.5852 49.0568C46.5831 49.3401 46.4461 49.5837 46.2004 49.7328L46.0431 49.829L45.8821 49.9256C45.8082 49.9705 45.7496 50.0193 45.7041 50.0676L45.5893 50.1885L45.4748 50.313C45.3865 50.4065 45.2907 50.4955 45.1899 50.5823L45.0564 50.6979L44.9193 50.8138C44.7453 50.9633 44.5351 51.0435 44.3067 51.0442L43.9505 51.0446C43.8831 51.0448 43.8174 51.057 43.7541 51.0794L43.5855 51.1367L43.4172 51.1977C43.1705 51.2847 42.9163 51.255 42.6969 51.1229L42.5415 51.0262L42.3828 50.9335C42.3314 50.9026 42.2861 50.8875 42.243 50.8824L42.0702 50.8639L41.9007 50.8414C41.7501 50.8243 41.6023 50.7896 41.4573 50.738L41.2877 50.6791L41.1176 50.6167C40.9536 50.5583 40.8014 50.4751 40.6663 50.3651L40.5234 50.2489L40.3841 50.1324C40.2471 50.0207 40.1316 49.8871 40.0414 49.735L39.9488 49.5773L39.8526 49.42C39.752 49.2503 39.6976 49.063 39.6864 48.8663L39.663 48.4978C39.6575 48.4021 39.6452 48.312 39.6244 48.2291L39.5384 47.8889C39.5003 47.7372 39.4814 47.5824 39.4834 47.4256L39.4902 47.0685C39.4924 46.9111 39.513 46.7558 39.555 46.6037L39.6504 46.2594C39.6975 46.0891 39.7757 45.9297 39.8818 45.7883L39.9872 45.6466L40.0962 45.5044C40.1724 45.4029 40.2504 45.3029 40.331 45.2075L40.4447 45.0758L40.5547 44.9445C40.6849 44.7905 40.8507 44.6789 41.0406 44.6145L41.2093 44.5571L41.3743 44.5001C41.4309 44.4809 41.4821 44.4525 41.5255 44.4154L41.6558 44.3038L41.7893 44.1882L41.9387 44.0856C42.0943 43.9998 42.2698 43.9679 42.4524 43.989L42.6288 44.0072L42.8055 44.029C42.8206 44.0304 42.8445 44.0267 42.8832 44.0064L43.0521 43.9163L43.2245 43.8258L43.4136 43.7554ZM43.4857 44.7369L43.3132 44.8274C43.1248 44.9265 42.9154 44.9745 42.6968 44.9491L42.52 44.9274L42.3724 44.9062L42.259 45.0052L42.1254 45.1207C41.9917 45.2349 41.8386 45.3219 41.672 45.3784L41.5067 45.4318L41.3381 45.4891C41.3048 45.5004 41.2829 45.5175 41.2634 45.5405L41.1497 45.6722L41.04 45.8071C40.9711 45.8885 40.9029 45.973 40.837 46.0607L40.7281 46.2028L40.6227 46.3446C40.5864 46.3929 40.5611 46.4464 40.5447 46.5053L40.4493 46.8497C40.4281 46.9265 40.4162 47.004 40.4151 47.0823L40.4117 47.2608L40.4115 47.4353C40.4105 47.5138 40.4168 47.5922 40.4353 47.6656L40.4779 47.8321L40.5209 48.0022C40.5568 48.1448 40.5794 48.2921 40.5881 48.4425L40.6002 48.6303L40.6083 48.8149C40.6112 48.8645 40.6269 48.9077 40.6512 48.9486L40.8364 49.264C40.8712 49.3228 40.9158 49.3714 40.9682 49.4141L41.1111 49.5302L41.2503 49.6468C41.3047 49.6911 41.3648 49.7224 41.4277 49.7448L41.5977 49.8073L41.7674 49.8662C41.8492 49.8953 41.9289 49.9128 42.0058 49.9216L42.1754 49.9441L42.3482 49.9626C42.5317 49.9837 42.7036 50.0443 42.8609 50.1388L43.0199 50.2352L43.1439 50.3096L43.2773 50.2632L43.4459 50.2058C43.6072 50.1489 43.7748 50.1185 43.9458 50.1179L44.124 50.1177L44.3057 50.1172C44.3096 50.1171 44.3122 50.1166 44.3129 50.1164L44.3161 50.1125L44.4497 49.9969L44.5868 49.8809C44.6646 49.814 44.7369 49.746 44.8021 49.677L44.9169 49.556L45.0313 49.4315C45.1396 49.3168 45.2665 49.2186 45.4043 49.1349L45.5616 49.0387L45.6572 48.978L45.6597 48.8614L45.662 48.6721C45.6632 48.49 45.6969 48.312 45.7713 48.1445L45.8424 47.9881L45.9099 47.8321C45.9341 47.7777 45.9491 47.7187 45.9537 47.6567L45.965 47.4846L45.9803 47.3158C45.9873 47.2208 46.0045 47.0883 46.0638 46.9618L45.9198 46.8348C45.7925 46.7207 45.6796 46.5958 45.5937 46.4576L45.5069 46.3211L45.4234 46.1806C45.3236 46.0201 45.267 45.8385 45.2418 45.6539L45.2135 45.4496L45.1896 45.2885L45.0865 45.2409L44.915 45.1641C44.8321 45.126 44.7506 45.0975 44.67 45.0802L44.4954 45.0437L44.3243 45.0068C44.1593 44.9715 44.0011 44.9114 43.8548 44.8261L43.6962 44.7334L43.5956 44.6747L43.4857 44.7369Z" fill="#FF9797"/>
<circle cx="56.5558" cy="45.8951" r="3.2406" transform="rotate(-5.88527 56.5558 45.8951)" fill="#FF9797"/>
<path d="M56.7398 42.1421C56.9348 42.0922 57.1402 42.1156 57.3302 42.2267L57.6475 42.4121C57.7116 42.4495 57.7755 42.4762 57.841 42.4904L58.1903 42.5634C58.3408 42.5956 58.4889 42.6454 58.6309 42.7107L58.9668 42.8652C59.2409 42.9913 59.3914 43.2327 59.429 43.5047L59.4577 43.7126L59.486 43.9169C59.4982 44.0055 59.5204 44.0548 59.5355 44.0791L59.6187 44.216L59.7058 44.356C59.7347 44.4024 59.7836 44.4621 59.8622 44.5326L60.0185 44.6729L60.1743 44.8095C60.2403 44.8686 60.3319 44.9604 60.3879 45.082C60.4181 45.1477 60.4463 45.2432 60.438 45.3568C60.4289 45.4787 60.3768 45.5862 60.3029 45.6689L60.2445 45.7367L60.2276 45.7494C60.227 45.7545 60.2299 45.7607 60.2294 45.7673L60.2145 45.9398L60.2031 46.1118C60.1909 46.2788 60.1498 46.4405 60.0819 46.5934L60.0143 46.7494L59.9432 46.9058C59.9257 46.9452 59.9128 46.9964 59.9124 47.0653L59.9137 47.2543L59.9114 47.4436C59.9093 47.7268 59.7722 47.9705 59.5266 48.1195L59.3692 48.2157L59.2083 48.3123C59.1343 48.3572 59.0758 48.406 59.0302 48.4543L58.9154 48.5752L58.801 48.6997C58.7127 48.7933 58.6169 48.8823 58.5161 48.969L58.3826 49.0846L58.2454 49.2005C58.0715 49.3501 57.8613 49.4302 57.6329 49.4309L57.2766 49.4313C57.2093 49.4315 57.1435 49.4437 57.0802 49.4661L56.9116 49.5235L56.7434 49.5844C56.4967 49.6714 56.2425 49.6417 56.023 49.5096L55.8676 49.4129L55.709 49.3202C55.6575 49.2893 55.6123 49.2742 55.5692 49.2692L55.3964 49.2506L55.2268 49.2281C55.0762 49.211 54.9285 49.1763 54.7835 49.1247L54.6138 49.0659L54.4438 49.0034C54.2798 48.945 54.1275 48.8618 53.9924 48.7518L53.8496 48.6356L53.7103 48.5191C53.5732 48.4074 53.4578 48.2738 53.3676 48.1217L53.275 47.964L53.1787 47.8067C53.0782 47.637 53.0238 47.4497 53.0126 47.253L52.9892 46.8845C52.9837 46.7888 52.9714 46.6987 52.9506 46.6158L52.8646 46.2756C52.8264 46.1239 52.8076 45.9692 52.8095 45.8123L52.8164 45.4553C52.8186 45.2978 52.8392 45.1425 52.8812 44.9905L52.9766 44.6461C53.0237 44.4758 53.1019 44.3164 53.208 44.175L53.3134 44.0333L53.4223 43.8912C53.4986 43.7896 53.5766 43.6896 53.6571 43.5943L53.7708 43.4626L53.8809 43.3312C54.0111 43.1772 54.1769 43.0656 54.3668 43.0012L54.5354 42.9438L54.7004 42.8868C54.7571 42.8676 54.8083 42.8392 54.8517 42.8021L54.982 42.6905L55.1155 42.575L55.2649 42.4723C55.4204 42.3865 55.5959 42.3546 55.7785 42.3757L55.9549 42.3939L56.1317 42.4157C56.1468 42.4172 56.1707 42.4135 56.2094 42.3931L56.3782 42.303L56.5507 42.2125L56.7398 42.1421ZM56.8119 43.1236L56.6394 43.2141C56.451 43.3133 56.2415 43.3612 56.0229 43.3359L55.8462 43.3141L55.6986 43.2929L55.5851 43.3919L55.4516 43.5075C55.3178 43.6216 55.1648 43.7086 54.9982 43.7651L54.8328 43.8185L54.6642 43.8759C54.6309 43.8871 54.6091 43.9042 54.5895 43.9272L54.4759 44.0589L54.3661 44.1938C54.2973 44.2753 54.229 44.3598 54.1632 44.4474L54.0542 44.5896L53.9489 44.7313C53.9126 44.7797 53.8873 44.8331 53.8709 44.8921L53.7755 45.2364C53.7542 45.3133 53.7424 45.3907 53.7413 45.469L53.7379 45.6475L53.7377 45.822C53.7366 45.9005 53.7429 45.9789 53.7614 46.0523L53.8041 46.2188L53.847 46.3889C53.883 46.5315 53.9056 46.6788 53.9142 46.8292L53.9263 47.017L53.9345 47.2016C53.9374 47.2512 53.953 47.2944 53.9773 47.3353L54.1625 47.6507C54.1974 47.7095 54.242 47.7581 54.2944 47.8008L54.4372 47.9169L54.5765 48.0335C54.6309 48.0778 54.6909 48.1091 54.7539 48.1315L54.9239 48.194L55.0936 48.2529C55.1754 48.282 55.255 48.2995 55.332 48.3083L55.5016 48.3308L55.6744 48.3493C55.8579 48.3704 56.0298 48.431 56.187 48.5256L56.346 48.6219L56.4701 48.6964L56.6034 48.6499L56.772 48.5925C56.9333 48.5356 57.1009 48.5052 57.272 48.5046L57.4501 48.5044L57.6319 48.5039C57.6357 48.5038 57.6383 48.5033 57.6391 48.5031L57.6423 48.4992L57.7758 48.3836L57.913 48.2677C57.9908 48.2007 58.0631 48.1327 58.1283 48.0637L58.2431 47.9428L58.3575 47.8183C58.4658 47.7035 58.5927 47.6053 58.7305 47.5217L58.8878 47.4255L58.9834 47.3647L58.9859 47.2481L58.9882 47.0588C58.9894 46.8767 59.0231 46.6988 59.0974 46.5312L59.1686 46.3748L59.2361 46.2188C59.2603 46.1644 59.2753 46.1054 59.2798 46.0434L59.2912 45.8713L59.3065 45.7025C59.3135 45.6075 59.3307 45.475 59.39 45.3485L59.246 45.2215C59.1186 45.1074 59.0058 44.9825 58.9199 44.8443L58.8331 44.7078L58.7496 44.5673C58.6498 44.4069 58.5932 44.2253 58.568 44.0407L58.5397 43.8363L58.5158 43.6752L58.4127 43.6276L58.2412 43.5508C58.1583 43.5127 58.0768 43.4842 57.9962 43.467L57.8215 43.4304L57.6505 43.3935C57.4855 43.3583 57.3273 43.2981 57.181 43.2128L57.0224 43.1201L56.9218 43.0614L56.8119 43.1236Z" fill="#FF9797"/>
<path d="M61.9375 26.793C63.9915 27.5074 68.5816 30.5437 70.5105 36.9734" stroke="#FF7E7E" stroke-width="0.535814" stroke-linecap="round"/>
<path d="M36.0859 30.418C34.1851 31.4743 30.1842 35.2533 29.3874 41.9188" stroke="#FF7E7E" stroke-width="0.535814" stroke-linecap="round"/>
</g>
<path d="M55.6494 55.6703L55.9267 55.5181L55.8914 55.4331C55.9407 55.2757 55.8629 55.107 55.7066 55.0485L55.6148 55.0133L55.5307 54.9822L55.483 54.9206C55.416 54.8335 55.3399 54.7545 55.254 54.6876L55.1584 54.6134L55.0604 54.5395C54.957 54.459 54.8398 54.4041 54.7109 54.3797L54.4708 54.3344C54.3689 54.3151 54.2656 54.3077 54.1616 54.3105L54.0391 54.3127L53.9143 54.3175C53.8477 54.3193 53.7838 54.3167 53.7244 54.309L53.4955 54.2773C53.432 54.2691 53.3685 54.2582 53.3055 54.2418L53.192 54.2112L53.0788 54.1829C52.9629 54.1529 52.8442 54.1464 52.7258 54.1634L52.4933 54.1959C52.4659 54.1998 52.4357 54.1972 52.399 54.1854L52.1609 54.1105C52.0473 54.0737 51.9292 54.0576 51.8101 54.0637L51.6903 54.068L51.5706 54.0747C51.4139 54.0829 51.2756 54.1449 51.1622 54.2423L51.0604 54.3307L50.9742 54.403L50.8711 54.3787L50.7431 54.3494C50.5771 54.3124 50.4062 54.3402 50.2614 54.4455L50.163 54.519L50.0622 54.5926C50.0444 54.6054 50.0254 54.6116 50.0004 54.6134L49.8761 54.623L49.7516 54.6303C49.6293 54.6391 49.5123 54.6726 49.4027 54.7282L49.2949 54.7804L49.1897 54.8349C49.0731 54.894 48.9748 54.9782 48.8972 55.0819L48.8213 55.185L48.7452 55.2858C48.7026 55.3426 48.6586 55.3927 48.615 55.4359L48.5321 55.5177L48.4495 55.6018C48.4472 55.6038 48.4375 55.6117 48.4171 55.6222C48.3928 55.6347 48.3571 55.6498 48.3083 55.6647L48.1224 55.7221L48.0864 55.7306L48.0565 55.7507L47.9705 55.8008C47.8212 55.8875 47.7708 56.0774 47.8574 56.2267C47.9442 56.376 48.134 56.4265 48.2834 56.3398L48.3367 56.3076L48.4917 56.2606C48.6361 56.2163 48.7826 56.1519 48.8904 56.0449L48.9733 55.9632L49.0559 55.879C49.1228 55.8126 49.1867 55.7406 49.2459 55.6616L49.3217 55.5585L49.3978 55.4578C49.4219 55.4257 49.4476 55.4068 49.4726 55.394L49.5778 55.3396L49.6854 55.2849C49.7173 55.2687 49.7545 55.2574 49.7978 55.2543L49.9223 55.247L50.0465 55.2374C50.1865 55.2272 50.3166 55.1798 50.4305 55.0968L50.5314 55.0231L50.6142 54.9659L50.7345 54.991L50.8647 55.0176L51.0013 55.0337C51.0905 55.0328 51.1767 55.0111 51.2553 54.9697L51.3681 54.8924L51.4675 54.8041L51.5696 54.7181C51.5889 54.7015 51.599 54.7003 51.6022 54.7002L51.8415 54.6866C51.8811 54.6846 51.9234 54.6892 51.9683 54.7037L52.0876 54.7436L52.2067 54.7811C52.3279 54.8202 52.4536 54.8339 52.5808 54.8158L52.8133 54.7833C52.85 54.7781 52.8862 54.7783 52.9217 54.7875L53.0352 54.8181L53.1484 54.8464C53.2365 54.8692 53.3264 54.8872 53.4162 54.8988L53.5307 54.9146L53.6449 54.928C53.7383 54.9401 53.834 54.9445 53.931 54.9419L54.056 54.9395L54.1783 54.9349C54.2381 54.9333 54.2966 54.9389 54.3541 54.9497L54.5942 54.995C54.6247 55.0008 54.6512 55.0118 54.6763 55.0312L54.7721 55.1078L54.8702 55.1817C54.9129 55.215 54.9516 55.2561 54.9875 55.3028L55.0661 55.4032L55.1422 55.5038C55.173 55.5438 55.216 55.5924 55.2676 55.6315C55.2902 55.6485 55.3873 55.7195 55.5134 55.7106L55.6494 55.6703Z" fill="#FF9797"/>
<path d="M41.1006 65.5488L40.9014 66.8184L40.0303 72.3945L39.8857 73.3242H33.5967V74.0576H39.5215V81.3379C39.8598 79.9324 40.6063 78.7554 41.7783 77.8584L41.5898 76.7344L40.7471 71.7393L40.5869 70.7891L41.5078 70.5049C43.9584 69.7493 46.7529 69.3818 49.876 69.3818C52.7555 69.3818 55.11 69.8706 56.7715 71.0127C58.5072 72.206 59.3397 74.0088 59.3398 76.2314V89.5283H54.2988L52.75 87.9795C52.5565 88.1322 52.3535 88.2771 52.1406 88.4141C51.6082 88.769 51.0356 89.0673 50.4238 89.3076C49.8245 89.5431 49.2125 89.7255 48.5889 89.8545C47.9611 89.9844 47.3437 90.0518 46.7393 90.0518C45.6814 90.0517 44.6991 89.9373 43.8008 89.6982C42.8904 89.4706 42.0797 89.0854 41.3955 88.5234C40.6913 87.945 40.1714 87.1927 39.8213 86.3057C39.466 85.4054 39.3086 84.3591 39.3086 83.2012C39.3086 82.5871 39.3701 82.0041 39.4922 81.4551H33.5967V89.5283H24.4277V65.5488H41.1006ZM79.3203 82.5117C79.3312 82.5132 79.3418 82.5161 79.3525 82.5176C79.6363 82.5554 79.8657 82.5829 80.043 82.6006L81.0977 82.7061L81.0312 83.7637L80.7119 88.875L80.6475 89.9062H79.6143C78.1151 89.9062 76.8478 89.8625 75.8213 89.7715C74.8152 89.6823 73.9689 89.5413 73.3486 89.3184V89.3193C72.4265 88.99 71.633 88.5306 71.0498 87.8945L71.0322 87.875C70.3902 87.141 70.1504 86.1761 70.1504 85.1475V64.7568L71.168 64.6807L78.1377 64.1582L79.3203 64.0693V82.5117ZM64.5898 63.8066C65.4007 63.8066 66.1102 63.856 66.6934 63.9727L66.6924 63.9736C67.2902 64.0894 67.8542 64.3007 68.3184 64.6602L68.3193 64.6582C68.3281 64.6646 68.336 64.6722 68.3447 64.6787C68.3482 64.6814 68.352 64.6838 68.3555 64.6865L68.3545 64.6875C68.8222 65.0424 69.1435 65.5161 69.3213 66.0684C69.4869 66.5653 69.5527 67.1276 69.5527 67.7227C69.5527 68.3179 69.488 68.8809 69.3223 69.3779C69.2737 69.5235 69.2137 69.6625 69.1455 69.7959V89.5283H59.9766V70.9053L60.8604 70.7939C60.5106 70.5198 60.2273 70.1766 60.0156 69.7744C59.7042 69.1826 59.5986 68.4656 59.5986 67.7227C59.5987 67.1276 59.6635 66.5653 59.8291 66.0684C60.0068 65.5162 60.3285 65.0424 60.7959 64.6875V64.6865C60.7991 64.6839 60.8024 64.6813 60.8057 64.6787C60.8145 64.672 60.823 64.6648 60.832 64.6582V64.6602C61.2981 64.299 61.8652 64.0872 62.4658 63.9717C63.0627 63.8569 63.7773 63.8067 64.5898 63.8066ZM49.8467 82.0654C49.1654 82.0654 48.7635 82.1307 48.5576 82.1963C48.5567 82.2009 48.5556 82.2058 48.5547 82.2109C48.5449 82.2639 48.5371 82.3409 48.5371 82.4463V82.7695H48.8887C49.3566 82.7695 49.7033 82.7421 49.9463 82.6992C50.0547 82.6801 50.1252 82.6592 50.168 82.6455C50.1687 82.6412 50.1699 82.6334 50.1699 82.6211V82.0654H49.8467Z" fill="#FF7F7F" stroke="white" stroke-width="2.2"/>
</g>
<defs>
<filter id="filter0_d_782_32122" x="0.539381" y="-4.67644" width="97.972" height="108.137" filterUnits="userSpaceOnUse" color-interpolation-filters="sRGB">
<feFlood flood-opacity="0" result="BackgroundImageFix"/>
<feColorMatrix in="SourceAlpha" type="matrix" values="0 0 0 0 0 0 0 0 0 0 0 0 0 0 0 0 0 0 127 0" result="hardAlpha"/>
<feOffset/>
<feGaussianBlur stdDeviation="3.73031"/>
<feComposite in2="hardAlpha" operator="out"/>
<feColorMatrix type="matrix" values="0 0 0 0 0 0 0 0 0 0 0 0 0 0 0 0 0 0 0.25 0"/>
<feBlend mode="normal" in2="BackgroundImageFix" result="effect1_dropShadow_782_32122"/>
<feBlend mode="normal" in="SourceGraphic" in2="effect1_dropShadow_782_32122" result="shape"/>
</filter>
<clipPath id="clip0_782_32122">
<rect width="100" height="100" fill="white"/>
</clipPath>
</defs>
</svg>
