<svg width="100" height="100" viewBox="0 0 100 100" fill="none" xmlns="http://www.w3.org/2000/svg">
<g clip-path="url(#clip0_770_7342)">
<g filter="url(#filter0_d_770_7342)">
<circle cx="49.5256" cy="54.4748" r="39.7395" stroke="#A6CC00" stroke-width="3.57209"/>
<circle cx="49.7486" cy="54.6978" r="36.8372" stroke="#A6CC00" stroke-width="0.893023"/>
<path d="M76.7237 52.0207C77.1576 50.6851 79.0472 50.6851 79.4812 52.0207V52.0207C79.6752 52.618 80.2319 53.0224 80.8599 53.0224V53.0224C82.2643 53.0224 82.8482 54.8195 81.712 55.6449V55.6449C81.2039 56.0141 80.9913 56.6684 81.1854 57.2657V57.2657C81.6193 58.6013 80.0907 59.712 78.9545 58.8865V58.8865C78.4464 58.5174 77.7584 58.5174 77.2503 58.8865V58.8865C76.1142 59.712 74.5855 58.6013 75.0195 57.2657V57.2657C75.2135 56.6684 75.0009 56.0141 74.4928 55.6449V55.6449C73.3567 54.8195 73.9406 53.0224 75.3449 53.0224V53.0224C75.973 53.0224 76.5296 52.618 76.7237 52.0207V52.0207Z" fill="#D9FF33"/>
<path d="M74.7994 41.8889C74.6949 40.9114 75.9023 40.3713 76.5614 41.1007V41.1007C76.8561 41.4269 77.3274 41.5262 77.7287 41.3467V41.3467C78.6261 40.9452 79.5128 41.9266 79.0228 42.7788V42.7788C78.8037 43.16 78.8549 43.6388 79.1496 43.965V43.965C79.8087 44.6944 79.1494 45.8411 78.1874 45.6384V45.6384C77.7572 45.5477 77.3176 45.7444 77.0985 46.1255V46.1255C76.6084 46.9777 75.3142 46.705 75.2097 45.7275V45.7275C75.163 45.2904 74.8401 44.933 74.4099 44.8424V44.8424C73.448 44.6397 73.3074 43.3245 74.2048 42.9231V42.9231C74.6061 42.7435 74.8461 42.326 74.7994 41.8889V41.8889Z" fill="#CFFF00"/>
<path d="M76.8525 64.3921C77.5311 63.6809 78.7234 64.2535 78.5924 65.2278V65.2278C78.5339 65.6635 78.7625 66.0874 79.1588 66.2777V66.2777C80.045 66.7033 79.8688 68.0142 78.9017 68.1908V68.1908C78.4693 68.2697 78.1368 68.6182 78.0782 69.0539V69.0539C77.9473 70.0282 76.6461 70.2657 76.1794 69.4005V69.4005C75.9706 69.0136 75.5365 68.8051 75.104 68.8841V68.8841C74.137 69.0606 73.509 67.8965 74.1876 67.1853V67.1853C74.4911 66.8672 74.5552 66.3899 74.3465 66.0029V66.0029C73.8797 65.1378 74.7928 64.1808 75.6789 64.6064V64.6064C76.0752 64.7967 76.549 64.7102 76.8525 64.3921V64.3921Z" fill="#CFFF00"/>
<path d="M21.4326 52.0207C20.9986 50.6851 19.1091 50.6851 18.6751 52.0207V52.0207C18.481 52.618 17.9244 53.0224 17.2964 53.0224V53.0224C15.892 53.0224 15.3081 54.8195 16.4442 55.6449V55.6449C16.9523 56.0141 17.165 56.6684 16.9709 57.2657V57.2657C16.5369 58.6013 18.0656 59.712 19.2017 58.8865V58.8865C19.7098 58.5174 20.3978 58.5174 20.9059 58.8865V58.8865C22.0421 59.712 23.5708 58.6013 23.1368 57.2657V57.2657C22.9427 56.6684 23.1553 56.0141 23.6634 55.6449V55.6449C24.7996 54.8195 24.2157 53.0224 22.8113 53.0224V53.0224C22.1833 53.0224 21.6267 52.618 21.4326 52.0207V52.0207Z" fill="#D9FF33"/>
<path d="M23.3568 41.8889C23.4613 40.9114 22.2539 40.3713 21.5949 41.1007V41.1007C21.3001 41.4269 20.8288 41.5262 20.4275 41.3467V41.3467C19.5302 40.9452 18.6434 41.9266 19.1334 42.7788V42.7788C19.3526 43.16 19.3014 43.6388 19.0066 43.965V43.965C18.3476 44.6944 19.0069 45.8411 19.9688 45.6384V45.6384C20.399 45.5477 20.8386 45.7444 21.0578 46.1255V46.1255C21.5478 46.9777 22.8421 46.705 22.9465 45.7275V45.7275C22.9933 45.2904 23.3162 44.933 23.7463 44.8424V44.8424C24.7083 44.6397 24.8488 43.3245 23.9515 42.9231V42.9231C23.5502 42.7435 23.3101 42.326 23.3568 41.8889V41.8889Z" fill="#CFFF00"/>
<path d="M21.3038 64.3921C20.6252 63.6809 19.4329 64.2535 19.5638 65.2278V65.2278C19.6224 65.6635 19.3937 66.0874 18.9974 66.2777V66.2777C18.1113 66.7033 18.2874 68.0142 19.2545 68.1908V68.1908C19.687 68.2697 20.0195 68.6182 20.078 69.0539V69.0539C20.209 70.0282 21.5101 70.2657 21.9769 69.4005V69.4005C22.1856 69.0136 22.6197 68.8051 23.0522 68.8841V68.8841C24.0193 69.0606 24.6473 67.8965 23.9687 67.1853V67.1853C23.6652 66.8672 23.601 66.3899 23.8098 66.0029V66.0029C24.2765 65.1378 23.3635 64.1808 22.4773 64.6064V64.6064C22.081 64.7967 21.6072 64.7102 21.3038 64.3921V64.3921Z" fill="#CFFF00"/>
<path d="M67.7488 4.26328C56.9291 18.3341 58.2504 35.6624 60.7331 44.1727C60.9982 45.0813 61.7366 45.7554 62.6501 46.0029L68.9124 47.6998C70.0945 48.0202 71.3608 47.5589 71.9868 46.5063C80.7101 31.8379 76.4526 14.3592 72.0155 4.74222C71.2094 2.99505 68.9217 2.73792 67.7488 4.26328Z" fill="#ECFF99"/>
<path d="M68.5554 2.97913L68.432 3.08281L68.3239 3.1939L68.213 3.30599C68.1228 3.39818 68.0425 3.49764 67.9749 3.60283L67.8181 3.84899C67.7985 3.87933 67.7718 3.90628 67.7344 3.92925L67.6049 4.00632L67.4792 4.08525C67.3897 4.1402 67.3002 4.19901 67.2109 4.25859L67.0805 4.34235L66.9511 4.42895C66.7987 4.53093 66.7068 4.67504 66.6678 4.83412L66.6481 4.99739L66.6357 5.34642C66.6352 5.35958 66.6334 5.36811 66.6323 5.37316L66.5356 5.48028L66.435 5.58556C66.3341 5.69273 66.2563 5.81675 66.2027 5.95381L66.1493 6.0937L66.095 6.23075C66.081 6.26672 66.0603 6.29709 66.0314 6.32313L65.813 6.52057C65.6953 6.6268 65.6051 6.75573 65.5475 6.90357L65.4932 7.04061L65.4398 7.18051C65.438 7.18486 65.432 7.19315 65.4078 7.20764L65.1279 7.37542C64.9919 7.45683 64.887 7.57305 64.8257 7.71698L64.7801 7.87011L64.7498 8.02113L64.7223 8.17116C64.7143 8.2133 64.6995 8.24395 64.6798 8.26896L64.498 8.49831C64.4344 8.57844 64.3716 8.65987 64.3116 8.74202L64.2256 8.86139L64.1385 8.97791C64.0469 9.10336 63.9867 9.24715 63.9565 9.39885L63.8995 9.69321C63.8957 9.71221 63.888 9.72561 63.8716 9.74126L63.7587 9.84765L63.6486 9.95306C63.5651 10.0319 63.4852 10.1128 63.4117 10.1984L63.2166 10.426C63.0786 10.5871 63.0277 10.7841 63.0402 10.9822L63.06 11.3137C63.0627 11.3553 63.053 11.3682 63.0513 11.371L62.8945 11.6172C62.8157 11.7401 62.7623 11.8746 62.7341 12.0178L62.7056 12.165L62.6762 12.3093C62.6693 12.3437 62.6565 12.3742 62.6327 12.4043L62.5389 12.5199L62.4462 12.6384C62.3894 12.7096 62.3274 12.7793 62.2641 12.8487L62.1609 12.9645L62.0566 13.0775C61.9595 13.1842 61.8827 13.3049 61.828 13.438L61.7173 13.7064C61.6745 13.8109 61.6386 13.9187 61.6092 14.0282L61.5702 14.1727L61.5331 14.3133C61.4989 14.4415 61.4822 14.5733 61.4822 14.7076L61.4815 14.8611L61.4817 15.0174C61.4815 15.049 61.4738 15.0692 61.4617 15.0882L61.3843 15.2142L61.3031 15.3382C61.2233 15.464 61.1694 15.6044 61.1438 15.7512L61.1201 15.8936L61.0934 16.0369C61.0831 16.0963 61.0643 16.153 61.0376 16.2064L60.9746 16.3369L60.9087 16.4684C60.8428 16.6004 60.8049 16.7414 60.7934 16.8884L60.7688 17.1842C60.7663 17.2162 60.7565 17.2456 60.7367 17.2752L60.5686 17.5254C60.4517 17.7006 60.4203 17.902 60.4592 18.0997L60.4918 18.2575L60.5227 18.4191C60.5317 18.4662 60.5275 18.4956 60.5211 18.5154L60.4734 18.6533L60.4286 18.7903C60.4233 18.8062 60.4087 18.8358 60.3631 18.8769L60.2312 18.9931L60.1032 19.1112C59.9675 19.2328 59.8612 19.388 59.8227 19.5792L59.7961 19.7225L59.7666 19.8669C59.735 20.0253 59.7445 20.1849 59.7845 20.3394L59.8238 20.4981L59.856 20.6177L59.7725 20.717L59.6665 20.8434C59.5345 21.0003 59.4672 21.1952 59.4903 21.4091L59.5048 21.5605L59.5221 21.7108C59.5233 21.7221 59.522 21.7306 59.5121 21.7462L59.43 21.877L59.345 22.0087C59.2015 22.2342 59.2232 22.4823 59.3295 22.6876L59.4118 22.8504L59.497 23.0123L59.5177 23.0625L59.4901 23.203L59.4634 23.3463C59.4608 23.3591 59.45 23.3877 59.4103 23.4319L59.2957 23.5612L59.1774 23.6886C59.0473 23.8334 58.9629 24.0179 58.9675 24.231L58.9714 24.3797L58.9744 24.5254C58.9777 24.6713 59.0075 24.8142 59.0593 24.9523L59.1157 25.105L59.1492 25.1827L59.0628 25.2734L58.9397 25.4057C58.8631 25.4869 58.7947 25.5912 58.7648 25.7188C58.7344 25.8493 58.7493 25.9785 58.7928 26.0921L58.8511 26.241L58.9103 26.3927C58.9294 26.4425 58.931 26.4795 58.9281 26.5078L58.912 26.6538L58.8977 26.796C58.8885 26.8816 58.8755 26.9675 58.8593 27.052L58.8327 27.1954L58.805 27.3358C58.786 27.4353 58.7694 27.5372 58.7539 27.6378L58.7301 27.7801L58.7073 27.9253C58.6915 28.0277 58.6778 28.1302 58.6677 28.2328L58.6411 28.5229C58.6342 28.592 58.6182 28.6617 58.5963 28.7332L58.5545 28.8787L58.5088 29.0223C58.4388 29.2524 58.498 29.4711 58.6174 29.6451L58.7195 29.7915L58.7963 29.9019L58.7555 29.9864L58.6879 30.1312C58.6088 30.295 58.5785 30.4744 58.6132 30.6584L58.6409 30.802L58.6696 30.9484C58.6778 30.9921 58.674 31.0344 58.6637 31.0781L58.6314 31.2234L58.5981 31.3659C58.5543 31.5515 58.5782 31.7364 58.655 31.9046L58.7208 32.0476L58.7828 32.1888L58.7294 32.3287L58.6742 32.4724C58.629 32.5896 58.5958 32.7091 58.5724 32.8303L58.5154 33.1247C58.4765 33.3262 58.5198 33.5179 58.6212 33.6847L58.7051 33.8246L58.79 33.9674C58.8128 34.0051 58.816 34.0273 58.8158 34.0414L58.812 34.1863L58.8093 34.3341C58.8066 34.4534 58.8158 34.5718 58.8342 34.6893L58.8552 34.832L58.8791 34.9737C58.8929 35.0622 58.9029 35.1533 58.9123 35.243L58.9276 35.3876L58.942 35.5295C58.9527 35.6322 58.9664 35.7363 58.9824 35.8377L59.0063 35.9794L59.0273 36.1221C59.0338 36.1644 59.0323 36.211 59.0197 36.2652L58.9513 36.5635C58.9228 36.6866 58.9059 36.8113 58.9021 36.935L58.8946 37.2249C58.8903 37.3626 58.9055 37.4997 58.944 37.6322L58.987 37.7736L59.027 37.916C59.0507 37.9969 59.0713 38.0774 59.0856 38.1573L59.1105 38.3019L59.1372 38.4426C59.1595 38.5673 59.1969 38.6884 59.248 38.8061L59.3061 38.9455L59.3671 39.0838C59.3856 39.1266 59.3915 39.1663 59.3907 39.2064L59.3908 39.3532L59.3871 39.4981C59.3847 39.6231 59.396 39.7471 59.4207 39.8694L59.4484 40.013L59.479 40.1555C59.4967 40.2428 59.5099 40.3305 59.5226 40.418L59.5647 40.7034C59.5732 40.7628 59.5739 40.8288 59.5654 40.8978L59.5474 41.0477L59.5305 41.2005C59.5059 41.401 59.5562 41.5902 59.6715 41.7514L59.7637 41.8788L59.8542 42.0101C59.8876 42.0569 59.9054 42.0971 59.9131 42.1332L59.9722 42.4126C59.9858 42.4768 59.9938 42.5458 59.9931 42.6192L59.9896 42.9204C59.9885 43.0314 59.9918 43.1428 59.9999 43.252L60.0095 43.3986L60.022 43.5443C60.0339 43.7052 60.0843 43.8574 60.1692 43.9941L60.2491 44.1226L60.3252 44.2493C60.357 44.3005 60.4005 44.3636 60.4533 44.4153C60.4566 44.4186 60.4619 44.4202 60.4658 44.4237C60.4646 44.6344 60.5832 44.7897 60.6817 44.8783L60.7927 44.9769L60.9008 45.0764C60.9334 45.1057 60.96 45.1391 60.9785 45.1802L61.0985 45.4512C61.1702 45.611 61.2854 45.7427 61.4364 45.8345L61.5613 45.9091L61.6834 45.9846C61.7864 46.0472 61.8945 46.1012 62.0068 46.1432L62.1419 46.1918L62.2779 46.2433C62.3319 46.2637 62.3874 46.2943 62.4441 46.3354L62.5683 46.4262L62.6953 46.516C62.847 46.6256 63.0246 46.6812 63.2132 46.6738L63.3637 46.666L63.5152 46.6611C63.5324 46.6604 63.5444 46.6624 63.5611 46.6738L63.8132 46.8476C64.0066 46.9797 64.228 46.9978 64.434 46.9345L64.7624 46.8327C64.8236 46.8138 64.8643 46.8123 64.8908 46.8167L65.0332 46.8405L65.1794 46.8661C65.2448 46.8772 65.309 46.8947 65.3708 46.9207L65.505 46.976L65.6402 47.0342C65.6822 47.0521 65.7289 47.0826 65.7787 47.1296L66.0163 47.3532C66.1485 47.4779 66.3134 47.5637 66.5027 47.5858L66.6459 47.6029L66.792 47.619C66.8849 47.6298 66.9777 47.6427 67.0699 47.6562L67.2141 47.6761L67.3593 47.6989C67.4478 47.7118 67.5369 47.7259 67.6239 47.7439L67.9069 47.8048C67.9925 47.8226 68.0773 47.8428 68.1613 47.8662L68.3019 47.9033L68.4407 47.9443C68.5369 47.9711 68.6349 47.9944 68.7315 48.0185L69.0107 48.0871C69.1264 48.116 69.2434 48.136 69.3623 48.1433L69.5053 48.1509L69.6494 48.1613C69.796 48.1703 69.9398 48.1494 70.0785 48.1011L70.3488 48.0069C70.4304 47.9785 70.5125 47.9532 70.5937 47.9311L70.7315 47.8958L70.8682 47.8577C70.9624 47.8321 71.0605 47.8023 71.1606 47.7718L71.4492 47.6839C71.603 47.637 71.7408 47.5564 71.8577 47.4458L71.9688 47.3432L72.0788 47.2378C72.2181 47.1058 72.3029 46.9389 72.3315 46.7539L72.3805 46.4368C72.3897 46.3777 72.4062 46.3348 72.4263 46.3027L72.5047 46.1796L72.5803 46.0576C72.6521 45.9438 72.7066 45.8211 72.743 45.6912L72.823 45.408C72.8334 45.3709 72.851 45.3391 72.8779 45.309L73.075 45.0871C73.1339 45.0216 73.1987 44.9562 73.2659 44.8929L73.376 44.7875L73.4899 44.684C73.625 44.5567 73.7126 44.3946 73.7426 44.2096L73.7673 44.0606L73.7891 43.9126C73.7995 43.8485 73.8178 43.79 73.8429 43.7374L73.969 43.4764C74.0152 43.3799 74.0573 43.2798 74.0955 43.1801L74.148 43.0469L74.1996 42.9109C74.2299 42.8317 74.2632 42.7539 74.3003 42.6779L74.4263 42.4169C74.4852 42.296 74.527 42.169 74.5488 42.0358L74.5716 41.8906L74.5963 41.7416C74.6052 41.6881 74.6229 41.64 74.6477 41.596L74.7891 41.3424C74.8407 41.2506 74.8887 41.1571 74.9339 41.0621L75.06 40.8011C75.126 40.6624 75.1582 40.5133 75.1617 40.3603L75.1663 40.2087L75.1715 40.1047L75.3066 40.0161L75.4597 39.9149C75.6238 39.8067 75.7612 39.6479 75.8076 39.4297L75.8399 39.2844L75.9923 38.577C76.0101 38.4967 76.0329 38.4175 76.0596 38.3397L76.1549 38.0638C76.1939 37.9502 76.2227 37.8337 76.2407 37.7148L76.2635 37.5696L76.2835 37.4254C76.2961 37.3415 76.3139 37.2589 76.3344 37.1778L76.3716 37.0372L76.4059 36.8975C76.4261 36.8176 76.4495 36.737 76.4788 36.6582L76.5304 36.5222L76.5809 36.3833C76.6467 36.2064 76.6482 36.0242 76.5993 35.8502L76.5543 35.6935L76.518 35.553L76.5938 35.4499L76.6855 35.319C76.7933 35.169 76.8537 34.9934 76.8471 34.8031L76.8403 34.6554L76.8364 34.5068C76.8346 34.4527 76.8402 34.4017 76.8562 34.353L76.9039 34.2151L76.9477 34.0754C76.9808 33.975 77.0132 33.8741 77.0398 33.7719L77.077 33.6313L77.1132 33.4878C77.1485 33.3516 77.1579 33.2113 77.1465 33.0708L77.1369 32.9242L77.1234 32.7757C77.1186 32.7152 77.124 32.6577 77.1363 32.602L77.1696 32.4595L77.2001 32.318C77.2353 32.1606 77.2311 32.0002 77.1917 31.8454L77.1133 31.5472C77.1124 31.5436 77.1142 31.5407 77.1142 31.5405L77.116 31.5366L77.1894 31.3993L77.2647 31.2582C77.3623 31.0749 77.3824 30.872 77.3196 30.6741L77.2221 30.3761L77.2946 30.2359L77.3642 30.0968C77.4346 29.9576 77.4775 29.8072 77.4829 29.65L77.4904 29.3601C77.4955 29.2058 77.4676 29.0551 77.4109 28.9123L77.3536 28.7663L77.3042 28.643L77.4579 28.3788C77.547 28.2239 77.5921 28.0484 77.5747 27.8625L77.5498 27.5712C77.5377 27.4434 77.5083 27.318 77.4665 27.1948L77.4187 27.0487L77.3681 26.9036C77.3642 26.8919 77.3643 26.8858 77.3696 26.8711L77.421 26.7255L77.4752 26.579C77.5463 26.3825 77.5347 26.1779 77.4462 25.9922L77.3089 25.7081L77.3079 25.7053L77.3554 25.5578L77.404 25.4132C77.4664 25.2233 77.4537 25.0276 77.3724 24.8465L77.3094 24.7025L77.2446 24.5623C77.233 24.5366 77.2341 24.5201 77.2371 24.5043L77.2627 24.3581L77.2922 24.2138C77.3202 24.0683 77.321 23.9188 77.2919 23.7734L77.2614 23.6308L77.2337 23.4873C77.2159 23.3984 77.1987 23.3091 77.1852 23.2201L77.1432 22.9347C77.1337 22.8727 77.1337 22.8092 77.1406 22.7441L77.1528 22.5962L77.169 22.4501C77.1801 22.3455 77.1881 22.2402 77.1932 22.1353L77.2027 21.9883L77.2092 21.8424C77.2164 21.6971 77.1957 21.5544 77.15 21.4162L77.0585 21.1353C77.0219 21.0247 76.9778 20.9149 76.9253 20.8083L76.8558 20.6729L76.7891 20.5366C76.776 20.5099 76.774 20.4875 76.7767 20.4643L76.7928 20.3183L76.8108 20.1684C76.8195 20.0929 76.835 20.0139 76.859 19.9313L76.9501 19.625C77.0154 19.4004 76.9664 19.1784 76.8272 18.9976L76.7272 18.8665L76.6544 18.7674L76.6909 18.6525L76.7422 18.4974C76.8095 18.2973 76.7974 18.0855 76.6882 17.8938L76.5377 17.6271C76.513 17.5837 76.502 17.5439 76.4989 17.5066L76.4864 17.3609L76.4749 17.2181C76.4644 17.0933 76.439 16.9707 76.4013 16.8512L76.3555 16.7107L76.3136 16.5721C76.2997 16.5283 76.2941 16.4803 76.2982 16.4275L76.3208 16.1259C76.3331 15.965 76.3085 15.8068 76.2439 15.658L76.1239 15.3871C76.1045 15.3426 76.0958 15.2965 76.0943 15.2473L76.0904 15.0987L76.0836 14.951C76.0774 14.7303 75.9764 14.5469 75.8284 14.4112L75.7009 14.2929L75.6045 14.2084L75.6298 14.107L75.661 13.9493C75.6987 13.7698 75.6839 13.5843 75.6012 13.4116L75.4775 13.1483C75.4345 13.0586 75.3894 12.9681 75.3451 12.8784L75.2804 12.7478L75.2147 12.6143C75.1805 12.5451 75.1528 12.4741 75.1318 12.4038L75.0908 12.2681L75.0489 12.1295C75.0447 12.1149 75.0401 12.0858 75.0533 12.0322L75.1365 11.7032C75.1799 11.5282 75.1772 11.3424 75.1053 11.165L75.0491 11.0314L74.9958 10.8968C74.9395 10.758 74.8575 10.6335 74.7543 10.5245L74.6431 10.4069L74.5329 10.2921L74.528 10.2874L74.5315 9.98618C74.533 9.82234 74.4944 9.66428 74.4165 9.51878L74.3451 9.38727L74.2776 9.25761C74.2447 9.19638 74.2202 9.13395 74.2025 9.0699L74.1244 8.79074C74.1055 8.72189 74.0929 8.64873 74.0861 8.57107L74.0716 8.41972L74.06 8.26737C74.0437 8.08167 73.9684 7.91464 73.8446 7.77752L73.6375 7.54968C73.5798 7.48579 73.5281 7.41879 73.4822 7.35164L73.3976 7.22793L73.314 7.10706C73.2911 7.07352 73.279 7.0383 73.2735 6.99991L73.2514 6.85437L73.2313 6.705C73.2165 6.60144 73.1978 6.49825 73.1775 6.395L73.1201 6.1022C73.0961 5.97995 73.0599 5.86079 73.0123 5.74719L72.9561 5.61356L72.901 5.48277C72.8311 5.31625 72.7147 5.18238 72.5733 5.0831L72.4348 4.98778L72.298 4.88861C72.2519 4.85617 72.2358 4.83479 72.2314 4.82566L72.1174 4.57176C72.0823 4.49409 72.0474 4.41477 72.015 4.33296L71.9627 4.20119L71.9132 4.06842L71.8456 3.93876C71.7697 3.82018 71.6614 3.72908 71.5283 3.66953L71.3988 3.60935L71.2703 3.55201C71.2259 3.53218 71.1855 3.50525 71.1491 3.46979L71.0467 3.36825L70.9424 3.27054C70.8486 3.17914 70.7434 3.10061 70.6275 3.0356L70.3586 2.88677C70.1887 2.79174 69.9997 2.75997 69.8084 2.80089L69.5118 2.86595C69.4481 2.87954 69.3799 2.88323 69.309 2.87921L69.1535 2.87276L68.9971 2.86347C68.8356 2.85437 68.6843 2.8936 68.5554 2.97913ZM69.1088 3.64164L69.2652 3.65094C69.4023 3.65869 69.5396 3.64898 69.6728 3.62058L69.9693 3.55552L69.9827 3.55724L70.1143 3.63265L70.2487 3.70706C70.3098 3.74123 70.3611 3.78071 70.4038 3.82218L70.509 3.92273L70.6105 4.02143C70.711 4.11929 70.826 4.1987 70.954 4.25598L71.0835 4.31616L71.2023 4.3641L71.2468 4.48264L71.2992 4.61442C71.3362 4.7077 71.374 4.80074 71.4145 4.89022L71.4715 5.01716L71.5275 5.14126C71.5996 5.30076 71.7188 5.42629 71.8549 5.52187L71.9906 5.61819L72.1302 5.71636C72.1717 5.74556 72.1852 5.7671 72.1901 5.77845L72.3024 6.04572C72.3293 6.10967 72.3501 6.17812 72.3643 6.25076L72.4217 6.54355C72.4395 6.63392 72.4554 6.72421 72.4683 6.81457L72.4875 6.9611L72.5105 7.10948C72.5329 7.26508 72.5882 7.41015 72.6765 7.53996L72.8458 7.78737C72.9117 7.88396 72.9842 7.97705 73.064 8.06558L73.1676 8.17949L73.2721 8.29626C73.2854 8.31112 73.2904 8.31996 73.2917 8.33412L73.3033 8.48647L73.3168 8.63498C73.3274 8.7576 73.3498 8.87894 73.3818 8.99535L73.4209 9.13493L73.4561 9.27266C73.4894 9.39374 73.5375 9.51112 73.5972 9.62246L73.6676 9.75113L73.7361 9.88363C73.7505 9.91059 73.7595 9.93951 73.7593 9.97768L73.7578 10.2846C73.7562 10.492 73.8329 10.6774 73.9711 10.8231L74.0813 10.9379L74.1925 11.0555C74.237 11.1024 74.2638 11.1476 74.2801 11.1878L74.3363 11.3214L74.3896 11.456C74.3909 11.4591 74.3989 11.4753 74.3885 11.517L74.3054 11.8461C74.2646 12.0105 74.259 12.1833 74.3094 12.3522L74.3504 12.4879L74.3923 12.6265C74.4261 12.7395 74.4706 12.8503 74.5236 12.9574L74.5883 13.088L74.654 13.2215C74.6967 13.3079 74.7382 13.3946 74.7795 13.481L74.8414 13.6126L74.9071 13.7461C74.909 13.7501 74.9131 13.7605 74.9067 13.7909L74.8727 13.9496L74.8415 14.1073C74.7889 14.3571 74.8745 14.5837 75.0513 14.7459L75.1788 14.8643L75.3052 14.9798L75.3129 14.9835L75.3186 15.1188L75.3225 15.2674C75.3266 15.4152 75.358 15.5586 75.417 15.6941L75.477 15.8296L75.5342 15.9661C75.5476 15.9969 75.5538 16.0299 75.5508 16.0688L75.5395 16.2196L75.5273 16.3675C75.5158 16.515 75.5326 16.6621 75.5771 16.8033L75.62 16.9448L75.6648 17.0824C75.6854 17.1478 75.6999 17.2144 75.7056 17.282L75.7181 17.4277L75.7296 17.5705C75.7426 17.7257 75.7896 17.8734 75.8662 18.008L75.9424 18.1442L76.0097 18.2548L75.9603 18.4061L75.9062 18.5622C75.83 18.7883 75.8709 19.0184 76.016 19.207L76.116 19.3381L76.1975 19.4438L76.1619 19.5615L76.1202 19.7165C76.0849 19.8379 76.0573 19.9601 76.0432 20.0816L76.0271 20.2277L76.0092 20.3776C75.9893 20.5514 76.0204 20.7211 76.097 20.8768L76.1637 21.0132L76.2332 21.1485C76.2706 21.2245 76.3009 21.3021 76.326 21.3779L76.4175 21.6588C76.4333 21.7069 76.4419 21.7545 76.4395 21.8043L76.4301 21.9513L76.4235 22.0972C76.4191 22.1876 76.413 22.2789 76.4034 22.3691L76.3712 22.6612C76.3573 22.7911 76.3598 22.9223 76.3794 23.051L76.4004 23.1937L76.4242 23.3354C76.4396 23.4365 76.4559 23.5388 76.4761 23.6397L76.5066 23.7822L76.5343 23.9258C76.5433 23.9707 76.5446 24.0167 76.5353 24.0659L76.4783 24.3602C76.4442 24.5389 76.4674 24.7148 76.5407 24.8779L76.6065 25.021L76.6685 25.1621L76.6705 25.1678L76.6686 25.1717L76.6211 25.3191L76.5725 25.4637C76.5086 25.6585 76.5271 25.858 76.6138 26.0398L76.6796 26.1828L76.7473 26.322L76.6967 26.4609L76.6453 26.6065C76.5806 26.7846 76.5765 26.9715 76.6376 27.1519L76.6882 27.297L76.7359 27.4431C76.7593 27.5121 76.7745 27.5792 76.7806 27.6446L76.7931 27.7903L76.8084 27.9349C76.8091 27.9426 76.8072 27.9589 76.7873 27.9934L76.6253 28.2796C76.5145 28.472 76.4935 28.6907 76.5776 28.9027L76.6359 29.0516L76.6932 29.1976C76.7144 29.2509 76.723 29.2959 76.7218 29.3344L76.7152 29.4804L76.7114 29.6253C76.7101 29.6611 76.6989 29.7025 76.675 29.7497L76.6054 29.8889L76.533 30.029C76.4406 30.2123 76.4241 30.4142 76.4866 30.6102L76.5354 30.7592L76.583 30.8958L76.4361 31.1704C76.3421 31.3461 76.3162 31.543 76.3657 31.7375L76.4442 32.0358C76.4556 32.0806 76.4528 32.1183 76.4457 32.1501L76.3848 32.4331C76.355 32.5662 76.346 32.7022 76.357 32.8386L76.3666 32.9852L76.3801 33.1338C76.3846 33.19 76.3796 33.2433 76.3661 33.295L76.2918 33.5763C76.2693 33.6626 76.2442 33.7507 76.2162 33.8356L76.1714 33.9726L76.1247 34.1133C76.0799 34.2495 76.0588 34.3902 76.0637 34.5335L76.0705 34.6812L76.0745 34.8298C76.0747 34.8373 76.0754 34.8483 76.0598 34.8701L75.8745 35.1262C75.7751 35.2643 75.7304 35.4219 75.7397 35.5817L75.7676 35.7443L75.8127 35.901L75.8549 36.0586C75.865 36.0945 75.8608 36.1086 75.8585 36.1148L75.807 36.2509L75.7565 36.3898C75.7176 36.4942 75.6841 36.6014 75.6569 36.7086L75.6226 36.8482L75.5855 36.9888C75.5588 37.0943 75.5386 37.2026 75.5222 37.3109L75.4984 37.4533L75.4785 37.5975C75.4673 37.671 75.45 37.744 75.4261 37.8136L75.3308 38.0894C75.2949 38.194 75.2648 38.3002 75.2408 38.4081L75.2084 38.5534L75.178 38.6949C75.1568 38.7901 75.1355 38.8856 75.1152 38.9817L75.0857 39.126L75.0588 39.2503C75.0559 39.2533 75.049 39.2619 75.0343 39.2716L74.7282 39.4741C74.5461 39.5943 74.4045 39.7844 74.3986 40.0391L74.394 40.1907L74.3922 40.3413C74.3911 40.3905 74.3806 40.4334 74.3635 40.4694L74.2374 40.7304C74.1998 40.8093 74.1605 40.8874 74.1176 40.9637L74.0469 41.0905L73.9734 41.2182C73.9035 41.3426 73.858 41.4768 73.8349 41.6176L73.8121 41.7628L73.7875 41.9118C73.7774 41.9728 73.7596 42.0288 73.7345 42.0803L73.6714 42.2108L73.6074 42.3385C73.5603 42.4352 73.5166 42.5352 73.478 42.6357L73.4265 42.7718L73.374 42.905C73.3433 42.9852 73.3087 43.064 73.2715 43.1418L73.2123 43.2742L73.1492 43.4047C73.091 43.5264 73.0495 43.6545 73.0277 43.7886L73.0031 43.9376L72.9813 44.0857C72.9791 44.0988 72.9754 44.1081 72.9617 44.1212L72.8488 44.2276L72.7349 44.3311C72.6527 44.4085 72.5763 44.4897 72.5027 44.5717L72.4042 44.6826L72.3028 44.7946C72.1981 44.9115 72.1221 45.0467 72.0795 45.198L72.0395 45.3396L72.0005 45.4841C71.9839 45.543 71.9603 45.597 71.9293 45.6461L71.8509 45.7692L71.7744 45.8884C71.6919 46.019 71.6409 46.1649 71.6173 46.3167L71.5938 46.4781L71.5692 46.6366C71.5651 46.6628 71.5564 46.6717 71.5488 46.6789L71.4378 46.7814L71.3277 46.8868C71.2983 46.9145 71.2667 46.9351 71.2275 46.9473L71.0804 46.9922L70.9361 47.0361C70.8424 47.0647 70.749 47.0888 70.6626 47.1123L70.5287 47.1494L70.392 47.1875C70.293 47.2144 70.1931 47.2441 70.0949 47.2783L69.8245 47.3725C69.7827 47.387 69.7414 47.3942 69.697 47.3914L69.553 47.381L69.4099 47.3734C69.3378 47.369 69.2671 47.3567 69.1968 47.3392L68.9176 47.2706C68.8278 47.2482 68.7364 47.2239 68.6468 47.199L68.5091 47.1608L68.3684 47.1237C68.2678 47.0957 68.1667 47.069 68.0643 47.0478L67.92 47.0183L67.7785 46.9878C67.6766 46.9668 67.5733 46.9509 67.4699 46.9358L67.3247 46.913L67.1805 46.8931C67.0815 46.8786 66.9822 46.8649 66.8825 46.8533L66.5904 46.8211C66.5857 46.8205 66.5717 46.8171 66.5452 46.7921L66.3077 46.5685C66.1987 46.4658 66.0754 46.3816 65.9383 46.3238L65.8031 46.2656L65.6689 46.2103C65.552 46.1611 65.4311 46.1247 65.3062 46.1037L65.161 46.0809L65.0186 46.0571C64.854 46.0296 64.6904 46.0469 64.534 46.0952L64.3698 46.1461L64.2227 46.191L64.1226 46.1237L63.9966 46.0368C63.8448 45.9332 63.6698 45.8823 63.4855 45.8894L63.335 45.8972L63.1807 45.9031C63.1685 45.9035 63.1613 45.8995 63.1472 45.8893L63.023 45.7985L62.8959 45.7087C62.7871 45.6299 62.6703 45.5673 62.5464 45.521L62.4132 45.4685L62.2781 45.4198C62.2117 45.395 62.1473 45.362 62.0852 45.3243L61.9603 45.2497L61.8382 45.1742C61.8239 45.1655 61.8117 45.1563 61.8024 45.1356L61.6824 44.8646C61.62 44.7256 61.5316 44.6021 61.4181 44.5003L61.3082 44.4046L61.2464 44.3463L61.255 44.2795C61.2607 44.2443 61.2768 44.1451 61.245 44.0404C61.2262 43.9788 61.1764 43.872 61.054 43.8037C61.0136 43.7812 60.9732 43.7727 60.9353 43.7653L60.9022 43.7162L60.8223 43.5877C60.8027 43.5559 60.7942 43.5243 60.7914 43.4899L60.7808 43.3404L60.7683 43.1948C60.7618 43.1076 60.7609 43.0186 60.7618 42.9289L60.7653 42.6277C60.7666 42.501 60.7535 42.3764 60.7278 42.2545L60.6972 42.112L60.6677 41.9722C60.6358 41.8223 60.5714 41.6851 60.4829 41.5611L60.3896 41.4308L60.3001 41.3024L60.2943 41.2949L60.3141 41.1411L60.3321 40.9912C60.3485 40.8582 60.3466 40.7249 60.3276 40.5938L60.3066 40.4511L60.2884 40.3075C60.2736 40.2054 60.2533 40.1029 60.2328 40.0013L60.206 39.8606L60.1755 39.718C60.1619 39.651 60.1571 39.5824 60.1584 39.5133L60.1611 39.3655L60.1649 39.2206C60.1677 39.0665 60.1351 38.9176 60.074 38.7767L60.0158 38.6374L59.9548 38.4991C59.9265 38.4336 59.9053 38.3696 59.8941 38.3064L59.8463 38.023C59.827 37.9147 59.7999 37.8063 59.7685 37.699L59.7284 37.5566L59.6865 37.418C59.6702 37.3622 59.6643 37.3055 59.6661 37.2496L59.6736 36.9597C59.6757 36.8895 59.6844 36.8151 59.702 36.7391L59.739 36.589L59.7732 36.4398C59.8068 36.2951 59.8123 36.1471 59.7891 36.0002L59.7681 35.8575L59.7442 35.7158C59.7304 35.628 59.7185 35.5395 59.7091 35.4503L59.6785 35.161C59.6677 35.0587 59.6549 34.9568 59.639 34.8555L59.597 34.5702C59.5858 34.4984 59.58 34.4259 59.5816 34.3521L59.5844 34.2043L59.5881 34.0594C59.5922 33.8798 59.5407 33.7127 59.4508 33.5647L59.364 33.4257L59.2791 33.283C59.2751 33.2762 59.2722 33.2721 59.2713 33.2697L59.3283 32.9754C59.3427 32.9014 59.3648 32.8269 59.3939 32.7514L59.4509 32.6038L59.5062 32.4601C59.5815 32.2648 59.5723 32.0614 59.4867 31.8732L59.4199 31.7273L59.3569 31.5833C59.3461 31.5597 59.3482 31.551 59.3497 31.5443L59.382 31.399L59.4154 31.2565C59.4504 31.108 59.4555 30.9554 59.4273 30.8055L59.3986 30.6591L59.3709 30.5156C59.3691 30.5059 59.3698 30.4933 59.3826 30.4668L59.4512 30.3248L59.5188 30.1799C59.6339 29.9415 59.5915 29.6966 59.4581 29.5021L59.356 29.3557L59.2577 29.2112L59.2906 29.104L59.3363 28.9604C59.3727 28.8414 59.3954 28.7195 59.4076 28.5972L59.4218 28.455L59.4379 28.309C59.4467 28.2203 59.4559 28.1314 59.4695 28.0426L59.4923 27.8974L59.5161 27.755C59.5302 27.6636 59.5437 27.5712 59.561 27.4809L59.5886 27.3404L59.6153 27.197C59.6353 27.0919 59.6528 26.9863 59.6643 26.8799L59.6814 26.7367L59.6947 26.5916C59.7124 26.4279 59.6889 26.2671 59.631 26.1159L59.5421 25.8884L59.6238 25.8024L59.7479 25.673C59.8247 25.5917 59.8926 25.487 59.9228 25.3598C59.9534 25.2294 59.9375 25.1003 59.8948 24.9866L59.7819 24.6812C59.7574 24.6158 59.7456 24.5588 59.7443 24.5092L59.7404 24.3605L59.7376 24.2243C59.7395 24.221 59.745 24.2154 59.7535 24.206L59.868 24.0767L59.9854 23.9464C60.0992 23.8194 60.1853 23.6665 60.2194 23.4914L60.2746 23.2104C60.3134 23.0103 60.2652 22.8198 60.1803 22.656L60.098 22.4931L60.0343 22.3653L60.0791 22.2923L60.164 22.1605C60.2657 22.0009 60.3089 21.8191 60.2883 21.6288L60.2738 21.4775L60.2576 21.3395L60.3636 21.2132L60.4677 21.0907C60.618 20.9124 60.6704 20.6869 60.6116 20.4596L60.5732 20.3038L60.531 20.1462C60.5167 20.0909 60.5181 20.0494 60.5245 20.0176L60.5511 19.8743L60.5816 19.7328C60.5819 19.7313 60.5813 19.7274 60.5843 19.7222C60.5884 19.7155 60.6 19.7017 60.6191 19.6846L60.8771 19.4542C61.0028 19.3417 61.1034 19.2025 61.1593 19.0367L61.2069 18.8987L61.2518 18.7618C61.3061 18.5999 61.3132 18.4327 61.2812 18.2696L61.2476 18.109L61.2178 17.9502L61.2168 17.9473L61.2962 17.8271L61.3802 17.702C61.4717 17.5646 61.5241 17.4104 61.537 17.2452L61.5615 16.9494C61.5655 16.8992 61.5788 16.8533 61.5997 16.8116L61.6627 16.6811L61.7296 16.5525C61.7899 16.4318 61.8318 16.3034 61.8549 16.1704L61.8816 16.0271L61.9044 15.8819C61.9123 15.8364 61.9288 15.7939 61.955 15.7525L62.0353 15.6256L62.1136 15.5025C62.2073 15.3549 62.2537 15.1892 62.2538 15.0164L62.2535 14.8601L62.2543 14.7066C62.2543 14.6364 62.2635 14.5724 62.2793 14.5128L62.3155 14.3693L62.3526 14.2287C62.3736 14.1502 62.402 14.0739 62.4324 13.9998L62.4849 13.8666L62.5403 13.7323C62.5589 13.687 62.5869 13.6409 62.6271 13.5968L62.8356 13.3709C62.91 13.2893 62.9809 13.2058 63.0485 13.1211L63.1413 13.0026L63.235 12.8869C63.3354 12.7611 63.402 12.6154 63.4331 12.4572L63.4626 12.3128L63.4911 12.1656C63.5009 12.1165 63.518 12.0723 63.5436 12.0324L63.623 11.9122L63.7013 11.7891C63.8045 11.6283 63.84 11.4467 63.8286 11.266L63.8187 11.1003L63.8078 10.9317C63.8075 10.9271 63.8104 10.9236 63.8105 10.9212L63.9015 10.816L63.9963 10.7032C64.052 10.6383 64.1138 10.5731 64.1786 10.512L64.2896 10.4094L64.3997 10.304C64.5311 10.1799 64.619 10.0231 64.6546 9.84492L64.6859 9.69675L64.7134 9.54672C64.7226 9.50097 64.7406 9.46476 64.7634 9.43356L64.8476 9.31803L64.9336 9.19866C64.9878 9.12447 65.0446 9.04963 65.1022 8.97712L65.2839 8.74777C65.3852 8.62002 65.4511 8.47393 65.4811 8.31519L65.5086 8.16516L65.5353 8.03135L65.6648 7.95428L65.8048 7.87039C65.9631 7.77566 66.0895 7.63889 66.1595 7.45948L66.2128 7.31958L66.2672 7.18253C66.2809 7.14785 66.3004 7.11974 66.3289 7.09399L66.4381 6.99527L66.5502 6.89556C66.668 6.78918 66.757 6.65765 66.8146 6.50972L66.8662 6.37366L66.9205 6.23661C66.9387 6.19004 66.9638 6.14877 66.9961 6.11452L67.0966 6.00925L67.1962 5.90113C67.3387 5.74944 67.4009 5.56148 67.4072 5.37113L67.4134 5.19661L67.4208 5.044L67.5087 4.98466L67.6381 4.89805C67.7191 4.844 67.8003 4.79268 67.8809 4.74317L68.0094 4.66325L68.139 4.58618C68.2719 4.50451 68.3825 4.39623 68.4672 4.26427L68.5456 4.14119L68.625 4.02096C68.6619 3.96341 68.7089 3.90542 68.7656 3.84746L68.8727 3.73352L68.9714 3.63209L69.1088 3.64164ZM60.8308 44.2071L60.8598 44.3087L60.8159 44.3017L60.7868 44.2001L60.8308 44.2071ZM60.8159 44.3017L60.8598 44.3087L60.8308 44.2071L60.7868 44.2001L60.8159 44.3017ZM76.0204 18.2766L76.0166 18.2748L76.0156 18.2719L76.0165 18.2652L76.0204 18.2766Z" fill="#A6CC00"/>
<path d="M70.7554 10.9783L70.7231 11.018L70.7068 11.0651L70.6157 11.2987C70.5914 11.3612 70.5703 11.4074 70.5513 11.4386C70.5421 11.454 70.5331 11.4643 70.5275 11.4714C70.5222 11.4779 70.5194 11.4813 70.5194 11.4813L70.4111 11.5773L70.2998 11.6736C70.2308 11.7349 70.1586 11.7966 70.0854 11.8563L69.8562 12.0436C69.7541 12.1269 69.6625 12.223 69.5857 12.329L69.4161 12.5646C69.3224 12.694 69.2611 12.84 69.2332 12.9956L69.2067 13.1498L69.1805 13.307L69.1757 13.3196L69.1704 13.3262L69.0501 13.4235L68.9325 13.5174C68.8253 13.6047 68.7339 13.7071 68.6578 13.8214L68.4948 14.0625C68.4352 14.1522 68.3811 14.2453 68.3295 14.3401L68.2579 14.4686L68.1894 14.5969C68.1547 14.6606 68.1128 14.7214 68.0658 14.7793L67.9746 14.8948L67.8802 15.0075C67.7801 15.1308 67.7131 15.2738 67.6782 15.4283L67.6113 15.72C67.5948 15.7928 67.5729 15.8606 67.5444 15.9238L67.4854 16.0572L67.4262 16.1875C67.3789 16.2922 67.3372 16.4012 67.3051 16.5121L67.225 16.793C67.208 16.8515 67.1834 16.9071 67.1511 16.9582L66.9947 17.2046C66.9544 17.2681 66.9052 17.3308 66.8504 17.3922L66.75 17.5055L66.6469 17.6222C66.5452 17.7362 66.4675 17.8663 66.4205 18.0122L66.3774 18.153L66.331 18.2911C66.3019 18.3815 66.2712 18.4712 66.2407 18.5609L66.148 18.8371C66.1132 18.9394 66.0819 19.0445 66.0559 19.1496L66.0219 19.2895L65.9881 19.4323C65.9693 19.5085 65.9434 19.5823 65.9141 19.6551L65.8585 19.7911L65.8058 19.9268C65.7364 20.0988 65.7299 20.2785 65.769 20.4518L65.8037 20.6118L65.8417 20.7745L65.8445 20.8015L65.7079 21.064C65.6709 21.1355 65.6264 21.208 65.5757 21.2807L65.4861 21.4111L65.3962 21.5385C65.2733 21.7147 65.2338 21.9212 65.2814 22.1291L65.3184 22.2828L65.3525 22.4369C65.3595 22.4676 65.3579 22.4848 65.3527 22.4975L65.294 22.6338L65.2387 22.7728C65.1787 22.9185 65.1536 23.0716 65.1645 23.2289L65.1828 23.5239L65.1843 23.5389L65.1816 23.5422L65.0294 23.77C65.0025 23.8097 64.9461 23.8937 64.9254 23.9959C64.9148 24.0483 64.8981 24.1768 64.9815 24.3052C65.0736 24.4466 65.215 24.482 65.2913 24.4884L65.3462 24.4918L65.4869 24.5046L65.6054 24.4196L65.7266 24.3314L65.585 24.1339L65.6804 24.1483C65.6724 24.188 65.6601 24.2136 65.6599 24.214C65.6607 24.2127 65.6635 24.2073 65.6677 24.2011L65.702 24.1521L65.8626 24.181L65.8796 24.0823L66.0408 23.1476L65.9364 23.222L65.9318 23.1771C65.9291 23.1389 65.9355 23.1028 65.9506 23.066L66.0093 22.9297L66.0646 22.7907C66.1349 22.6202 66.1446 22.4408 66.1044 22.2654L66.0704 22.1114L66.0376 21.9693L66.1194 21.8518L66.2089 21.7214C66.2774 21.6231 66.3398 21.5234 66.3931 21.4206L66.5296 21.1581C66.6215 20.9806 66.6354 20.788 66.5936 20.6031L66.5559 20.4434L66.5212 20.2833C66.5124 20.2443 66.5171 20.2254 66.5204 20.2167L66.5761 20.0807L66.6288 19.945C66.6719 19.838 66.7096 19.7277 66.7372 19.6157L66.7713 19.4758L66.8051 19.333C66.8257 19.2492 66.8519 19.1673 66.8796 19.0859L66.9723 18.8097C67.0041 18.7161 67.0341 18.6218 67.0644 18.5275L67.1108 18.3894L67.1538 18.2487C67.1662 18.2106 67.1875 18.1734 67.221 18.1357L67.3244 18.022L67.4275 17.9053C67.5086 17.8144 67.5827 17.7197 67.6465 17.6192L67.8029 17.3728C67.8746 17.2597 67.9279 17.1363 67.9652 17.0076L68.0453 16.7266C68.0674 16.6505 68.0965 16.577 68.1286 16.506L68.1879 16.3756L68.2469 16.2423C68.2976 16.1299 68.3376 16.0126 68.3651 15.8907L68.3986 15.7449L68.4317 15.596C68.441 15.5562 68.4554 15.5231 68.4788 15.4942L68.5732 15.3815L68.6673 15.2657C68.7438 15.1715 68.8088 15.0694 68.8665 14.9634L68.9383 14.8378L69.0069 14.7096C69.0477 14.6345 69.0916 14.561 69.1388 14.4899L69.2203 14.3694L69.2988 14.2492C69.3299 14.2025 69.3716 14.1592 69.4217 14.1184L69.6562 13.9246C69.809 13.8002 69.9056 13.6342 69.94 13.4438L69.9662 13.2866L69.9927 13.1324C70.0018 13.0818 70.0191 13.0458 70.0385 13.0186L70.1263 12.9005L70.2112 12.7826C70.2477 12.7323 70.2901 12.6843 70.3421 12.6419L70.4597 12.548L70.5742 12.4543C70.6554 12.3881 70.7337 12.3195 70.8108 12.2512L70.9221 12.1549L71.0304 12.0589C71.1711 11.9342 71.2665 11.7564 71.3354 11.579L71.4068 11.3899L71.4364 11.3535L70.8136 10.8965L70.7554 10.9783Z" fill="#A6CC00"/>
<path d="M24.2711 8.74552C37.7337 20.3134 39.975 37.5469 39.2806 46.3846C39.2064 47.3282 38.621 48.1387 37.7772 48.5674L31.9928 51.5061C30.9008 52.0608 29.5671 51.8676 28.7395 50.9648C17.2075 38.3843 17.8099 20.4047 20.1919 10.0848C20.6247 8.20988 22.8117 7.4915 24.2711 8.74552Z" fill="#ECFF99"/>
<path d="M23.2195 7.65292L23.3615 7.72924L23.49 7.81595L23.6215 7.90305C23.7286 7.9749 23.8275 8.05588 23.9151 8.14508L24.1188 8.35409C24.1442 8.37978 24.1758 8.40072 24.2171 8.41558L24.3596 8.46461L24.4988 8.51624C24.5976 8.55178 24.6972 8.5911 24.7968 8.63119L24.9416 8.68659L25.0859 8.74498C25.2559 8.81373 25.3752 8.93607 25.4459 9.08384L25.4985 9.23965L25.5818 9.57883C25.5849 9.59161 25.5885 9.59959 25.5906 9.6043L25.7071 9.68944L25.8271 9.77199C25.9477 9.85632 26.0492 9.96186 26.1296 10.0851L26.2104 10.2112L26.2916 10.3343C26.3126 10.3666 26.3391 10.3921 26.3726 10.4117L26.6267 10.5604C26.7636 10.6404 26.8782 10.7483 26.9648 10.8812L27.0459 11.0043L27.1267 11.1304C27.1293 11.1343 27.1369 11.1412 27.1636 11.1504L27.4718 11.2576C27.6216 11.3095 27.748 11.4019 27.8374 11.5303L27.9132 11.6709L27.9737 11.8126L28.0312 11.9538C28.0476 11.9935 28.0683 12.0205 28.0928 12.0409L28.3176 12.2284C28.3962 12.2938 28.4742 12.3607 28.5497 12.4289L28.6583 12.5282L28.7673 12.6245C28.8826 12.7287 28.9709 12.8571 29.0313 12.9995L29.1472 13.2761C29.1547 13.2939 29.1651 13.3054 29.1843 13.3174L29.3166 13.3985L29.4458 13.4792C29.5436 13.5394 29.6384 13.6023 29.7278 13.6711L29.9652 13.8541C30.1332 13.9837 30.2232 14.1661 30.2513 14.3627L30.2996 14.6912C30.3055 14.7324 30.3176 14.7432 30.3198 14.7455L30.5235 14.9545C30.6257 15.0588 30.7054 15.1796 30.7622 15.314L30.8202 15.4523L30.8785 15.5876C30.8922 15.6199 30.9109 15.6471 30.9404 15.6717L31.0558 15.7658L31.1707 15.8629C31.2409 15.921 31.3158 15.9766 31.3919 16.0316L31.5166 16.1239L31.6417 16.2132C31.7586 16.2979 31.8583 16.4004 31.939 16.5196L32.1022 16.7597C32.1654 16.8532 32.2225 16.9514 32.2736 17.0527L32.3413 17.1861L32.4063 17.3162C32.4659 17.4348 32.5092 17.5604 32.5365 17.6919L32.5686 17.842L32.6002 17.9951C32.6069 18.026 32.6186 18.0442 32.6343 18.0603L32.7357 18.1678L32.8406 18.2727C32.9444 18.3796 33.0257 18.506 33.0807 18.6446L33.133 18.7791L33.1883 18.914C33.2106 18.97 33.2406 19.0217 33.2776 19.0685L33.3659 19.1834L33.4572 19.2987C33.5486 19.4145 33.6145 19.5447 33.6558 19.6863L33.7401 19.9709C33.7491 20.0017 33.7647 20.0285 33.7901 20.0535L34.0058 20.264C34.1559 20.4118 34.2277 20.6025 34.23 20.804L34.2302 20.9651L34.2331 21.1296C34.2338 21.1776 34.2439 21.2055 34.2542 21.2236L34.329 21.3489L34.4008 21.4738C34.4093 21.4883 34.4296 21.5143 34.4827 21.5453L34.6355 21.6321L34.7849 21.7215C34.9425 21.8129 35.0783 21.9432 35.1549 22.1225L35.2103 22.2574L35.2686 22.3927C35.3318 22.5414 35.355 22.6995 35.3474 22.8589L35.3413 23.0223L35.3342 23.146L35.4362 23.2262L35.5657 23.3282C35.7269 23.4549 35.8326 23.632 35.8536 23.8461L35.8704 23.9973L35.8841 24.148C35.8852 24.1593 35.8882 24.1673 35.9011 24.1806L36.0081 24.2919L36.1182 24.4035C36.3047 24.5949 36.334 24.8423 36.2718 25.065L36.2245 25.2412L36.1741 25.4169L36.1641 25.4704L36.2198 25.6023L36.2751 25.7372C36.2803 25.7491 36.2967 25.7749 36.3446 25.8101L36.4831 25.9133L36.625 26.0139C36.7818 26.1291 36.9021 26.2924 36.9411 26.5021L36.9676 26.6484L36.9944 26.7917C37.0209 26.9352 37.0209 27.0812 36.9983 27.2269L36.9742 27.3879L36.9573 27.4708L37.0605 27.542L37.2079 27.6464C37.2995 27.7103 37.3877 27.7984 37.443 27.9173C37.4994 28.0388 37.5112 28.1683 37.4918 28.2884L37.4651 28.446L37.438 28.6066C37.4295 28.6593 37.4355 28.6959 37.4441 28.7229L37.4897 28.8626L37.5326 28.9989C37.5592 29.0808 37.5894 29.1622 37.6225 29.2417L37.6778 29.3766L37.7335 29.5085C37.7724 29.6019 37.8095 29.6983 37.8452 29.7936L37.8975 29.9281L37.9494 30.0656C37.9858 30.1626 38.0201 30.2602 38.051 30.3585L38.1361 30.6371C38.157 30.7034 38.1869 30.7684 38.2229 30.8339L38.2935 30.9677L38.3675 31.099C38.483 31.31 38.4696 31.5362 38.3883 31.7309L38.3182 31.895L38.2655 32.0188L38.3227 32.0932L38.4184 32.2212C38.5293 32.3654 38.5956 32.5348 38.5991 32.722L38.6013 32.8682L38.6031 33.0174C38.6039 33.0618 38.6162 33.1025 38.6352 33.1432L38.6965 33.2789L38.7582 33.4115C38.8389 33.5843 38.8532 33.7702 38.8124 33.9506L38.7771 34.104L38.7452 34.2549L38.826 34.3809L38.9094 34.5104C38.9776 34.6158 39.0345 34.7261 39.0821 34.8399L39.198 35.1165C39.2771 35.3058 39.2738 35.5024 39.2086 35.6863L39.155 35.8404L39.101 35.9975C39.0864 36.0391 39.0878 36.0615 39.0909 36.0752L39.1241 36.2163L39.1569 36.3604C39.1839 36.4767 39.199 36.5944 39.205 36.7132L39.2135 36.8572L39.2191 37.0008C39.2236 37.0903 39.2324 37.1815 39.2415 37.2712L39.256 37.4159L39.2709 37.5577C39.2813 37.6605 39.2892 37.7652 39.2942 37.8678L39.2997 38.0113L39.3083 38.1553C39.3105 38.1981 39.3215 38.2434 39.3449 38.2939L39.4727 38.572C39.5257 38.6866 39.5676 38.8052 39.5966 38.9256L39.6631 39.2078C39.6954 39.3418 39.7085 39.4791 39.6978 39.6166L39.6846 39.7638L39.6744 39.9115C39.6678 39.9955 39.664 40.0785 39.6663 40.1596L39.6715 40.3062L39.674 40.4494C39.6777 40.576 39.6657 40.7022 39.6397 40.8279L39.6112 40.9762L39.5798 41.124C39.5703 41.1697 39.5727 41.2098 39.5817 41.2489L39.6115 41.3926L39.6447 41.5338C39.6726 41.6556 39.6867 41.7793 39.6875 41.9041L39.6897 42.0503L39.6888 42.1961C39.6894 42.2852 39.6942 42.3737 39.6997 42.4619L39.7167 42.7499C39.7205 42.8098 39.7333 42.8746 39.7557 42.9404L39.8038 43.0835L39.8516 43.2295C39.9166 43.4208 39.9059 43.6163 39.826 43.7976L39.7616 43.9412L39.6998 44.0881C39.6767 44.1408 39.6674 44.1838 39.6673 44.2207L39.6665 44.5063C39.6662 44.5719 39.6725 44.6411 39.6881 44.7128L39.753 45.007C39.7767 45.1154 39.7962 45.2251 39.8106 45.3337L39.8311 45.4792L39.8486 45.6244C39.8697 45.7843 39.8514 45.9435 39.7962 46.0947L39.7442 46.2369L39.6955 46.3764C39.6749 46.4329 39.6452 46.5037 39.604 46.565C39.6014 46.5689 39.5965 46.5715 39.5935 46.5758C39.6376 46.7818 39.5531 46.958 39.4748 47.0649L39.3863 47.184L39.3007 47.3035C39.2748 47.3388 39.2556 47.377 39.2459 47.421L39.1837 47.7107C39.1461 47.8818 39.0602 48.0343 38.9311 48.1549L38.824 48.2534L38.7199 48.3523C38.6318 48.4345 38.537 48.5095 38.4356 48.5735L38.3133 48.6487L38.1906 48.7268C38.1419 48.7578 38.0939 48.799 38.0467 48.8509L37.9437 48.9651L37.8376 49.0789C37.7115 49.2172 37.549 49.3078 37.3629 49.339L37.2139 49.3621L37.0646 49.3882C37.0476 49.391 37.0362 49.3955 37.0223 49.41L36.8109 49.6316C36.6485 49.8003 36.4355 49.8633 36.2209 49.8432L35.8787 49.8106C35.8148 49.8046 35.7747 49.8115 35.7496 49.8211L35.6151 49.8735L35.4772 49.9284C35.4154 49.9526 35.3562 49.9828 35.301 50.0208L35.1805 50.1054L35.0604 50.187C35.0229 50.213 34.9835 50.2524 34.9442 50.3086L34.7573 50.5759C34.6532 50.725 34.5093 50.8427 34.3285 50.9028L34.1918 50.9488L34.0521 50.9944C33.9633 51.0239 33.8752 51.0555 33.7877 51.0875L33.6506 51.1364L33.5131 51.1883C33.429 51.219 33.3447 51.251 33.2632 51.2864L32.9986 51.4038C32.9184 51.4386 32.8395 51.4757 32.762 51.5157L32.632 51.5808L32.5045 51.6492C32.4157 51.6951 32.3245 51.7379 32.2349 51.7811L31.9755 51.9053C31.8682 51.9571 31.7577 52.0006 31.6428 52.032L31.5043 52.0686L31.3654 52.1082C31.2237 52.1469 31.0787 52.1558 30.9331 52.1368L30.6492 52.0997C30.5635 52.0885 30.478 52.0805 30.394 52.0754L30.2519 52.069L30.1103 52.0596C30.0129 52.0537 29.9107 52.0446 29.8065 52.0351L29.5061 52.008C29.3459 51.9935 29.1945 51.9426 29.0576 51.8582L28.9279 51.7804L28.7987 51.6997C28.6354 51.5989 28.5184 51.4528 28.4526 51.2775L28.3399 50.9771C28.3189 50.9211 28.294 50.8824 28.2677 50.8552L28.1659 50.7507L28.067 50.6466C27.9735 50.5499 27.8952 50.4409 27.833 50.3211L27.6969 50.0602C27.6791 50.026 27.6555 49.9984 27.623 49.9745L27.3847 49.7975C27.3138 49.7453 27.2369 49.6945 27.1583 49.6463L27.029 49.5655L26.8963 49.4874C26.7382 49.3904 26.6192 49.2495 26.5521 49.0746L26.4976 48.9337L26.446 48.7933C26.4228 48.7327 26.3929 48.6791 26.3576 48.6328L26.181 48.403C26.116 48.3179 26.0544 48.2285 25.9966 48.1387L25.9181 48.019L25.8399 47.8964C25.794 47.8251 25.7456 47.7557 25.6938 47.6888L25.5171 47.459C25.4348 47.3527 25.368 47.2369 25.3194 47.111L25.2675 46.9735L25.213 46.8326C25.1934 46.782 25.1662 46.7386 25.133 46.7006L24.9428 46.4812C24.8736 46.4018 24.8075 46.3201 24.7438 46.2363L24.5672 46.0065C24.4742 45.8842 24.4123 45.7448 24.3777 45.5957L24.3423 45.4482L24.3159 45.3475L24.1656 45.2883L23.9951 45.2205C23.8124 45.148 23.6454 45.0206 23.5555 44.8165L23.4942 44.6808L23.2008 44.0193C23.1669 43.9443 23.1284 43.8714 23.0865 43.8007L22.9369 43.5501C22.8755 43.4469 22.8236 43.3387 22.7817 43.2259L22.7297 43.0884L22.6808 42.9513C22.6513 42.8718 22.6171 42.7945 22.5804 42.7193L22.5154 42.5892L22.4533 42.4595C22.4172 42.3855 22.3778 42.3113 22.333 42.2402L22.2548 42.1175L22.177 41.9918C22.0766 41.8321 22.0379 41.654 22.0502 41.4737L22.0624 41.3111L22.0692 41.1661L21.974 41.0807L21.8576 40.9713C21.7213 40.8464 21.6264 40.6868 21.5941 40.4991L21.5706 40.3532L21.5441 40.2069C21.5349 40.1536 21.519 40.1048 21.4934 40.0604L21.4185 39.9351L21.3471 39.8072C21.2943 39.7157 21.2419 39.6236 21.195 39.529L21.13 39.3989L21.0653 39.2658C21.003 39.1396 20.9651 39.0042 20.9476 38.8644L20.9271 38.7189L20.91 38.5707C20.9024 38.5105 20.8854 38.4554 20.8619 38.4033L20.8003 38.2707L20.7416 38.1384C20.675 37.9914 20.6464 37.8335 20.6533 37.6739L20.6693 37.366C20.6695 37.3623 20.6671 37.3598 20.6671 37.3596L20.6645 37.3562L20.5646 37.2368L20.4621 37.114C20.3292 36.9545 20.2681 36.7599 20.2892 36.5533L20.3239 36.2418L20.2244 36.1193L20.1278 35.9973C20.0305 35.8753 19.9578 35.7369 19.9205 35.5841L19.854 35.3019C19.8175 35.1518 19.8141 34.9986 19.8405 34.8472L19.8668 34.6926L19.89 34.5619L19.6856 34.3346C19.5668 34.2011 19.4868 34.0384 19.4659 33.8529L19.4309 33.5626C19.4166 33.4351 19.4199 33.3063 19.4357 33.1772L19.4526 33.0244L19.4726 32.872C19.474 32.8598 19.4727 32.8538 19.4645 32.8406L19.3845 32.7085L19.3015 32.5761C19.1918 32.3982 19.1615 32.1956 19.2102 31.9957L19.2867 31.6896L19.2871 31.6866L19.2105 31.552L19.1335 31.4203C19.0336 31.2472 19.0061 31.053 19.0488 30.8591L19.0811 30.7053L19.1159 30.5548C19.122 30.5273 19.1176 30.5113 19.1114 30.4965L19.0565 30.3586L18.9982 30.2233C18.9411 30.0866 18.9098 29.9404 18.9086 29.7921L18.9095 29.6463L18.9073 29.5001C18.9066 29.4095 18.9051 29.3185 18.9002 29.2287L18.8832 28.9407C18.8797 28.8781 18.8669 28.8159 18.8468 28.7536L18.8046 28.6113L18.7591 28.4716C18.7268 28.3714 18.6975 28.27 18.6711 28.1683L18.6319 28.0264L18.5957 27.8849C18.5591 27.744 18.5502 27.6001 18.5667 27.4555L18.599 27.1619C18.6122 27.0461 18.633 26.9296 18.6626 26.8146L18.7031 26.6679L18.7406 26.5208C18.748 26.492 18.7453 26.4696 18.738 26.4475L18.6924 26.3078L18.6443 26.1647C18.6203 26.0926 18.589 26.0184 18.5487 25.9425L18.397 25.6613C18.2873 25.4547 18.29 25.2273 18.3894 25.022L18.4605 24.8732L18.5116 24.7613L18.4524 24.6563L18.3706 24.5149C18.2639 24.3328 18.2325 24.123 18.3003 23.913L18.3932 23.6212C18.4086 23.5736 18.4111 23.5324 18.4066 23.4953L18.3891 23.3501L18.3712 23.208C18.356 23.0837 18.3559 22.9585 18.3685 22.8338L18.3846 22.6869L18.3974 22.5427C18.402 22.497 18.3977 22.4488 18.3829 22.3979L18.2993 22.1074C18.2544 21.9523 18.2462 21.7924 18.2792 21.6336L18.3414 21.3438C18.3513 21.2964 18.3504 21.2495 18.3418 21.201L18.3153 21.0547L18.2919 20.9088C18.2528 20.6914 18.3143 20.4913 18.4316 20.3283L18.5322 20.1864L18.6094 20.084L18.564 19.9899L18.5013 19.8419C18.4276 19.6739 18.4044 19.4892 18.4501 19.3033L18.5175 19.0203C18.5412 18.9237 18.5669 18.8259 18.592 18.7291L18.6287 18.588L18.6658 18.4439C18.6852 18.3692 18.6978 18.2941 18.7041 18.221L18.7164 18.0797L18.7292 17.9355C18.7304 17.9204 18.7289 17.8909 18.7051 17.8411L18.5565 17.536C18.4783 17.3736 18.443 17.1912 18.4773 17.0028L18.505 16.8605L18.5297 16.7179C18.5565 16.5706 18.6114 16.4319 18.6902 16.3042L18.7751 16.1664L18.8596 16.0315L18.8634 16.0259L18.7985 15.7317C18.7636 15.5716 18.7692 15.409 18.8158 15.2507L18.8588 15.1074L18.8985 14.9666C18.9181 14.9 18.9294 14.8339 18.9336 14.7676L18.9532 14.4783C18.9577 14.4071 18.955 14.3329 18.9459 14.2555L18.9292 14.1044L18.9095 13.9529C18.8876 13.7677 18.9272 13.5889 19.0205 13.4294L19.1767 13.1641C19.2202 13.0897 19.2571 13.0136 19.2883 12.9385L19.3459 12.8001L19.4031 12.6648C19.4187 12.6273 19.4233 12.5903 19.4209 12.5516L19.4128 12.4046L19.4021 12.2543C19.3954 12.1499 19.3927 12.045 19.3915 11.9398L19.3879 11.6415C19.3865 11.5169 19.3976 11.3929 19.4211 11.2719L19.4488 11.1297L19.4761 10.9904C19.5105 10.8131 19.5972 10.6583 19.7153 10.5323L19.8315 10.4107L19.9451 10.2857C19.9837 10.2445 19.9951 10.2203 19.9975 10.2105L20.0574 9.93868C20.0759 9.85548 20.0938 9.77071 20.1089 9.68401L20.1333 9.54433L20.1546 9.40426L20.1943 9.26354C20.2444 9.13197 20.3319 9.02069 20.45 8.93526L20.5645 8.84992L20.6786 8.76757C20.718 8.7391 20.7521 8.70449 20.7805 8.66235L20.8601 8.54205L20.9422 8.42513C21.0154 8.31651 21.1024 8.21817 21.2026 8.13089L21.4355 7.93033C21.5824 7.80264 21.761 7.73298 21.9566 7.73402L22.2601 7.73723C22.3253 7.73752 22.3928 7.72722 22.4614 7.70883L22.6123 7.6708L22.7636 7.62978C22.9198 7.58793 23.0759 7.59548 23.2195 7.65292ZM22.813 8.41438L22.6617 8.4554C22.5291 8.49096 22.3927 8.50944 22.2565 8.50881L21.953 8.5056L21.9403 8.51002L21.8268 8.61069L21.7103 8.71097C21.6575 8.75687 21.6154 8.80598 21.582 8.85529L21.4995 8.9752L21.4203 9.09252C21.3419 9.20882 21.2455 9.31002 21.1319 9.3922L21.0174 9.47754L20.9108 9.54872L20.8914 9.67384L20.8671 9.81352C20.8499 9.91239 20.8318 10.0112 20.8105 10.107L20.7805 10.243L20.751 10.3759C20.7129 10.5467 20.6219 10.6939 20.5081 10.8153L20.3949 10.9372L20.2783 11.0618C20.2436 11.0989 20.2348 11.1227 20.2323 11.1348L20.1769 11.4194C20.1637 11.4875 20.1573 11.5587 20.1581 11.6327L20.1617 11.9311C20.1627 12.0232 20.1655 12.1148 20.1713 12.2059L20.1824 12.3533L20.1902 12.5032C20.2 12.6601 20.1755 12.8134 20.1155 12.9585L20.0003 13.2353C19.9554 13.3433 19.9035 13.4492 19.8433 13.5521L19.7652 13.6848L19.6867 13.8204C19.6767 13.8377 19.6736 13.8473 19.6752 13.8615L19.6949 14.013L19.712 14.1611C19.7266 14.2833 19.7295 14.4067 19.7219 14.5272L19.7121 14.6718L19.7057 14.8138C19.6979 14.9391 19.6747 15.0639 19.639 15.185L19.5963 15.3254L19.5562 15.4691C19.5477 15.4984 19.5448 15.5285 19.5527 15.5659L19.6168 15.8661C19.6607 16.0687 19.6234 16.2658 19.5179 16.4367L19.4334 16.5716L19.3485 16.7094C19.3145 16.7644 19.2975 16.8141 19.2897 16.8568L19.262 16.999L19.2373 17.1417C19.2366 17.145 19.2321 17.1624 19.2508 17.2012L19.3993 17.5064C19.4728 17.659 19.5135 17.827 19.4986 18.0026L19.4862 18.1439L19.4734 18.2881C19.4634 18.4056 19.4424 18.5232 19.4124 18.6388L19.3757 18.7799L19.3386 18.924C19.3144 19.0173 19.2915 19.1106 19.2686 19.2036L19.2349 19.3451L19.1978 19.4892C19.1968 19.4935 19.1948 19.5045 19.2073 19.533L19.273 19.6814L19.3357 19.8294C19.4381 20.0632 19.4006 20.3025 19.2606 20.4974L19.1599 20.6393L19.0597 20.7782L19.053 20.7834L19.075 20.9169L19.1015 21.0633C19.1276 21.2087 19.1262 21.3556 19.096 21.5003L19.0649 21.6451L19.0368 21.7904C19.0299 21.8233 19.0305 21.8569 19.0415 21.8944L19.0833 22.0396L19.1254 22.1819C19.1668 22.3241 19.1803 22.4714 19.1656 22.6188L19.1524 22.766L19.1367 22.9099C19.1298 22.9781 19.1292 23.0463 19.1374 23.1136L19.1549 23.2588L19.1728 23.4009C19.1917 23.5556 19.1758 23.7098 19.1283 23.8571L19.0815 24.006L19.0382 24.128L19.1174 24.2661L19.2022 24.4078C19.3228 24.6136 19.3298 24.8472 19.2262 25.0615L19.1551 25.2102L19.0968 25.3303L19.1557 25.4383L19.2281 25.5815C19.2874 25.6931 19.3394 25.8071 19.378 25.9233L19.4235 26.063L19.4717 26.206C19.5266 26.3721 19.5308 26.5446 19.4875 26.7127L19.4501 26.8598L19.4096 27.0065C19.3885 27.0884 19.3747 27.1706 19.3656 27.25L19.3333 27.5436C19.3277 27.5939 19.3289 27.6423 19.3414 27.6906L19.3806 27.8325L19.4169 27.974C19.4396 28.0616 19.4642 28.1497 19.492 28.2361L19.5832 28.5155C19.6232 28.6399 19.6475 28.7688 19.6546 28.8987L19.6632 29.0427L19.6687 29.1863C19.6743 29.2884 19.6792 29.3919 19.6801 29.4948L19.6792 29.6406L19.6814 29.7868C19.6818 29.8325 19.6899 29.8779 19.709 29.9241L19.8249 30.2007C19.8947 30.3686 19.9079 30.5455 19.8694 30.7202L19.8341 30.8736L19.8023 31.0245L19.8015 31.0305L19.8041 31.0338L19.8807 31.1685L19.9577 31.3001C20.0601 31.4778 20.0826 31.6769 20.0349 31.8725L19.9996 32.026L19.9618 32.1761L20.0395 32.3017L20.1196 32.4338C20.2193 32.5949 20.2614 32.7771 20.2384 32.9661L20.2185 33.1185L20.2016 33.2713C20.1927 33.3436 20.1915 33.4123 20.1989 33.4776L20.2164 33.6228L20.2309 33.7675C20.2318 33.7752 20.237 33.7907 20.2635 33.8204L20.4804 34.0676C20.6282 34.2334 20.6933 34.4431 20.6542 34.6679L20.6276 34.8255L20.6013 34.9801C20.5914 35.0366 20.5921 35.0824 20.6012 35.1199L20.6374 35.2614L20.6707 35.4026C20.6793 35.4373 20.6987 35.4756 20.7317 35.5169L20.8282 35.639L20.9277 35.7614C21.0556 35.9219 21.1129 36.1163 21.0917 36.3209L21.0743 36.4766L21.0556 36.6201L21.2553 36.859C21.3833 37.0118 21.4487 37.1993 21.44 37.3999L21.424 37.7078C21.422 37.7541 21.4324 37.7904 21.4458 37.8201L21.5632 38.0847C21.6195 38.2089 21.6561 38.3402 21.6731 38.476L21.6936 38.6215L21.7107 38.7696C21.7178 38.8256 21.7336 38.8768 21.7573 38.9247L21.8875 39.1849C21.9271 39.2648 21.9696 39.3459 22.0143 39.4233L22.0862 39.5482L22.1606 39.6765C22.2322 39.8007 22.2816 39.9341 22.306 40.0755L22.3295 40.2214L22.3559 40.3677C22.3572 40.375 22.3588 40.386 22.3785 40.4041L22.6121 40.617C22.7376 40.7319 22.8135 40.8772 22.837 41.0355L22.8428 41.2004L22.8307 41.3629L22.8216 41.5259C22.819 41.5631 22.8259 41.576 22.8295 41.5816L22.9077 41.7043L22.9855 41.83C23.0448 41.9243 23.0995 42.0224 23.1479 42.1218L23.21 42.2515L23.2751 42.3816C23.3227 42.4794 23.3646 42.5813 23.4027 42.684L23.455 42.8185L23.504 42.9556C23.5299 43.0253 23.5617 43.0932 23.5993 43.1565L23.7489 43.4071C23.8053 43.5021 23.8565 43.5999 23.902 43.7006L23.9633 43.8363L24.022 43.9686C24.0622 44.0575 24.1025 44.1467 24.142 44.2366L24.2003 44.3719L24.252 44.4881C24.2554 44.4904 24.264 44.4974 24.2803 44.5039L24.6212 44.6397C24.8241 44.7202 25.0014 44.8774 25.0592 45.1255L25.0947 45.273L25.1271 45.4201C25.1382 45.468 25.1573 45.5079 25.1814 45.5397L25.358 45.7695C25.4109 45.8391 25.4653 45.9074 25.5229 45.9734L25.618 46.0831L25.716 46.1932C25.8097 46.3006 25.8817 46.4228 25.9331 46.5559L25.985 46.6934L26.0395 46.8343C26.0618 46.8919 26.0906 46.9431 26.1258 46.9884L26.2141 47.1033L26.3028 47.2152C26.3687 47.3003 26.4319 47.3893 26.4901 47.4798L26.5683 47.6025L26.6469 47.7222C26.6933 47.7945 26.7432 47.8645 26.7956 47.9331L26.8805 48.0506L26.9689 48.1655C27.0507 48.2728 27.1175 48.3898 27.1661 48.5166L27.2207 48.6574L27.2722 48.7979C27.277 48.8104 27.2825 48.8187 27.2986 48.8287L27.4308 48.9098L27.5635 48.988C27.6597 49.047 27.751 49.1109 27.8398 49.1761L27.9589 49.2646L28.0811 49.3535C28.2073 49.4466 28.3094 49.5635 28.3819 49.7029L28.4499 49.8334L28.5176 49.9668C28.5459 50.0212 28.58 50.0693 28.6203 50.111L28.7222 50.2155L28.8214 50.3166C28.9288 50.4276 29.0085 50.56 29.0626 50.7038L29.1186 50.857L29.1749 51.0072C29.1843 51.032 29.1947 51.039 29.2035 51.0444L29.3332 51.1221L29.4624 51.2029C29.4969 51.224 29.5319 51.2377 29.5729 51.2416L29.7261 51.2556L29.8763 51.2691C29.9738 51.278 30.0701 51.2825 30.1595 51.2879L30.2982 51.2969L30.4398 51.3063C30.5421 51.3125 30.646 51.3212 30.7492 51.3346L31.0331 51.3717C31.0769 51.3774 31.1188 51.376 31.1617 51.3642L31.3007 51.3246L31.4392 51.288C31.5088 51.269 31.5755 51.2425 31.6407 51.211L31.9001 51.0869C31.9834 51.0467 32.068 51.0043 32.1506 50.9616L32.2777 50.8961L32.4078 50.8311C32.5006 50.7831 32.5941 50.7364 32.69 50.6947L32.8253 50.6364L32.9576 50.5777C33.0531 50.5363 33.151 50.4997 33.2491 50.4638L33.3866 50.4119L33.5237 50.363C33.6177 50.3287 33.712 50.295 33.8073 50.2633L34.0867 50.1721C34.0911 50.1706 34.1042 50.1644 34.125 50.1346L34.3119 49.8672C34.3977 49.7444 34.5012 49.6368 34.6236 49.5523L34.7441 49.4678L34.8642 49.3862C34.9686 49.3142 35.0795 49.2539 35.1976 49.2079L35.3351 49.156L35.4696 49.1036C35.6251 49.0431 35.7888 49.0266 35.9518 49.0421L36.1229 49.0584L36.2761 49.0723L36.3603 48.986L36.466 48.8752C36.5934 48.7429 36.7543 48.6574 36.9362 48.6267L37.0851 48.6036L37.2374 48.5779C37.2494 48.5758 37.2557 48.5705 37.2675 48.5575L37.3705 48.4433L37.4766 48.3295C37.5671 48.2302 37.6686 48.145 37.7805 48.0744L37.9002 47.9958L38.0225 47.9206C38.0825 47.8828 38.1387 47.8374 38.1918 47.7878L38.2989 47.6893L38.403 47.5904C38.4153 47.579 38.4253 47.5675 38.4302 47.5454L38.4924 47.2556C38.5252 47.1068 38.5864 46.9679 38.6768 46.8451L38.7649 46.7289L38.8135 46.6593L38.7915 46.5956C38.7787 46.5623 38.7427 46.4685 38.7524 46.3595C38.7582 46.2953 38.7853 46.1807 38.8911 46.0889C38.9261 46.0586 38.964 46.042 38.9995 46.027L39.0219 45.9722L39.0739 45.8301C39.0866 45.7949 39.0885 45.7623 39.0842 45.7281L39.0641 45.5795L39.0466 45.4344C39.0352 45.3478 39.0179 45.2604 38.9987 45.1728L38.9339 44.8786C38.9068 44.7549 38.8942 44.6302 38.8945 44.5057L38.8953 44.3599L38.8957 44.2171C38.8964 44.0638 38.9314 43.9163 38.9928 43.7769L39.0576 43.6303L39.1189 43.4863L39.1231 43.4778L39.0723 43.3313L39.0242 43.1882C38.981 43.0613 38.9557 42.9304 38.9475 42.7983L38.9389 42.6543L38.9274 42.5099C38.9211 42.4069 38.92 42.3025 38.9195 42.1988L38.9169 42.0556L38.9177 41.9098C38.9173 41.8414 38.9081 41.7733 38.8927 41.706L38.8599 41.5618L38.8267 41.4207C38.7924 41.2705 38.794 41.1181 38.8251 40.9676L38.8536 40.8194L38.8851 40.6715C38.8995 40.6017 38.9072 40.5346 38.9053 40.4705L38.8942 40.1833C38.891 40.0733 38.8955 39.9617 38.9043 39.8503L38.9145 39.7027L38.9273 39.5584C38.9318 39.5005 38.926 39.4438 38.9129 39.3894L38.8464 39.1071C38.83 39.0388 38.8064 38.9678 38.7736 38.897L38.7067 38.7576L38.6428 38.6185C38.5804 38.4837 38.5449 38.3399 38.5376 38.1913L38.5291 38.0474L38.5235 37.9038C38.5192 37.815 38.5127 37.726 38.5037 37.6368L38.4747 37.3472C38.4643 37.2449 38.4561 37.1425 38.451 37.0402L38.4339 36.7522C38.4303 36.6797 38.4212 36.6076 38.4045 36.5356L38.3717 36.3915L38.3384 36.2504C38.2978 36.0754 38.3141 35.9013 38.372 35.738L38.4286 35.5843L38.4825 35.4272C38.4851 35.4198 38.4871 35.4152 38.4875 35.4127L38.3717 35.1361C38.3425 35.0667 38.3057 34.9982 38.2618 34.9303L38.1758 34.7974L38.0924 34.668C37.9788 34.4922 37.9463 34.2912 37.9918 34.0895L38.0274 33.933L38.0597 33.7792C38.0654 33.7539 38.0617 33.7457 38.0588 33.7396L37.9975 33.6039L37.9358 33.4712C37.8713 33.333 37.835 33.1846 37.8321 33.0321L37.8303 32.8829L37.8282 32.7367C37.828 32.7269 37.8247 32.7148 37.8068 32.6914L37.7106 32.5664L37.6149 32.4383C37.4536 32.2284 37.4451 31.98 37.5361 31.7624L37.6062 31.5983L37.6729 31.4368L37.6189 31.3385L37.5448 31.2073C37.4849 31.0981 37.4378 30.9835 37.401 30.8663L37.358 30.7299L37.3124 30.5902C37.2857 30.5053 37.2586 30.42 37.2271 30.3359L37.1752 30.1984L37.1229 30.0639C37.0904 29.9772 37.0584 29.8896 37.023 29.8047L36.9673 29.6727L36.912 29.5379C36.8709 29.439 36.8323 29.3392 36.7993 29.2374L36.7534 29.1007L36.7108 28.9614C36.66 28.8047 36.6502 28.6425 36.6761 28.4827L36.7167 28.2418L36.6191 28.1743L36.4713 28.0729C36.3795 28.009 36.2917 27.9203 36.2362 27.802C36.1796 27.6806 36.1688 27.5509 36.1874 27.4309L36.2356 27.1089C36.2463 27.0399 36.2462 26.9816 36.2374 26.9329L36.2109 26.7865L36.1858 26.6526C36.1833 26.6498 36.1768 26.6454 36.1665 26.6379L36.028 26.5347L35.8865 26.4311C35.7492 26.33 35.6337 26.1978 35.5647 26.0333L35.4532 25.7695C35.3745 25.5816 35.3828 25.3853 35.4325 25.2075L35.4798 25.0313L35.5161 24.8932L35.4574 24.8308L35.3474 24.7192C35.2153 24.5837 35.1359 24.4145 35.1173 24.224L35.1006 24.0729L35.0883 23.9345L34.9587 23.8325L34.8318 23.7338C34.6483 23.59 34.551 23.3798 34.5622 23.1454L34.568 22.985L34.5772 22.8221C34.5799 22.7651 34.57 22.7247 34.5573 22.6949L34.502 22.56L34.4433 22.4277C34.4427 22.4263 34.4425 22.4224 34.4385 22.4179C34.4331 22.4122 34.4189 22.401 34.3968 22.3882L34.0972 22.2152C33.9512 22.1308 33.8244 22.015 33.7358 21.864L33.661 21.7387L33.5892 21.6139C33.503 21.4664 33.4619 21.3042 33.4599 21.138L33.4601 20.9739L33.4569 20.8123L33.4573 20.8094L33.355 20.7078L33.2472 20.6026C33.1297 20.4867 33.0469 20.3464 33.0006 20.1873L32.9162 19.9027C32.9021 19.8544 32.8797 19.8122 32.8508 19.7756L32.7624 19.6607L32.6707 19.5484C32.5871 19.4426 32.5199 19.3254 32.4701 19.2L32.4148 19.0651L32.3628 18.9276C32.3458 18.8847 32.321 18.8465 32.2868 18.8113L32.182 18.7064L32.0806 18.5989C31.9587 18.4735 31.8795 18.3207 31.8442 18.1516L31.8125 17.9985L31.7805 17.8484C31.7662 17.7797 31.7441 17.7189 31.7165 17.6637L31.6518 17.5307L31.5868 17.4006C31.5502 17.328 31.5069 17.2592 31.4619 17.1928L31.3834 17.0731L31.3018 16.953C31.2744 16.9124 31.2375 16.873 31.1892 16.8379L30.939 16.6593C30.8495 16.5946 30.763 16.5274 30.6795 16.4582L30.5646 16.3611L30.4492 16.267C30.3253 16.1644 30.2303 16.0354 30.1676 15.8867L30.1093 15.7514L30.0514 15.6132C30.0318 15.5671 30.006 15.5273 29.9728 15.4935L29.8706 15.392L29.7687 15.2875C29.635 15.1511 29.5631 14.9805 29.5375 14.8013L29.5133 14.637L29.4896 14.4698C29.4889 14.4652 29.4854 14.4624 29.4848 14.46L29.3742 14.3757L29.2585 14.2846C29.1907 14.2324 29.1169 14.1812 29.041 14.1345L28.9114 14.0568L28.7821 13.9761C28.6281 13.8814 28.5101 13.7457 28.4389 13.5786L28.378 13.4399L28.3205 13.2987C28.3022 13.2558 28.2772 13.224 28.2485 13.1981L28.1425 13.1022L28.0339 13.0028C27.9658 12.9413 27.8949 12.8796 27.8237 12.8203L27.599 12.6329C27.4738 12.5285 27.3795 12.3989 27.3178 12.2496L27.2603 12.1084L27.2068 11.9828L27.0642 11.9338L26.9101 11.8802C26.7359 11.8198 26.5842 11.7117 26.4791 11.5503L26.3983 11.4242L26.3171 11.3011C26.2966 11.27 26.2718 11.2465 26.2387 11.2271L26.1116 11.1527L25.9816 11.0779C25.8445 10.9978 25.7306 10.8872 25.6439 10.7542L25.5658 10.6315L25.4846 10.5084C25.4573 10.4665 25.4243 10.4312 25.3857 10.4043L25.2658 10.3217L25.1463 10.2362C24.9758 10.1168 24.8766 9.94545 24.8316 9.76039L24.7899 9.5908L24.7515 9.44292L24.6534 9.40274L24.5091 9.34435C24.4187 9.30798 24.3287 9.27429 24.2397 9.24227L24.0976 9.19025L23.9551 9.14122C23.8083 9.08839 23.6779 9.00495 23.568 8.89305L23.4662 8.78855L23.364 8.68703C23.3161 8.63822 23.2582 8.59104 23.1909 8.54586L23.0628 8.45617L22.9455 8.377L22.813 8.41438ZM39.192 46.4382L39.1843 46.5436L39.2259 46.5278L39.2336 46.4224L39.192 46.4382ZM39.2259 46.5278L39.1843 46.5436L39.192 46.4382L39.2336 46.4224L39.2259 46.5278ZM19.0321 24.1515L19.0355 24.149L19.0358 24.146L19.0336 24.1396L19.0321 24.1515Z" fill="#A6CC00"/>
<path d="M22.3247 15.9484L22.3644 15.9807L22.393 16.0232L22.5411 16.226C22.5807 16.2802 22.6149 16.3178 22.6411 16.343C22.6667 16.3676 22.6801 16.3749 22.6808 16.3753L22.9427 16.5058C23.0248 16.5469 23.1086 16.5868 23.1943 16.6253L23.4676 16.7487C23.5877 16.8027 23.6992 16.8712 23.8008 16.9537L23.9133 17.0451L24.026 17.1395C24.1497 17.2399 24.2452 17.3641 24.3124 17.5069L24.3788 17.6516L24.4479 17.7929C24.4498 17.7969 24.4507 17.7999 24.4518 17.8016L24.4551 17.8043L24.4554 17.8073L24.4617 17.8097L24.741 17.9324C24.8671 17.9889 24.9821 18.064 25.0851 18.1545L25.1948 18.2492L25.3016 18.3442C25.3826 18.4154 25.4625 18.4905 25.5368 18.5684L25.6358 18.6764L25.7375 18.7811C25.7872 18.8331 25.8432 18.8808 25.9038 18.9245L26.0219 19.0123L26.1427 19.0968C26.2715 19.1898 26.3747 19.31 26.4488 19.4501L26.517 19.5824L26.5881 19.7145C26.6233 19.781 26.6627 19.8424 26.7069 19.8961L26.8002 20.0077L26.8905 20.1196C26.9633 20.2082 27.0321 20.3002 27.092 20.3988L27.1655 20.5245L27.2421 20.65C27.2737 20.7021 27.3118 20.7487 27.3565 20.7897L27.5706 20.9857C27.626 21.0365 27.6892 21.085 27.7582 21.13L27.888 21.2136L28.0148 21.2975C28.1433 21.3813 28.2521 21.4896 28.3358 21.6189L28.4943 21.8631C28.546 21.943 28.5992 22.0225 28.6521 22.1014L28.7341 22.2202L28.8133 22.3423C28.8735 22.432 28.9319 22.5239 28.9842 22.6186L29.0551 22.7476L29.1226 22.874C29.1607 22.9429 29.2049 23.0098 29.2522 23.0727L29.3401 23.1909L29.4278 23.3061C29.5392 23.4541 29.5931 23.6261 29.6002 23.8034L29.6052 23.9695L29.6129 24.1324C29.6136 24.1498 29.6155 24.161 29.616 24.1624L29.619 24.162L29.7183 24.273L29.8173 24.381C29.8714 24.4403 29.9315 24.4991 29.999 24.5562L30.1217 24.6586L30.241 24.7585C30.405 24.8972 30.4958 25.088 30.503 25.3011L30.5071 25.4582L30.5115 25.6183C30.5126 25.6493 30.5211 25.6632 30.5293 25.6741L30.6203 25.792L30.7082 25.9101C30.8038 26.0363 30.8682 26.1803 30.8975 26.336L30.9518 26.6274C30.9548 26.6431 30.9631 26.6613 30.9883 26.6872L31.1002 26.803L31.2118 26.9157C31.2825 26.9883 31.3586 27.0959 31.3813 27.2376C31.4053 27.3895 31.359 27.5262 31.2883 27.6289L31.2116 27.7368L31.25 27.7571L31.1871 27.8817L31.1144 28.0286L30.9586 28.075L30.9089 28.0922C30.8851 28.0997 30.8416 28.1103 30.7866 28.1109C30.7311 28.1113 30.6275 28.1021 30.5323 28.025C30.4307 27.9422 30.3972 27.8323 30.3896 27.7579C30.3828 27.6902 30.3942 27.6353 30.4015 27.6082C30.4255 27.5194 30.4782 27.4407 30.4992 27.4103L30.5467 27.3418L30.4348 27.226C30.3123 27.1001 30.2271 26.9464 30.1938 26.7691L30.1395 26.4778C30.1324 26.4408 30.1165 26.4079 30.0927 26.3766L30.0048 26.2584L29.9138 26.1405C29.8026 25.9937 29.7474 25.8228 29.7414 25.6432L29.7373 25.486L29.7282 25.3385L29.6217 25.2465L29.5024 25.1467C29.4105 25.069 29.3249 24.9863 29.2467 24.9003L29.1477 24.7924L29.0484 24.6814C28.9139 24.5337 28.8509 24.3525 28.8435 24.1632L28.8358 24.0004L28.8278 23.8346C28.8261 23.7933 28.8173 23.7765 28.812 23.7695L28.6367 23.5391C28.5676 23.4473 28.505 23.35 28.4493 23.2494L28.3076 22.9913C28.2661 22.9163 28.2205 22.8429 28.1729 22.7719L28.0909 22.6531L28.0117 22.531C27.9564 22.4487 27.9006 22.3648 27.8466 22.2814L27.6881 22.0371C27.666 22.0032 27.6364 21.9718 27.5936 21.9439L27.4638 21.8603L27.337 21.7764C27.2346 21.7096 27.1385 21.635 27.0505 21.5544L26.8364 21.3584C26.7379 21.2681 26.6529 21.1653 26.5835 21.0511L26.4304 20.8003C26.3894 20.7328 26.3449 20.6682 26.2955 20.6082L26.2022 20.4966L26.1119 20.3847C26.0336 20.2894 25.9657 20.186 25.9073 20.0755L25.7649 19.8114C25.7453 19.7744 25.7228 19.7442 25.6921 19.722L25.5713 19.6375L25.4501 19.55C25.3518 19.4789 25.2602 19.3987 25.1771 19.3115L25.0784 19.2065L24.9767 19.1019C24.9182 19.0405 24.8585 18.9797 24.7947 18.9237L24.5752 18.7342C24.5333 18.6974 24.4849 18.664 24.4259 18.6375L24.2862 18.5762L24.1463 18.5118C23.9664 18.4312 23.8308 18.2953 23.7483 18.1195L23.6161 17.8362C23.5946 17.7904 23.5687 17.7594 23.5423 17.7378L23.4269 17.6467L23.3141 17.5523C23.2656 17.513 23.2101 17.4813 23.1495 17.4541L23.0158 17.3921L22.8792 17.3305C22.7836 17.2875 22.6878 17.2422 22.5957 17.1961L22.3338 17.0655C22.1662 16.9812 22.0302 16.8343 21.9184 16.6811L21.8016 16.5174L21.7622 16.4881L22.2456 15.8869L22.3247 15.9484ZM31.1332 27.5934L31.02 27.6414L31.1539 27.7064C31.1537 27.698 31.1581 27.6879 31.1571 27.6788C31.1545 27.6536 31.1444 27.625 31.1332 27.5934Z" fill="#A6CC00"/>
<path d="M49.3621 24.2276C59.1191 23.2218 68.0212 28.9314 71.4709 37.6191C72.2436 39.5652 73.1376 41.4766 74.0722 43.3503C75.0395 45.2894 75.68 47.4326 75.9153 49.7154C76.9638 59.8885 69.5671 68.9855 59.394 70.0341L46.347 71.379C36.1739 72.4277 27.076 65.0309 26.0273 54.8579C25.792 52.5758 25.9823 50.3477 26.5333 48.2526C27.0659 46.2279 27.5508 44.1749 27.91 42.1123C29.514 32.9023 37.0649 25.4952 46.8228 24.4893L49.3621 24.2276Z" fill="#ECFF99"/>
<circle cx="63.4588" cy="49.6098" r="5.09238" transform="rotate(-5.88527 63.4588 49.6098)" fill="#D9FF33"/>
<circle cx="56.5369" cy="45.6723" r="5.09238" transform="rotate(-5.88527 56.5369 45.6723)" fill="white"/>
<path d="M51.1326 52.2968C51.3196 52.2627 51.5068 52.274 51.6884 52.3268L51.8609 52.3781L52.0331 52.4258C52.2084 52.4767 52.3688 52.5628 52.51 52.6784L52.6489 52.7914L52.7881 52.9079C52.9361 53.029 53.0536 53.1778 53.1321 53.3524L53.2035 53.5159L53.2785 53.6791C53.3342 53.8031 53.3824 53.9293 53.4229 54.0569L53.4767 54.2258L53.5265 54.3916C53.5451 54.4505 53.5637 54.5037 53.5755 54.5502C53.5837 54.5821 53.6007 54.6568 53.6016 54.7329L53.6021 54.7728L53.603 54.8164C53.6037 54.8738 53.5958 54.9721 53.5861 55.0763L53.5562 55.4211C53.5401 55.5948 53.4892 55.7621 53.4073 55.9164L53.3279 56.0628L53.2488 56.2127C53.2232 56.2611 53.204 56.3225 53.1918 56.4004L53.16 56.5855L53.1321 56.7738C53.1115 56.9045 53.0606 57.0419 52.9573 57.159C52.8531 57.277 52.7215 57.3466 52.5913 57.3822L52.4107 57.4299L52.2338 57.4772C52.1253 57.5067 52.0268 57.538 51.9379 57.5695L51.7873 57.625L51.6327 57.6773C51.4812 57.7311 51.3234 57.7583 51.1615 57.7623L50.9841 57.7696L50.81 57.773C50.5538 57.7792 50.3224 57.6759 50.1548 57.4843L49.9237 57.2172C49.8685 57.1541 49.8066 57.0965 49.7389 57.0472L49.5935 56.9422L49.4522 56.8404C49.2317 56.6799 49.1161 56.4391 49.118 56.1731L49.1174 55.9914L49.1204 55.8093C49.1209 55.7443 49.1107 55.6903 49.0926 55.6449L49.0288 55.4842L48.9617 55.3275C48.9026 55.181 48.8669 55.0253 48.8487 54.8665L48.8266 54.687L48.8081 54.5071C48.7873 54.3238 48.8049 54.1406 48.8575 53.9639L48.9084 53.7878L48.9626 53.6077C49.0181 53.4215 49.1119 53.2536 49.2421 53.1098L49.4968 52.829C49.6464 52.6639 49.8375 52.5554 50.0565 52.5096L50.2414 52.4687L50.423 52.4318C50.5489 52.4055 50.672 52.3829 50.7902 52.3612L51.1326 52.2968ZM50.9567 53.2712C50.8471 53.2913 50.7331 53.3144 50.6147 53.3392L50.2443 53.4137C50.2195 53.4191 50.2023 53.4313 50.1828 53.4528L49.9282 53.7335C49.8897 53.7764 49.8631 53.8218 49.848 53.8727L49.7974 54.0524L49.7429 54.2289C49.7248 54.2899 49.7219 54.3488 49.7283 54.405L49.7469 54.5849L49.769 54.7644C49.7783 54.8446 49.7945 54.9167 49.8204 54.9809L49.8875 55.1376L49.9513 55.2982C50.0177 55.4633 50.0459 55.6383 50.0446 55.8158L50.0452 55.9976L50.0398 56.1217L50.1383 56.1952L50.2836 56.3002C50.4068 56.39 50.5204 56.4925 50.6207 56.6072L50.823 56.8409L50.9611 56.8412L51.1389 56.8374C51.2117 56.8357 51.2736 56.8256 51.3249 56.8074L51.4755 56.7518L51.6301 56.6995C51.7436 56.6593 51.865 56.6206 51.9929 56.5858L52.1698 56.5385L52.2331 56.5174L52.2472 56.4432L52.2755 56.2585C52.3017 56.0897 52.3536 55.9265 52.4331 55.7769L52.5125 55.6305L52.5916 55.4806C52.6146 55.4369 52.6261 55.3889 52.6311 55.3347L52.65 55.1655L52.6649 54.9931C52.67 54.9383 52.6749 54.8955 52.6772 54.8645L52.677 54.8282L52.6762 54.7847L52.6743 54.7667C52.6683 54.7445 52.6595 54.7131 52.6463 54.6714L52.5926 54.5024L52.5391 54.337C52.5099 54.2448 52.4755 54.1525 52.4343 54.0606L52.3593 53.8974L52.2879 53.7339C52.2689 53.6915 52.2422 53.6541 52.2037 53.6226L52.0612 53.51L51.922 53.3935C51.8773 53.3572 51.8293 53.3334 51.776 53.3176L51.4309 53.2151C51.383 53.2011 51.3403 53.1993 51.2992 53.2068L50.9567 53.2712Z" fill="#A6CC00"/>
<circle cx="37.0545" cy="52.3324" r="5.09238" transform="rotate(-5.88527 37.0545 52.3324)" fill="#D9FF33"/>
<circle cx="43.0271" cy="47.0629" r="5.09238" transform="rotate(-5.88527 43.0271 47.0629)" fill="white"/>
<circle cx="43.2277" cy="47.5084" r="3.2406" transform="rotate(-5.88527 43.2277 47.5084)" fill="#A6CC00"/>
<path d="M43.4117 43.7554C43.6066 43.7055 43.812 43.7289 44.0021 43.84L44.3194 44.0254C44.3835 44.0628 44.4473 44.0895 44.5129 44.1036L44.8622 44.1767C45.0127 44.2089 45.1607 44.2586 45.3028 44.324L45.6386 44.4784C45.9128 44.6046 46.0633 44.846 46.1009 45.118L46.1296 45.3259L46.1579 45.5302C46.1701 45.6188 46.1922 45.6681 46.2074 45.6924L46.2905 45.8292L46.3777 45.9693C46.4066 46.0157 46.4554 46.0754 46.5341 46.1459L46.6903 46.2862L46.8462 46.4228C46.9122 46.4819 47.0038 46.5737 47.0597 46.6953C47.09 46.761 47.1182 46.8565 47.1099 46.9701C47.1008 47.092 47.0487 47.1995 46.9748 47.2822L46.9163 47.35L46.8995 47.3626C46.8989 47.3678 46.9018 47.374 46.9013 47.3806L46.8864 47.5531L46.875 47.7251C46.8627 47.892 46.8217 48.0538 46.7538 48.2066L46.6862 48.3627L46.6151 48.5191C46.5975 48.5585 46.5847 48.6097 46.5843 48.6786L46.5856 48.8675L46.5833 49.0568C46.5811 49.3401 46.4441 49.5837 46.1984 49.7328L46.0411 49.829L45.8802 49.9256C45.8062 49.9705 45.7477 50.0193 45.7021 50.0676L45.5873 50.1885L45.4729 50.313C45.3846 50.4065 45.2888 50.4955 45.188 50.5823L45.0544 50.6979L44.9173 50.8138C44.7434 50.9633 44.5331 51.0435 44.3048 51.0442L43.9485 51.0446C43.8812 51.0448 43.8154 51.057 43.7521 51.0794L43.5835 51.1367L43.4153 51.1977C43.1686 51.2847 42.9144 51.255 42.6949 51.1229L42.5395 51.0262L42.3809 50.9335C42.3294 50.9026 42.2841 50.8875 42.2411 50.8824L42.0683 50.8639L41.8987 50.8414C41.7481 50.8243 41.6003 50.7896 41.4554 50.738L41.2857 50.6791L41.1157 50.6167C40.9517 50.5583 40.7994 50.4751 40.6643 50.3651L40.5214 50.2489L40.3822 50.1324C40.2451 50.0207 40.1296 49.8871 40.0394 49.735L39.9468 49.5773L39.8506 49.42C39.75 49.2503 39.6957 49.063 39.6845 48.8663L39.661 48.4978C39.6556 48.4021 39.6433 48.312 39.6224 48.2291L39.5365 47.8889C39.4983 47.7372 39.4794 47.5824 39.4814 47.4256L39.4883 47.0685C39.4905 46.9111 39.5111 46.7558 39.5531 46.6037L39.6485 46.2594C39.6956 46.0891 39.7738 45.9297 39.8799 45.7883L39.9852 45.6466L40.0942 45.5044C40.1705 45.4029 40.2484 45.3029 40.329 45.2075L40.4427 45.0758L40.5528 44.9445C40.6829 44.7905 40.8487 44.6789 41.0387 44.6145L41.2073 44.5571L41.3723 44.5001C41.429 44.4809 41.4801 44.4525 41.5236 44.4154L41.6539 44.3038L41.7874 44.1882L41.9368 44.0856C42.0923 43.9998 42.2678 43.9679 42.4504 43.989L42.6268 44.0072L42.8036 44.029C42.8187 44.0304 42.8426 44.0267 42.8812 44.0064L43.0501 43.9163L43.2226 43.8258L43.4117 43.7554ZM43.4837 44.7369L43.3113 44.8274C43.1229 44.9265 42.9134 44.9745 42.6948 44.9491L42.518 44.9274L42.3704 44.9062L42.257 45.0052L42.1235 45.1207C41.9897 45.2349 41.8366 45.3219 41.6701 45.3784L41.5047 45.4318L41.3361 45.4891C41.3028 45.5004 41.2809 45.5175 41.2614 45.5405L41.1477 45.6722L41.038 45.8071C40.9692 45.8885 40.9009 45.973 40.8351 46.0607L40.7261 46.2028L40.6207 46.3446C40.5845 46.3929 40.5592 46.4464 40.5428 46.5053L40.4474 46.8497C40.4261 46.9265 40.4143 47.004 40.4132 47.0823L40.4098 47.2608L40.4096 47.4353C40.4085 47.5138 40.4148 47.5922 40.4333 47.6656L40.4759 47.8321L40.5189 48.0022C40.5549 48.1448 40.5774 48.2921 40.5861 48.4425L40.5982 48.6303L40.6063 48.8149C40.6093 48.8645 40.6249 48.9077 40.6492 48.9486L40.8344 49.264C40.8693 49.3228 40.9139 49.3714 40.9662 49.4141L41.1091 49.5302L41.2484 49.6468C41.3028 49.6911 41.3628 49.7224 41.4257 49.7448L41.5958 49.8073L41.7655 49.8662C41.8473 49.8953 41.9269 49.9128 42.0039 49.9216L42.1735 49.9441L42.3463 49.9626C42.5297 49.9837 42.7017 50.0443 42.8589 50.1388L43.0179 50.2352L43.1419 50.3096L43.2753 50.2632L43.4439 50.2058C43.6052 50.1489 43.7728 50.1185 43.9439 50.1179L44.122 50.1177L44.3038 50.1172C44.3076 50.1171 44.3102 50.1166 44.311 50.1164L44.3142 50.1125L44.4477 49.9969L44.5848 49.8809C44.6626 49.814 44.7349 49.746 44.8001 49.677L44.9149 49.556L45.0293 49.4315C45.1377 49.3168 45.2645 49.2186 45.4024 49.1349L45.5597 49.0387L45.6552 48.978L45.6578 48.8614L45.6601 48.6721C45.6613 48.49 45.695 48.312 45.7693 48.1445L45.8404 47.9881L45.908 47.8321C45.9322 47.7777 45.9471 47.7187 45.9517 47.6567L45.9631 47.4846L45.9784 47.3158C45.9854 47.2208 46.0026 47.0883 46.0619 46.9618L45.9179 46.8348C45.7905 46.7207 45.6777 46.5958 45.5918 46.4576L45.505 46.3211L45.4214 46.1806C45.3216 46.0201 45.2651 45.8385 45.2399 45.6539L45.2115 45.4496L45.1877 45.2885L45.0846 45.2409L44.9131 45.1641C44.8302 45.126 44.7486 45.0975 44.6681 45.0802L44.4934 45.0437L44.3224 45.0068C44.1574 44.9715 43.9992 44.9114 43.8529 44.8261L43.6943 44.7334L43.5937 44.6747L43.4837 44.7369Z" fill="#A6CC00"/>
<path d="M56.5881 43.9168C56.7268 43.8728 56.8725 43.8714 57.0142 43.9062L57.1667 43.9451L57.3219 43.9806C57.371 43.9927 57.4032 43.9906 57.4253 43.9851L57.5611 43.9499L57.7001 43.9173C57.805 43.8908 57.9152 43.8667 58.0295 43.8501L58.1818 43.8283L58.3371 43.8062C58.5065 43.7815 58.6675 43.8166 58.8046 43.9035L58.9333 44.0054L59.0419 44.1184L59.1027 44.1788C59.1927 44.1889 59.2716 44.2269 59.3321 44.2884L59.7837 44.4661L59.2692 44.8827L59.2494 44.8969C59.1533 44.9748 59.0485 44.9892 58.9798 44.9853C58.9163 44.9817 58.8684 44.9617 58.8429 44.9509C58.792 44.9292 58.7522 44.901 58.7333 44.8865C58.6903 44.8537 58.6461 44.8124 58.6064 44.7723L58.4947 44.6596L58.4072 44.5747L58.2939 44.5924L58.1416 44.6142C58.0507 44.6274 57.9659 44.645 57.8893 44.6644L57.7535 44.6996L57.6145 44.7321C57.455 44.7724 57.2944 44.768 57.1385 44.7297L56.9833 44.6942L56.8279 44.6557C56.8234 44.6546 56.8205 44.6538 56.8186 44.6536L56.6922 44.7212L56.5632 44.792C56.4701 44.8428 56.3742 44.8913 56.2781 44.9365L56.1455 45.0017L56.0095 45.0642C55.9466 45.0939 55.8874 45.1307 55.8329 45.1733L55.718 45.2639L55.6001 45.3549C55.5757 45.3742 55.5539 45.4002 55.5362 45.4402L55.4752 45.5829L55.4111 45.7258C55.347 45.8711 55.255 46.0002 55.1319 46.1031L55.02 46.1934L54.9084 46.2867C54.8841 46.307 54.866 46.3321 54.8528 46.3651L54.7972 46.5011L54.7418 46.6402C54.6711 46.8164 54.5361 46.9652 54.3911 47.0884L54.2206 47.2272L54.1722 47.2867C54.0295 47.4447 53.7849 47.458 53.6268 47.3156C53.4687 47.173 53.4554 46.9284 53.5978 46.7702L53.666 46.6965L53.6821 46.6767L53.7015 46.6595L53.8912 46.5006C53.9411 46.4582 53.9761 46.423 53.9985 46.3956C54.0212 46.3679 54.0275 46.3532 54.0275 46.3532L54.0802 46.2175L54.1355 46.0785C54.1953 45.9287 54.2898 45.799 54.4141 45.6953L54.6373 45.5087C54.6624 45.4875 54.6867 45.458 54.7063 45.4137L54.7673 45.271L54.8314 45.1281C54.8975 44.9785 54.9952 44.8482 55.1253 44.7463L55.2402 44.6557L55.3581 44.5648C55.4584 44.4863 55.5676 44.4189 55.6829 44.3647L55.9488 44.2403C56.0312 44.2015 56.1136 44.1586 56.1934 44.1151L56.4515 43.9733L56.5881 43.9168ZM58.9406 44.2228C58.8918 44.2309 58.8373 44.2487 58.7836 44.2874L58.9013 44.4298L58.9406 44.2228Z" fill="#A6CC00"/>
<path d="M61.9375 26.793C63.9915 27.5074 68.5816 30.5437 70.5105 36.9734" stroke="#E2FF66" stroke-width="0.535814" stroke-linecap="round"/>
<path d="M36.0859 30.418C34.1851 31.4743 30.1842 35.2533 29.3874 41.9188" stroke="#E2FF66" stroke-width="0.535814" stroke-linecap="round"/>
<mask id="path-27-outside-1_770_7342" maskUnits="userSpaceOnUse" x="7.78516" y="64.9766" width="87" height="24" fill="black">
<rect fill="white" x="7.78516" y="64.9766" width="87" height="24"/>
<path d="M20.4671 80.8886V80.0747V80.0747C19.6103 80.0747 18.9157 79.3801 18.9157 78.5233V77.7348C18.9157 76.4426 19.9633 75.395 21.2556 75.395H22.5908C24.6205 75.395 26.2659 77.0404 26.2659 79.0701V81.4312C26.2659 83.9372 24.7271 86.2698 22.2551 86.6813C21.1105 86.8719 19.9465 86.9671 18.7631 86.9671C16.9828 86.9671 15.5076 86.7552 14.3377 86.3313C13.1847 85.9074 12.2691 85.28 11.5909 84.4492C10.9127 83.6015 10.4379 82.5587 10.1667 81.3209C9.91232 80.0662 9.78516 78.608 9.78516 76.9464C9.78516 75.183 9.94623 73.674 10.2684 72.4193C10.5905 71.1476 11.1246 70.1133 11.8707 69.3164C12.6167 68.5026 13.6086 67.9091 14.8464 67.5361C16.0841 67.1631 17.6186 66.9766 19.4498 66.9766C19.8567 66.9766 20.3315 67.002 20.8741 67.0529C21.4336 67.0868 21.9931 67.1461 22.5527 67.2309C23.1122 67.2987 23.6378 67.3835 24.1295 67.4852C24.6382 67.57 25.0451 67.6633 25.3503 67.765L24.4347 72.4447C23.6039 72.3091 22.8155 72.2073 22.0694 72.1395C21.3234 72.0547 20.6282 72.0124 19.9839 72.0124C18.6444 72.0124 17.7034 72.1141 17.1608 72.3176C16.6182 72.521 16.3469 72.9279 16.3469 73.5383V80.1764C16.3469 81.2861 17.2465 82.1857 18.3562 82.1857V82.1857C19.1022 82.1857 19.6363 82.1094 19.9585 81.9568C20.2976 81.7872 20.4671 81.4311 20.4671 80.8886Z"/>
<path d="M28.0902 76.9973C28.0902 75.2509 28.2343 73.7503 28.5225 72.4956C28.8277 71.2239 29.3279 70.1812 30.0231 69.3673C30.7352 68.5534 31.6678 67.9515 32.8208 67.5615C33.9737 67.1716 35.398 66.9766 37.0935 66.9766C38.8061 66.9766 40.2303 67.1716 41.3663 67.5615C42.5193 67.9515 43.4434 68.5534 44.1386 69.3673C44.8507 70.1812 45.3509 71.2239 45.6391 72.4956C45.9443 73.7503 46.0969 75.2509 46.0969 76.9973C46.0969 78.6589 45.9613 80.1171 45.69 81.3718C45.4187 82.6096 44.9355 83.6438 44.2403 84.4747C43.5621 85.3055 42.638 85.9328 41.4681 86.3567C40.3151 86.7637 38.8569 86.9671 37.0935 86.9671C35.3302 86.9671 33.8635 86.7637 32.6936 86.3567C31.5406 85.9328 30.6165 85.3055 29.9214 84.4747C29.2431 83.6438 28.7684 82.6096 28.4971 81.3718C28.2258 80.1171 28.0902 78.6589 28.0902 76.9973ZM34.652 73.8181V79.21C34.652 80.6146 35.7906 81.7533 37.1953 81.7533V81.7533C38.0431 81.7533 38.645 81.66 39.001 81.4735C39.3741 81.2701 39.5606 80.8207 39.5606 80.1256V74.7591C39.5606 73.3405 38.4105 72.1904 36.9918 72.1904V72.1904C36.1779 72.1904 35.5845 72.2921 35.2115 72.4956C34.8385 72.6821 34.652 73.1229 34.652 73.8181Z"/>
<path d="M47.3141 76.9973C47.3141 75.2509 47.4583 73.7503 47.7465 72.4956C48.0517 71.2239 48.5519 70.1812 49.2471 69.3673C49.9592 68.5534 50.8918 67.9515 52.0447 67.5615C53.1977 67.1716 54.622 66.9766 56.3175 66.9766C58.03 66.9766 59.4543 67.1716 60.5903 67.5615C61.7433 67.9515 62.6674 68.5534 63.3625 69.3673C64.0747 70.1812 64.5749 71.2239 64.8631 72.4956C65.1683 73.7503 65.3209 75.2509 65.3209 76.9973C65.3209 78.6589 65.1853 80.1171 64.914 81.3718C64.6427 82.6096 64.1595 83.6438 63.4643 84.4747C62.7861 85.3055 61.862 85.9328 60.6921 86.3567C59.5391 86.7637 58.0809 86.9671 56.3175 86.9671C54.5542 86.9671 53.0875 86.7637 51.9176 86.3567C50.7646 85.9328 49.8405 85.3055 49.1453 84.4747C48.4671 83.6438 47.9924 82.6096 47.7211 81.3718C47.4498 80.1171 47.3141 78.6589 47.3141 76.9973ZM53.8759 73.8181V79.21C53.8759 80.6146 55.0146 81.7533 56.4193 81.7533V81.7533C57.267 81.7533 57.869 81.66 58.225 81.4735C58.598 81.2701 58.7846 80.8207 58.7846 80.1256V74.7591C58.7846 73.3405 57.6345 72.1904 56.2158 72.1904V72.1904C55.4019 72.1904 54.8085 72.2921 54.4355 72.4956C54.0624 72.6821 53.8759 73.1229 53.8759 73.8181Z"/>
<path d="M75.9993 86.5093H67.4537V67.4344H75.9993C77.7118 67.4344 79.1446 67.6124 80.2975 67.9685C81.4505 68.3076 82.3746 68.8586 83.0698 69.6216C83.7649 70.3846 84.2567 71.368 84.5449 72.5719C84.8501 73.7757 85.0027 75.2339 85.0027 76.9464C85.0027 78.6589 84.8501 80.1256 84.5449 81.3464C84.2567 82.5502 83.7649 83.5336 83.0698 84.2966C82.3746 85.0596 81.4505 85.6192 80.2975 85.9752C79.1446 86.3313 77.7118 86.5093 75.9993 86.5093ZM76.101 72.3176H74.6174C74.0322 72.3176 73.5577 72.792 73.5577 73.3773V80.5664C73.5577 81.1517 74.0322 81.6261 74.6174 81.6261H76.101C76.9488 81.6261 77.5507 81.5329 77.9068 81.3464C78.2798 81.1429 78.4663 80.6936 78.4663 79.9984V73.9453C78.4663 73.2501 78.2798 72.8093 77.9068 72.6228C77.5507 72.4193 76.9488 72.3176 76.101 72.3176Z"/>
<path d="M87.2768 76.336L87.1496 67.4344H91.9311L91.8039 76.336L91.5496 80.7105H87.5311L87.2768 76.336ZM89.5404 81.9822C90.2186 81.9822 90.7781 82.2026 91.2189 82.6435C91.6767 83.0843 91.9056 83.6608 91.9056 84.3729C91.9056 85.0851 91.6767 85.6615 91.2189 86.1024C90.7781 86.5432 90.2186 86.7637 89.5404 86.7637C88.8621 86.7637 88.2941 86.5348 87.8363 86.077C87.3785 85.6192 87.1496 85.0511 87.1496 84.3729C87.1496 83.6608 87.3785 83.0843 87.8363 82.6435C88.2941 82.2026 88.8621 81.9822 89.5404 81.9822Z"/>
</mask>
<path d="M20.4671 80.8886V80.0747V80.0747C19.6103 80.0747 18.9157 79.3801 18.9157 78.5233V77.7348C18.9157 76.4426 19.9633 75.395 21.2556 75.395H22.5908C24.6205 75.395 26.2659 77.0404 26.2659 79.0701V81.4312C26.2659 83.9372 24.7271 86.2698 22.2551 86.6813C21.1105 86.8719 19.9465 86.9671 18.7631 86.9671C16.9828 86.9671 15.5076 86.7552 14.3377 86.3313C13.1847 85.9074 12.2691 85.28 11.5909 84.4492C10.9127 83.6015 10.4379 82.5587 10.1667 81.3209C9.91232 80.0662 9.78516 78.608 9.78516 76.9464C9.78516 75.183 9.94623 73.674 10.2684 72.4193C10.5905 71.1476 11.1246 70.1133 11.8707 69.3164C12.6167 68.5026 13.6086 67.9091 14.8464 67.5361C16.0841 67.1631 17.6186 66.9766 19.4498 66.9766C19.8567 66.9766 20.3315 67.002 20.8741 67.0529C21.4336 67.0868 21.9931 67.1461 22.5527 67.2309C23.1122 67.2987 23.6378 67.3835 24.1295 67.4852C24.6382 67.57 25.0451 67.6633 25.3503 67.765L24.4347 72.4447C23.6039 72.3091 22.8155 72.2073 22.0694 72.1395C21.3234 72.0547 20.6282 72.0124 19.9839 72.0124C18.6444 72.0124 17.7034 72.1141 17.1608 72.3176C16.6182 72.521 16.3469 72.9279 16.3469 73.5383V80.1764C16.3469 81.2861 17.2465 82.1857 18.3562 82.1857V82.1857C19.1022 82.1857 19.6363 82.1094 19.9585 81.9568C20.2976 81.7872 20.4671 81.4311 20.4671 80.8886Z" fill="#C5F509"/>
<path d="M28.0902 76.9973C28.0902 75.2509 28.2343 73.7503 28.5225 72.4956C28.8277 71.2239 29.3279 70.1812 30.0231 69.3673C30.7352 68.5534 31.6678 67.9515 32.8208 67.5615C33.9737 67.1716 35.398 66.9766 37.0935 66.9766C38.8061 66.9766 40.2303 67.1716 41.3663 67.5615C42.5193 67.9515 43.4434 68.5534 44.1386 69.3673C44.8507 70.1812 45.3509 71.2239 45.6391 72.4956C45.9443 73.7503 46.0969 75.2509 46.0969 76.9973C46.0969 78.6589 45.9613 80.1171 45.69 81.3718C45.4187 82.6096 44.9355 83.6438 44.2403 84.4747C43.5621 85.3055 42.638 85.9328 41.4681 86.3567C40.3151 86.7637 38.8569 86.9671 37.0935 86.9671C35.3302 86.9671 33.8635 86.7637 32.6936 86.3567C31.5406 85.9328 30.6165 85.3055 29.9214 84.4747C29.2431 83.6438 28.7684 82.6096 28.4971 81.3718C28.2258 80.1171 28.0902 78.6589 28.0902 76.9973ZM34.652 73.8181V79.21C34.652 80.6146 35.7906 81.7533 37.1953 81.7533V81.7533C38.0431 81.7533 38.645 81.66 39.001 81.4735C39.3741 81.2701 39.5606 80.8207 39.5606 80.1256V74.7591C39.5606 73.3405 38.4105 72.1904 36.9918 72.1904V72.1904C36.1779 72.1904 35.5845 72.2921 35.2115 72.4956C34.8385 72.6821 34.652 73.1229 34.652 73.8181Z" fill="#C5F509"/>
<path d="M47.3141 76.9973C47.3141 75.2509 47.4583 73.7503 47.7465 72.4956C48.0517 71.2239 48.5519 70.1812 49.2471 69.3673C49.9592 68.5534 50.8918 67.9515 52.0447 67.5615C53.1977 67.1716 54.622 66.9766 56.3175 66.9766C58.03 66.9766 59.4543 67.1716 60.5903 67.5615C61.7433 67.9515 62.6674 68.5534 63.3625 69.3673C64.0747 70.1812 64.5749 71.2239 64.8631 72.4956C65.1683 73.7503 65.3209 75.2509 65.3209 76.9973C65.3209 78.6589 65.1853 80.1171 64.914 81.3718C64.6427 82.6096 64.1595 83.6438 63.4643 84.4747C62.7861 85.3055 61.862 85.9328 60.6921 86.3567C59.5391 86.7637 58.0809 86.9671 56.3175 86.9671C54.5542 86.9671 53.0875 86.7637 51.9176 86.3567C50.7646 85.9328 49.8405 85.3055 49.1453 84.4747C48.4671 83.6438 47.9924 82.6096 47.7211 81.3718C47.4498 80.1171 47.3141 78.6589 47.3141 76.9973ZM53.8759 73.8181V79.21C53.8759 80.6146 55.0146 81.7533 56.4193 81.7533V81.7533C57.267 81.7533 57.869 81.66 58.225 81.4735C58.598 81.2701 58.7846 80.8207 58.7846 80.1256V74.7591C58.7846 73.3405 57.6345 72.1904 56.2158 72.1904V72.1904C55.4019 72.1904 54.8085 72.2921 54.4355 72.4956C54.0624 72.6821 53.8759 73.1229 53.8759 73.8181Z" fill="#C5F509"/>
<path d="M75.9993 86.5093H67.4537V67.4344H75.9993C77.7118 67.4344 79.1446 67.6124 80.2975 67.9685C81.4505 68.3076 82.3746 68.8586 83.0698 69.6216C83.7649 70.3846 84.2567 71.368 84.5449 72.5719C84.8501 73.7757 85.0027 75.2339 85.0027 76.9464C85.0027 78.6589 84.8501 80.1256 84.5449 81.3464C84.2567 82.5502 83.7649 83.5336 83.0698 84.2966C82.3746 85.0596 81.4505 85.6192 80.2975 85.9752C79.1446 86.3313 77.7118 86.5093 75.9993 86.5093ZM76.101 72.3176H74.6174C74.0322 72.3176 73.5577 72.792 73.5577 73.3773V80.5664C73.5577 81.1517 74.0322 81.6261 74.6174 81.6261H76.101C76.9488 81.6261 77.5507 81.5329 77.9068 81.3464C78.2798 81.1429 78.4663 80.6936 78.4663 79.9984V73.9453C78.4663 73.2501 78.2798 72.8093 77.9068 72.6228C77.5507 72.4193 76.9488 72.3176 76.101 72.3176Z" fill="#C5F509"/>
<path d="M87.2768 76.336L87.1496 67.4344H91.9311L91.8039 76.336L91.5496 80.7105H87.5311L87.2768 76.336ZM89.5404 81.9822C90.2186 81.9822 90.7781 82.2026 91.2189 82.6435C91.6767 83.0843 91.9056 83.6608 91.9056 84.3729C91.9056 85.0851 91.6767 85.6615 91.2189 86.1024C90.7781 86.5432 90.2186 86.7637 89.5404 86.7637C88.8621 86.7637 88.2941 86.5348 87.8363 86.077C87.3785 85.6192 87.1496 85.0511 87.1496 84.3729C87.1496 83.6608 87.3785 83.0843 87.8363 82.6435C88.2941 82.2026 88.8621 81.9822 89.5404 81.9822Z" fill="#C5F509"/>
<path d="M20.4671 80.8886V80.0747V80.0747C19.6103 80.0747 18.9157 79.3801 18.9157 78.5233V77.7348C18.9157 76.4426 19.9633 75.395 21.2556 75.395H22.5908C24.6205 75.395 26.2659 77.0404 26.2659 79.0701V81.4312C26.2659 83.9372 24.7271 86.2698 22.2551 86.6813C21.1105 86.8719 19.9465 86.9671 18.7631 86.9671C16.9828 86.9671 15.5076 86.7552 14.3377 86.3313C13.1847 85.9074 12.2691 85.28 11.5909 84.4492C10.9127 83.6015 10.4379 82.5587 10.1667 81.3209C9.91232 80.0662 9.78516 78.608 9.78516 76.9464C9.78516 75.183 9.94623 73.674 10.2684 72.4193C10.5905 71.1476 11.1246 70.1133 11.8707 69.3164C12.6167 68.5026 13.6086 67.9091 14.8464 67.5361C16.0841 67.1631 17.6186 66.9766 19.4498 66.9766C19.8567 66.9766 20.3315 67.002 20.8741 67.0529C21.4336 67.0868 21.9931 67.1461 22.5527 67.2309C23.1122 67.2987 23.6378 67.3835 24.1295 67.4852C24.6382 67.57 25.0451 67.6633 25.3503 67.765L24.4347 72.4447C23.6039 72.3091 22.8155 72.2073 22.0694 72.1395C21.3234 72.0547 20.6282 72.0124 19.9839 72.0124C18.6444 72.0124 17.7034 72.1141 17.1608 72.3176C16.6182 72.521 16.3469 72.9279 16.3469 73.5383V80.1764C16.3469 81.2861 17.2465 82.1857 18.3562 82.1857V82.1857C19.1022 82.1857 19.6363 82.1094 19.9585 81.9568C20.2976 81.7872 20.4671 81.4311 20.4671 80.8886Z" stroke="white" stroke-width="3.73031" mask="url(#path-27-outside-1_770_7342)"/>
<path d="M28.0902 76.9973C28.0902 75.2509 28.2343 73.7503 28.5225 72.4956C28.8277 71.2239 29.3279 70.1812 30.0231 69.3673C30.7352 68.5534 31.6678 67.9515 32.8208 67.5615C33.9737 67.1716 35.398 66.9766 37.0935 66.9766C38.8061 66.9766 40.2303 67.1716 41.3663 67.5615C42.5193 67.9515 43.4434 68.5534 44.1386 69.3673C44.8507 70.1812 45.3509 71.2239 45.6391 72.4956C45.9443 73.7503 46.0969 75.2509 46.0969 76.9973C46.0969 78.6589 45.9613 80.1171 45.69 81.3718C45.4187 82.6096 44.9355 83.6438 44.2403 84.4747C43.5621 85.3055 42.638 85.9328 41.4681 86.3567C40.3151 86.7637 38.8569 86.9671 37.0935 86.9671C35.3302 86.9671 33.8635 86.7637 32.6936 86.3567C31.5406 85.9328 30.6165 85.3055 29.9214 84.4747C29.2431 83.6438 28.7684 82.6096 28.4971 81.3718C28.2258 80.1171 28.0902 78.6589 28.0902 76.9973ZM34.652 73.8181V79.21C34.652 80.6146 35.7906 81.7533 37.1953 81.7533V81.7533C38.0431 81.7533 38.645 81.66 39.001 81.4735C39.3741 81.2701 39.5606 80.8207 39.5606 80.1256V74.7591C39.5606 73.3405 38.4105 72.1904 36.9918 72.1904V72.1904C36.1779 72.1904 35.5845 72.2921 35.2115 72.4956C34.8385 72.6821 34.652 73.1229 34.652 73.8181Z" stroke="white" stroke-width="3.73031" mask="url(#path-27-outside-1_770_7342)"/>
<path d="M47.3141 76.9973C47.3141 75.2509 47.4583 73.7503 47.7465 72.4956C48.0517 71.2239 48.5519 70.1812 49.2471 69.3673C49.9592 68.5534 50.8918 67.9515 52.0447 67.5615C53.1977 67.1716 54.622 66.9766 56.3175 66.9766C58.03 66.9766 59.4543 67.1716 60.5903 67.5615C61.7433 67.9515 62.6674 68.5534 63.3625 69.3673C64.0747 70.1812 64.5749 71.2239 64.8631 72.4956C65.1683 73.7503 65.3209 75.2509 65.3209 76.9973C65.3209 78.6589 65.1853 80.1171 64.914 81.3718C64.6427 82.6096 64.1595 83.6438 63.4643 84.4747C62.7861 85.3055 61.862 85.9328 60.6921 86.3567C59.5391 86.7637 58.0809 86.9671 56.3175 86.9671C54.5542 86.9671 53.0875 86.7637 51.9176 86.3567C50.7646 85.9328 49.8405 85.3055 49.1453 84.4747C48.4671 83.6438 47.9924 82.6096 47.7211 81.3718C47.4498 80.1171 47.3141 78.6589 47.3141 76.9973ZM53.8759 73.8181V79.21C53.8759 80.6146 55.0146 81.7533 56.4193 81.7533V81.7533C57.267 81.7533 57.869 81.66 58.225 81.4735C58.598 81.2701 58.7846 80.8207 58.7846 80.1256V74.7591C58.7846 73.3405 57.6345 72.1904 56.2158 72.1904V72.1904C55.4019 72.1904 54.8085 72.2921 54.4355 72.4956C54.0624 72.6821 53.8759 73.1229 53.8759 73.8181Z" stroke="white" stroke-width="3.73031" mask="url(#path-27-outside-1_770_7342)"/>
<path d="M75.9993 86.5093H67.4537V67.4344H75.9993C77.7118 67.4344 79.1446 67.6124 80.2975 67.9685C81.4505 68.3076 82.3746 68.8586 83.0698 69.6216C83.7649 70.3846 84.2567 71.368 84.5449 72.5719C84.8501 73.7757 85.0027 75.2339 85.0027 76.9464C85.0027 78.6589 84.8501 80.1256 84.5449 81.3464C84.2567 82.5502 83.7649 83.5336 83.0698 84.2966C82.3746 85.0596 81.4505 85.6192 80.2975 85.9752C79.1446 86.3313 77.7118 86.5093 75.9993 86.5093ZM76.101 72.3176H74.6174C74.0322 72.3176 73.5577 72.792 73.5577 73.3773V80.5664C73.5577 81.1517 74.0322 81.6261 74.6174 81.6261H76.101C76.9488 81.6261 77.5507 81.5329 77.9068 81.3464C78.2798 81.1429 78.4663 80.6936 78.4663 79.9984V73.9453C78.4663 73.2501 78.2798 72.8093 77.9068 72.6228C77.5507 72.4193 76.9488 72.3176 76.101 72.3176Z" stroke="white" stroke-width="3.73031" mask="url(#path-27-outside-1_770_7342)"/>
<path d="M87.2768 76.336L87.1496 67.4344H91.9311L91.8039 76.336L91.5496 80.7105H87.5311L87.2768 76.336ZM89.5404 81.9822C90.2186 81.9822 90.7781 82.2026 91.2189 82.6435C91.6767 83.0843 91.9056 83.6608 91.9056 84.3729C91.9056 85.0851 91.6767 85.6615 91.2189 86.1024C90.7781 86.5432 90.2186 86.7637 89.5404 86.7637C88.8621 86.7637 88.2941 86.5348 87.8363 86.077C87.3785 85.6192 87.1496 85.0511 87.1496 84.3729C87.1496 83.6608 87.3785 83.0843 87.8363 82.6435C88.2941 82.2026 88.8621 81.9822 89.5404 81.9822Z" stroke="white" stroke-width="3.73031" mask="url(#path-27-outside-1_770_7342)"/>
</g>
</g>
<defs>
<filter id="filter0_d_770_7342" x="0.459303" y="-4.67644" width="100.824" height="108.137" filterUnits="userSpaceOnUse" color-interpolation-filters="sRGB">
<feFlood flood-opacity="0" result="BackgroundImageFix"/>
<feColorMatrix in="SourceAlpha" type="matrix" values="0 0 0 0 0 0 0 0 0 0 0 0 0 0 0 0 0 0 127 0" result="hardAlpha"/>
<feOffset/>
<feGaussianBlur stdDeviation="3.73031"/>
<feComposite in2="hardAlpha" operator="out"/>
<feColorMatrix type="matrix" values="0 0 0 0 0 0 0 0 0 0 0 0 0 0 0 0 0 0 0.25 0"/>
<feBlend mode="normal" in2="BackgroundImageFix" result="effect1_dropShadow_770_7342"/>
<feBlend mode="normal" in="SourceGraphic" in2="effect1_dropShadow_770_7342" result="shape"/>
</filter>
<clipPath id="clip0_770_7342">
<rect width="100" height="100" fill="white"/>
</clipPath>
</defs>
</svg>
