<svg width="10" height="11" viewBox="0 0 10 11" fill="none" xmlns="http://www.w3.org/2000/svg">
<g clip-path="url(#clip0_1308_6152)">
<path d="M7.91667 2.16667H7.705L6.795 0.986667C6.67772 0.835753 6.52763 0.713507 6.35611 0.629189C6.18459 0.544871 5.99613 0.500693 5.805 0.5L4.195 0.5C4.00387 0.500693 3.81541 0.544871 3.64389 0.629189C3.47237 0.713507 3.32228 0.835753 3.205 0.986667L2.295 2.16667H2.08333C1.531 2.16733 1.00148 2.38703 0.610925 2.77759C0.220367 3.16815 0.000661607 3.69767 0 4.25L0 8.41667C0.000661607 8.969 0.220367 9.49852 0.610925 9.88908C1.00148 10.2796 1.531 10.4993 2.08333 10.5H7.91667C8.469 10.4993 8.99852 10.2796 9.38908 9.88908C9.77963 9.49852 9.99934 8.969 10 8.41667V4.25C9.99934 3.69767 9.77963 3.16815 9.38908 2.77759C8.99852 2.38703 8.469 2.16733 7.91667 2.16667ZM3.865 1.49583C3.90403 1.44544 3.95404 1.40461 4.01122 1.37645C4.06841 1.34829 4.13126 1.33355 4.195 1.33333H5.805C5.86873 1.33361 5.93156 1.34838 5.98874 1.37654C6.04591 1.40469 6.09593 1.44549 6.135 1.49583L6.6525 2.16667H3.3475L3.865 1.49583ZM9.16667 8.41667C9.16667 8.74819 9.03497 9.06613 8.80055 9.30055C8.56613 9.53497 8.24819 9.66667 7.91667 9.66667H2.08333C1.75181 9.66667 1.43387 9.53497 1.19945 9.30055C0.965029 9.06613 0.833333 8.74819 0.833333 8.41667V4.25C0.833333 3.91848 0.965029 3.60054 1.19945 3.36612C1.43387 3.1317 1.75181 3 2.08333 3H7.91667C8.24819 3 8.56613 3.1317 8.80055 3.36612C9.03497 3.60054 9.16667 3.91848 9.16667 4.25V8.41667Z" fill="#A6CC00"/>
<path d="M5 3.8335C4.50555 3.8335 4.0222 3.98012 3.61108 4.25482C3.19995 4.52953 2.87952 4.91997 2.6903 5.37679C2.50108 5.8336 2.45157 6.33627 2.54804 6.82122C2.6445 7.30617 2.8826 7.75163 3.23223 8.10126C3.58187 8.45089 4.02732 8.689 4.51228 8.78546C4.99723 8.88192 5.49989 8.83241 5.95671 8.6432C6.41353 8.45398 6.80397 8.13354 7.07868 7.72242C7.35338 7.3113 7.5 6.82795 7.5 6.3335C7.49934 5.67066 7.23574 5.03516 6.76704 4.56646C6.29834 4.09776 5.66284 3.83416 5 3.8335ZM5 8.00016C4.67037 8.00016 4.34813 7.90241 4.07405 7.71928C3.79997 7.53614 3.58635 7.27585 3.4602 6.9713C3.33406 6.66676 3.30105 6.33165 3.36536 6.00835C3.42967 5.68504 3.5884 5.38807 3.82149 5.15498C4.05458 4.9219 4.35155 4.76316 4.67485 4.69885C4.99815 4.63455 5.33326 4.66755 5.63781 4.7937C5.94235 4.91984 6.20265 5.13346 6.38578 5.40755C6.56892 5.68163 6.66667 6.00386 6.66667 6.3335C6.66667 6.77552 6.49107 7.19945 6.17851 7.51201C5.86595 7.82457 5.44203 8.00016 5 8.00016Z" fill="#A6CC00"/>
</g>
<defs>
<clipPath id="clip0_1308_6152">
<rect width="10" height="10" fill="white" transform="translate(0 0.5)"/>
</clipPath>
</defs>
</svg>
